<svg width="1em" height="1em" viewBox="0 0 20 20" fill="none" xmlns="http://www.w3.org/2000/svg">
<path d="M15.5905 10.6359C15.6104 9.09202 16.4396 7.63115 17.7549 6.82249C16.9251 5.6374 15.5352 4.88602 14.0892 4.84078C12.5469 4.67889 11.0518 5.76366 10.2658 5.76366C9.46471 5.76366 8.25465 4.85685 6.95163 4.88366C5.25319 4.93853 3.66982 5.90417 2.84349 7.38906C1.06722 10.4644 2.39216 14.9841 4.09368 17.47C4.94499 18.6873 5.93992 20.047 7.24177 19.9988C8.51571 19.9459 8.99151 19.1864 10.5293 19.1864C12.0527 19.1864 12.4991 19.9988 13.8274 19.9681C15.1944 19.9459 16.0557 18.7454 16.8771 17.5166C17.4888 16.6493 17.9594 15.6907 18.2717 14.6763C16.6652 13.9969 15.5924 12.3802 15.5905 10.6359Z" fill="currentColor"/>
<path d="M13.0816 3.20595C13.827 2.31119 14.1942 1.16113 14.1053 0C12.9666 0.1196 11.9147 0.663834 11.1593 1.52426C10.4206 2.36494 10.0362 3.49477 10.1088 4.61152C11.248 4.62325 12.3678 4.09376 13.0816 3.20595Z" fill="currentColor"/>
</svg>

