<svg width="24" height="24" viewBox="0 0 24 24" xmlns="http://www.w3.org/2000/svg">
<path d="M18.9225 5.2667C17.6558 4.67621 16.2844 4.24762 14.8557 4C14.8432 3.9996 14.8308 4.00195 14.8192 4.00688C14.8077 4.01182 14.7974 4.01922 14.7891 4.02857C14.6176 4.34286 14.4176 4.7524 14.2843 5.06669C12.769 4.83812 11.228 4.83812 9.71275 5.06669C9.57941 4.74288 9.37941 4.34286 9.19845 4.02857C9.18893 4.00952 9.16035 4 9.13178 4C7.70317 4.24762 6.34123 4.67621 5.065 5.2667C5.05548 5.2667 5.04595 5.27622 5.03643 5.28575C2.44588 9.16204 1.73158 12.9336 2.08397 16.667C2.08397 16.6861 2.09349 16.7051 2.11254 16.7146C3.82687 17.9718 5.47454 18.7337 7.10315 19.2385C7.13173 19.248 7.1603 19.2385 7.16982 19.2195C7.55078 18.6956 7.89365 18.1432 8.1889 17.5623C8.20795 17.5242 8.1889 17.4861 8.1508 17.4766C7.60793 17.267 7.09363 17.0194 6.58885 16.7337C6.55076 16.7146 6.55076 16.6575 6.57933 16.6289C6.68409 16.5527 6.78886 16.467 6.89362 16.3908C6.91267 16.3718 6.94124 16.3718 6.96029 16.3813C10.2366 17.8766 13.77 17.8766 17.0082 16.3813C17.0272 16.3718 17.0558 16.3718 17.0749 16.3908C17.1796 16.4765 17.2844 16.5527 17.3891 16.6384C17.4272 16.667 17.4272 16.7242 17.3796 16.7432C16.8844 17.0384 16.3605 17.2766 15.8177 17.4861C15.7796 17.4956 15.7701 17.5432 15.7796 17.5718C16.0844 18.1528 16.4272 18.7052 16.7987 19.229C16.8272 19.2385 16.8558 19.248 16.8844 19.2385C18.5225 18.7337 20.1702 17.9718 21.8845 16.7146C21.9036 16.7051 21.9131 16.6861 21.9131 16.667C22.3321 12.3526 21.2178 8.60965 18.9606 5.28575C18.9511 5.27622 18.9416 5.2667 18.9225 5.2667ZM8.68415 14.3908C7.70317 14.3908 6.8841 13.486 6.8841 12.3717C6.8841 11.2573 7.68412 10.3526 8.68415 10.3526C9.6937 10.3526 10.4937 11.2669 10.4842 12.3717C10.4842 13.486 9.68418 14.3908 8.68415 14.3908ZM15.3224 14.3908C14.3414 14.3908 13.5224 13.486 13.5224 12.3717C13.5224 11.2573 14.3224 10.3526 15.3224 10.3526C16.332 10.3526 17.132 11.2669 17.1225 12.3717C17.1225 13.486 16.332 14.3908 15.3224 14.3908Z" fill="currentColor"/>
</svg>