<svg width="32" height="32" viewBox="0 0 32 32" fill="none" xmlns="http://www.w3.org/2000/svg">
<rect width="32" height="32" rx="16" fill="#EDFDF6"/>
<path fill-rule="evenodd" clip-rule="evenodd" d="M24.3337 19.3987V12.5904C24.3337 9.6487 22.4412 7.66536 19.617 7.66536H12.392C9.56699 7.66536 7.66699 9.6487 7.66699 12.5904V19.3987C7.66699 22.3487 9.56699 24.332 12.392 24.332H19.617C22.4412 24.332 24.3337 22.3487 24.3337 19.3987ZM16.6671 19.7487H17.0004C17.6192 19.7487 18.2127 19.5182 18.6503 19.108C19.0879 18.6978 19.3337 18.1414 19.3337 17.5612C19.3337 16.981 19.0879 16.4246 18.6503 16.0144C18.2127 15.6042 17.6192 15.3737 17.0004 15.3737H15.0004C14.7352 15.3737 14.4808 15.2749 14.2933 15.0991C14.1058 14.9233 14.0004 14.6848 14.0004 14.4362C14.0004 14.1876 14.1058 13.9491 14.2933 13.7733C14.4808 13.5975 14.7352 13.4987 15.0004 13.4987H18.0004C18.1772 13.4987 18.3468 13.4328 18.4718 13.3156C18.5968 13.1984 18.6671 13.0395 18.6671 12.8737C18.6671 12.7079 18.5968 12.549 18.4718 12.4318C18.3468 12.3145 18.1772 12.2487 18.0004 12.2487H16.6671V11.6237C16.6671 11.4579 16.5968 11.299 16.4718 11.1818C16.3468 11.0645 16.1772 10.9987 16.0004 10.9987C15.8236 10.9987 15.654 11.0645 15.529 11.1818C15.404 11.299 15.3337 11.4579 15.3337 11.6237V12.2487H15.0004C14.3816 12.2487 13.7881 12.4792 13.3505 12.8894C12.9129 13.2996 12.6671 13.856 12.6671 14.4362C12.6671 15.0164 12.9129 15.5728 13.3505 15.983C13.7881 16.3932 14.3816 16.6237 15.0004 16.6237H17.0004C17.2656 16.6237 17.52 16.7225 17.7075 16.8983C17.8951 17.0741 18.0004 17.3126 18.0004 17.5612C18.0004 17.8098 17.8951 18.0483 17.7075 18.2241C17.52 18.3999 17.2656 18.4987 17.0004 18.4987H14.0004C13.8236 18.4987 13.654 18.5645 13.529 18.6818C13.404 18.799 13.3337 18.9579 13.3337 19.1237C13.3337 19.2895 13.404 19.4484 13.529 19.5656C13.654 19.6828 13.8236 19.7487 14.0004 19.7487H15.3337V20.3737C15.3337 20.5395 15.404 20.6984 15.529 20.8156C15.654 20.9328 15.8236 20.9987 16.0004 20.9987C16.1772 20.9987 16.3468 20.9328 16.4718 20.8156C16.5968 20.6984 16.6671 20.5395 16.6671 20.3737V19.7487Z" fill="#088752"/>
</svg>
