<svg width="49" height="48" viewBox="0 0 49 48" fill="none" xmlns="http://www.w3.org/2000/svg">
<g clip-path="url(#clip0_7953_68378)">
<path d="M37.9463 17.6273C42.1634 17.6273 45.583 14.2222 45.583 10.022C45.583 5.82305 42.1634 2.41797 37.9463 2.41797C33.7292 2.41797 30.3121 5.82305 30.3121 10.022C30.3121 11.9674 31.2002 13.3824 31.2002 13.3824L21.9661 22.5778C21.5517 22.9911 20.9717 24.0641 21.9661 25.0549L23.0319 26.1158C23.4463 26.4698 24.4879 26.9653 25.3398 26.1158L26.5844 24.8785C27.8265 26.1158 29.2475 25.4089 29.7804 24.7008C30.6673 23.4635 29.6028 22.225 29.6028 22.225L29.958 21.8709C31.6618 23.5686 33.1541 22.579 33.6869 21.8709C34.5751 20.6336 33.6869 19.3951 33.6869 19.3951C33.3317 18.6882 32.6212 18.6882 33.5093 17.8037L34.5751 16.7428C35.427 17.4496 37.179 17.6273 37.9487 17.6273H37.9463Z" fill="#D1FAE9" stroke="#088752" stroke-width="2" stroke-linejoin="round"/>
<path opacity="0.5" d="M40.6107 10.0246C40.6091 10.7294 40.3277 11.4048 39.8283 11.9021C39.3289 12.3995 38.6524 12.6782 37.9476 12.6769C37.5985 12.6777 37.2526 12.6097 36.9298 12.4769C36.607 12.344 36.3135 12.1488 36.0661 11.9026C35.8187 11.6563 35.6222 11.3637 35.4879 11.0414C35.3535 10.7192 35.284 10.3737 35.2832 10.0246C35.2838 9.6754 35.3533 9.32975 35.4875 9.00739C35.6218 8.68503 35.8182 8.39228 36.0657 8.14586C36.3131 7.89945 36.6066 7.70419 36.9295 7.57126C37.2524 7.43832 37.5984 7.37031 37.9476 7.3711C38.2967 7.37047 38.6425 7.4386 38.9652 7.5716C39.288 7.70461 39.5814 7.89989 39.8287 8.14629C40.076 8.39269 40.2724 8.68539 40.4065 9.00767C40.5407 9.32995 40.6101 9.6755 40.6107 10.0246Z" fill="white" stroke="#088752" stroke-width="2"/>
<path d="M0.333008 31.0225C0.333008 31.0225 7.08488 28 11.7724 28C15.1033 28 18.7624 29.3144 21.1933 30.3869C23.0214 31.1931 24.0808 32.215 24.5083 34.1669C24.8046 35.5206 23.8324 37.7772 22.4514 37.8859L21.3902 37.9703C24.5749 37.9703 32.9749 36.49 35.913 35.9547C36.603 35.8291 37.3146 35.7372 37.9736 35.9753C38.8099 36.2753 39.9386 37.0075 40.4955 38.7822C40.953 40.24 39.9124 41.6509 38.4836 42.19C34.3286 43.7566 25.7186 46.7931 21.3902 46.7931C9.89738 46.7931 0.333008 43.5072 0.333008 43.5072V31.0225Z" fill="white"/>
<path d="M1.45996 30.4467C1.45996 30.4467 7.08496 28.043 11.7725 28.043C15.079 28.043 18.71 29.3723 21.1418 30.4683C23.0075 31.3083 24.0809 31.8389 24.5075 33.8405C24.8046 35.2308 23.8062 37.5483 22.3887 37.6627L21.3903 37.7433M21.3903 37.7433C19.1009 37.7433 15.5571 37.0645 15.5571 37.0645M21.3903 37.7433C24.5656 37.7433 32.9243 36.2348 35.8868 35.6808C36.5937 35.5495 37.3259 35.453 37.9981 35.7061C38.8437 36.0258 39.9781 36.7973 40.52 38.6592C40.9437 40.1142 39.9265 41.5139 38.5137 42.0605C34.37 43.6636 25.729 46.793 21.3903 46.793C9.89746 46.793 1.45996 43.9083 1.45996 43.9083" stroke="#088752" stroke-width="2" stroke-linecap="round" stroke-linejoin="round"/>
</g>
<defs>
<clipPath id="clip0_7953_68378">
<rect width="48" height="48" fill="white" transform="translate(0.333008)"/>
</clipPath>
</defs>
</svg>
