<svg width="33" height="32" viewBox="0 0 33 32" fill="none" xmlns="http://www.w3.org/2000/svg">
<rect x="0.5" width="32" height="32" rx="16" fill="#FEF1F2"/>
<path fill-rule="evenodd" clip-rule="evenodd" d="M13.4224 9.33203C10.5612 9.33203 8.16602 11.4761 8.16602 14.2098C8.16602 16.8276 9.65333 18.8556 11.2834 20.2922C12.9164 21.7314 14.7677 22.6464 15.6795 23.0481C16.2023 23.2785 16.7964 23.2785 17.3192 23.0481C18.231 22.6464 20.0823 21.7315 21.7153 20.2923C23.3454 18.8557 24.8327 16.8277 24.8327 14.2099C24.8327 11.4762 22.4375 9.33203 19.5763 9.33203C18.3885 9.33203 17.3271 9.83311 16.4993 10.4255C15.6716 9.83311 14.6102 9.33203 13.4224 9.33203Z" fill="#E02D3C"/>
</svg>
