<svg width="49" height="48" viewBox="0 0 49 48" fill="none" xmlns="http://www.w3.org/2000/svg">
<path d="M8.16999 3.425C5.97099 3.588 4.28499 5.15 4.05299 7.343C3.84899 9.279 3.66699 12.098 3.66699 16C3.66699 19.902 3.84899 22.72 4.05299 24.657C4.28499 26.85 5.97099 28.412 8.16999 28.575C10.995 28.785 15.813 29 23.667 29C25.367 29 26.925 28.99 28.351 28.972L28.354 28.91C28.4341 27.2001 29.0099 25.5504 30.0111 24.162C31.0124 22.7737 32.3959 21.7065 33.9931 21.0907C35.5903 20.4748 37.3321 20.3369 39.0062 20.6937C40.6804 21.0504 42.2147 21.8865 43.422 23.1C43.562 21.3 43.667 18.962 43.667 16C43.667 12.098 43.485 9.28 43.281 7.343C43.049 5.15 41.363 3.588 39.164 3.425C36.339 3.215 31.521 3 23.667 3C15.813 3 10.995 3.216 8.16999 3.425Z" fill="#EFE7FE"/>
<path d="M28.7314 36.23C28.8234 34.482 30.0544 33.272 31.8004 33.151C33.0244 33.067 34.7544 33 37.1674 33C39.7204 33 41.4994 33.075 42.7204 33.166C44.3174 33.286 45.4634 34.369 45.5754 35.966C45.6294 36.736 45.6674 37.728 45.6674 39C45.6719 40.0118 45.6412 41.0234 45.5754 42.033C45.4634 43.631 44.3174 44.714 42.7204 44.833C41.5004 44.925 39.7204 45 37.1674 45C34.6144 45 32.8354 44.925 31.6144 44.834C30.0174 44.714 28.8714 43.631 28.7594 42.034C28.6935 41.024 28.6629 40.0121 28.6674 39C28.6674 37.868 28.6934 36.958 28.7314 36.23Z" fill="white"/>
<path d="M31.667 16C31.667 16.7956 31.9831 17.5587 32.5457 18.1213C33.1083 18.6839 33.8713 19 34.667 19C35.4626 19 36.2257 18.6839 36.7883 18.1213C37.3509 17.5587 37.667 16.7956 37.667 16C37.667 15.2044 37.3509 14.4413 36.7883 13.8787C36.2257 13.3161 35.4626 13 34.667 13C33.8713 13 33.1083 13.3161 32.5457 13.8787C31.9831 14.4413 31.667 15.2044 31.667 16Z" fill="white"/>
<path d="M20.667 16C20.667 16.7956 20.9831 17.5587 21.5457 18.1213C22.1083 18.6839 22.8713 19 23.667 19C24.4626 19 25.2257 18.6839 25.7883 18.1213C26.3509 17.5587 26.667 16.7956 26.667 16C26.667 15.2044 26.3509 14.4413 25.7883 13.8787C25.2257 13.3161 24.4626 13 23.667 13C22.8713 13 22.1083 13.3161 21.5457 13.8787C20.9831 14.4413 20.667 15.2044 20.667 16Z" fill="white"/>
<path d="M9.66699 16C9.66699 16.7956 9.98306 17.5587 10.5457 18.1213C11.1083 18.6839 11.8713 19 12.667 19C13.4626 19 14.2257 18.6839 14.7883 18.1213C15.3509 17.5587 15.667 16.7956 15.667 16C15.667 15.2044 15.3509 14.4413 14.7883 13.8787C14.2257 13.3161 13.4626 13 12.667 13C11.8713 13 11.1083 13.3161 10.5457 13.8787C9.98306 14.4413 9.66699 15.2044 9.66699 16Z" fill="white"/>
<path d="M43.499 22C43.599 20.376 43.667 18.392 43.667 16C43.667 12.098 43.485 9.28 43.281 7.343C43.049 5.15 41.363 3.588 39.164 3.425C36.339 3.215 31.521 3 23.667 3C15.813 3 10.995 3.216 8.16999 3.425C5.97099 3.588 4.28499 5.15 4.05299 7.343C3.84899 9.279 3.66699 12.098 3.66699 16C3.66699 19.902 3.84899 22.72 4.05299 24.657C4.28499 26.85 5.97099 28.412 8.16999 28.575C10.995 28.785 15.813 29 23.667 29C25.099 29 26.43 28.993 27.667 28.98" stroke="#8B54F7" stroke-width="2" stroke-linecap="round" stroke-linejoin="round"/>
<path d="M28.7314 36.23C28.8234 34.482 30.0544 33.272 31.8004 33.151C33.0244 33.067 34.7544 33 37.1674 33C39.7204 33 41.4994 33.075 42.7204 33.166C44.3174 33.286 45.4634 34.369 45.5754 35.966C45.6294 36.736 45.6674 37.728 45.6674 39C45.6719 40.0118 45.6412 41.0234 45.5754 42.033C45.4634 43.631 44.3174 44.714 42.7204 44.833C41.5004 44.925 39.7204 45 37.1674 45C34.6144 45 32.8354 44.925 31.6144 44.834C30.0174 44.714 28.8714 43.631 28.7594 42.034C28.6935 41.024 28.6629 40.0121 28.6674 39C28.6674 37.868 28.6934 36.958 28.7314 36.23Z" stroke="#8B54F7" stroke-width="2" stroke-linecap="round" stroke-linejoin="round"/>
<path d="M37.167 38V40" stroke="#8B54F7" stroke-width="2" stroke-linecap="round" stroke-linejoin="round"/>
<path d="M41.667 32.999L41.485 29.119C41.4316 28.0098 40.9534 26.9636 40.1494 26.1975C39.3455 25.4313 38.2775 25.0039 37.167 25.0039C36.0564 25.0039 34.9885 25.4313 34.1846 26.1975C33.3806 26.9636 32.9024 28.0098 32.849 29.119L32.667 32.999" stroke="#8B54F7" stroke-width="2" stroke-linecap="round" stroke-linejoin="round"/>
<path d="M9.66699 16C9.66699 16.7956 9.98306 17.5587 10.5457 18.1213C11.1083 18.6839 11.8713 19 12.667 19C13.4626 19 14.2257 18.6839 14.7883 18.1213C15.3509 17.5587 15.667 16.7956 15.667 16C15.667 15.2044 15.3509 14.4413 14.7883 13.8787C14.2257 13.3161 13.4626 13 12.667 13C11.8713 13 11.1083 13.3161 10.5457 13.8787C9.98306 14.4413 9.66699 15.2044 9.66699 16Z" stroke="#8B54F7" stroke-width="2" stroke-linecap="round" stroke-linejoin="round"/>
<path d="M20.667 16C20.667 16.7956 20.9831 17.5587 21.5457 18.1213C22.1083 18.6839 22.8713 19 23.667 19C24.4626 19 25.2257 18.6839 25.7883 18.1213C26.3509 17.5587 26.667 16.7956 26.667 16C26.667 15.2044 26.3509 14.4413 25.7883 13.8787C25.2257 13.3161 24.4626 13 23.667 13C22.8713 13 22.1083 13.3161 21.5457 13.8787C20.9831 14.4413 20.667 15.2044 20.667 16Z" stroke="#8B54F7" stroke-width="2" stroke-linecap="round" stroke-linejoin="round"/>
<path d="M31.667 16C31.667 16.7956 31.9831 17.5587 32.5457 18.1213C33.1083 18.6839 33.8713 19 34.667 19C35.4626 19 36.2257 18.6839 36.7883 18.1213C37.3509 17.5587 37.667 16.7956 37.667 16C37.667 15.2044 37.3509 14.4413 36.7883 13.8787C36.2257 13.3161 35.4626 13 34.667 13C33.8713 13 33.1083 13.3161 32.5457 13.8787C31.9831 14.4413 31.667 15.2044 31.667 16Z" stroke="#8B54F7" stroke-width="2" stroke-linecap="round" stroke-linejoin="round"/>
</svg>
