<svg width="32" height="32" viewBox="0 0 32 32" fill="none" xmlns="http://www.w3.org/2000/svg">
<rect width="32" height="32" rx="16" fill="#F0F7FF"/>
<path fill-rule="evenodd" clip-rule="evenodd" d="M16.1495 25.0862C16.2525 25.1393 16.3676 25.1662 16.4827 25.1653C16.5978 25.1644 16.712 25.1366 16.8159 25.0826L20.1329 23.3343C21.0735 22.8399 21.8101 22.2871 22.3848 21.6435C23.6343 20.2412 24.3166 18.4515 24.3044 16.6061L24.2651 10.5189C24.2614 9.81772 23.7943 9.19209 23.1036 8.96467L16.9329 6.9233C16.5613 6.79925 16.1542 6.80195 15.7892 6.92959L9.64188 9.04378C8.95489 9.28018 8.49628 9.9103 8.50002 10.6123L8.53933 16.6951C8.5515 18.5432 9.2572 20.3248 10.5273 21.7127C11.1076 22.3473 11.8507 22.8921 12.8016 23.3783L16.1495 25.0862ZM17.3832 21.926L18.9564 21.0968C19.6888 20.7118 20.1653 20.333 20.4975 19.9614C20.692 19.7429 20.8654 19.5115 21.0169 19.2698C21.2846 18.8428 21.3075 18.2854 20.957 17.9234C20.1352 17.0747 18.395 16.5002 16.4023 16.5002C14.4671 16.5002 12.77 17.0543 11.921 17.8619C11.5384 18.2258 11.5439 18.8114 11.824 19.2591C11.9881 19.5215 12.178 19.7717 12.3928 20.0064L12.3934 20.0071C12.7277 20.3727 13.2086 20.7469 13.9514 21.127L13.953 21.1278L15.5418 21.9383C16.1211 22.2338 16.8079 22.2292 17.3832 21.926ZM16.4023 10.2037C17.073 10.2037 17.7162 10.4701 18.1904 10.9443C18.6647 11.4185 18.9311 12.0617 18.9311 12.7324C18.9311 13.4031 18.6647 14.0462 18.1904 14.5205C17.7162 14.9947 17.073 15.2611 16.4023 15.2611C15.7317 15.2611 15.0885 14.9947 14.6143 14.5205C14.14 14.0462 13.8736 13.4031 13.8736 12.7324C13.8736 12.0617 14.14 11.4185 14.6143 10.9443C15.0885 10.4701 15.7317 10.2037 16.4023 10.2037Z" fill="#017AFF"/>
</svg>
