<svg width="210" height="82" viewBox="0 0 210 82" fill="none" xmlns="http://www.w3.org/2000/svg">
<circle cx="41" cy="41" r="25" fill="#191A32"/>
<path d="M40.9313 26L40.7324 26.6755V46.2762L40.9313 46.4747L50.0295 41.0966L40.9313 26Z" fill="#EDF0F4"/>
<path d="M40.9315 26L31.833 41.0966L40.9315 46.4747V36.961V26Z" fill="white"/>
<path d="M40.9314 48.1956L40.8193 48.3323V55.3143L40.9314 55.6415L50.0352 42.8203L40.9314 48.1956Z" fill="#EDF0F4"/>
<path d="M40.9315 55.6415V48.1956L31.833 42.8203L40.9315 55.6415Z" fill="white"/>
<path d="M40.9316 46.4746L50.0299 41.0965L40.9316 36.9609V46.4746Z" fill="#EDF0F4"/>
<path d="M31.833 41.0965L40.9315 46.4746V36.9609L31.833 41.0965Z" fill="white"/>
<path d="M97.2523 47.0476C93.9133 60.4406 80.3484 68.5913 66.9538 65.2515C53.5649 61.9126 45.4142 48.3468 48.7546 34.9549C52.092 21.5605 65.657 13.4092 79.0474 16.7481C92.441 20.087 100.591 33.6543 97.2519 47.0479L97.2522 47.0476H97.2523Z" fill="#F7931A"/>
<path fill-rule="evenodd" clip-rule="evenodd" d="M84.0266 37.4394C84.5242 34.1125 81.9913 32.3241 78.5277 31.1311L79.6513 26.6244L76.908 25.9409L75.8142 30.3289C75.093 30.149 74.3523 29.9795 73.6162 29.8115L74.7179 25.3945L71.9763 24.7109L70.8521 29.2161C70.2553 29.0802 69.6691 28.9459 69.1004 28.8044L69.1036 28.7903L65.3204 27.8456L64.5907 30.7756C64.5907 30.7756 66.626 31.2422 66.5831 31.2709C67.694 31.5481 67.8949 32.2835 67.8615 32.8664L66.5816 38.0006C66.6581 38.02 66.7574 38.0481 66.8668 38.0921L66.7872 38.0722L66.7869 38.0721C66.7193 38.0552 66.649 38.0376 66.5769 38.0203L64.7829 45.2125C64.6471 45.55 64.3025 46.0566 63.5258 45.8642C63.5533 45.9041 61.5319 45.3666 61.5319 45.3666L60.1699 48.5069L63.7399 49.3968C64.1308 49.4949 64.517 49.5955 64.8994 49.6952L64.8997 49.6953C65.1669 49.7649 65.4322 49.8341 65.6958 49.9015L64.5606 54.4599L67.3008 55.1434L68.425 50.6335C69.1736 50.8367 69.9 51.0241 70.6112 51.2008L69.4908 55.6895L72.2343 56.3731L73.3694 51.8233C78.0473 52.7086 81.5648 52.3517 83.0453 48.1205C84.2384 44.7139 82.9859 42.7489 80.5249 41.4675C82.3174 41.0542 83.6676 39.8752 84.0276 37.4398L84.0267 37.4392L84.0266 37.4394ZM77.7587 46.2286C76.9809 49.3541 72.0886 48.0619 69.8503 47.4707L69.8499 47.4706C69.6487 47.4175 69.469 47.37 69.3156 47.3319L70.822 41.2929C71.0091 41.3396 71.2376 41.3909 71.4966 41.449C73.8119 41.9686 78.5556 43.0332 77.7588 46.2286H77.7587ZM71.961 38.6462C73.8271 39.1442 77.8981 40.2307 78.6071 37.3901H78.6074C79.3313 34.4848 75.375 33.6088 73.4428 33.181C73.2254 33.1329 73.0336 33.0905 72.877 33.0514L71.5112 38.5284C71.6402 38.5606 71.7915 38.601 71.961 38.6462Z" fill="white"/>
<path d="M129.246 47.0476C125.907 60.4406 112.343 68.5913 98.948 65.2515C85.559 61.9126 77.4083 48.3468 80.7487 34.9549C84.0862 21.5605 97.6511 13.4092 111.042 16.7481C124.435 20.087 132.585 33.6543 129.246 47.0479L129.246 47.0476H129.246Z" fill="#F3BA2F"/>
<path fill-rule="evenodd" clip-rule="evenodd" d="M105 31.8654L98.5261 38.339L98.5262 38.3387L94.7597 34.572L105 24.332L115.243 34.5751L111.476 38.3418L105 31.8654ZM92.0998 37.2314L88.333 40.9987L92.0995 44.7647L95.8663 40.9979L92.0998 37.2314ZM98.5261 43.6588L105 50.132L111.476 43.6558L115.245 47.4204L115.243 47.4224L105 57.6654L94.7597 47.4254L94.7543 47.42L98.5261 43.6588ZM117.9 37.2335L114.133 41.0003L117.9 44.7668L121.666 41L117.9 37.2335Z" fill="white"/>
<path d="M108.82 40.9979H108.822L105 37.1758L102.175 39.9999L101.85 40.3246L101.181 40.994L101.176 40.9992L101.181 41.0047L105 44.824L108.822 41.0019L108.824 40.9998L108.82 40.9979" fill="white"/>
<path d="M161.246 47.0476C157.907 60.4406 144.343 68.5913 130.948 65.2515C117.559 61.9126 109.408 48.3468 112.749 34.9549C116.086 21.5605 129.651 13.4092 143.042 16.7481C156.435 20.087 164.585 33.6543 161.246 47.0479L161.246 47.0476H161.246Z" fill="#50AF95"/>
<path fill-rule="evenodd" clip-rule="evenodd" d="M140.164 43.8339C139.987 43.8472 139.073 43.9017 137.036 43.9017C135.416 43.9017 134.265 43.8531 133.862 43.8339C127.599 43.5585 122.925 42.4684 122.925 41.1632C122.925 39.858 127.599 38.7694 133.862 38.4895V42.7483C134.271 42.7777 135.444 42.847 137.064 42.847C139.009 42.847 139.982 42.7659 140.158 42.7497V38.4925C146.407 38.7709 151.07 39.861 151.07 41.1632C151.07 42.4654 146.408 43.5555 140.158 43.8325L140.164 43.8339ZM140.164 38.052V34.2411H148.884V28.4297H125.141V34.2411H133.86V38.0505C126.773 38.3761 121.443 39.78 121.443 41.4622C121.443 43.1445 126.773 44.5469 133.86 44.874V57.086H140.162V44.8695C147.233 44.544 152.554 43.1416 152.554 41.4608C152.554 39.78 147.237 38.3776 140.162 38.0505L140.164 38.052Z" fill="white"/>
<path d="M168.988 65.9753C182.657 65.9753 193.975 54.633 193.975 40.9877C193.975 27.318 182.633 16 168.963 16C155.318 16 144 27.318 144 40.9877C144 54.633 155.342 65.9753 168.988 65.9753Z" fill="#A259FF"/>
<path d="M153.162 38.6852C153.162 34.398 156.224 31.6052 160.928 31.6052H170.58V28.4695C170.58 27.6366 171.119 27.0977 171.952 27.0977C172.295 27.0977 172.711 27.2447 173.005 27.4896L178.713 32.2667C179.424 32.8546 179.424 33.761 178.713 34.349L173.005 39.1016C172.711 39.3466 172.295 39.4691 171.952 39.4691C171.119 39.4691 170.58 38.9546 170.58 38.0727V34.9614H160.658C158.209 34.9614 156.543 36.5048 156.543 38.8566V40.253C156.543 41.1595 155.808 41.9187 154.828 41.9187C153.922 41.9187 153.162 41.1595 153.162 40.253V38.6852ZM184.838 43.3641C184.838 47.6757 181.775 50.4686 177.072 50.4686H167.42V53.6043C167.42 54.4616 166.905 55.0005 166.048 55.0005C165.705 55.0005 165.313 54.8536 165.019 54.6088L159.287 49.8316C158.576 49.2436 158.576 48.3127 159.287 47.7248L165.019 42.9968C165.289 42.7762 165.705 42.6293 166.048 42.6293C166.905 42.6293 167.42 43.1438 167.42 44.0011V47.1123H177.341C179.791 47.1123 181.457 45.5689 181.457 43.1927V41.8209C181.457 40.8653 182.167 40.155 183.172 40.155C184.127 40.155 184.838 40.8653 184.838 41.8209V43.3641Z" fill="white"/>
</svg>
