<svg viewBox="0 0 16 17" fill="none" xmlns="http://www.w3.org/2000/svg">
<path d="M2.08337 9.16668C2.08337 10.5221 2.15698 11.56 2.33515 12.3617C2.51142 13.1549 2.77993 13.6701 3.13829 14.0284C3.49665 14.3868 4.01182 14.6553 4.80499 14.8316C5.60668 15.0097 6.64466 15.0833 8.00004 15.0833C9.35542 15.0833 10.3934 15.0097 11.1951 14.8316C11.9883 14.6553 12.5034 14.3868 12.8618 14.0284C13.2202 13.6701 13.4887 13.1549 13.6649 12.3617C13.8431 11.56 13.9167 10.5221 13.9167 9.16668C13.9167 8.57099 13.9026 8.03384 13.8709 7.54884C13.7414 5.56266 13.3264 4.61305 12.5979 4.07897C11.8065 3.49878 10.4548 3.25001 8.00004 3.25001C5.54524 3.25001 4.19359 3.49878 3.40219 4.07897C2.67369 4.61305 2.25873 5.56266 2.12915 7.54884C2.09751 8.03384 2.08337 8.57099 2.08337 9.16668Z" stroke="currentColor" stroke-width="1.5" stroke-linecap="round" stroke-linejoin="round"/>
<path d="M10.9615 10.0398H10.9676" stroke="currentColor" stroke-width="1.5" stroke-linecap="round" stroke-linejoin="round"/>
<path d="M8.0031 10.0398H8.00928" stroke="currentColor" stroke-width="1.5" stroke-linecap="round" stroke-linejoin="round"/>
<path d="M5.03862 10.0398H5.0448" stroke="currentColor" stroke-width="1.5" stroke-linecap="round" stroke-linejoin="round"/>
<path d="M10.9615 12.6308H10.9676" stroke="currentColor" stroke-width="1.5" stroke-linecap="round" stroke-linejoin="round"/>
<path d="M8.0031 12.6308H8.00928" stroke="currentColor" stroke-width="1.5" stroke-linecap="round" stroke-linejoin="round"/>
<path d="M5.03862 12.6308H5.0448" stroke="currentColor" stroke-width="1.5" stroke-linecap="round" stroke-linejoin="round"/>
<path d="M10.6959 1.83334V4.0272" stroke="currentColor" stroke-width="1.5" stroke-linecap="round" stroke-linejoin="round"/>
<path d="M5.31039 1.83334V4.0272" stroke="currentColor" stroke-width="1.5" stroke-linecap="round" stroke-linejoin="round"/>
</svg>
