<svg viewBox="0 0 16 16" fill="none" xmlns="http://www.w3.org/2000/svg">
<path d="M2.08301 7.99996C2.08301 9.35534 2.15661 10.3933 2.33478 11.195C2.51106 11.9882 2.77956 12.5034 3.13792 12.8617C3.49628 13.2201 4.01145 13.4886 4.80463 13.6649C5.60632 13.843 6.64429 13.9166 7.99967 13.9166C9.35506 13.9166 10.393 13.843 11.1947 13.6649C11.9879 13.4886 12.5031 13.2201 12.8614 12.8617C13.2198 12.5034 13.4883 11.9882 13.6646 11.195C13.8427 10.3933 13.9163 9.35534 13.9163 7.99996C13.9163 6.64458 13.8427 5.6066 13.6646 4.80491C13.4883 4.01174 13.2198 3.49657 12.8614 3.13821C12.5031 2.77985 11.9879 2.51134 11.1947 2.33507C10.393 2.1569 9.35506 2.08329 7.99967 2.08329C6.64429 2.08329 5.60632 2.1569 4.80463 2.33507C4.01145 2.51134 3.49628 2.77985 3.13792 3.13821C2.77956 3.49657 2.51106 4.01174 2.33478 4.80491C2.15661 5.6066 2.08301 6.64458 2.08301 7.99996Z" stroke="currentColor" stroke-width="1.5" stroke-linecap="round" stroke-linejoin="round"/>
<path d="M7.9997 5.22217L7.9997 10.7777M10.7775 7.44439V10.7777M5.22192 8.5555V10.7777" stroke="currentColor" stroke-width="1.5" stroke-linecap="round" stroke-linejoin="round"/>
</svg>
