<svg width="1em" height="1em" viewBox="0 0 16 16" fill="none" xmlns="http://www.w3.org/2000/svg">
<g clip-path="url(#clip0_10785_56947)">
<path d="M14.6668 7.38723V8.00056C14.666 9.43818 14.2005 10.837 13.3397 11.9884C12.4789 13.1399 11.269 13.9822 9.8904 14.3898C8.51178 14.7974 7.03834 14.7485 5.68981 14.2503C4.34128 13.7521 3.18993 12.8313 2.40747 11.6253C1.62501 10.4192 1.25336 8.9926 1.34795 7.5581C1.44254 6.1236 1.9983 4.75811 2.93235 3.66528C3.8664 2.57244 5.12869 1.81082 6.53096 1.49399C7.93323 1.17717 9.40034 1.32212 10.7135 1.90723M14.6668 2.66723L8.00017 9.34056L6.00017 7.34056" stroke="#039855" stroke-width="1.5" stroke-linecap="round" stroke-linejoin="round"/>
</g>
<defs>
<clipPath id="clip0_10785_56947">
<rect width="16" height="16" fill="white"/>
</clipPath>
</defs>
</svg>
