<svg width="1em" height="1em" viewBox="0 0 15 14" fill="none" xmlns="http://www.w3.org/2000/svg">
<path d="M3.75733 11.2426C4.73897 12.2243 6.03062 12.8351 7.41219 12.9711C8.79376 13.1072 10.1797 12.7599 11.3339 11.9885C12.4881 11.2171 13.3391 10.0693 13.7419 8.7408C14.1447 7.41227 14.0743 5.98517 13.5428 4.70272C13.0112 3.42026 12.0515 2.3618 10.827 1.70772C9.60245 1.05363 8.18903 0.844403 6.82754 1.11568C5.46606 1.38696 4.24077 2.12195 3.36049 3.19542C2.4802 4.26888 1.9994 5.61438 2 7.00262V8.33329" stroke="#DC6803" stroke-width="1.5" stroke-linecap="round" stroke-linejoin="round"/>
<path d="M0.666504 7.00065L1.99984 8.33398L3.33317 7.00065M7.33317 4.33398V7.66732H10.6665" stroke="#DC6803" stroke-width="1.5" stroke-linecap="round" stroke-linejoin="round"/>
</svg>
