<svg width="1em" height="1em" viewBox="0 0 24 24" fill="none" xmlns="http://www.w3.org/2000/svg">
<path fill-rule="evenodd" clip-rule="evenodd" d="M7.57615 5.83807C7.18562 5.44754 6.55246 5.44754 6.16193 5.83807C5.77141 6.22859 5.77141 6.86176 6.16193 7.25228L10.9096 12L6.16193 16.7477C5.7714 17.1382 5.7714 17.7714 6.16193 18.1619C6.55245 18.5525 7.18562 18.5525 7.57614 18.1619L12.3239 13.4142L17.0716 18.1619C17.4621 18.5525 18.0953 18.5525 18.4858 18.1619C18.8763 17.7714 18.8763 17.1382 18.4858 16.7477L13.7381 12L18.4858 7.25228C18.8763 6.86176 18.8763 6.22859 18.4858 5.83807C18.0953 5.44755 17.4621 5.44755 17.0716 5.83807L12.3239 10.5858L7.57615 5.83807Z" fill="currentColor"/>
</svg>