<svg xmlns="http://www.w3.org/2000/svg" width="24" height="24" viewBox="0 0 24 24" fill="none">
  <path d="M0.75 13.8469C0.75 15.9202 0.862072 17.5351 1.14282 18.7983C1.42167 20.053 1.85685 20.9143 2.47163 21.5291C3.08642 22.1439 3.94775 22.5791 5.20247 22.8579C6.46571 23.1387 8.0806 23.2507 10.1539 23.2507C12.2272 23.2507 13.8421 23.1387 15.1054 22.8579C16.3601 22.5791 17.2214 22.1439 17.8362 21.5291C18.451 20.9143 18.8862 20.053 19.165 18.7983C19.4458 17.5351 19.5579 15.9202 19.5579 13.8469C19.5579 11.7736 19.4458 10.1587 19.165 8.89547C18.8862 7.64076 18.451 6.77944 17.8362 6.16466C17.2214 5.54988 16.3601 5.1147 15.1054 4.83585C13.8421 4.55511 12.2272 4.44304 10.1539 4.44304C8.0806 4.44304 6.46571 4.55511 5.20247 4.83585C3.94775 5.1147 3.08642 5.54988 2.47163 6.16466C1.85685 6.77944 1.42167 7.64076 1.14282 8.89547C0.862072 10.1587 0.75 11.7736 0.75 13.8469Z" stroke="currentColor" stroke-width="1.5" stroke-linecap="round" stroke-linejoin="round"/>
  <path fill-rule="evenodd" clip-rule="evenodd" d="M20.2435 16.2585C20.2075 16.853 20.1551 17.4041 20.0835 17.9149C23.1962 16.9636 24 14.5708 24 9.2315C24 1.84689 22.1538 0.000732422 14.7692 0.000732422C9.42982 0.000732422 7.03701 0.804532 6.08569 3.91716C6.59646 3.8456 7.14762 3.79324 7.74205 3.75721C7.92193 3.35666 8.13122 3.05877 8.3638 2.8262C8.77886 2.41115 9.40196 2.07023 10.4453 1.83835C11.5058 1.60268 12.903 1.50073 14.7692 1.50073C18.4722 1.50073 20.1856 1.99994 21.0932 2.90755C22.0008 3.81515 22.5 5.52847 22.5 9.2315C22.5 11.0976 22.3981 12.4949 22.1624 13.5553C21.9305 14.5986 21.5896 15.2217 21.1745 15.6368C20.9419 15.8694 20.6441 16.0787 20.2435 16.2585Z" fill="currentColor"/>
</svg>