<svg width="24" height="24" viewBox="0 0 24 24" fill="none"
    xmlns="http://www.w3.org/2000/svg">
    <path d="M14.6394 4.67844L19.9963 4.67844M19.9963 4.67844L19.9963 10.0353M19.9963 4.67844L12.4967 12.1781" stroke="currentColor" stroke-width="1.5" stroke-linecap="round" stroke-linejoin="round"/>
    <path fill-rule="evenodd" clip-rule="evenodd" d="M11.1818 4.59261C11.1818 4.17226 10.8337 3.83277 10.4137 3.8508C4.3594 4.1107 3 6.0183 3 12.9091C3 20.3955 4.60455 22 12.0909 22C18.9817 22 20.8893 20.6406 21.1492 14.5863C21.1672 14.1663 20.8277 13.8182 20.4074 13.8182C19.9992 13.8182 19.6671 14.1447 19.6492 14.5525C19.603 15.6014 19.5064 16.4579 19.3499 17.1624C19.1221 18.1873 18.7879 18.7965 18.3831 19.2013C17.9783 19.606 17.3691 19.9403 16.3442 20.168C15.3024 20.3996 13.9283 20.5 12.0909 20.5C10.2536 20.5 8.87946 20.3996 7.83757 20.168C6.81271 19.9403 6.2035 19.606 5.79873 19.2013C5.39396 18.7965 5.05973 18.1873 4.83196 17.1624C4.60041 16.1205 4.5 14.7464 4.5 12.9091C4.5 11.0717 4.60041 9.69764 4.83196 8.65575C5.05973 7.63089 5.39396 7.02168 5.79873 6.61691C6.2035 6.21214 6.81271 5.87791 7.83757 5.65014C8.54211 5.49356 9.39856 5.39695 10.4474 5.3508C10.8553 5.33286 11.1818 5.00084 11.1818 4.59261Z" fill="currentColor"/>
</svg>
