<svg width="24" height="24" viewBox="0 0 24 24" fill="none"
    xmlns="http://www.w3.org/2000/svg">
    <path d="M15.75 5.25C15.947 5.05301 16.1808 4.89676 16.4382 4.79015C16.6956 4.68355 16.9714 4.62868 17.25 4.62868C17.5286 4.62868 17.8044 4.68355 18.0618 4.79015C18.3192 4.89676 18.553 5.05301 18.75 5.25C18.947 5.44698 19.1032 5.68083 19.2098 5.9382C19.3165 6.19557 19.3713 6.47142 19.3713 6.75C19.3713 7.02857 19.3165 7.30442 19.2098 7.56179C19.1032 7.81916 18.947 8.05302 18.75 8.25L8.625 18.375L4.5 19.5L5.625 15.375L15.75 5.25Z" stroke="currentColor" stroke-width="1.5" stroke-linecap="round" stroke-linejoin="round"/>
</svg>
