<svg width="25" height="25" viewBox="0 0 25 25" fill="none" xmlns="http://www.w3.org/2000/svg">
<path d="M17 16.0868C16.0866 16.7649 14.7991 17.5868 13 17.5868C11.2009 17.5868 9.91341 16.7649 9 16.0868" stroke="#343433" stroke-width="1.5" stroke-linecap="round" stroke-linejoin="round"/>
<path fill-rule="evenodd" clip-rule="evenodd" d="M2.48501 14.7723C2.46116 14.3698 2.13113 14.0512 1.728 14.0512C1.30241 14.0512 0.961029 14.4064 0.985853 14.8313C1.37659 21.5188 3.48241 23.6247 10.17 24.0154C10.5948 24.0402 10.9501 23.6989 10.9501 23.2733C10.9501 22.8701 10.6314 22.5401 10.229 22.5163C9.05485 22.4467 8.06128 22.3234 7.217 22.1358C5.8014 21.8212 4.89913 21.3458 4.27727 20.724C3.65541 20.1021 3.18007 19.1999 2.86546 17.7843C2.67783 16.94 2.55459 15.9464 2.48501 14.7723ZM23.4296 14.7723C23.4535 14.3698 23.7835 14.0512 24.1866 14.0512C24.6122 14.0512 24.9536 14.4064 24.9288 14.8313C24.538 21.5189 22.4322 23.6247 15.7446 24.0154C15.3197 24.0402 14.9645 23.6989 14.9645 23.2733C14.9645 22.8701 15.2832 22.5401 15.6856 22.5163C16.8598 22.4467 17.8533 22.3234 18.6976 22.1358C20.1132 21.8212 21.0155 21.3458 21.6374 20.724C22.2592 20.1021 22.7346 19.1999 23.0492 17.7843C23.2368 16.94 23.36 15.9464 23.4296 14.7723ZM25.0005 12.0899C25.0005 12.0746 25.0005 12.0593 25.0005 12.0439C25.0005 12.0286 25.0005 12.0133 25.0005 11.998V12.0899ZM24.9288 9.25664C24.9536 9.6815 24.6122 10.0367 24.1866 10.0367C23.7835 10.0367 23.4535 9.71806 23.4296 9.31564C23.36 8.1415 23.2368 7.14792 23.0492 6.30364C22.7346 4.88803 22.2592 3.98576 21.6374 3.3639C21.0155 2.74205 20.1132 2.2667 18.6976 1.9521C17.8533 1.76446 16.8598 1.64122 15.6856 1.57165C15.2832 1.5478 14.9645 1.21776 14.9645 0.814633C14.9645 0.389044 15.3197 0.0476642 15.7446 0.0724877C22.4322 0.463223 24.538 2.56905 24.9288 9.25664ZM2.48501 9.31564C2.46116 9.71806 2.13113 10.0367 1.728 10.0367C1.30241 10.0367 0.961029 9.6815 0.985853 9.25664C1.37659 2.56906 3.48241 0.46323 10.17 0.0724896C10.5948 0.0476657 10.9501 0.389046 10.9501 0.814635C10.9501 1.21776 10.6314 1.5478 10.229 1.57165C9.05485 1.64123 8.06128 1.76446 7.217 1.9521C5.8014 2.2667 4.89913 2.74205 4.27727 3.3639C3.65541 3.98576 3.18007 4.88803 2.86546 6.30364C2.67783 7.14792 2.55459 8.14149 2.48501 9.31564ZM12.9573 0.000732422L12.9762 0.000735007H12.9384L12.9573 0.000732422Z" fill="#343433"/>
<path d="M13 10.9148V13.9148" stroke="#343433" stroke-width="1.5" stroke-linecap="round" stroke-linejoin="round"/>
<path d="M16 7.91479V8.91479" stroke="#343433" stroke-width="1.5" stroke-linecap="round" stroke-linejoin="round"/>
<path d="M10 7.91479V8.91479" stroke="#343433" stroke-width="1.5" stroke-linecap="round" stroke-linejoin="round"/>
</svg>
