<svg viewBox="0 0 16 16" fill="none" xmlns="http://www.w3.org/2000/svg">
<path d="M2.54553 7.3939C2.54553 13.5892 2.54553 14.6666 8.00002 14.6666C13.4545 14.6666 13.4545 13.5892 13.4545 7.3939" stroke="currentColor" stroke-width="1.5" stroke-linecap="round" stroke-linejoin="round"/>
<path d="M8.00003 2.8484C8.00003 2.0127 7.32168 1.33325 6.48489 1.33325C5.6481 1.33325 4.96975 2.01161 4.96975 2.8484C4.96975 3.6852 5.6481 4.36355 6.48489 4.36355H8.00003M8.00003 2.8484C8.00003 3.44011 8.00003 4.36355 8.00003 4.36355M8.00003 2.8484C8.00003 2.0127 8.67838 1.33325 9.51516 1.33325C10.3519 1.33325 11.0303 2.01161 11.0303 2.8484C11.0303 3.6852 10.3119 4.36355 9.51516 4.36355C8.75759 4.36355 8.00003 4.36355 8.00003 4.36355M8.00003 4.36355L8.00003 14.6666M8.00003 4.36355C8.00003 4.36355 11.6363 4.36355 12.8484 4.36355C14.0605 4.36355 14.6666 4.66659 14.6666 5.87871C14.6666 7.09083 14.0605 7.39386 12.8484 7.39386C11.6363 7.39386 3.75759 7.39386 2.84851 7.39386C1.93943 7.39386 1.33337 7.09083 1.33337 5.87871C1.33337 4.66659 1.86808 4.36355 2.84851 4.36355C3.82894 4.36355 8.00003 4.36355 8.00003 4.36355Z" stroke="currentColor" stroke-width="1.5" stroke-linecap="round" stroke-linejoin="round"/>
</svg>
