<svg width="1em" height="1em" viewBox="0 0 20 21" fill="none" xmlns="http://www.w3.org/2000/svg">
<path fill-rule="evenodd" clip-rule="evenodd" d="M7.91602 6.91554C7.91602 6.4931 7.56621 6.15276 7.14424 6.17271C3.09683 6.3641 1.66602 7.19207 1.66602 10.336C1.66602 13.48 3.09683 14.308 7.14424 14.4994C7.56621 14.5193 7.91602 14.179 7.91602 13.7565C7.91602 13.3504 7.59276 13.0193 7.18709 12.9997C6.8333 12.9827 6.50425 12.9606 6.19792 12.9324C5.18493 12.8393 4.5289 12.6873 4.09892 12.4959C3.71559 12.3253 3.54026 12.1382 3.42475 11.9123C3.28453 11.638 3.16602 11.1698 3.16602 10.336C3.16602 9.50227 3.28453 9.03402 3.42475 8.75977C3.54026 8.53385 3.71559 8.34677 4.09892 8.17614C4.5289 7.98474 5.18493 7.83279 6.19792 7.73963C6.50425 7.71146 6.8333 7.6894 7.18709 7.67235C7.59276 7.6528 7.91602 7.32168 7.91602 6.91554ZM12.0827 13.7565C12.0827 13.3504 12.4059 13.0193 12.8116 12.9997C13.1654 12.9827 13.4944 12.9606 13.8008 12.9324C14.8138 12.8393 15.4698 12.6873 15.8998 12.4959C16.2831 12.3253 16.4584 12.1382 16.5739 11.9123C16.7142 11.638 16.8327 11.1698 16.8327 10.336C16.8327 9.50227 16.7142 9.03402 16.5739 8.75977C16.4584 8.53385 16.2831 8.34677 15.8998 8.17614C15.4698 7.98474 14.8138 7.83279 13.8008 7.73963C13.4944 7.71146 13.1654 7.6894 12.8116 7.67235C12.4059 7.6528 12.0827 7.32168 12.0827 6.91554C12.0827 6.4931 12.4325 6.15276 12.8545 6.17271C16.9019 6.3641 18.3327 7.19207 18.3327 10.336C18.3327 13.48 16.9019 14.308 12.8545 14.4994C12.4325 14.5193 12.0827 14.179 12.0827 13.7565Z" fill="currentColor"/>
<path d="M6.52734 10.3359H13.4718" stroke="currentColor" stroke-width="1.5" stroke-linecap="round" stroke-linejoin="round"/>
</svg>
