<svg width="17" height="17" viewBox="0 0 17 17" fill="none" xmlns="http://www.w3.org/2000/svg">
<path d="M0 6.55225C0 10.165 2.93948 13.1045 6.55225 13.1045C7.98092 13.1045 9.28646 12.6447 10.3621 11.8729L14.4018 15.9209C14.5907 16.1097 14.837 16.2 15.0998 16.2C15.6581 16.2 16.044 15.7812 16.044 15.2311C16.044 14.9684 15.9455 14.7302 15.773 14.5578L11.7579 10.5181C12.6037 9.41783 13.1045 8.04665 13.1045 6.55225C13.1045 2.93948 10.165 0 6.55225 0C2.93948 0 0 2.93948 0 6.55225ZM1.40406 6.55225C1.40406 3.71131 3.71131 1.40406 6.55225 1.40406C9.39317 1.40406 11.7004 3.71131 11.7004 6.55225C11.7004 9.39317 9.39317 11.7004 6.55225 11.7004C3.71131 11.7004 1.40406 9.39317 1.40406 6.55225Z" fill="currentColor"/>
</svg>
