
<svg width="1em" height="1em" viewBox="0 0 24 24" fill="none" xmlns="http://www.w3.org/2000/svg">
<path d="M17.9026 8.85114L13.4593 12.4642C12.6198 13.1302 11.4387 13.1302 10.5992 12.4642L6.11841 8.85114" stroke="currentColor" stroke-width="1.5" stroke-linecap="round" stroke-linejoin="round"/>
<path d="M12 20.25C9.95649 20.25 8.36075 20.1506 7.11046 19.9006C5.86465 19.6514 5.0144 19.2626 4.4136 18.7218C3.21569 17.6437 2.75 15.7241 2.75 12C2.75 8.27587 3.21569 6.35628 4.4136 5.27816C5.0144 4.73744 5.86465 4.34862 7.11046 4.09944C8.36075 3.84936 9.95649 3.75 12 3.75C14.0435 3.75 15.6392 3.84936 16.8895 4.09944C18.1354 4.34862 18.9856 4.73744 19.5864 5.27816C20.7843 6.35628 21.25 8.27587 21.25 12C21.25 15.7241 20.7843 17.6437 19.5864 18.7218C18.9856 19.2626 18.1354 19.6514 16.8895 19.9006C15.6392 20.1506 14.0435 20.25 12 20.25Z" stroke="currentColor" stroke-width="1.5" stroke-linecap="round" stroke-linejoin="round"/>
</svg>
