<svg width="20" height="20" viewBox="0 0 20 20" fill="none" xmlns="http://www.w3.org/2000/svg">
<path d="M16.6666 12.325L17.356 12.6203C17.4791 12.333 17.4111 11.9995 17.1854 11.7833C16.9596 11.5671 16.6235 11.5136 16.3418 11.649L16.6666 12.325ZM8.19767 2.39999L8.79413 2.85469C8.98413 2.60544 8.99912 2.26433 8.83171 1.99937C8.6643 1.73442 8.34979 1.6015 8.04311 1.66609L8.19767 2.39999ZM13.6631 12.2549C10.3002 12.2549 7.6055 9.59915 7.6055 6.36144L6.1055 6.36144C6.1055 10.4619 9.50652 13.7549 13.6631 13.7549L13.6631 12.2549ZM16.3418 11.649C15.5355 12.0365 14.6268 12.2549 13.6631 12.2549L13.6631 13.7549C14.8555 13.7549 15.9859 13.4842 16.9915 13.001L16.3418 11.649ZM15.9772 12.0296C14.9685 14.3841 12.5786 16.05 9.77926 16.05L9.77926 17.55C13.1832 17.55 16.1127 15.5223 17.356 12.6203L15.9772 12.0296ZM9.77926 16.05C6.05502 16.05 3.06737 13.1084 3.06737 9.51805L1.56737 9.51805C1.56737 13.9711 5.26132 17.55 9.77926 17.55L9.77926 16.05ZM3.06737 9.51805C3.06737 6.4 5.31848 3.77283 8.35224 3.13389L8.04311 1.66609C4.35403 2.44304 1.56737 5.65186 1.56737 9.51805L3.06737 9.51805ZM7.6055 6.36144C7.6055 5.04828 8.04614 3.83587 8.79413 2.85469L7.60122 1.9453C6.66281 3.17628 6.1055 4.70551 6.1055 6.36144L7.6055 6.36144Z" fill="currentColor"/>
<path d="M13.936 2.46526C13.5855 2.24049 13.1675 2.64178 13.401 2.97831L13.8176 3.57835C13.9867 3.82165 14.0769 4.10755 14.0769 4.39999C14.0769 4.69244 13.9867 4.97834 13.8176 5.22163L13.401 5.82167C13.1675 6.1582 13.5862 6.5595 13.9367 6.33472L14.561 5.9347C14.8144 5.77242 15.1122 5.68582 15.4168 5.68582C15.7214 5.68582 16.0192 5.77242 16.2726 5.9347L16.8976 6.33472C17.2481 6.5595 17.6661 6.1582 17.432 5.82167L17.0153 5.22163C16.8463 4.97834 16.7561 4.69244 16.7561 4.39999C16.7561 4.10755 16.8463 3.82165 17.0153 3.57835L17.432 2.97831C17.6661 2.64178 17.2481 2.24049 16.897 2.46526L16.2726 2.86529C16.0192 3.02757 15.7214 3.11416 15.4168 3.11416C15.1122 3.11416 14.8144 3.02757 14.561 2.86529L13.936 2.46526Z" fill="currentColor"/>
</svg>
