<svg xmlns="http://www.w3.org/2000/svg" width="2048" height="2048" viewBox="0 0 2048 2048"><path fill="currentColor" d="M1920 832q0 29-10 53t-28 46t-39 38t-45 30q-11 7-20 9t-20 13l-478 478v453q0 40-28 68t-68 28H736q-40 0-68-28t-28-68v-453l-478-478q-10-10-19-12t-21-10q-23-13-45-30t-39-38t-27-45t-11-54q0-127 38-238t106-203t160-165t198-123t223-76T960 0q117 0 234 26t223 77t199 122t159 165t106 204t39 238M960 128q-99 0-199 22t-193 64t-173 102t-139 139t-94 173t-34 204q0 8 5 15t12 14t15 12t13 8q46 29 107 51t132 38t144 26t147 16t138 9t119 3q52 0 118-2t138-9t147-17t145-26t131-38t108-51q5-3 12-8t15-12t13-14t5-15q0-109-34-203t-93-173t-140-139t-172-103t-193-64t-200-22m-64 1023q-118-2-236-13t-234-35l305 305h165zm256 385H768v384h384zm342-433q-116 23-234 34t-236 14v257h165z"/></svg>
