<svg width="26" height="26" viewBox="0 0 26 26" fill="none" xmlns="http://www.w3.org/2000/svg">
<path d="M3.625 7.79167V5.70833C3.625 5.1558 3.84449 4.62589 4.23519 4.23519C4.62589 3.84449 5.1558 3.625 5.70833 3.625H7.79167M18.2083 3.625H20.2917C20.8442 3.625 21.3741 3.84449 21.7648 4.23519C22.1555 4.62589 22.375 5.1558 22.375 5.70833V7.79167M22.375 18.2083V20.2917C22.375 20.8442 22.1555 21.3741 21.7648 21.7648C21.3741 22.1555 20.8442 22.375 20.2917 22.375H18.2083M7.79167 22.375H5.70833C5.1558 22.375 4.62589 22.1555 4.23519 21.7648C3.84449 21.3741 3.625 20.8442 3.625 20.2917V18.2083M7.79167 13H18.2083" stroke="currentColor" stroke-width="2" stroke-linecap="round" stroke-linejoin="round"/>
</svg>
