<svg width="18" height="18" viewBox="0 0 18 18" fill="none" xmlns="http://www.w3.org/2000/svg">
<path d="M8.97316 3.65299C9.33399 3.65299 9.63337 3.35359 9.63337 2.9851V1.33455C9.63337 0.966058 9.33399 0.666656 8.97316 0.666656C8.60467 0.666656 8.30529 0.966058 8.30529 1.33455V2.9851C8.30529 3.35359 8.60467 3.65299 8.97316 3.65299ZM12.7349 5.22677C12.9959 5.48011 13.4181 5.48779 13.6791 5.22677L14.8537 4.05219C15.1071 3.79885 15.1071 3.36894 14.8537 3.10793C14.6003 2.85459 14.1781 2.85459 13.9171 3.10793L12.7349 4.29018C12.4816 4.5512 12.4816 4.97343 12.7349 5.22677ZM14.2933 8.99612C14.2933 9.35695 14.6003 9.6564 14.9612 9.6564H16.6117C16.9725 9.6564 17.272 9.35695 17.272 8.99612C17.272 8.63536 16.9725 8.32825 16.6117 8.32825H14.9612C14.6003 8.32825 14.2933 8.63536 14.2933 8.99612ZM12.7349 12.7656C12.4816 13.0266 12.4816 13.4488 12.7349 13.7021L13.9171 14.892C14.1781 15.1377 14.6003 15.13 14.8537 14.8844C15.1071 14.6234 15.1071 14.2012 14.8537 13.9478L13.6715 12.7656C13.4181 12.5199 12.9959 12.5199 12.7349 12.7656ZM8.97316 14.3393C8.60467 14.3393 8.30529 14.6387 8.30529 14.9995V16.6578C8.30529 17.0185 8.60467 17.318 8.97316 17.318C9.33399 17.318 9.63337 17.0185 9.63337 16.6578V14.9995C9.63337 14.6387 9.33399 14.3393 8.97316 14.3393ZM5.20377 12.7656C4.94275 12.5199 4.51284 12.5199 4.25951 12.7656L3.08493 13.9401C2.83159 14.1934 2.83159 14.6157 3.07725 14.8767C3.33059 15.1224 3.7605 15.13 4.02151 14.8844L5.19609 13.7021C5.44943 13.4488 5.44943 13.0266 5.20377 12.7656ZM3.64535 8.99612C3.64535 8.63536 3.33826 8.32825 2.97745 8.32825H1.3269C0.966088 8.32825 0.666687 8.63536 0.666687 8.99612C0.666687 9.35695 0.966088 9.6564 1.3269 9.6564H2.97745C3.33826 9.6564 3.64535 9.35695 3.64535 8.99612ZM5.19609 5.22677C5.44943 4.98111 5.44943 4.54352 5.20377 4.29018L4.02919 3.10793C3.77585 2.86226 3.34594 2.85459 3.0926 3.10793C2.83927 3.36894 2.83927 3.79885 3.08493 4.04452L4.25951 5.22677C4.51284 5.48011 4.93507 5.48011 5.19609 5.22677Z" fill="currentColor" fill-opacity="0.85"/>
<path d="M8.96552 12.9114C11.0997 12.9114 12.8731 11.1381 12.8731 8.99614C12.8731 6.84662 11.0997 5.07324 8.96552 5.07324C6.8313 5.07324 5.05792 6.84662 5.05792 8.99614C5.05792 11.1381 6.8313 12.9114 8.96552 12.9114ZM8.96552 11.7368C7.46848 11.7368 6.22483 10.4932 6.22483 8.99614C6.22483 7.49151 7.46848 6.24782 8.96552 6.24782C10.4625 6.24782 11.7062 7.49151 11.7062 8.99614C11.7062 10.4932 10.4625 11.7368 8.96552 11.7368Z" fill="currentColor" fill-opacity="0.85"/>
</svg>
