<svg width="16" height="16" viewBox="0 0 16 16" fill="none"
  xmlns="http://www.w3.org/2000/svg">
  <path fill-rule="evenodd" clip-rule="evenodd" d="M2.375 7.99948C2.375 8.68727 2.93773 9.25 3.62552 9.25C4.31331 9.25 4.86562 8.68727 4.86562 7.99948C4.86562 7.31169 4.31331 6.75 3.62552 6.75C2.93773 6.75 2.375 7.31169 2.375 7.99948ZM8.29413 9.25C7.60634 9.25 7.04361 8.68727 7.04361 7.99948C7.04361 7.31169 7.60634 6.75 8.29413 6.75C8.98192 6.75 9.53423 7.31169 9.53423 7.99948C9.53423 8.68727 8.98192 9.25 8.29413 9.25ZM12.9627 9.25C12.2645 9.25 11.7122 8.68727 11.7122 7.99948C11.7122 7.31169 12.2645 6.75 12.9627 6.75C13.6505 6.75 14.2028 7.31169 14.2028 7.99948C14.2028 8.68727 13.6505 9.25 12.9627 9.25Z" fill="currentColor"/>
</svg>