<svg width="20" height="20" viewBox="0 0 20 20" fill="none" xmlns="http://www.w3.org/2000/svg">
<path fill-rule="evenodd" clip-rule="evenodd" d="M2.50001 9.9993C2.50001 10.9164 3.25032 11.6667 4.16737 11.6667C5.08442 11.6667 5.82084 10.9164 5.82084 9.9993C5.82084 9.08226 5.08442 8.33333 4.16737 8.33333C3.25032 8.33333 2.50001 9.08226 2.50001 9.9993ZM10.3922 11.6667C9.47513 11.6667 8.72482 10.9164 8.72482 9.9993C8.72482 9.08226 9.47513 8.33333 10.3922 8.33333C11.3092 8.33333 12.0456 9.08226 12.0456 9.9993C12.0456 10.9164 11.3092 11.6667 10.3922 11.6667ZM16.617 11.6667C15.686 11.6667 14.9496 10.9164 14.9496 9.9993C14.9496 9.08226 15.686 8.33333 16.617 8.33333C17.534 8.33333 18.2705 9.08226 18.2705 9.9993C18.2705 10.9164 17.534 11.6667 16.617 11.6667Z" fill="currentColor"/>
</svg>
