<svg width="16" height="16" viewBox="0 0 16 16" fill="none" xmlns="http://www.w3.org/2000/svg">
<path fill-rule="evenodd" clip-rule="evenodd" d="M13.2456 4.18124C13.6619 3.76501 14.3365 3.76501 14.7499 4.17845L15.5 4.92711L14.6172 5.80846L14.0027 5.19389L13.268 5.93417C14.4189 8.40922 13.9426 11.3801 12.0542 13.3761C10.8097 14.6918 9.12658 15.4363 7.31638 15.474C7.26892 15.4754 7.22146 15.4754 7.17401 15.4754H7.17391C5.41678 15.4754 3.76023 14.8036 2.49616 13.573C1.24885 12.3606 0.540696 10.7027 0.501587 8.90786C0.463874 7.11303 1.0994 5.42715 2.29223 4.16029C4.30496 2.02465 7.49516 1.44919 10.1183 2.72722L10.8278 2.02186L10.2133 1.40728L11.0946 0.524536L11.8405 1.2704C12.2539 1.68384 12.2539 2.35848 11.8405 2.77192L10.7189 3.88653C10.4926 4.1114 10.1392 4.15889 9.86127 4.00385L9.70903 3.91865C7.54964 2.78728 4.87205 3.23703 3.19733 5.0151C1.19857 7.13817 1.274 10.6468 3.36355 12.6791C4.42089 13.7071 5.81626 14.256 7.28844 14.2267C8.76202 14.196 10.1322 13.5898 11.1449 12.5185C12.7176 10.8563 13.0878 8.36452 12.0654 6.31828L11.9788 6.14228C11.8447 5.86712 11.8991 5.53749 12.1142 5.32099L13.2456 4.18124ZM8.38773 8.26259C8.97018 7.61869 9.75656 7.56701 10.4242 8.12152C11.2022 8.76822 11.4019 9.68449 10.9242 10.6077C10.1337 12.1386 8.84587 12.8928 7.12786 12.9794C5.36654 12.8803 4.05638 12.0743 3.29515 10.4555C2.85936 9.52666 3.22671 8.45395 4.11645 7.94134C4.71286 7.59774 5.42102 7.70669 5.87357 8.22628C6.20181 8.6034 6.59849 8.83387 7.10272 8.84783C7.62371 8.8632 8.04134 8.6453 8.38773 8.26259ZM5.41214 10.2393C5.48757 10.2383 5.56279 10.2373 5.63752 10.2348C5.84284 10.2278 5.97413 10.1091 5.97832 9.92753C5.98391 9.73896 5.84843 9.60767 5.63472 9.60208C5.54937 9.60025 5.46402 9.60082 5.37352 9.60143C5.32628 9.60175 5.27764 9.60208 5.22687 9.60208C5.22687 9.55414 5.22711 9.508 5.22734 9.4631C5.22791 9.35495 5.22843 9.25399 5.22547 9.15233C5.21988 8.947 5.09976 8.81571 4.91818 8.81012C4.72962 8.80453 4.59833 8.94002 4.59274 9.15372C4.58977 9.25455 4.59031 9.35608 4.59087 9.46375C4.5911 9.50822 4.59134 9.55374 4.59134 9.60069H4.39859C4.37983 9.60069 4.36107 9.60046 4.34231 9.60023C4.29542 9.59966 4.24853 9.59909 4.20165 9.60208C4.01308 9.61186 3.88598 9.73617 3.88039 9.90937C3.87481 10.0882 4.0075 10.225 4.20444 10.2334C4.2863 10.2373 4.36749 10.2365 4.4558 10.2356C4.49558 10.2352 4.5368 10.2348 4.58017 10.2348C4.59178 10.302 4.59143 10.3768 4.59107 10.4513C4.59003 10.6724 4.58899 10.8903 4.90142 10.8955C5.23143 10.9008 5.22877 10.6744 5.22625 10.4604C5.22544 10.3909 5.22463 10.3227 5.23525 10.2641C5.24232 10.2583 5.24716 10.2534 5.2508 10.2497C5.2558 10.2446 5.25856 10.2418 5.26179 10.2418C5.31193 10.2407 5.36208 10.24 5.41214 10.2393ZM8.32069 9.87864C8.32069 10.0714 8.47713 10.2278 8.66988 10.2278C8.86263 10.2278 9.01907 10.0714 9.01907 9.87864C9.01907 9.68589 8.86263 9.52945 8.66988 9.52945C8.47713 9.52945 8.32069 9.68589 8.32069 9.87864ZM9.03304 10.591C9.03304 10.7837 9.18948 10.9402 9.38223 10.9402C9.57498 10.9402 9.73142 10.7837 9.73142 10.591C9.73142 10.3982 9.57498 10.2418 9.38223 10.2418C9.18948 10.2418 9.03304 10.3982 9.03304 10.591ZM9.03304 9.12719C9.03304 9.31994 9.18948 9.47637 9.38223 9.47637C9.57498 9.47637 9.73142 9.31994 9.73142 9.12719C9.73142 8.93443 9.57498 8.778 9.38223 8.778C9.18948 8.778 9.03304 8.93443 9.03304 9.12719ZM9.74539 9.87864C9.74539 10.0714 9.90182 10.2278 10.0946 10.2278C10.2873 10.2278 10.4438 10.0714 10.4438 9.87864C10.4438 9.68589 10.2873 9.52945 10.0946 9.52945C9.90182 9.52945 9.74539 9.68589 9.74539 9.87864Z" fill="#161418"/>
</svg>
