<?xml version="1.0" standalone="no"?>
<!DOCTYPE svg PUBLIC "-//W3C//DTD SVG 20010904//EN"
 "http://www.w3.org/TR/2001/REC-SVG-20010904/DTD/svg10.dtd">
<svg version="1.0" xmlns="http://www.w3.org/2000/svg"
 width="129.000000pt" height="129.000000pt" viewBox="0 0 129.000000 129.000000"
 preserveAspectRatio="xMidYMid meet">
<metadata>
Created by potrace 1.14, written by Peter Selinger 2001-2017
</metadata>
<g transform="translate(0.000000,129.000000) scale(0.100000,-0.100000)"
fill="#000000" stroke="none">
<path d="M523 1095 c-131 -36 -263 -136 -316 -241 -53 -105 -79 -262 -57 -344
14 -51 91 -158 135 -187 17 -11 55 -30 86 -42 64 -27 88 -63 71 -109 -6 -15
-19 -51 -30 -79 -11 -29 -16 -53 -11 -53 5 0 12 8 15 18 3 9 12 33 20 52 13
34 14 33 9 -30 -6 -73 8 -56 20 24 8 53 24 64 61 47 l25 -11 -30 -26 c-25 -20
-31 -34 -31 -64 0 -34 3 -38 31 -44 17 -3 55 -6 84 -6 52 0 53 1 58 32 6 41
-11 80 -41 93 -12 5 -22 13 -22 16 0 7 132 30 138 25 2 -2 -3 -10 -11 -17 -12
-11 -11 -21 8 -64 13 -27 25 -58 29 -68 3 -10 10 -16 15 -13 5 3 -2 35 -15 71
-23 63 -23 67 -7 89 10 13 30 28 46 34 26 10 28 8 42 -25 8 -19 18 -32 23 -29
5 3 16 -11 25 -30 21 -42 21 -45 2 -38 -10 4 -15 0 -15 -15 0 -24 18 -28 26
-6 4 8 10 12 15 9 10 -6 -2 30 -25 74 -16 33 -27 142 -13 142 5 0 31 13 57 29
25 16 61 32 79 36 32 7 101 59 101 75 0 5 -8 11 -18 15 -40 12 -54 88 -28 150
15 35 49 61 67 50 16 -10 0 89 -27 173 -28 85 -32 183 -9 202 34 28 -5 72 -41
46 -15 -11 -16 -18 -8 -37 6 -13 9 -40 7 -60 l-5 -36 -47 46 c-57 55 -146 105
-226 126 -73 18 -192 18 -262 0z m279 -25 c77 -23 170 -82 216 -135 33 -37 34
-40 28 -104 -3 -36 -6 -67 -6 -68 0 0 -15 -6 -32 -12 -32 -11 -34 -10 -88 48
-73 79 -188 151 -241 151 -25 0 -33 19 -20 51 10 29 59 89 71 89 4 0 37 -9 72
-20z m-198 1 c4 -5 -2 -7 -11 -5 -10 2 -24 0 -31 -4 -15 -10 -43 -83 -35 -94
9 -17 44 -7 54 15 9 21 9 20 6 -5 -4 -25 -1 -28 27 -29 17 0 40 -4 51 -9 12
-5 -11 -6 -55 -3 -41 3 -101 0 -133 -6 -73 -13 -168 -55 -198 -87 -12 -13 -27
-24 -32 -24 -16 0 16 32 62 62 25 15 41 28 35 28 -12 -1 -45 -20 -75 -45 -28
-24 -60 -62 -42 -51 7 4 -1 -16 -19 -43 -35 -57 -47 -67 -22 -19 9 17 17 42
19 55 4 37 74 132 130 176 64 51 151 90 185 83 14 -2 32 -1 40 5 19 11 37 11
44 0z m486 -25 c0 -3 -4 -8 -10 -11 -5 -3 -10 -1 -10 4 0 6 5 11 10 11 6 0 10
-2 10 -4z m-539 -69 c-13 -13 -15 1 -4 30 7 17 8 17 11 -1 2 -10 -1 -23 -7
-29z m217 -72 c50 -23 192 -147 192 -167 0 -5 -25 18 -56 51 -60 66 -100 94
-172 122 -26 10 -40 18 -32 18 8 1 39 -10 68 -24z m-3 -35 c74 -37 97 -55 133
-101 l43 -57 -30 -53 c-16 -30 -33 -76 -37 -104 -3 -27 -11 -55 -16 -62 -5 -7
-8 -28 -7 -47 5 -53 -26 -79 -119 -102 -111 -27 -308 -25 -374 4 -125 55 -142
221 -43 417 43 87 45 111 3 53 -48 -70 -102 -128 -118 -128 -14 0 -13 1 16 53
65 117 196 179 370 174 84 -3 96 -6 179 -47z m336 -67 c6 -16 15 -43 19 -61 7
-28 6 -31 -6 -21 -8 6 -14 18 -14 26 0 8 -4 11 -10 8 -6 -4 -10 10 -10 34 0
48 6 52 21 14z m-105 -118 c-34 -37 -46 -43 -46 -23 0 18 41 58 61 58 13 0 10
-8 -15 -35z m-806 -190 c7 -22 19 -51 28 -65 15 -24 15 -24 -3 -10 -35 29 -73
162 -58 204 5 15 9 6 14 -34 3 -30 12 -73 19 -95z m755 16 c3 -5 1 -12 -5 -16
-5 -3 -10 1 -10 9 0 18 6 21 15 7z m5 -46 c0 -8 -4 -15 -10 -15 -5 0 -10 7
-10 15 0 8 5 15 10 15 6 0 10 -7 10 -15z m10 -35 c0 -5 -4 -10 -10 -10 -5 0
-10 5 -10 10 0 6 5 10 10 10 6 0 10 -4 10 -10z m-630 -95 c6 3 10 2 10 -4 0
-6 39 -22 88 -37 118 -35 123 -37 86 -42 -36 -4 -205 60 -226 85 -12 15 -10
15 10 4 12 -6 27 -9 32 -6z m616 -3 c-11 -18 -97 -53 -181 -73 -76 -18 -90
-18 -137 -6 l-53 13 60 8 c141 16 305 53 305 69 0 6 3 8 6 4 3 -3 3 -10 0 -15z
m-383 -99 c-7 -2 -21 -2 -30 0 -10 3 -4 5 12 5 17 0 24 -2 18 -5z m45 -145
c31 -26 -6 -82 -50 -76 -19 2 -23 9 -23 41 0 32 -2 35 -12 20 -11 -14 -13 -14
-13 -2 0 9 2 18 5 20 9 10 80 7 93 -3z"/>
<path d="M381 560 c0 -33 1 -34 11 -12 8 17 8 26 0 34 -9 9 -12 4 -11 -22z"/>
<path d="M690 535 c0 -8 5 -15 10 -15 6 0 10 7 10 15 0 8 -4 15 -10 15 -5 0
-10 -7 -10 -15z"/>
<path d="M1106 574 c-3 -9 -6 -33 -6 -54 0 -29 4 -39 20 -43 25 -7 30 2 37 63
4 35 2 50 -6 50 -7 0 -9 -5 -6 -10 4 -6 1 -17 -5 -25 -10 -12 -10 -18 -1 -29
8 -9 8 -16 2 -20 -16 -10 -23 13 -17 50 7 34 -7 48 -18 18z"/>
<path d="M663 120 c-1 -14 4 -20 18 -20 10 0 19 5 19 10 0 6 -6 10 -12 10 -9
0 -8 4 2 10 12 8 11 10 -5 10 -14 0 -21 -7 -22 -20z"/>
</g>
</svg>
