<svg fill="none" height="28" viewBox="0 0 28 28" width="28" xmlns="http://www.w3.org/2000/svg"><path d="m0 0h28v28h-28z" fill="#fff"/><path d="m15.9033 7h-4.0538c-.1355 0-.244.10935-.2469.24527-.0819 3.82053-2.07366 7.44663-5.50184 10.01503-.10884.0815-.13364.2347-.05407.345l2.3718 3.2913c.08069.112.23791.1372.34857.0549 2.14354-1.5954 3.86774-3.5201 5.10934-5.6534 1.2416 2.1333 2.9659 4.058 5.1094 5.6534.1106.0823.2678.0571.3486-.0549l2.3718-3.2913c.0795-.1103.0547-.2635-.054-.345-3.4283-2.5684-5.42-6.1945-5.5018-10.01503-.003-.13592-.1116-.24527-.2471-.24527z" fill="#ff875b"/></svg>