<svg fill="none" height="28" viewBox="0 0 28 28" width="28" xmlns="http://www.w3.org/2000/svg"><path d="m0 0h28v28h-28z" fill="#fff"/><g stroke-linecap="round" stroke-linejoin="round" stroke-width=".087885"><path d="m24.0891 3.1199-8.7445 6.49466 1.6171-3.83176z" fill="#e2761b" stroke="#e2761b"/><path d="m3.90207 3.1199 8.67423 6.55618-1.538-3.89328z" fill="#e4761b" stroke="#e4761b"/><path d="m20.9429 18.1745-2.329 3.5681 4.9831 1.371 1.4325-4.86z" fill="#e4761b" stroke="#e4761b"/><path d="m2.97929 18.2536 1.42372 4.86 4.98306-1.371-2.32894-3.5681z" fill="#e4761b" stroke="#e4761b"/><path d="m9.10483 12.1456-1.38857 2.1005 4.94794.2197-.1758-5.31703z" fill="#e4761b" stroke="#e4761b"/><path d="m18.8864 12.1456-3.4275-3.05835-.1143 5.37855 4.9391-.2197z" fill="#e4761b" stroke="#e4761b"/><path d="m9.38606 21.7426 2.97054-1.4501-2.56627-2.0037z" fill="#e4761b" stroke="#e4761b"/><path d="m15.6347 20.2925 2.9792 1.4501-.413-3.4538z" fill="#e4761b" stroke="#e4761b"/><path d="m18.6139 21.7426-2.9792-1.4501.2372 1.9423-.0263.8173z" fill="#d7c1b3" stroke="#d7c1b3"/><path d="m9.38606 21.7426 2.76834 1.3095-.0176-.8173.2198-1.9423z" fill="#d7c1b3" stroke="#d7c1b3"/><path d="m12.1984 17.0056-2.47838-.7294 1.74888-.7997z" fill="#233447" stroke="#233447"/><path d="m15.7928 17.0056.7295-1.5291 1.7577.7997z" fill="#233447" stroke="#233447"/><path d="m9.38606 21.7426.42185-3.5681-2.75079.0791z" fill="#cd6116" stroke="#cd6116"/><path d="m18.1921 18.1745.4218 3.5681 2.329-3.489z" fill="#cd6116" stroke="#cd6116"/><path d="m20.2837 14.2461-4.9391.2197.457 2.5399.7295-1.5292 1.7577.7997z" fill="#cd6116" stroke="#cd6116"/><path d="m9.72002 16.2762 1.75768-.7997.7207 1.5292.4658-2.5399-4.94794-.2197z" fill="#cd6116" stroke="#cd6116"/><path d="m7.71626 14.2461 2.07407 4.0427-.07031-2.0126z" fill="#e4751f" stroke="#e4751f"/><path d="m18.2888 16.2762-.0879 2.0126 2.0828-4.0427z" fill="#e4751f" stroke="#e4751f"/><path d="m12.6642 14.4658-.4658 2.5399.58 2.9968.1318-3.946z" fill="#e4751f" stroke="#e4751f"/><path d="m15.3446 14.4658-.2373 1.5819.1055 3.9548.5888-2.9968z" fill="#e4751f" stroke="#e4751f"/><path d="m15.8016 17.0056-.5888 2.9969.4219.29 2.5662-2.0037.0879-2.0126z" fill="#f6851b" stroke="#f6851b"/><path d="m9.72002 16.2762.07031 2.0126 2.56627 2.0037.4218-.29-.58-2.9969z" fill="#f6851b" stroke="#f6851b"/><path d="m15.8456 23.0521.0263-.8173-.2197-.1934h-3.3132l-.2022.1934.0176.8173-2.76834-1.3095.96674.791 1.9598 1.3622h3.366l1.9686-1.3622.9667-.791z" fill="#c0ad9e" stroke="#c0ad9e"/><path d="m15.6347 20.2925-.4219-.29h-2.4344l-.4218.29-.2198 1.9423.2022-.1934h3.3132l.2197.1934z" fill="#161616" stroke="#161616"/><path d="m24.4583 10.0364.747-3.58568-1.1162-3.33082-8.4544 6.27495 3.2517 2.75075 4.5963 1.3447 1.0195-1.1865-.4394-.3164.703-.6415-.5448-.4219.703-.5361z" fill="#763d16" stroke="#763d16"/><path d="m2.79472 6.45072.74702 3.58568-.47457.3515.70307.5361-.53609.4219.70307.6415-.43942.3164 1.01067 1.1865 4.59636-1.3447 3.25177-2.75075-8.45453-6.27495z" fill="#763d16" stroke="#763d16"/><path d="m23.4827 13.4903-4.5963-1.3447 1.3973 2.1005-2.0828 4.0427 2.742-.0352h4.0866z" fill="#f6851b" stroke="#f6851b"/><path d="m9.10484 12.1456-4.59636 1.3447-1.52919 4.7633h4.07784l2.7332.0352-2.07407-4.0427z" fill="#f6851b" stroke="#f6851b"/><path d="m15.3446 14.4658.2901-5.07095 1.3358-3.61205h-5.9322l1.3183 3.61205.3076 5.07095.1054 1.5995.0088 3.9372h2.4344l.0176-3.9372z" fill="#f6851b" stroke="#f6851b"/></g></svg>