<svg fill="none" height="120" viewBox="0 0 120 120" width="120" xmlns="http://www.w3.org/2000/svg" xmlns:xlink="http://www.w3.org/1999/xlink"><linearGradient id="a" gradientUnits="userSpaceOnUse" x1="60" x2="60" y1="0" y2="120"><stop offset="0" stop-color="#174299"/><stop offset="1" stop-color="#001e59"/></linearGradient><radialGradient id="b" cx="0" cy="0" gradientTransform="matrix(0 -74 74 0 26 94)" gradientUnits="userSpaceOnUse" r="1"><stop offset=".770277" stop-color="#ff4000"/><stop offset="1" stop-color="#8754c9"/></radialGradient><linearGradient id="c" gradientUnits="userSpaceOnUse" x1="83" x2="100" y1="97" y2="97"><stop offset="0" stop-color="#ff4000"/><stop offset="1" stop-color="#8754c9"/></linearGradient><linearGradient id="d" gradientUnits="userSpaceOnUse" x1="23" x2="23" y1="20" y2="37"><stop offset="0" stop-color="#8754c9"/><stop offset="1" stop-color="#ff4000"/></linearGradient><radialGradient id="e" cx="0" cy="0" gradientTransform="matrix(0 -58 58 0 26 94)" gradientUnits="userSpaceOnUse" r="1"><stop offset=".723929" stop-color="#fff700"/><stop offset="1" stop-color="#ff9901"/></radialGradient><linearGradient id="f"><stop offset="0" stop-color="#fff700"/><stop offset="1" stop-color="#ff9901"/></linearGradient><linearGradient id="g" gradientUnits="userSpaceOnUse" x1="68" x2="84" xlink:href="#f" y1="97" y2="97"/><linearGradient id="h" gradientUnits="userSpaceOnUse" x1="23" x2="23" xlink:href="#f" y1="52" y2="36"/><radialGradient id="i" cx="0" cy="0" gradientTransform="matrix(0 -42 42 0 26 94)" gradientUnits="userSpaceOnUse" r="1"><stop offset=".59513" stop-color="#0af"/><stop offset="1" stop-color="#01da40"/></radialGradient><linearGradient id="j"><stop offset="0" stop-color="#0af"/><stop offset="1" stop-color="#01da40"/></linearGradient><radialGradient id="k" cx="0" cy="0" gradientTransform="matrix(17 0 0 45.3333 51 97)" gradientUnits="userSpaceOnUse" r="1" xlink:href="#j"/><radialGradient id="l" cx="0" cy="0" gradientTransform="matrix(0 -17 322.37 0 23 69)" gradientUnits="userSpaceOnUse" r="1" xlink:href="#j"/><path d="m0 0h120v120h-120z" fill="url(#a)"/><path d="m20 38h6c30.9279 0 56 25.0721 56 56v6h12c3.3137 0 6-2.6863 6-6 0-40.8691-33.1309-74-74-74-3.3137 0-6 2.6863-6 6z" fill="url(#b)"/><path d="m84 94h16c0 3.3137-2.6863 6-6 6h-10z" fill="url(#c)"/><path d="m26 20v16h-6v-10c0-3.3137 2.6863-6 6-6z" fill="url(#d)"/><path d="m20 36h6c32.0325 0 58 25.9675 58 58v6h-18v-6c0-22.0914-17.9086-40-40-40h-6z" fill="url(#e)"/><path d="m68 94h16v6h-16z" fill="url(#g)"/><path d="m20 52v-16h6v16z" fill="url(#h)"/><path d="m20 62c0 3.3137 2.6863 6 6 6 14.3594 0 26 11.6406 26 26 0 3.3137 2.6863 6 6 6h10v-6c0-23.196-18.804-42-42-42h-6z" fill="url(#i)"/><path d="m52 94h16v6h-10c-3.3137 0-6-2.6863-6-6z" fill="url(#k)"/><path d="m26 68c-3.3137 0-6-2.6863-6-6v-10h6z" fill="url(#l)"/></svg>