<svg xmlns="http://www.w3.org/2000/svg" xmlns:xlink="http://www.w3.org/1999/xlink" version="1.1" id="Layer_1" x="0px" y="0px" width="100%" viewBox="0 0 192 192" enable-background="new 0 0 192 192" xml:space="preserve">
<path fill="#1B67FF" opacity="1.000000" stroke="#1B67FF" d=" M106.000000,193.000000   C70.689354,193.000000 35.878712,193.000000 1.034034,193.000000   C1.034034,129.064392 1.034034,65.128761 1.034034,1.096564   C64.893806,1.096564 128.787811,1.096564 192.840912,1.096564   C192.840912,64.999687 192.840912,128.999802 192.840912,193.000000   C164.129044,193.000000 135.314529,193.000000 106.000000,193.000000  M150.008362,136.487183   C154.025894,133.397156 155.084457,129.257050 155.063660,124.320084   C154.935165,93.826813 155.003235,63.332733 154.996323,32.838921   C154.994507,24.772005 150.267105,20.006527 142.258118,20.004417   C112.097572,19.996468 81.937027,19.996660 51.776485,20.004229   C43.761703,20.006239 39.005798,24.773426 39.003960,32.804310   C38.996910,63.631390 39.157372,94.459984 38.857960,125.284157   C38.803665,130.873962 41.176594,134.459991 45.046162,137.459290   C57.566742,147.163986 70.141495,156.803146 82.862656,166.242126   C86.841347,169.194275 91.067764,172.356796 95.686386,173.766357   C101.642288,175.584091 105.402695,170.378769 109.668358,167.107269   C122.872581,156.980423 136.208237,147.024948 150.008362,136.487183  z"/>
<path fill="#1B67FF" opacity="1.000000" stroke="none" d=" M149.750610,136.745071   C136.208237,147.024948 122.872581,156.980423 109.668358,167.107269   C105.402695,170.378769 101.642288,175.584091 95.686386,173.766357   C91.067764,172.356796 86.841347,169.194275 82.862656,166.242126   C70.141495,156.803146 57.566742,147.163986 45.046162,137.459290   C41.176594,134.459991 38.803665,130.873962 38.857960,125.284157   C39.157372,94.459984 38.996910,63.631390 39.003960,32.804310   C39.005798,24.773426 43.761703,20.006239 51.776485,20.004229   C81.937027,19.996660 112.097572,19.996468 142.258118,20.004417   C150.267105,20.006527 154.994507,24.772005 154.996323,32.838921   C155.003235,63.332733 154.935165,93.826813 155.063660,124.320084   C155.084457,129.257050 154.025894,133.397156 149.750610,136.745071  M58.697037,88.499832   C58.697155,98.498421 58.875866,108.501465 58.626945,118.493851   C58.489002,124.031235 60.504036,128.077850 64.935059,131.244888   C68.453415,133.759628 71.760277,136.568497 75.196472,139.200516   C77.888588,141.262573 80.634964,143.253830 84.759888,146.318756   C84.759888,127.612831 84.759888,110.479187 84.759888,93.076073   C90.074753,93.076073 94.390656,93.037804 98.705635,93.084709   C105.846985,93.162315 109.118507,96.358459 109.148109,103.417107   C109.199127,115.581802 109.135025,127.747002 109.196129,139.911606   C109.204430,141.563736 109.656319,143.213638 110.061584,145.928024   C117.257957,140.348145 123.494591,135.426849 129.827896,130.633316   C133.731766,127.678543 135.560333,123.934570 135.344513,119.009880   C135.155014,114.685493 135.186218,110.342201 135.331619,106.014381   C135.592453,98.251579 135.999725,90.499489 125.253769,87.106369   C133.602570,84.222626 135.597031,79.091072 135.354721,72.423882   C135.124878,66.099808 135.331528,59.760704 135.298874,53.428455   C135.251190,44.183430 130.802109,39.406929 121.694778,39.333080   C105.198250,39.199303 88.699104,39.201099 72.202553,39.333046   C63.270298,39.404488 58.744305,44.128792 58.708809,53.004856   C58.662827,64.503014 58.697224,76.001488 58.697037,88.499832  z"/>
<path fill="#FCFDFF" opacity="1.000000" stroke="none" d=" M58.697029,87.999832   C58.697224,76.001488 58.662827,64.503014 58.708809,53.004856   C58.744305,44.128792 63.270298,39.404488 72.202553,39.333046   C88.699104,39.201099 105.198250,39.199303 121.694778,39.333080   C130.802109,39.406929 135.251190,44.183430 135.298874,53.428455   C135.331528,59.760704 135.124878,66.099808 135.354721,72.423882   C135.597031,79.091072 133.602570,84.222626 125.253769,87.106369   C135.999725,90.499489 135.592453,98.251579 135.331619,106.014381   C135.186218,110.342201 135.155014,114.685493 135.344513,119.009880   C135.560333,123.934570 133.731766,127.678543 129.827896,130.633316   C123.494591,135.426849 117.257957,140.348145 110.061584,145.928024   C109.656319,143.213638 109.204430,141.563736 109.196129,139.911606   C109.135025,127.747002 109.199127,115.581802 109.148109,103.417107   C109.118507,96.358459 105.846985,93.162315 98.705635,93.084709   C94.390656,93.037804 90.074753,93.076073 84.759888,93.076073   C84.759888,110.479187 84.759888,127.612831 84.759888,146.318756   C80.634964,143.253830 77.888588,141.262573 75.196472,139.200516   C71.760277,136.568497 68.453415,133.759628 64.935059,131.244888   C60.504036,128.077850 58.489002,124.031235 58.626945,118.493851   C58.875866,108.501465 58.697155,98.498421 58.697029,87.999832  M84.833099,71.460297   C84.833099,74.540337 84.833099,77.620384 84.833099,81.036972   C90.757118,81.036972 95.887848,81.227257 100.996941,80.976471   C105.047020,80.777664 108.450340,78.367615 108.759308,74.472015   C109.354652,66.965607 108.932892,59.378540 108.932892,51.703297   C100.656006,51.703297 92.952789,51.703297 84.833099,51.703297   C84.833099,58.224724 84.833099,64.348846 84.833099,71.460297  z"/>
<path fill="#1C68FF" opacity="1.000000" stroke="none" d=" M84.833099,70.966629   C84.833099,64.348846 84.833099,58.224724 84.833099,51.703297   C92.952789,51.703297 100.656006,51.703297 108.932892,51.703297   C108.932892,59.378540 109.354652,66.965607 108.759308,74.472015   C108.450340,78.367615 105.047020,80.777664 100.996941,80.976471   C95.887848,81.227257 90.757118,81.036972 84.833099,81.036972   C84.833099,77.620384 84.833099,74.540337 84.833099,70.966629  z"/>
</svg>