<svg fill="none" height="600" viewBox="0 0 600 600" width="600" xmlns="http://www.w3.org/2000/svg"><path d="m0 0h600v600h-600z" fill="#000"/><path d="m470.747 209.191c-8.442-16.837-22.101-30.496-38.939-38.938-18.471-9.253-42.575-9.253-90.802-9.253-9.77 0-33.09 0-41.006 0s-31.272 0-41.006 0c-48.138 0-72.332 0-90.803 9.253-16.837 8.437-30.491 22.097-38.921 38.938-9.271 18.471-9.27 42.576-9.27 90.785s-.001 72.332 9.27 90.802c8.43 16.841 22.084 30.501 38.921 38.938 18.471 9.254 42.593 9.254 90.803 9.254h41.006 41.006c48.138 0 72.331 0 90.802-9.254 16.838-8.442 30.497-22.1 38.939-38.938 9.253-18.47 9.253-42.575 9.253-90.802s0-72.314-9.253-90.785z" fill="#ffceaa"/><g fill="#ff3b9a"><path d="m218.557 350.342c-2.234-4.385-5.635-8.068-9.828-10.644-4.193-2.577-9.016-3.946-13.938-3.957h-28.044c-2.871.014-5.706.629-8.325 1.807-2.618 1.177-4.96 2.891-6.875 5.029-1.915 2.139-3.361 4.655-4.244 7.387s-1.183 5.618-.881 8.473c.963 9.039 2.532 15.903 5.153 21.127 6.054 12.009 15.803 21.759 27.813 27.813 8.807 4.421 22.286 5.883 43.056 6.365 2.971.07 5.909-.633 8.526-2.04s4.823-3.47 6.403-5.987c1.58-2.516 2.479-5.4 2.609-8.369.131-2.968-.512-5.919-1.866-8.565z"/><path d="m180.618 312.563c9.234-.001 18.332-2.228 26.522-6.492 8.19-4.265 15.231-10.441 20.528-18.005l27.188-38.813c4.905-7.003 7.983-15.119 8.954-23.613.972-8.494-.194-17.095-3.391-25.024v-.232c-1.506-3.829-4.01-7.184-7.252-9.718-3.242-2.533-7.103-4.152-11.182-4.688-32.253.107-51.259.909-62.58 6.597-12.035 6.011-21.794 15.764-27.813 27.795-4.867 9.877-6.365 37.637-6.722 60.137-.073 4.191.69 8.355 2.244 12.247 1.554 3.893 3.869 7.437 6.809 10.425s6.446 5.36 10.313 6.977c3.867 1.618 8.018 2.448 12.209 2.443z"/><path d="m449.702 220.356c-6.047-11.991-15.793-21.717-27.796-27.742-12.016-6.026-32.644-6.561-68.569-6.614-48.673 0-63.809 56-74.203 70.834l-30.578 43.663c-4.911 7.013-7.827 15.228-8.436 23.769-.609 8.54 1.111 17.086 4.978 24.725l22.66 44.822c3.084 6.118 7.82 11.25 13.672 14.814s12.586 5.418 19.437 5.351h.623 40.793c42.789 0 66.43-.001 79.623-6.597 12.008-6.05 21.754-15.801 27.796-27.813 6.615-13.194 6.614-36.781 6.614-79.624s.001-66.323-6.614-79.588z"/></g></svg>