<svg fill="none" height="28" viewBox="0 0 28 28" width="28" xmlns="http://www.w3.org/2000/svg"><path d="m0 0h28v28h-28z" fill="#3b99fc"/><path d="m8.38969 10.3739c3.09851-3.09852 8.12211-3.09852 11.22061 0l.3729.3729c.155.1549.155.4061 0 .561l-1.2756 1.2757c-.0775.0774-.2031.0774-.2805 0l-.5132-.5132c-2.1616-2.1616-5.6662-2.1616-7.8278 0l-.54955.5495c-.07746.0775-.20305.0775-.28051 0l-1.27565-1.2756c-.15492-.1549-.15492-.4061 0-.561zm13.85881 2.6381 1.1353 1.1354c.1549.1549.1549.4061 0 .561l-5.1193 5.1193c-.1549.155-.4061.155-.561 0l-3.6333-3.6333c-.0388-.0387-.1016-.0387-.1403 0l-3.6333 3.6333c-.1549.155-.40607.155-.56099.0001-.00001 0-.00001-.0001-.00001-.0001l-5.11941-5.1194c-.15492-.1549-.15492-.4061 0-.561l1.13533-1.1353c.15493-.155.40611-.155.56103 0l3.6334 3.6334c.03873.0387.10155.0387.14025 0l3.6332-3.6334c.1549-.155.4061-.155.5611 0l3.6334 3.6334c.0387.0387.1015.0387.1402 0l3.6333-3.6334c.155-.1549.4062-.1549.5611 0z" fill="#fff"/></svg>