<svg fill="none" height="28" width="28" xmlns="http://www.w3.org/2000/svg" xmlns:xlink="http://www.w3.org/1999/xlink"><linearGradient id="a" gradientUnits="userSpaceOnUse" x1="0" x2="14" y1="0" y2="28"><stop offset="0" stop-color="#fff"/><stop offset="1" stop-color="#fff" stop-opacity="0"/></linearGradient><mask id="b" height="28" maskUnits="userSpaceOnUse" width="28" x="0" y="0"><rect fill="#c4c4c4" height="28" rx="14" width="28"/></mask><rect fill="#2d374b" height="26.6" rx="13.3" stroke="#96bedc" stroke-width="1.4" width="26.6" x=".7" y=".7"/><g mask="url(#b)"><path d="m14.0861 18.6041 6.5014 10.2239 4.0057-2.3213-7.86-12.3943zm13.0744 3.4692-.003-1.8599-7.3064-11.407-2.3087 3.9173 7.091 11.4303 2.172-1.2586a.9628.9628 0 0 0 .3555-.7009z" fill="#28a0f0"/><rect fill="url(#a)" fill-opacity=".3" height="25.9" rx="12.95" stroke="#96bedc" stroke-width="2.1" width="25.9" x="1.05" y="1.05"/><path d="m.3634 28.2207-3.07-1.7674-.234-.8333 10.6867-16.6006c.7298-1.1913 2.3197-1.575 3.7957-1.5541l1.7323.0457zm18.8021-20.7097-4.5653.0166-12.3602 20.4257 3.6103 2.0788.9818-1.6652z" fill="#fff"/></g></svg>