<svg xmlns="http://www.w3.org/2000/svg" width="199" height="28" viewBox="0 0 199 28" fill="none">
    <path d="M46.9506 8.91633C46.6869 8.80776 46.3922 8.73022 46.0665 8.68369C45.7563 8.62165 45.3764 8.59064 44.9266 8.59064C44.2907 8.59064 43.6626 8.70695 43.0422 8.93959C42.4374 9.17223 41.8945 9.55221 41.4138 10.0795C40.9485 10.6068 40.5685 11.297 40.2738 12.15C39.9947 13.003 39.8551 14.0499 39.8551 15.2906C39.8551 16.4073 39.9792 17.3844 40.2273 18.2219C40.491 19.0594 40.8477 19.7573 41.2974 20.3156C41.7627 20.874 42.3133 21.2927 42.9492 21.5719C43.6006 21.851 44.3217 21.9906 45.1127 21.9906C45.516 21.9906 45.8882 21.9596 46.2294 21.8976C46.5861 21.82 46.9118 21.7192 47.2065 21.5951V19.2687H48.928V22.4094L48.9513 22.4559C48.486 22.8126 47.8966 23.115 47.1832 23.3632C46.4698 23.5958 45.6013 23.7121 44.5776 23.7121C43.6006 23.7121 42.6933 23.5493 41.8558 23.2236C41.0338 22.8824 40.3204 22.3706 39.7155 21.6882C39.1106 21.0058 38.6376 20.1373 38.2964 19.0826C37.9707 18.0125 37.8079 16.7485 37.8079 15.2906C37.8079 13.7707 37.994 12.4835 38.3662 11.4288C38.7384 10.3587 39.2425 9.49017 39.8783 8.82327C40.5142 8.14087 41.2509 7.64457 42.0884 7.33439C42.9414 7.0242 43.8487 6.86911 44.8103 6.86911C45.3376 6.86911 45.7951 6.89237 46.1829 6.9389C46.5706 6.96992 46.9118 7.0242 47.2065 7.10175C47.5011 7.16379 47.757 7.24909 47.9742 7.35765C48.2068 7.46622 48.4317 7.59029 48.6488 7.72987H48.6721V11.4056H46.9506V8.91633Z" fill="#000000"/>
    <path d="M51.571 17.617C51.571 15.7404 52.0595 14.2593 53.0366 13.1736C54.0137 12.0725 55.4095 11.5219 57.2241 11.5219C58.2012 11.5219 59.0387 11.6847 59.7366 12.0104C60.45 12.3206 61.0394 12.7471 61.5046 13.2899C61.9699 13.8328 62.3111 14.4764 62.5283 15.2208C62.7609 15.9653 62.8772 16.764 62.8772 17.617C62.8772 18.5476 62.7531 19.3928 62.505 20.1528C62.2568 20.8972 61.8924 21.5331 61.4116 22.0604C60.9308 22.5877 60.3337 22.9987 59.6203 23.2934C58.9224 23.5726 58.1236 23.7121 57.2241 23.7121C56.2625 23.7121 55.425 23.5571 54.7116 23.2469C53.9982 22.9212 53.4088 22.4869 52.9435 21.9441C52.4783 21.4013 52.1293 20.7576 51.8967 20.0132C51.6795 19.2687 51.571 18.47 51.571 17.617ZM53.5019 17.617C53.5019 18.1598 53.5639 18.7027 53.688 19.2455C53.8276 19.7883 54.0447 20.2768 54.3394 20.7111C54.6341 21.1454 55.014 21.4943 55.4793 21.758C55.9601 22.0216 56.5417 22.1535 57.2241 22.1535C58.4648 22.1535 59.3954 21.7735 60.0158 21.0135C60.6516 20.2381 60.9696 19.1059 60.9696 17.617C60.9696 17.0587 60.8998 16.5159 60.7602 15.9885C60.6361 15.4457 60.419 14.9572 60.1088 14.5229C59.8141 14.0887 59.4264 13.7397 58.9456 13.476C58.4803 13.2124 57.9065 13.0806 57.2241 13.0806C55.9834 13.0806 55.0528 13.4605 54.4324 14.2205C53.8121 14.9804 53.5019 16.1126 53.5019 17.617Z" fill="#000000"/>
    <path d="M66.3577 15.8722C66.3577 15.7326 66.35 15.5543 66.3344 15.3372C66.3344 15.1045 66.3267 14.8719 66.3112 14.6392C66.2957 14.3911 66.2724 14.1507 66.2414 13.9181C66.2259 13.6854 66.2026 13.4838 66.1716 13.3132H64.6129V11.801H67.7303L67.9396 13.6854H68.056C68.2111 13.4218 68.4127 13.1659 68.6608 12.9177C68.9245 12.6541 69.2269 12.4214 69.5681 12.2198C69.9093 12.0027 70.2893 11.8321 70.708 11.708C71.1268 11.5839 71.5688 11.5219 72.0341 11.5219C72.7475 11.5219 73.3756 11.5994 73.9185 11.7545C74.4768 11.9096 74.9343 12.1888 75.291 12.592C75.6633 12.9798 75.9424 13.5148 76.1285 14.1972C76.3146 14.8641 76.4077 15.7171 76.4077 16.7563V23.433H74.5931V17.1052C74.5931 15.8179 74.3837 14.8486 73.965 14.1972C73.5462 13.5458 72.7863 13.2201 71.6851 13.2201C71.2819 13.2201 70.8864 13.3054 70.4987 13.476C70.1264 13.6311 69.7852 13.8405 69.4751 14.1042C69.1649 14.3678 68.8935 14.678 68.6608 15.0347C68.4282 15.3759 68.2576 15.7404 68.149 16.1281V23.433H66.3577V15.8722Z" fill="#000000"/>
    <path d="M88.333 20.2924C88.333 19.7961 88.1391 19.4161 87.7514 19.1524C87.3636 18.8733 86.8829 18.6561 86.309 18.501C85.7352 18.3304 85.107 18.1753 84.4246 18.0358C83.7577 17.8962 83.1374 17.7101 82.5635 17.4774C81.9897 17.2448 81.5089 16.9346 81.1212 16.5469C80.7334 16.1436 80.5396 15.5853 80.5396 14.8719C80.5396 14.2825 80.6637 13.7785 80.9118 13.3597C81.1755 12.941 81.5167 12.5998 81.9354 12.3361C82.3542 12.057 82.8427 11.8553 83.401 11.7313C83.9594 11.5917 84.541 11.5219 85.1458 11.5219C86.2315 11.5219 87.162 11.6615 87.9375 11.9406C88.7285 12.2043 89.3566 12.4835 89.8219 12.7781L89.0774 14.2438C88.5656 13.9646 88.0073 13.7009 87.4024 13.4528C86.8131 13.1891 86.0686 13.0573 85.1691 13.0573C84.8279 13.0573 84.4867 13.0961 84.1455 13.1736C83.8198 13.2357 83.5174 13.3365 83.2382 13.476C82.9745 13.6156 82.7574 13.8017 82.5868 14.0344C82.4317 14.2515 82.3542 14.5229 82.3542 14.8486C82.3542 15.2519 82.548 15.562 82.9358 15.7792C83.3235 15.9963 83.8043 16.1824 84.3781 16.3375C84.952 16.4771 85.5723 16.6167 86.2392 16.7563C86.9216 16.8803 87.5498 17.0664 88.1236 17.3146C88.6974 17.5627 89.1782 17.8962 89.566 18.3149C89.9537 18.7337 90.1476 19.2998 90.1476 20.0132C90.1476 21.0833 89.721 21.9674 88.868 22.6653C88.0305 23.3632 86.7665 23.7121 85.076 23.7121C84.5642 23.7121 84.0602 23.6656 83.5639 23.5726C83.0676 23.4795 82.6023 23.3554 82.168 23.2003C81.7338 23.0452 81.3383 22.8746 80.9816 22.6885C80.6249 22.4869 80.3302 22.2853 80.0976 22.0837L81.0281 20.5715C81.2142 20.7576 81.4624 20.9515 81.7726 21.1531C82.0827 21.3392 82.424 21.5098 82.7962 21.6649C83.1684 21.82 83.5639 21.9441 83.9826 22.0371C84.4169 22.1302 84.8511 22.1767 85.2854 22.1767C85.7042 22.1767 86.0919 22.1457 86.4486 22.0837C86.8208 22.0061 87.1465 21.8976 87.4257 21.758C87.7048 21.6029 87.922 21.409 88.0771 21.1764C88.2477 20.9282 88.333 20.6336 88.333 20.2924Z" fill="#000000"/>
    <path d="M93.4187 17.617C93.4187 15.7404 93.9072 14.2593 94.8843 13.1736C95.8614 12.0725 97.2572 11.5219 99.0718 11.5219C100.049 11.5219 100.886 11.6847 101.584 12.0104C102.298 12.3206 102.887 12.7471 103.352 13.2899C103.818 13.8328 104.159 14.4764 104.376 15.2208C104.609 15.9653 104.725 16.764 104.725 17.617C104.725 18.5476 104.601 19.3928 104.353 20.1528C104.105 20.8972 103.74 21.5331 103.259 22.0604C102.778 22.5877 102.181 22.9987 101.468 23.2934C100.77 23.5726 99.9713 23.7121 99.0718 23.7121C98.1102 23.7121 97.2727 23.5571 96.5593 23.2469C95.8459 22.9212 95.2565 22.4869 94.7912 21.9441C94.326 21.4013 93.977 20.7576 93.7444 20.0132C93.5272 19.2687 93.4187 18.47 93.4187 17.617ZM95.3496 17.617C95.3496 18.1598 95.4116 18.7027 95.5357 19.2455C95.6753 19.7883 95.8924 20.2768 96.1871 20.7111C96.4817 21.1454 96.8617 21.4943 97.327 21.758C97.8078 22.0216 98.3894 22.1535 99.0718 22.1535C100.313 22.1535 101.243 21.7735 101.863 21.0135C102.499 20.2381 102.817 19.1059 102.817 17.617C102.817 17.0587 102.747 16.5159 102.608 15.9885C102.484 15.4457 102.267 14.9572 101.957 14.5229C101.662 14.0887 101.274 13.7397 100.793 13.476C100.328 13.2124 99.7542 13.0806 99.0718 13.0806C97.831 13.0806 96.9005 13.4605 96.2801 14.2205C95.6598 14.9804 95.3496 16.1126 95.3496 17.617Z" fill="#000000"/>
    <path d="M107.67 7.14828H111.532V19.5246C111.532 20.4707 111.687 21.1376 111.997 21.5253C112.323 21.9131 112.796 22.1069 113.417 22.1069C113.851 22.1069 114.293 22.0216 114.743 21.851C115.192 21.6804 115.603 21.44 115.976 21.1299L116.813 22.3628C116.565 22.58 116.293 22.7738 115.999 22.9444C115.704 23.115 115.402 23.2624 115.091 23.3864C114.781 23.495 114.471 23.5803 114.161 23.6424C113.851 23.7044 113.564 23.7354 113.3 23.7354C112.726 23.7354 112.215 23.6579 111.765 23.5028C111.315 23.3632 110.935 23.1305 110.625 22.8049C110.33 22.4792 110.105 22.0527 109.95 21.5253C109.795 20.9825 109.718 20.3156 109.718 19.5246V8.70695H107.67V7.14828Z" fill="#000000"/>
    <path d="M132.298 21.9674C132.019 22.2155 131.685 22.4481 131.297 22.6653C130.925 22.8824 130.514 23.0685 130.064 23.2236C129.615 23.3787 129.142 23.495 128.645 23.5726C128.164 23.6656 127.676 23.7121 127.18 23.7121C126.249 23.7121 125.427 23.5726 124.714 23.2934C124 22.9987 123.403 22.5877 122.922 22.0604C122.442 21.5176 122.077 20.874 121.829 20.1295C121.581 19.3851 121.457 18.5476 121.457 17.617C121.457 16.6399 121.589 15.7714 121.852 15.0115C122.131 14.2515 122.527 13.6156 123.039 13.1038C123.55 12.592 124.171 12.2043 124.9 11.9406C125.629 11.6615 126.443 11.5219 127.342 11.5219C127.994 11.5219 128.637 11.6072 129.273 11.7778C129.909 11.9484 130.468 12.2741 130.948 12.7549C131.445 13.2201 131.825 13.8715 132.088 14.709C132.352 15.531 132.445 16.6012 132.367 17.9194H123.364C123.364 19.3153 123.737 20.3621 124.481 21.0601C125.241 21.7425 126.249 22.0837 127.505 22.0837C127.924 22.0837 128.335 22.0371 128.738 21.9441C129.157 21.8355 129.553 21.7115 129.925 21.5719C130.297 21.4323 130.623 21.2772 130.902 21.1066C131.197 20.936 131.421 20.7809 131.576 20.6413L132.298 21.9674ZM127.389 13.0573C126.877 13.0573 126.389 13.1116 125.923 13.2201C125.474 13.3287 125.07 13.5148 124.714 13.7785C124.372 14.0266 124.086 14.3601 123.853 14.7788C123.636 15.1821 123.496 15.6861 123.434 16.291H130.669C130.592 15.2674 130.258 14.4764 129.669 13.9181C129.095 13.3442 128.335 13.0573 127.389 13.0573Z" fill="#000000"/>
    <path d="M46.9506 8.91633C46.6869 8.80776 46.3922 8.73022 46.0665 8.68369C45.7563 8.62165 45.3764 8.59064 44.9266 8.59064C44.2907 8.59064 43.6626 8.70695 43.0422 8.93959C42.4374 9.17223 41.8945 9.55221 41.4138 10.0795C40.9485 10.6068 40.5685 11.297 40.2738 12.15C39.9947 13.003 39.8551 14.0499 39.8551 15.2906C39.8551 16.4073 39.9792 17.3844 40.2273 18.2219C40.491 19.0594 40.8477 19.7573 41.2974 20.3156C41.7627 20.874 42.3133 21.2927 42.9492 21.5719C43.6006 21.851 44.3217 21.9906 45.1127 21.9906C45.516 21.9906 45.8882 21.9596 46.2294 21.8976C46.5861 21.82 46.9118 21.7192 47.2065 21.5951V19.2687H48.928V22.4094L48.9513 22.4559C48.486 22.8126 47.8966 23.115 47.1832 23.3632C46.4698 23.5958 45.6013 23.7121 44.5776 23.7121C43.6006 23.7121 42.6933 23.5493 41.8558 23.2236C41.0338 22.8824 40.3204 22.3706 39.7155 21.6882C39.1106 21.0058 38.6376 20.1373 38.2964 19.0826C37.9707 18.0125 37.8079 16.7485 37.8079 15.2906C37.8079 13.7707 37.994 12.4835 38.3662 11.4288C38.7384 10.3587 39.2425 9.49017 39.8783 8.82327C40.5142 8.14087 41.2509 7.64457 42.0884 7.33439C42.9414 7.0242 43.8487 6.86911 44.8103 6.86911C45.3376 6.86911 45.7951 6.89237 46.1829 6.9389C46.5706 6.96992 46.9118 7.0242 47.2065 7.10175C47.5011 7.16379 47.757 7.24909 47.9742 7.35765C48.2068 7.46622 48.4317 7.59029 48.6488 7.72987H48.6721V11.4056H46.9506V8.91633Z" stroke="#000000" stroke-miterlimit="10"/>
    <path d="M51.571 17.617C51.571 15.7404 52.0595 14.2593 53.0366 13.1736C54.0137 12.0725 55.4095 11.5219 57.2241 11.5219C58.2012 11.5219 59.0387 11.6847 59.7366 12.0104C60.45 12.3206 61.0394 12.7471 61.5046 13.2899C61.9699 13.8328 62.3111 14.4764 62.5283 15.2208C62.7609 15.9653 62.8772 16.764 62.8772 17.617C62.8772 18.5476 62.7531 19.3928 62.505 20.1528C62.2568 20.8972 61.8924 21.5331 61.4116 22.0604C60.9308 22.5877 60.3337 22.9987 59.6203 23.2934C58.9224 23.5726 58.1236 23.7121 57.2241 23.7121C56.2625 23.7121 55.425 23.5571 54.7116 23.2469C53.9982 22.9212 53.4088 22.4869 52.9435 21.9441C52.4783 21.4013 52.1293 20.7576 51.8967 20.0132C51.6795 19.2687 51.571 18.47 51.571 17.617ZM53.5019 17.617C53.5019 18.1598 53.5639 18.7027 53.688 19.2455C53.8276 19.7883 54.0447 20.2768 54.3394 20.7111C54.6341 21.1454 55.014 21.4943 55.4793 21.758C55.9601 22.0216 56.5417 22.1535 57.2241 22.1535C58.4648 22.1535 59.3954 21.7735 60.0158 21.0135C60.6516 20.2381 60.9696 19.1059 60.9696 17.617C60.9696 17.0587 60.8998 16.5159 60.7602 15.9885C60.6361 15.4457 60.419 14.9572 60.1088 14.5229C59.8141 14.0887 59.4264 13.7397 58.9456 13.476C58.4803 13.2124 57.9065 13.0806 57.2241 13.0806C55.9834 13.0806 55.0528 13.4605 54.4324 14.2205C53.8121 14.9804 53.5019 16.1126 53.5019 17.617Z" stroke="#000000" stroke-miterlimit="10"/>
    <path d="M66.3577 15.8722C66.3577 15.7326 66.35 15.5543 66.3344 15.3372C66.3344 15.1045 66.3267 14.8719 66.3112 14.6392C66.2957 14.3911 66.2724 14.1507 66.2414 13.9181C66.2259 13.6854 66.2026 13.4838 66.1716 13.3132H64.6129V11.801H67.7303L67.9396 13.6854H68.056C68.2111 13.4218 68.4127 13.1659 68.6608 12.9177C68.9245 12.6541 69.2269 12.4214 69.5681 12.2198C69.9093 12.0027 70.2893 11.8321 70.708 11.708C71.1268 11.5839 71.5688 11.5219 72.0341 11.5219C72.7475 11.5219 73.3756 11.5994 73.9185 11.7545C74.4768 11.9096 74.9343 12.1888 75.291 12.592C75.6633 12.9798 75.9424 13.5148 76.1285 14.1972C76.3146 14.8641 76.4077 15.7171 76.4077 16.7563V23.433H74.5931V17.1052C74.5931 15.8179 74.3837 14.8486 73.965 14.1972C73.5462 13.5458 72.7863 13.2201 71.6851 13.2201C71.2819 13.2201 70.8864 13.3054 70.4987 13.476C70.1264 13.6311 69.7852 13.8405 69.4751 14.1042C69.1649 14.3678 68.8935 14.678 68.6608 15.0347C68.4282 15.3759 68.2576 15.7404 68.149 16.1281V23.433H66.3577V15.8722Z" stroke="#000000" stroke-miterlimit="10"/>
    <path d="M88.333 20.2924C88.333 19.7961 88.1391 19.4161 87.7514 19.1524C87.3636 18.8733 86.8829 18.6561 86.309 18.501C85.7352 18.3304 85.107 18.1753 84.4246 18.0358C83.7577 17.8962 83.1374 17.7101 82.5635 17.4774C81.9897 17.2448 81.5089 16.9346 81.1212 16.5469C80.7334 16.1436 80.5396 15.5853 80.5396 14.8719C80.5396 14.2825 80.6637 13.7785 80.9118 13.3597C81.1755 12.941 81.5167 12.5998 81.9354 12.3361C82.3542 12.057 82.8427 11.8553 83.401 11.7313C83.9594 11.5917 84.541 11.5219 85.1458 11.5219C86.2315 11.5219 87.162 11.6615 87.9375 11.9406C88.7285 12.2043 89.3566 12.4835 89.8219 12.7781L89.0774 14.2438C88.5656 13.9646 88.0073 13.7009 87.4024 13.4528C86.8131 13.1891 86.0686 13.0573 85.1691 13.0573C84.8279 13.0573 84.4867 13.0961 84.1455 13.1736C83.8198 13.2357 83.5174 13.3365 83.2382 13.476C82.9745 13.6156 82.7574 13.8017 82.5868 14.0344C82.4317 14.2515 82.3542 14.5229 82.3542 14.8486C82.3542 15.2519 82.548 15.562 82.9358 15.7792C83.3235 15.9963 83.8043 16.1824 84.3781 16.3375C84.952 16.4771 85.5723 16.6167 86.2392 16.7563C86.9216 16.8803 87.5498 17.0664 88.1236 17.3146C88.6974 17.5627 89.1782 17.8962 89.566 18.3149C89.9537 18.7337 90.1476 19.2998 90.1476 20.0132C90.1476 21.0833 89.721 21.9674 88.868 22.6653C88.0305 23.3632 86.7665 23.7121 85.076 23.7121C84.5642 23.7121 84.0602 23.6656 83.5639 23.5726C83.0676 23.4795 82.6023 23.3554 82.168 23.2003C81.7338 23.0452 81.3383 22.8746 80.9816 22.6885C80.6249 22.4869 80.3302 22.2853 80.0976 22.0837L81.0281 20.5715C81.2142 20.7576 81.4624 20.9515 81.7726 21.1531C82.0827 21.3392 82.424 21.5098 82.7962 21.6649C83.1684 21.82 83.5639 21.9441 83.9826 22.0371C84.4169 22.1302 84.8511 22.1767 85.2854 22.1767C85.7042 22.1767 86.0919 22.1457 86.4486 22.0837C86.8208 22.0061 87.1465 21.8976 87.4257 21.758C87.7048 21.6029 87.922 21.409 88.0771 21.1764C88.2477 20.9282 88.333 20.6336 88.333 20.2924Z" stroke="#000000" stroke-miterlimit="10"/>
    <path d="M93.4187 17.617C93.4187 15.7404 93.9072 14.2593 94.8843 13.1736C95.8614 12.0725 97.2572 11.5219 99.0718 11.5219C100.049 11.5219 100.886 11.6847 101.584 12.0104C102.298 12.3206 102.887 12.7471 103.352 13.2899C103.818 13.8328 104.159 14.4764 104.376 15.2208C104.609 15.9653 104.725 16.764 104.725 17.617C104.725 18.5476 104.601 19.3928 104.353 20.1528C104.105 20.8972 103.74 21.5331 103.259 22.0604C102.778 22.5877 102.181 22.9987 101.468 23.2934C100.77 23.5726 99.9713 23.7121 99.0718 23.7121C98.1102 23.7121 97.2727 23.5571 96.5593 23.2469C95.8459 22.9212 95.2565 22.4869 94.7912 21.9441C94.326 21.4013 93.977 20.7576 93.7444 20.0132C93.5272 19.2687 93.4187 18.47 93.4187 17.617ZM95.3496 17.617C95.3496 18.1598 95.4116 18.7027 95.5357 19.2455C95.6753 19.7883 95.8924 20.2768 96.1871 20.7111C96.4817 21.1454 96.8617 21.4943 97.327 21.758C97.8078 22.0216 98.3894 22.1535 99.0718 22.1535C100.313 22.1535 101.243 21.7735 101.863 21.0135C102.499 20.2381 102.817 19.1059 102.817 17.617C102.817 17.0587 102.747 16.5159 102.608 15.9885C102.484 15.4457 102.267 14.9572 101.957 14.5229C101.662 14.0887 101.274 13.7397 100.793 13.476C100.328 13.2124 99.7542 13.0806 99.0718 13.0806C97.831 13.0806 96.9005 13.4605 96.2801 14.2205C95.6598 14.9804 95.3496 16.1126 95.3496 17.617Z" stroke="#000000" stroke-miterlimit="10"/>
    <path d="M107.67 7.14828H111.532V19.5246C111.532 20.4707 111.687 21.1376 111.997 21.5253C112.323 21.9131 112.796 22.1069 113.417 22.1069C113.851 22.1069 114.293 22.0216 114.743 21.851C115.192 21.6804 115.603 21.44 115.976 21.1299L116.813 22.3628C116.565 22.58 116.293 22.7738 115.999 22.9444C115.704 23.115 115.402 23.2624 115.091 23.3864C114.781 23.495 114.471 23.5803 114.161 23.6424C113.851 23.7044 113.564 23.7354 113.3 23.7354C112.726 23.7354 112.215 23.6579 111.765 23.5028C111.315 23.3632 110.935 23.1305 110.625 22.8049C110.33 22.4792 110.105 22.0527 109.95 21.5253C109.795 20.9825 109.718 20.3156 109.718 19.5246V8.70695H107.67V7.14828Z" stroke="#000000" stroke-miterlimit="10"/>
    <path d="M132.298 21.9674C132.019 22.2155 131.685 22.4481 131.297 22.6653C130.925 22.8824 130.514 23.0685 130.064 23.2236C129.615 23.3787 129.142 23.495 128.645 23.5726C128.164 23.6656 127.676 23.7121 127.18 23.7121C126.249 23.7121 125.427 23.5726 124.714 23.2934C124 22.9987 123.403 22.5877 122.922 22.0604C122.442 21.5176 122.077 20.874 121.829 20.1295C121.581 19.3851 121.457 18.5476 121.457 17.617C121.457 16.6399 121.589 15.7714 121.852 15.0115C122.131 14.2515 122.527 13.6156 123.039 13.1038C123.55 12.592 124.171 12.2043 124.9 11.9406C125.629 11.6615 126.443 11.5219 127.342 11.5219C127.994 11.5219 128.637 11.6072 129.273 11.7778C129.909 11.9484 130.468 12.2741 130.948 12.7549C131.445 13.2201 131.825 13.8715 132.088 14.709C132.352 15.531 132.445 16.6012 132.367 17.9194H123.364C123.364 19.3153 123.737 20.3621 124.481 21.0601C125.241 21.7425 126.249 22.0837 127.505 22.0837C127.924 22.0837 128.335 22.0371 128.738 21.9441C129.157 21.8355 129.553 21.7115 129.925 21.5719C130.297 21.4323 130.623 21.2772 130.902 21.1066C131.197 20.936 131.421 20.7809 131.576 20.6413L132.298 21.9674ZM127.389 13.0573C126.877 13.0573 126.389 13.1116 125.923 13.2201C125.474 13.3287 125.07 13.5148 124.714 13.7785C124.372 14.0266 124.086 14.3601 123.853 14.7788C123.636 15.1821 123.496 15.6861 123.434 16.291H130.669C130.592 15.2674 130.258 14.4764 129.669 13.9181C129.095 13.3442 128.335 13.0573 127.389 13.0573Z" stroke="#000000" stroke-miterlimit="10"/>
    <path d="M146.347 7.44989H148.278V22.0131H154.862V17.9652H156.584V23.7346H146.347V7.44989Z" fill="#000000"/>
    <path d="M160.715 13.01C161.382 12.6222 162.134 12.3431 162.972 12.1725C163.809 12.0019 164.631 11.9166 165.438 11.9166C166.229 11.9166 166.873 12.0406 167.369 12.2888C167.881 12.5369 168.276 12.8626 168.555 13.2659C168.85 13.6536 169.044 14.1034 169.137 14.6152C169.245 15.1115 169.3 15.6155 169.3 16.1273C169.3 16.7167 169.284 17.3448 169.253 18.0117C169.222 18.6786 169.199 19.3455 169.183 20.0124C169.183 20.7878 169.23 21.5245 169.323 22.2224H170.882V23.7346H167.788L167.578 21.9898H167.462C167.369 22.1294 167.229 22.3077 167.043 22.5249C166.857 22.742 166.609 22.9591 166.299 23.1763C166.004 23.3779 165.64 23.5562 165.205 23.7113C164.771 23.8664 164.259 23.944 163.67 23.944C162.522 23.944 161.615 23.6493 160.948 23.0599C160.281 22.4706 159.948 21.6641 159.948 20.6405C159.948 19.8495 160.118 19.1904 160.459 18.6631C160.816 18.1358 161.32 17.7325 161.972 17.4534C162.623 17.1742 163.406 17.0113 164.321 16.9648C165.252 16.9183 166.291 16.9803 167.439 17.1509C167.516 16.4375 167.524 15.8481 167.462 15.3829C167.415 14.9021 167.291 14.5221 167.09 14.2429C166.904 13.9638 166.632 13.7699 166.275 13.6613C165.934 13.5373 165.508 13.4752 164.996 13.4752C164.298 13.4752 163.631 13.576 162.995 13.7777C162.359 13.9638 161.793 14.1576 161.297 14.3593L160.715 13.01ZM164.135 22.3853C164.569 22.3853 164.973 22.3155 165.345 22.1759C165.717 22.0363 166.043 21.858 166.322 21.6408C166.601 21.4237 166.834 21.1911 167.02 20.9429C167.206 20.6793 167.346 20.4311 167.439 20.1985V18.57C166.632 18.4304 165.888 18.3606 165.205 18.3606C164.523 18.3606 163.934 18.4382 163.437 18.5933C162.941 18.7329 162.553 18.9577 162.274 19.2679C161.995 19.5781 161.855 19.9814 161.855 20.4777C161.855 20.9895 162.026 21.4392 162.367 21.827C162.724 22.1992 163.313 22.3853 164.135 22.3853Z" fill="#000000"/>
    <path d="M172.199 7.44989H175.921V13.4287H176.037C176.44 12.9169 176.96 12.5214 177.596 12.2422C178.232 11.9631 178.922 11.8235 179.666 11.8235C183.078 11.8235 184.784 13.7932 184.784 17.7325C184.784 19.7332 184.234 21.2686 183.133 22.3388C182.032 23.3934 180.465 23.9207 178.433 23.9207C177.472 23.9207 176.603 23.8277 175.828 23.6415C175.052 23.4554 174.486 23.2383 174.13 22.9902V9.00857H172.199V7.44989ZM179.434 13.3822C178.503 13.3822 177.751 13.6458 177.177 14.1731C176.603 14.7005 176.185 15.4449 175.921 16.4065V21.7572C176.278 21.9433 176.704 22.0906 177.2 22.1992C177.697 22.3077 178.216 22.362 178.759 22.362C179.379 22.362 179.938 22.2767 180.434 22.1061C180.946 21.92 181.38 21.6408 181.737 21.2686C182.094 20.8809 182.365 20.3924 182.551 19.803C182.753 19.2137 182.853 18.5157 182.853 17.7093C182.853 17.1199 182.791 16.5616 182.667 16.0343C182.543 15.5069 182.342 15.0494 182.063 14.6617C181.799 14.2584 181.45 13.9483 181.016 13.7311C180.581 13.4985 180.054 13.3822 179.434 13.3822Z" fill="#000000"/>
    <path d="M196.291 20.594C196.291 20.0977 196.097 19.7177 195.709 19.454C195.322 19.1749 194.841 18.9577 194.267 18.8027C193.693 18.6321 193.065 18.477 192.383 18.3374C191.716 18.1978 191.095 18.0117 190.521 17.779C189.948 17.5464 189.467 17.2362 189.079 16.8485C188.691 16.4453 188.498 15.8869 188.498 15.1735C188.498 14.5841 188.622 14.0801 188.87 13.6613C189.133 13.2426 189.475 12.9014 189.893 12.6377C190.312 12.3586 190.801 12.1569 191.359 12.0329C191.917 11.8933 192.499 11.8235 193.104 11.8235C194.189 11.8235 195.12 11.9631 195.895 12.2422C196.686 12.5059 197.315 12.7851 197.78 13.0797L197.035 14.5454C196.524 14.2662 195.965 14.0025 195.36 13.7544C194.771 13.4907 194.027 13.3589 193.127 13.3589C192.786 13.3589 192.445 13.3977 192.103 13.4752C191.778 13.5373 191.475 13.6381 191.196 13.7777C190.932 13.9172 190.715 14.1034 190.545 14.336C190.39 14.5531 190.312 14.8245 190.312 15.1502C190.312 15.5535 190.506 15.8637 190.894 16.0808C191.281 16.2979 191.762 16.484 192.336 16.6391C192.91 16.7787 193.53 16.9183 194.197 17.0579C194.88 17.1819 195.508 17.3681 196.082 17.6162C196.655 17.8643 197.136 18.1978 197.524 18.6165C197.912 19.0353 198.105 19.6014 198.105 20.3148C198.105 21.3849 197.679 22.269 196.826 22.9669C195.988 23.6648 194.724 24.0138 193.034 24.0138C192.522 24.0138 192.018 23.9672 191.522 23.8742C191.026 23.7811 190.56 23.657 190.126 23.502C189.692 23.3469 189.296 23.1763 188.94 22.9902C188.583 22.7885 188.288 22.5869 188.056 22.3853L188.986 20.8731C189.172 21.0592 189.42 21.2531 189.731 21.4547C190.041 21.6408 190.382 21.8114 190.754 21.9665C191.126 22.1216 191.522 22.2457 191.941 22.3388C192.375 22.4318 192.809 22.4783 193.243 22.4783C193.662 22.4783 194.05 22.4473 194.407 22.3853C194.779 22.3077 195.104 22.1992 195.384 22.0596C195.663 21.9045 195.88 21.7106 196.035 21.478C196.206 21.2299 196.291 20.9352 196.291 20.594Z" fill="#000000"/>
    <path d="M146.347 7.44989H148.278V22.0131H154.862V17.9652H156.584V23.7346H146.347V7.44989Z" stroke="#000000" stroke-miterlimit="10"/>
    <path d="M160.715 13.01C161.382 12.6222 162.134 12.3431 162.972 12.1725C163.809 12.0019 164.631 11.9166 165.438 11.9166C166.229 11.9166 166.873 12.0406 167.369 12.2888C167.881 12.5369 168.276 12.8626 168.555 13.2659C168.85 13.6536 169.044 14.1034 169.137 14.6152C169.245 15.1115 169.3 15.6155 169.3 16.1273C169.3 16.7167 169.284 17.3448 169.253 18.0117C169.222 18.6786 169.199 19.3455 169.183 20.0124C169.183 20.7878 169.23 21.5245 169.323 22.2224H170.882V23.7346H167.788L167.578 21.9898H167.462C167.369 22.1294 167.229 22.3077 167.043 22.5249C166.857 22.742 166.609 22.9591 166.299 23.1763C166.004 23.3779 165.64 23.5562 165.205 23.7113C164.771 23.8664 164.259 23.944 163.67 23.944C162.522 23.944 161.615 23.6493 160.948 23.0599C160.281 22.4706 159.948 21.6641 159.948 20.6405C159.948 19.8495 160.118 19.1904 160.459 18.6631C160.816 18.1358 161.32 17.7325 161.972 17.4534C162.623 17.1742 163.406 17.0113 164.321 16.9648C165.252 16.9183 166.291 16.9803 167.439 17.1509C167.516 16.4375 167.524 15.8481 167.462 15.3829C167.415 14.9021 167.291 14.5221 167.09 14.2429C166.904 13.9638 166.632 13.7699 166.275 13.6613C165.934 13.5373 165.508 13.4752 164.996 13.4752C164.298 13.4752 163.631 13.576 162.995 13.7777C162.359 13.9638 161.793 14.1576 161.297 14.3593L160.715 13.01ZM164.135 22.3853C164.569 22.3853 164.973 22.3155 165.345 22.1759C165.717 22.0363 166.043 21.858 166.322 21.6408C166.601 21.4237 166.834 21.1911 167.02 20.9429C167.206 20.6793 167.346 20.4311 167.439 20.1985V18.57C166.632 18.4304 165.888 18.3606 165.205 18.3606C164.523 18.3606 163.934 18.4382 163.437 18.5933C162.941 18.7329 162.553 18.9577 162.274 19.2679C161.995 19.5781 161.855 19.9814 161.855 20.4777C161.855 20.9895 162.026 21.4392 162.367 21.827C162.724 22.1992 163.313 22.3853 164.135 22.3853Z" stroke="#000000" stroke-miterlimit="10"/>
    <path d="M172.199 7.44989H175.921V13.4287H176.037C176.44 12.9169 176.96 12.5214 177.596 12.2422C178.232 11.9631 178.922 11.8235 179.666 11.8235C183.078 11.8235 184.784 13.7932 184.784 17.7325C184.784 19.7332 184.234 21.2686 183.133 22.3388C182.032 23.3934 180.465 23.9207 178.433 23.9207C177.472 23.9207 176.603 23.8277 175.828 23.6415C175.052 23.4554 174.486 23.2383 174.13 22.9902V9.00857H172.199V7.44989ZM179.434 13.3822C178.503 13.3822 177.751 13.6458 177.177 14.1731C176.603 14.7005 176.185 15.4449 175.921 16.4065V21.7572C176.278 21.9433 176.704 22.0906 177.2 22.1992C177.697 22.3077 178.216 22.362 178.759 22.362C179.379 22.362 179.938 22.2767 180.434 22.1061C180.946 21.92 181.38 21.6408 181.737 21.2686C182.094 20.8809 182.365 20.3924 182.551 19.803C182.753 19.2137 182.853 18.5157 182.853 17.7093C182.853 17.1199 182.791 16.5616 182.667 16.0343C182.543 15.5069 182.342 15.0494 182.063 14.6617C181.799 14.2584 181.45 13.9483 181.016 13.7311C180.581 13.4985 180.054 13.3822 179.434 13.3822Z" stroke="#000000" stroke-miterlimit="10"/>
    <path d="M196.291 20.594C196.291 20.0977 196.097 19.7177 195.709 19.454C195.322 19.1749 194.841 18.9577 194.267 18.8027C193.693 18.6321 193.065 18.477 192.383 18.3374C191.716 18.1978 191.095 18.0117 190.521 17.779C189.948 17.5464 189.467 17.2362 189.079 16.8485C188.691 16.4453 188.498 15.8869 188.498 15.1735C188.498 14.5841 188.622 14.0801 188.87 13.6613C189.133 13.2426 189.475 12.9014 189.893 12.6377C190.312 12.3586 190.801 12.1569 191.359 12.0329C191.917 11.8933 192.499 11.8235 193.104 11.8235C194.189 11.8235 195.12 11.9631 195.895 12.2422C196.686 12.5059 197.315 12.7851 197.78 13.0797L197.035 14.5454C196.524 14.2662 195.965 14.0025 195.36 13.7544C194.771 13.4907 194.027 13.3589 193.127 13.3589C192.786 13.3589 192.445 13.3977 192.103 13.4752C191.778 13.5373 191.475 13.6381 191.196 13.7777C190.932 13.9172 190.715 14.1034 190.545 14.336C190.39 14.5531 190.312 14.8245 190.312 15.1502C190.312 15.5535 190.506 15.8637 190.894 16.0808C191.281 16.2979 191.762 16.484 192.336 16.6391C192.91 16.7787 193.53 16.9183 194.197 17.0579C194.88 17.1819 195.508 17.3681 196.082 17.6162C196.655 17.8643 197.136 18.1978 197.524 18.6165C197.912 19.0353 198.105 19.6014 198.105 20.3148C198.105 21.3849 197.679 22.269 196.826 22.9669C195.988 23.6648 194.724 24.0138 193.034 24.0138C192.522 24.0138 192.018 23.9672 191.522 23.8742C191.026 23.7811 190.56 23.657 190.126 23.502C189.692 23.3469 189.296 23.1763 188.94 22.9902C188.583 22.7885 188.288 22.5869 188.056 22.3853L188.986 20.8731C189.172 21.0592 189.42 21.2531 189.731 21.4547C190.041 21.6408 190.382 21.8114 190.754 21.9665C191.126 22.1216 191.522 22.2457 191.941 22.3388C192.375 22.4318 192.809 22.4783 193.243 22.4783C193.662 22.4783 194.05 22.4473 194.407 22.3853C194.779 22.3077 195.104 22.1992 195.384 22.0596C195.663 21.9045 195.88 21.7106 196.035 21.478C196.206 21.2299 196.291 20.9352 196.291 20.594Z" stroke="#000000" stroke-miterlimit="10"/>
    <path d="M26.6872 6.84305C25.9129 6.06876 24.6495 6.06876 23.8699 6.84828L21.7511 8.98281C21.3483 9.38827 21.2462 10.0056 21.4974 10.5209L21.6595 10.8505C23.5743 14.6827 22.8811 19.3494 19.9357 22.4623C18.0392 24.4686 15.4731 25.6039 12.7134 25.6614C9.95626 25.7164 7.34303 24.6883 5.36284 22.7631C1.44953 18.957 1.30828 12.386 5.05155 8.40994C8.18795 5.07997 13.2025 4.23767 17.2466 6.3565L17.5317 6.51607C18.0523 6.80642 18.7141 6.71749 19.1379 6.29634L21.2384 4.20889C22.0127 3.4346 22.0127 2.17115 21.2384 1.39686L19.8415 0L18.1909 1.65321L19.3419 2.80418L18.0131 4.12518C13.1005 1.73169 7.12592 2.80942 3.35648 6.80904C1.12255 9.18161 -0.0676558 12.3389 0.00297203 15.7003C0.0762157 19.0617 1.40245 22.1667 3.7384 24.4372C6.10574 26.7418 9.20813 28 12.4989 28C12.5878 28 12.6767 28 12.7657 27.9974C16.1558 27.9268 19.3079 26.5325 21.6386 24.0684C25.1752 20.3303 26.0672 14.7664 23.9118 10.1312L25.2877 8.74477L26.4387 9.89574L28.0919 8.24514L26.6872 6.84305Z" fill="#000000"/>
    <path d="M18.5858 14.2277C17.3355 13.1892 15.8628 13.2859 14.7719 14.4919C14.1232 15.2086 13.3411 15.6167 12.3654 15.5879C11.421 15.5617 10.6781 15.1301 10.0634 14.4238C9.21589 13.4507 7.88966 13.2467 6.77269 13.8902C5.1064 14.8502 4.41843 16.8592 5.23457 18.5987C6.66021 21.6305 9.11387 23.1398 12.4125 23.3256C15.6299 23.1634 18.0418 21.7508 19.5223 18.8839C20.4169 17.1548 20.0429 15.4388 18.5858 14.2277ZM9.62135 18.1854C9.38854 18.1933 9.15311 18.1933 8.91768 18.1985C8.90722 18.1985 8.89937 18.2142 8.86798 18.2404C8.78689 18.6877 9.06155 19.4358 8.2428 19.4227C7.46066 19.4096 7.72748 18.6851 7.64115 18.1854C7.37957 18.1854 7.15984 18.1933 6.93749 18.1828C6.56866 18.1671 6.32015 17.9108 6.33061 17.5759C6.34108 17.2516 6.57912 17.0188 6.93226 17.0004C7.0552 16.9926 7.17815 16.9978 7.30109 16.9978C7.40834 16.9978 7.51559 16.9978 7.66208 16.9978C7.66208 16.697 7.65685 16.4276 7.66469 16.1608C7.67516 15.7605 7.92105 15.5068 8.27419 15.5173C8.61425 15.5277 8.83921 15.7736 8.84967 16.1581C8.85752 16.4276 8.85229 16.6944 8.85229 17.0004C9.12957 17.0004 9.37284 16.9952 9.61611 17.0004C10.0163 17.0109 10.2701 17.2568 10.2596 17.6099C10.2518 17.95 10.0059 18.1723 9.62135 18.1854ZM15.3003 18.1723C14.9394 18.1723 14.6464 17.8794 14.6464 17.5184C14.6464 17.1574 14.9394 16.8644 15.3003 16.8644C15.6613 16.8644 15.9543 17.1574 15.9543 17.5184C15.9543 17.8794 15.6613 18.1723 15.3003 18.1723ZM16.6344 19.5064C16.2734 19.5064 15.9805 19.2135 15.9805 18.8525C15.9805 18.4915 16.2734 18.1985 16.6344 18.1985C16.9954 18.1985 17.2884 18.4915 17.2884 18.8525C17.2884 19.2135 16.9954 19.5064 16.6344 19.5064ZM16.6344 16.765C16.2734 16.765 15.9805 16.472 15.9805 16.1111C15.9805 15.7501 16.2734 15.4571 16.6344 15.4571C16.9954 15.4571 17.2884 15.7501 17.2884 16.1111C17.2884 16.472 16.9954 16.765 16.6344 16.765ZM17.9685 18.1723C17.6075 18.1723 17.3145 17.8794 17.3145 17.5184C17.3145 17.1574 17.6075 16.8644 17.9685 16.8644C18.3295 16.8644 18.6225 17.1574 18.6225 17.5184C18.6225 17.8794 18.3295 18.1723 17.9685 18.1723Z" fill="#000000"/>
</svg>