<svg width="48" height="48" viewBox="0 0 48 48" fill="none" xmlns="http://www.w3.org/2000/svg">
<path d="M15.1466 4.61219C14.135 4.7725 13.4375 5.65563 13.4375 6.68125C13.4375 7.99891 13.8261 9.28729 14.5549 10.3851C15.376 11.6219 15.3452 13.9426 14.1425 14.8128C8.66558 18.7752 5 25.6049 5 31.4219C5 40.2241 13.3944 43.375 23.75 43.375C34.1056 43.375 42.5 40.2241 42.5 31.4219C42.5 25.605 38.8332 18.7754 33.3572 14.8125C32.1543 13.9419 32.1239 11.6212 32.9451 10.3841C33.6739 9.28636 34.0625 7.99797 34.0625 6.68031C34.0625 5.65563 33.365 4.7725 32.3534 4.61219C30.6472 4.34125 27.7109 4 23.75 4C19.7891 4 16.8519 4.34125 15.1466 4.61219Z" fill="#D1E9DF"/>
<path d="M28.4375 22.7022C28.4375 22.7022 26.75 21.4094 24.2188 21.4094C22.1094 21.4094 20 22.7012 20 24.4234C20 28.7275 28.4375 26.1447 28.4375 30.4497C28.4375 32.1719 26.3281 33.4628 24.2188 33.4628C21.6875 33.4628 20 32.1719 20 32.1719" stroke="#088752" stroke-width="2" stroke-linecap="round" stroke-linejoin="round"/>
<path d="M24.2188 21.4103V19" stroke="#088752" stroke-width="2" stroke-linecap="round" stroke-linejoin="round"/>
<path d="M24.2188 35.875V33.4656" stroke="#088752" stroke-width="2" stroke-linecap="round" stroke-linejoin="round"/>
<path d="M15.1466 4.61219C14.135 4.7725 13.4375 5.65563 13.4375 6.68125C13.4375 7.99891 13.8261 9.28729 14.5549 10.3851C15.2836 11.4829 16.3201 12.3413 17.5344 12.8528C10.2322 16.0769 5 24.4722 5 31.4219C5 40.2241 13.3944 43.375 23.75 43.375C34.1056 43.375 42.5 40.2241 42.5 31.4219C42.5 24.4722 37.2659 16.0769 29.9656 12.8519C31.1799 12.3403 32.2164 11.4819 32.9451 10.3841C33.6739 9.28636 34.0625 7.99797 34.0625 6.68031C34.0625 5.65563 33.365 4.7725 32.3534 4.61219C30.6472 4.34125 27.7109 4 23.75 4C19.7891 4 16.8519 4.34125 15.1466 4.61219Z" stroke="#088752" stroke-width="2" stroke-linecap="round" stroke-linejoin="round"/>
<path d="M17.1875 12.9062C17.1875 12.9062 20 13.375 23.75 13.375C27.5 13.375 30.3125 12.9062 30.3125 12.9062" stroke="#088752" stroke-width="2" stroke-linecap="round" stroke-linejoin="round"/>
</svg>
