<svg width="56" height="56" viewBox="0 0 56 56" fill="none" xmlns="http://www.w3.org/2000/svg">
<path d="M17.671 5.38121C16.4909 5.56824 15.6771 6.59855 15.6771 7.79512C15.6771 9.33238 16.1305 10.8355 16.9808 12.1163C17.9387 13.5593 17.9028 16.2667 16.4996 17.2819C10.1099 21.9047 5.83337 29.8727 5.83337 36.6592C5.83337 46.9284 15.6268 50.6045 27.7084 50.6045C39.7899 50.6045 49.5834 46.9284 49.5834 36.6592C49.5834 29.8729 45.3055 21.905 38.9168 17.2815C37.5134 16.2659 37.4779 13.5584 38.436 12.1152C39.2862 10.8344 39.7397 9.33129 39.7396 7.79402C39.7396 6.59855 38.9259 5.56824 37.7457 5.38121C35.7551 5.06512 32.3295 4.66699 27.7084 4.66699C23.0873 4.66699 19.6606 5.06512 17.671 5.38121Z" fill="#F4F3F2"/>
<path d="M33.1771 26.4858C33.1771 26.4858 31.2084 24.9775 28.2552 24.9775C25.7943 24.9775 23.3334 26.4847 23.3334 28.4939C23.3334 33.5154 33.1771 30.5021 33.1771 35.5246C33.1771 37.5338 30.7162 39.0399 28.2552 39.0399C25.3021 39.0399 23.3334 37.5338 23.3334 37.5338" stroke="#ADACAA" stroke-width="2" stroke-linecap="round" stroke-linejoin="round"/>
<path d="M28.2552 24.979V22.167" stroke="#ADACAA" stroke-width="2" stroke-linecap="round" stroke-linejoin="round"/>
<path d="M28.2552 41.8549V39.0439" stroke="#ADACAA" stroke-width="2" stroke-linecap="round" stroke-linejoin="round"/>
<path d="M17.671 5.38121C16.4909 5.56824 15.6771 6.59855 15.6771 7.79512C15.6771 9.33238 16.1305 10.8355 16.9808 12.1163C17.831 13.397 19.0401 14.3985 20.4568 14.9953C11.9376 18.7567 5.83337 28.5512 5.83337 36.6592C5.83337 46.9284 15.6268 50.6045 27.7084 50.6045C39.7899 50.6045 49.5834 46.9284 49.5834 36.6592C49.5834 28.5512 43.477 18.7567 34.9599 14.9942C36.3766 14.3974 37.5858 13.3959 38.436 12.1152C39.2862 10.8344 39.7397 9.33129 39.7396 7.79402C39.7396 6.59855 38.9259 5.56824 37.7457 5.38121C35.7551 5.06512 32.3295 4.66699 27.7084 4.66699C23.0873 4.66699 19.6606 5.06512 17.671 5.38121Z" stroke="#ADACAA" stroke-width="2" stroke-linecap="round" stroke-linejoin="round"/>
<path d="M20.0521 15.0576C20.0521 15.0576 23.3334 15.6045 27.7084 15.6045C32.0834 15.6045 35.3646 15.0576 35.3646 15.0576" stroke="#ADACAA" stroke-width="2" stroke-linecap="round" stroke-linejoin="round"/>
</svg>
