<svg width="49" height="49" viewBox="0 0 49 49" fill="none" xmlns="http://www.w3.org/2000/svg">
<path d="M27.5446 35.9497C27.6356 34.3184 28.8009 33.2028 30.4303 33.0903C31.6518 33.0059 33.4143 32.9375 35.9174 32.9375C38.5584 32.9375 40.3649 33.0134 41.5799 33.1044C43.0678 33.215 44.1506 34.2106 44.2621 35.6984C44.3165 36.4222 44.3549 37.3578 44.3549 38.5625C44.3549 39.7663 44.3174 40.7028 44.2621 41.4275C44.1496 42.9144 43.0678 43.91 41.5799 44.0206C40.3649 44.1116 38.5584 44.1875 35.9174 44.1875C33.2765 44.1875 31.4699 44.1116 30.2549 44.0206C28.7671 43.91 27.6843 42.9144 27.5728 41.4266C27.5063 40.4734 27.4753 39.518 27.4799 38.5625C27.4799 37.4938 27.5053 36.6359 27.5446 35.9497Z" fill="#FEC8CD"/>
<path d="M23.7925 16.9868C23.8384 18.4868 24.8547 19.714 26.3528 19.7862C27.1036 19.8225 27.8557 19.8225 28.6066 19.7862C30.1047 19.714 31.1209 18.4859 31.1669 16.9868C31.2016 15.8553 31.2297 14.3121 31.2297 12.3124C31.2297 10.3128 31.2016 8.76963 31.1669 7.63807C31.1209 6.13807 30.1047 4.91088 28.6066 4.8387C27.8558 4.8023 27.1036 4.8023 26.3528 4.8387C24.8547 4.91088 23.8384 6.13901 23.7925 7.63807C23.7482 9.19579 23.7272 10.7541 23.7297 12.3124C23.7297 14.3121 23.7578 15.8553 23.7925 16.9868Z" stroke="#E02D3C" stroke-width="2" stroke-linecap="round" stroke-linejoin="round"/>
<path d="M14.4175 37.6119C14.4634 39.1119 15.4797 40.339 16.9778 40.4112C17.7286 40.4475 18.4807 40.4475 19.2316 40.4112C20.7297 40.339 21.7459 39.1109 21.7919 37.6119C21.8266 36.4803 21.8547 34.9372 21.8547 32.9375C21.8547 30.9378 21.8266 29.3947 21.7919 28.2631C21.7459 26.7631 20.7297 25.5359 19.2316 25.4637C18.4807 25.4275 17.7286 25.4275 16.9778 25.4637C15.4797 25.5359 14.4634 26.764 14.4175 28.2631C14.3732 29.8208 14.3522 31.3791 14.3547 32.9375C14.3547 34.9372 14.3828 36.4803 14.4175 37.6119Z" stroke="#E02D3C" stroke-width="2" stroke-linecap="round" stroke-linejoin="round"/>
<path d="M27.5446 35.9497C27.6356 34.3184 28.8009 33.2028 30.4303 33.0903C31.6518 33.0059 33.4143 32.9375 35.9174 32.9375C38.5584 32.9375 40.3649 33.0134 41.5799 33.1044C43.0678 33.215 44.1506 34.2106 44.2621 35.6984C44.3165 36.4222 44.3549 37.3578 44.3549 38.5625C44.3549 39.7663 44.3174 40.7028 44.2621 41.4275C44.1496 42.9144 43.0678 43.91 41.5799 44.0206C40.3649 44.1116 38.5584 44.1875 35.9174 44.1875C33.2765 44.1875 31.4699 44.1116 30.2549 44.0206C28.7671 43.91 27.6843 42.9144 27.5728 41.4266C27.5063 40.4734 27.4753 39.518 27.4799 38.5625C27.4799 37.4937 27.5053 36.6359 27.5446 35.9497Z" stroke="#E02D3C" stroke-width="2" stroke-linecap="round" stroke-linejoin="round"/>
<path d="M40.5017 33.0368L40.377 29.7312C40.336 28.5758 39.8482 27.4815 39.0163 26.6786C38.1844 25.8758 37.0734 25.4271 35.9173 25.4271C34.7612 25.4271 33.6503 25.8758 32.8184 26.6786C31.9865 27.4815 31.4987 28.5758 31.4577 29.7312L31.332 33.0368" stroke="#E02D3C" stroke-width="2" stroke-linecap="round" stroke-linejoin="round"/>
<path d="M35.917 37.625V39.5" stroke="#E02D3C" stroke-width="2" stroke-linecap="round" stroke-linejoin="round"/>
<path d="M4.97949 4.8125H7.79199C8.04063 4.8125 8.27909 4.91127 8.45491 5.08709C8.63072 5.2629 8.72949 5.50136 8.72949 5.75V19.8125" stroke="#E02D3C" stroke-width="2" stroke-linecap="round" stroke-linejoin="round"/>
<path d="M14.3545 4.8125H17.167C17.4156 4.8125 17.6541 4.91127 17.8299 5.08709C18.0057 5.2629 18.1045 5.50136 18.1045 5.75V19.8125" stroke="#E02D3C" stroke-width="2" stroke-linecap="round" stroke-linejoin="round"/>
<path d="M4.97949 25.4375H7.79199C8.04063 25.4375 8.27909 25.5363 8.45491 25.7121C8.63072 25.8879 8.72949 26.1264 8.72949 26.375V40.4375" stroke="#E02D3C" stroke-width="2" stroke-linecap="round" stroke-linejoin="round"/>
</svg>
