<svg width="48" height="48" viewBox="0 0 48 48" fill="none" xmlns="http://www.w3.org/2000/svg">
<path d="M26.8772 35.4497C26.9681 33.8184 28.1334 32.7028 29.7628 32.5903C30.9843 32.5059 32.7468 32.4375 35.25 32.4375C37.8909 32.4375 39.6975 32.5134 40.9125 32.6044C42.4003 32.715 43.4831 33.7106 43.5947 35.1984C43.649 35.9222 43.6875 36.8578 43.6875 38.0625C43.6875 39.2663 43.65 40.2028 43.5947 40.9275C43.4822 42.4144 42.4003 43.41 40.9125 43.5206C39.6975 43.6116 37.8909 43.6875 35.25 43.6875C32.609 43.6875 30.8025 43.6116 29.5875 43.5206C28.0997 43.41 27.0168 42.4144 26.9053 40.9266C26.8388 39.9734 26.8078 39.018 26.8125 38.0625C26.8125 36.9938 26.8378 36.1359 26.8772 35.4497Z" fill="#7A271A"/>
<path d="M23.1253 16.4869C23.1712 17.9869 24.1874 19.2141 25.6856 19.2863C26.4364 19.3225 27.1885 19.3225 27.9393 19.2863C29.4374 19.2141 30.4537 17.9859 30.4996 16.4869C30.5343 15.3553 30.5624 13.8122 30.5624 11.8125C30.5624 9.81282 30.5343 8.26969 30.4996 7.13813C30.4537 5.63813 29.4374 4.41094 27.9393 4.33876C27.1885 4.30236 26.4364 4.30236 25.6856 4.33876C24.1874 4.41094 23.1712 5.63907 23.1253 7.13813C23.0809 8.69585 23.06 10.2542 23.0624 11.8125C23.0624 13.8122 23.0906 15.3553 23.1253 16.4869Z" stroke="#F04438" stroke-width="2" stroke-linecap="round" stroke-linejoin="round"/>
<path d="M13.7503 37.1119C13.7962 38.6119 14.8125 39.8391 16.3106 39.9113C17.0614 39.9475 17.8135 39.9475 18.5643 39.9113C20.0624 39.8391 21.0787 38.6109 21.1246 37.1119C21.1593 35.9803 21.1874 34.4372 21.1874 32.4375C21.1874 30.4378 21.1593 28.8947 21.1246 27.7631C21.0787 26.2631 20.0624 25.0359 18.5643 24.9638C17.8135 24.9275 17.0614 24.9275 16.3106 24.9638C14.8125 25.0359 13.7962 26.2641 13.7503 27.7631C13.7059 29.3209 13.685 30.8792 13.6874 32.4375C13.6874 34.4372 13.7156 35.9803 13.7503 37.1119Z" stroke="#F04438" stroke-width="2" stroke-linecap="round" stroke-linejoin="round"/>
<path d="M26.8772 35.4497C26.9681 33.8184 28.1334 32.7028 29.7628 32.5903C30.9843 32.5059 32.7468 32.4375 35.25 32.4375C37.8909 32.4375 39.6975 32.5134 40.9125 32.6044C42.4003 32.715 43.4831 33.7106 43.5947 35.1984C43.649 35.9222 43.6875 36.8578 43.6875 38.0625C43.6875 39.2663 43.65 40.2028 43.5947 40.9275C43.4822 42.4144 42.4003 43.41 40.9125 43.5206C39.6975 43.6116 37.8909 43.6875 35.25 43.6875C32.609 43.6875 30.8025 43.6116 29.5875 43.5206C28.0997 43.41 27.0168 42.4144 26.9053 40.9266C26.8388 39.9734 26.8078 39.018 26.8125 38.0625C26.8125 36.9937 26.8378 36.1359 26.8772 35.4497Z" stroke="#F04438" stroke-width="2" stroke-linecap="round" stroke-linejoin="round"/>
<path d="M39.8344 32.5369L39.7097 29.2313C39.6686 28.0759 39.1808 26.9815 38.3489 26.1787C37.5171 25.3758 36.4061 24.9272 35.25 24.9272C34.0939 24.9272 32.9829 25.3758 32.151 26.1787C31.3192 26.9815 30.8313 28.0759 30.7903 29.2313L30.6647 32.5369" stroke="#F04438" stroke-width="2" stroke-linecap="round" stroke-linejoin="round"/>
<path d="M35.25 37.125V39" stroke="#F04438" stroke-width="2" stroke-linecap="round" stroke-linejoin="round"/>
<path d="M4.3125 4.3125H7.125C7.37364 4.3125 7.6121 4.41127 7.78791 4.58709C7.96373 4.7629 8.0625 5.00136 8.0625 5.25V19.3125" stroke="#F04438" stroke-width="2" stroke-linecap="round" stroke-linejoin="round"/>
<path d="M13.6875 4.3125H16.5C16.7486 4.3125 16.9871 4.41127 17.1629 4.58709C17.3387 4.7629 17.4375 5.00136 17.4375 5.25V19.3125" stroke="#F04438" stroke-width="2" stroke-linecap="round" stroke-linejoin="round"/>
<path d="M4.3125 24.9375H7.125C7.37364 24.9375 7.6121 25.0363 7.78791 25.2121C7.96373 25.3879 8.0625 25.6264 8.0625 25.875V39.9375" stroke="#F04438" stroke-width="2" stroke-linecap="round" stroke-linejoin="round"/>
</svg>
