<svg fill="none" height="48" viewBox="0 0 48 48" width="48" xmlns="http://www.w3.org/2000/svg"><path d="m3.39333 40.8135c-.55523-.2656-.94757-.7721-1.03295-1.3818-.15348-1.099-.36038-3.1816-.36038-6.4313 0-3.2498.2069-5.3324.36038-6.4314l.00052-.0026c2.76729 1.3357 8.9629 4.234 10.6391 4.234 1.6772 0 7.8718-2.8978 10.6386-4.234l.001.0026c.1535 1.099.3604 3.1816.3604 6.4314 0 3.2497-.2069 5.3323-.3604 6.4313-.0854.6097-.4777 1.1162-1.0329 1.3818-1.9978.956-6.9468 3.1869-9.6067 3.1869s-7.60886-2.2315-9.60667-3.1869z" fill="#dcecfe"/><path d="m23.6395 26.566c-2.7673 1.3358-8.9618 4.234-10.6386 4.234-1.6777 0-7.87229-2.8982-10.63957-4.2345.08643-.6076.47824-1.1136 1.03295-1.3786 1.99729-.956 6.94622-3.1869 9.60612-3.1869 2.6594 0 7.6084 2.2314 9.6062 3.1869.5542.265.947.7705 1.0329 1.3791z" fill="#fff"/><g stroke="#017aff" stroke-linejoin="round" stroke-width="1.5"><path d="m2.36038 39.4313c.08538.6097.47772 1.1163 1.03295 1.3818 1.99781.956 6.94677 3.1869 9.60667 3.1869s7.6089-2.2314 9.6067-3.1869c.5552-.2655.9475-.7721 1.0329-1.3818.1535-1.0989.3604-3.1816.3604-6.4313s-.2069-5.3324-.3604-6.4313c-.0854-.6097-.4777-1.1163-1.0329-1.3818-1.9978-.956-6.9468-3.1869-9.6067-3.1869s-7.60886 2.2314-9.60667 3.1869c-.55523.2655-.94757.7721-1.03295 1.3818-.15348 1.0989-.36038 3.1816-.36038 6.4313s.2069 5.3324.36038 6.4313z"/><path d="m23.6223 26.5859c-1.7013.8381-8.678 4.2136-10.6234 4.2136-1.9459 0-8.92257-3.376-10.6239-4.2136" stroke-linecap="round"/><path d="m13 30.8008v13.069" stroke-linecap="round"/></g><path d="m25.3933 40.8135c-.5552-.2656-.9475-.7721-1.0329-1.3818-.1535-1.099-.3604-3.1816-.3604-6.4313 0-3.2498.2069-5.3324.3604-6.4314l.0005-.0026c2.7673 1.3357 8.9629 4.234 10.6391 4.234 1.6772 0 7.8718-2.8978 10.6386-4.234l.001.0026c.1535 1.099.3604 3.1816.3604 6.4314 0 3.2497-.2069 5.3323-.3604 6.4313-.0854.6097-.4777 1.1162-1.0329 1.3818-1.9978.956-6.9468 3.1869-9.6067 3.1869s-7.6089-2.2315-9.6067-3.1869z" fill="#dcecfe"/><path d="m45.6395 26.566c-2.7673 1.3358-8.9618 4.234-10.6386 4.234-1.6777 0-7.8723-2.8982-10.6396-4.2345.0865-.6076.4783-1.1136 1.033-1.3786 1.9973-.956 6.9462-3.1869 9.6061-3.1869 2.6594 0 7.6084 2.2314 9.6062 3.1869.5542.265.947.7705 1.0329 1.3791z" fill="#fff"/><path d="m24.3604 39.4313c.0854.6097.4777 1.1163 1.0329 1.3818 1.9978.956 6.9468 3.1869 9.6067 3.1869s7.6089-2.2314 9.6067-3.1869c.5552-.2655.9475-.7721 1.0329-1.3818.1535-1.0989.3604-3.1816.3604-6.4313s-.2069-5.3324-.3604-6.4313c-.0854-.6097-.4777-1.1163-1.0329-1.3818-1.9978-.956-6.9468-3.1869-9.6067-3.1869s-7.6089 2.2314-9.6067 3.1869c-.5552.2655-.9475.7721-1.0329 1.3818-.1535 1.0989-.3604 3.1816-.3604 6.4313s.2069 5.3324.3604 6.4313z" stroke="#017aff" stroke-linejoin="round" stroke-width="1.5"/><path d="m45.6223 26.5859c-1.7013.8381-8.678 4.2136-10.6234 4.2136-1.9459 0-8.9226-3.376-10.6239-4.2136" stroke="#017aff" stroke-linecap="round" stroke-linejoin="round" stroke-width="1.5"/><path d="m35 30.8008v13.069" stroke="#017aff" stroke-linecap="round" stroke-linejoin="round" stroke-width="1.5"/><path d="m14.3933 21.8135c-.5552-.2656-.9475-.7721-1.0329-1.3818-.1535-1.099-.3604-3.1816-.3604-6.4313 0-3.2498.2069-5.33242.3604-6.43137l.0005-.00262c2.7673 1.33571 8.9629 4.23399 10.6391 4.23399 1.6772 0 7.8718-2.89776 10.6386-4.23399l.001.00262c.1535 1.09895.3604 3.18157.3604 6.43137 0 3.2497-.2069 5.3323-.3604 6.4313-.0854.6097-.4777 1.1162-1.0329 1.3818-1.9978.956-6.9468 3.1869-9.6067 3.1869s-7.6089-2.2315-9.6067-3.1869z" fill="#dcecfe"/><path d="m34.6395 7.56605c-2.7673 1.33571-8.9618 4.23395-10.6386 4.23395-1.6777 0-7.8723-2.89824-10.6396-4.23448.0865-.60761.4783-1.11362 1.033-1.37866 1.9973-.95596 6.9462-3.18686 9.6061-3.18686 2.6594 0 7.6084 2.23143 9.6062 3.18686.5542.26504.947.77052 1.0329 1.37919z" fill="#fff"/><path d="m13.3604 20.4313c.0854.6097.4777 1.1163 1.0329 1.3818 1.9978.956 6.9468 3.1869 9.6067 3.1869s7.6089-2.2314 9.6067-3.1869c.5552-.2655.9475-.7721 1.0329-1.3818.1535-1.0989.3604-3.1816.3604-6.4313s-.2069-5.33238-.3604-6.43133c-.0854-.60972-.4777-1.11624-1.0329-1.38181-1.9978-.95596-6.9468-3.18686-9.6067-3.18686s-7.6089 2.23143-9.6067 3.18686c-.5552.26557-.9475.77209-1.0329 1.38181-.1535 1.09895-.3604 3.18163-.3604 6.43133s.2069 5.3324.3604 6.4313z" stroke="#017aff" stroke-linejoin="round" stroke-width="1.5"/><path d="m34.6223 7.58594c-1.7013.83809-8.678 4.21356-10.6234 4.21356-1.9459 0-8.9226-3.37599-10.6239-4.21356" stroke="#017aff" stroke-linecap="round" stroke-linejoin="round" stroke-width="1.5"/><path d="m24 11.8008v13.069" stroke="#017aff" stroke-linecap="round" stroke-linejoin="round" stroke-width="1.5"/></svg>