<svg width="1em" height="1em" viewBox="0 0 48 48" fill="none" xmlns="http://www.w3.org/2000/svg">
<path d="M3.39333 40.8125C2.8381 40.547 2.44576 40.0404 2.36038 39.4307C2.2069 38.3318 2 36.2491 2 32.9994C2 29.7497 2.2069 27.667 2.36038 26.568L2.3609 26.5654C5.12819 27.9011 11.3238 30.7994 13 30.7994C14.6772 30.7994 20.8718 27.9017 23.6386 26.5654L23.6396 26.568C23.7931 27.667 24 29.7497 24 32.9994C24 36.2491 23.7931 38.3318 23.6396 39.4307C23.5542 40.0404 23.1619 40.547 22.6067 40.8125C20.6089 41.7685 15.6599 43.9994 13 43.9994C10.3401 43.9994 5.39114 41.768 3.39333 40.8125Z" fill="#194185"/>
<path d="M23.6399 26.566C20.8726 27.9018 14.678 30.8 13.0013 30.8C11.3236 30.8 5.12898 27.9018 2.36169 26.5655C2.44812 25.9579 2.83993 25.4519 3.39465 25.1869C5.39193 24.2309 10.3409 22 13.0008 22C15.6602 22 20.6091 24.2314 22.6069 25.1869C23.1611 25.4519 23.554 25.9574 23.6399 26.566Z" fill="#232426"/>
<path d="M2.36038 39.4313C2.44576 40.041 2.8381 40.5476 3.39333 40.8131C5.39114 41.7691 10.3401 44 13 44C15.6599 44 20.6089 41.7686 22.6067 40.8131C23.1619 40.5476 23.5542 40.041 23.6396 39.4313C23.7931 38.3324 24 36.2497 24 33C24 29.7503 23.7931 27.6676 23.6396 26.5687C23.5542 25.959 23.1619 25.4524 22.6067 25.1869C20.6089 24.2309 15.6599 22 13 22C10.3401 22 5.39114 24.2314 3.39333 25.1869C2.8381 25.4524 2.44576 25.959 2.36038 26.5687C2.2069 27.6676 2 29.7503 2 33C2 36.2497 2.2069 38.3324 2.36038 39.4313Z" stroke="#2E90FA" stroke-width="2" stroke-linejoin="round"/>
<path d="M23.6233 26.5869C21.9219 27.425 14.9453 30.8004 12.9999 30.8004C11.0539 30.8004 4.07731 27.4245 2.37598 26.5869" stroke="#2E90FA" stroke-width="2" stroke-linecap="round" stroke-linejoin="round"/>
<path d="M13 30.8014V43.8705" stroke="#2E90FA" stroke-width="2" stroke-linecap="round" stroke-linejoin="round"/>
<path d="M25.3933 40.8125C24.8381 40.547 24.4458 40.0404 24.3604 39.4307C24.2069 38.3318 24 36.2491 24 32.9994C24 29.7497 24.2069 27.667 24.3604 26.568L24.3609 26.5654C27.1282 27.9011 33.3238 30.7994 35 30.7994C36.6772 30.7994 42.8718 27.9017 45.6386 26.5654L45.6396 26.568C45.7931 27.667 46 29.7497 46 32.9994C46 36.2491 45.7931 38.3318 45.6396 39.4307C45.5542 40.0404 45.1619 40.547 44.6067 40.8125C42.6089 41.7685 37.6599 43.9994 35 43.9994C32.3401 43.9994 27.3911 41.768 25.3933 40.8125Z" fill="#194185"/>
<path d="M45.6399 26.566C42.8726 27.9018 36.678 30.8 35.0013 30.8C33.3236 30.8 27.129 27.9018 24.3617 26.5655C24.4481 25.9579 24.8399 25.4519 25.3946 25.1869C27.3919 24.2309 32.3409 22 35.0008 22C37.6602 22 42.6091 24.2314 44.6069 25.1869C45.1611 25.4519 45.554 25.9574 45.6399 26.566Z" fill="#232426"/>
<path d="M24.3604 39.4313C24.4458 40.041 24.8381 40.5476 25.3933 40.8131C27.3911 41.7691 32.3401 44 35 44C37.6599 44 42.6089 41.7686 44.6067 40.8131C45.1619 40.5476 45.5542 40.041 45.6396 39.4313C45.7931 38.3324 46 36.2497 46 33C46 29.7503 45.7931 27.6676 45.6396 26.5687C45.5542 25.959 45.1619 25.4524 44.6067 25.1869C42.6089 24.2309 37.6599 22 35 22C32.3401 22 27.3911 24.2314 25.3933 25.1869C24.8381 25.4524 24.4458 25.959 24.3604 26.5687C24.2069 27.6676 24 29.7503 24 33C24 36.2497 24.2069 38.3324 24.3604 39.4313Z" stroke="#2E90FA" stroke-width="2" stroke-linejoin="round"/>
<path d="M45.6233 26.5869C43.9219 27.425 36.9453 30.8004 34.9999 30.8004C33.0539 30.8004 26.0773 27.4245 24.376 26.5869" stroke="#2E90FA" stroke-width="2" stroke-linecap="round" stroke-linejoin="round"/>
<path d="M35 30.8014V43.8705" stroke="#2E90FA" stroke-width="2" stroke-linecap="round" stroke-linejoin="round"/>
<path d="M14.3933 21.8125C13.8381 21.547 13.4458 21.0404 13.3604 20.4307C13.2069 19.3318 13 17.2491 13 13.9994C13 10.7497 13.2069 8.667 13.3604 7.56805L13.3609 7.56543C16.1282 8.90114 22.3238 11.7994 24 11.7994C25.6772 11.7994 31.8718 8.90167 34.6386 7.56543L34.6396 7.56805C34.7931 8.667 35 10.7497 35 13.9994C35 17.2491 34.7931 19.3318 34.6396 20.4307C34.5542 21.0404 34.1619 21.547 33.6067 21.8125C31.6089 22.7685 26.6599 24.9994 24 24.9994C21.3401 24.9994 16.3911 22.768 14.3933 21.8125Z" fill="#194185"/>
<path d="M34.6399 7.56605C31.8726 8.90176 25.678 11.8 24.0013 11.8C22.3236 11.8 16.129 8.90176 13.3617 7.56552C13.4481 6.95791 13.8399 6.4519 14.3946 6.18686C16.3919 5.2309 21.3409 3 24.0008 3C26.6602 3 31.6091 5.23143 33.6069 6.18686C34.1611 6.4519 34.554 6.95738 34.6399 7.56605Z" fill="#232426"/>
<path d="M13.3604 20.4313C13.4458 21.041 13.8381 21.5476 14.3933 21.8131C16.3911 22.7691 21.3401 25 24 25C26.6599 25 31.6089 22.7686 33.6067 21.8131C34.1619 21.5476 34.5542 21.041 34.6396 20.4313C34.7931 19.3324 35 17.2497 35 14C35 10.7503 34.7931 8.66762 34.6396 7.56867C34.5542 6.95895 34.1619 6.45243 33.6067 6.18686C31.6089 5.2309 26.6599 3 24 3C21.3401 3 16.3911 5.23143 14.3933 6.18686C13.8381 6.45243 13.4458 6.95895 13.3604 7.56867C13.2069 8.66762 13 10.7503 13 14C13 17.2497 13.2069 19.3324 13.3604 20.4313Z" stroke="#2E90FA" stroke-width="2" stroke-linejoin="round"/>
<path d="M34.6233 7.58691C32.9219 8.42501 25.9453 11.8004 23.9999 11.8004C22.0539 11.8004 15.0773 8.42449 13.376 7.58691" stroke="#2E90FA" stroke-width="2" stroke-linecap="round" stroke-linejoin="round"/>
<path d="M24 11.8014V24.8705" stroke="#2E90FA" stroke-width="2" stroke-linecap="round" stroke-linejoin="round"/>
</svg>
