<svg width="48" height="49" viewBox="0 0 48 49" fill="none" xmlns="http://www.w3.org/2000/svg">
<path d="M9.57098 43.0151C7.27251 42.828 5.5138 41.0693 5.32668 38.7708C5.09099 35.8669 4.8418 31.2331 4.8418 24.6084C4.8418 17.9838 5.09099 13.35 5.32668 10.4461C5.5138 8.14763 7.27251 6.38892 9.57098 6.2018C12.4749 5.96611 17.1087 5.71692 23.7333 5.71692C30.358 5.71692 34.9918 5.96611 37.8957 6.2018C40.1941 6.38892 41.9529 8.14763 42.14 10.4461C42.3757 13.35 42.6249 17.9838 42.6249 24.6084C42.6249 31.2331 42.3757 35.8669 42.14 38.7708C41.9529 41.0693 40.1941 42.828 37.8957 43.0151C34.9918 43.2508 30.358 43.5 23.7333 43.5C17.1087 43.5 12.4749 43.2508 9.57098 43.0151Z" fill="white"/>
<path d="M26.4316 5.73132C28.4422 5.75291 30.2378 5.79789 31.8292 5.85727" stroke="#088752" stroke-width="2" stroke-linecap="round" stroke-linejoin="round"/>
<path d="M15.6367 5.85641C17.2272 5.79794 19.0237 5.75296 21.0343 5.73047" stroke="#088752" stroke-width="2" stroke-linecap="round" stroke-linejoin="round"/>
<path d="M10.2393 6.14966L9.57089 6.20183C7.27242 6.38895 5.51371 8.14766 5.32659 10.4461C5.3086 10.6593 5.29151 10.8824 5.27441 11.1145" stroke="#088752" stroke-width="2" stroke-linecap="round" stroke-linejoin="round"/>
<path d="M4.98141 16.5121C4.91599 18.3107 4.87401 20.11 4.85547 21.9097" stroke="#088752" stroke-width="2" stroke-linecap="round" stroke-linejoin="round"/>
<path d="M4.98141 32.7048C4.91599 30.9063 4.87401 29.1069 4.85547 27.3073" stroke="#088752" stroke-width="2" stroke-linecap="round" stroke-linejoin="round"/>
<path d="M10.2393 43.0673L9.57089 43.0151C7.27242 42.828 5.51371 41.0693 5.32659 38.7708C5.30802 38.5481 5.29063 38.3253 5.27441 38.1024" stroke="#088752" stroke-width="2" stroke-linecap="round" stroke-linejoin="round"/>
<path d="M21.0343 43.4856C19.2346 43.4674 17.4353 43.4257 15.6367 43.3606" stroke="#088752" stroke-width="2" stroke-linecap="round" stroke-linejoin="round"/>
<path d="M31.8292 43.3606C30.2387 43.4191 28.4422 43.4641 26.4316 43.4865" stroke="#088752" stroke-width="2" stroke-linecap="round" stroke-linejoin="round"/>
<path d="M42.1924 38.1024L42.1402 38.7708C41.9531 41.0693 40.1944 42.828 37.8959 43.0151C37.6818 43.0331 37.4596 43.0502 37.2275 43.0673" stroke="#088752" stroke-width="2" stroke-linecap="round" stroke-linejoin="round"/>
<path d="M42.6103 27.3073C42.5918 29.1069 42.5498 30.9063 42.4844 32.7048" stroke="#088752" stroke-width="2" stroke-linecap="round" stroke-linejoin="round"/>
<path d="M42.4854 16.5121C42.5438 18.1026 42.5888 19.8991 42.6104 21.9097" stroke="#088752" stroke-width="2" stroke-linecap="round" stroke-linejoin="round"/>
<path d="M37.2275 6.14966L37.895 6.20183C40.1944 6.38895 41.9531 8.14766 42.1402 10.4461L42.1924 11.1145" stroke="#088752" stroke-width="2" stroke-linecap="round" stroke-linejoin="round"/>
<path d="M1.04578 43.1974C1.11178 44.9229 2.22895 46.238 3.9497 46.3855C4.9644 46.4667 5.98208 46.5047 7.00001 46.4995C8.25997 46.4995 9.26075 46.4515 10.0503 46.3843C11.7711 46.238 12.8882 44.9229 12.9542 43.1974C12.9865 42.2986 13.0017 41.3993 12.9998 40.5C12.9998 39.4033 12.9818 38.5166 12.9542 37.8026C12.8882 36.0771 11.7711 34.762 10.0503 34.6145C9.03562 34.5333 8.01794 34.4953 7.00001 34.5005C5.74005 34.5005 4.73927 34.5485 3.9497 34.6157C2.22895 34.762 1.11178 36.0771 1.04578 37.8026C1.01336 38.7014 0.998154 39.6007 1.00018 40.5C1.00018 41.5967 1.01818 42.4834 1.04578 43.1974Z" fill="#D1E9DF"/>
<path d="M1.04578 43.1974C1.11178 44.9229 2.22895 46.238 3.9497 46.3855C4.9644 46.4667 5.98208 46.5047 7.00001 46.4995C8.25998 46.4995 9.26075 46.4515 10.0503 46.3843C11.7711 46.238 12.8882 44.9229 12.9542 43.1974C12.9865 42.2986 13.0017 41.3993 12.9998 40.5C12.9998 39.4033 12.9818 38.5166 12.9542 37.8026C12.8882 36.0771 11.7711 34.762 10.0503 34.6145C9.03562 34.5333 8.01794 34.4953 7.00001 34.5005C5.74005 34.5005 4.73927 34.5485 3.9497 34.6157C2.22895 34.762 1.11178 36.0771 1.04578 37.8026C1.01336 38.7014 0.998155 39.6007 1.00018 40.5C1.00018 41.5967 1.01818 42.4834 1.04578 43.1974Z" stroke="#088752" stroke-width="2" stroke-linecap="round" stroke-linejoin="round"/>
<path d="M34.0458 10.1974C34.1118 11.9229 35.2289 13.238 36.9497 13.3855C37.9644 13.4667 38.9821 13.5047 40 13.4995C41.26 13.4995 42.2607 13.4515 43.0503 13.3843C44.7711 13.238 45.8882 11.9229 45.9542 10.1974C45.9865 9.29863 46.0017 8.39934 45.9998 7.5C45.9998 6.40328 45.9818 5.51656 45.9542 4.80261C45.8882 3.07714 44.7711 1.76204 43.0503 1.61445C42.0356 1.53333 41.0179 1.4953 40 1.50046C38.74 1.50046 37.7393 1.54846 36.9497 1.61565C35.2289 1.76204 34.1118 3.07714 34.0458 4.80261C34.0134 5.70137 33.9982 6.60066 34.0002 7.5C34.0002 8.59671 34.0182 9.48344 34.0458 10.1974Z" fill="#D1E9DF"/>
<path d="M34.0458 10.1974C34.1118 11.9229 35.2289 13.238 36.9497 13.3855C37.9644 13.4667 38.9821 13.5047 40 13.4995C41.26 13.4995 42.2607 13.4515 43.0503 13.3843C44.7711 13.238 45.8882 11.9229 45.9542 10.1974C45.9865 9.29863 46.0017 8.39934 45.9998 7.5C45.9998 6.40328 45.9818 5.51656 45.9542 4.80261C45.8882 3.07714 44.7711 1.76204 43.0503 1.61445C42.0356 1.53333 41.0179 1.4953 40 1.50046C38.74 1.50046 37.7393 1.54846 36.9497 1.61565C35.2289 1.76204 34.1118 3.07714 34.0458 4.80261C34.0134 5.70137 33.9982 6.60066 34.0002 7.5C34.0002 8.59671 34.0182 9.48344 34.0458 10.1974Z" stroke="#088752" stroke-width="2" stroke-linecap="round" stroke-linejoin="round"/>
<path d="M16.0625 24.596C16.1498 23.0309 17.2678 21.9605 18.8312 21.8526C20.0032 21.7716 21.6943 21.7059 24.096 21.7059C26.6299 21.7059 28.3632 21.7788 29.529 21.866C30.9565 21.9722 31.9954 22.9275 32.1025 24.355C32.1546 25.0494 32.1915 25.9471 32.1915 27.103C32.1915 28.2579 32.1555 29.1565 32.1025 29.8518C31.9945 31.2785 30.9565 32.2337 29.529 32.3399C28.3632 32.4271 26.6299 32.5 24.096 32.5C21.5621 32.5 19.8287 32.4271 18.663 32.3399C17.2355 32.2337 16.1965 31.2785 16.0895 29.8509C16.0257 28.9364 15.996 28.0197 16.0004 27.103C16.0004 26.0775 16.0247 25.2545 16.0625 24.596Z" fill="#D1E9DF"/>
<path d="M16.0625 24.596C16.1498 23.0309 17.2678 21.9605 18.8312 21.8526C20.0032 21.7716 21.6943 21.7059 24.096 21.7059C26.6299 21.7059 28.3632 21.7788 29.529 21.866C30.9565 21.9722 31.9954 22.9275 32.1025 24.355C32.1546 25.0494 32.1915 25.9471 32.1915 27.103C32.1915 28.2579 32.1555 29.1565 32.1025 29.8518C31.9945 31.2785 30.9565 32.2337 29.529 32.3399C28.3632 32.4271 26.6299 32.5 24.096 32.5C21.5621 32.5 19.8287 32.4271 18.663 32.3399C17.2355 32.2337 16.1965 31.2785 16.0895 29.8509C16.0257 28.9364 15.996 28.0197 16.0004 27.103C16.0004 26.0775 16.0247 25.2545 16.0625 24.596Z" stroke="#088752" stroke-width="2" stroke-linecap="round" stroke-linejoin="round"/>
<path d="M28.6359 21.8013L28.5163 18.6296C28.4769 17.5211 28.0089 16.4711 27.2107 15.7008C26.4126 14.9305 25.3466 14.5 24.2374 14.5C23.1281 14.5 22.0622 14.9305 21.264 15.7008C20.4659 16.4711 19.9978 17.5211 19.9584 18.6296L19.8379 21.8013" stroke="#088752" stroke-width="2" stroke-linecap="round" stroke-linejoin="round"/>
<path d="M23.6758 26.2035V28.0025" stroke="#088752" stroke-width="2" stroke-linecap="round" stroke-linejoin="round"/>
</svg>
