<svg width="48" height="48" viewBox="0 0 48 48" fill="none" xmlns="http://www.w3.org/2000/svg">
<path d="M9.5711 42.5151C7.27263 42.328 5.51392 40.5693 5.3268 38.2708C5.09111 35.3669 4.84192 30.7331 4.84192 24.1085C4.84192 17.4838 5.09111 12.85 5.3268 9.94613C5.51392 7.64766 7.27263 5.88895 9.5711 5.70183C12.475 5.46614 17.1088 5.21695 23.7334 5.21695C30.3581 5.21695 34.9919 5.46614 37.8958 5.70183C40.1943 5.88895 41.953 7.64766 42.1401 9.94613C42.3758 12.85 42.625 17.4838 42.625 24.1085C42.625 30.7331 42.3758 35.3669 42.1401 38.2708C41.953 40.5693 40.1943 42.328 37.8958 42.5151C34.9919 42.7508 30.3581 43 23.7334 43C17.1088 43 12.475 42.7508 9.5711 42.5151Z" fill="#232426"/>
<path d="M26.4323 5.23134C28.4428 5.25293 30.2384 5.29791 31.8298 5.35728" stroke="#12B76A" stroke-width="2" stroke-linecap="round" stroke-linejoin="round"/>
<path d="M15.6371 5.35638C17.2276 5.29791 19.0241 5.25293 21.0347 5.23044" stroke="#12B76A" stroke-width="2" stroke-linecap="round" stroke-linejoin="round"/>
<path d="M10.2395 5.64966L9.57113 5.70183C7.27266 5.88895 5.51395 7.64766 5.32683 9.94613C5.30884 10.1593 5.29175 10.3824 5.27466 10.6145" stroke="#12B76A" stroke-width="2" stroke-linecap="round" stroke-linejoin="round"/>
<path d="M4.98129 16.0121C4.91587 17.8107 4.87389 19.61 4.85535 21.4097" stroke="#12B76A" stroke-width="2" stroke-linecap="round" stroke-linejoin="round"/>
<path d="M4.98129 32.2048C4.91587 30.4063 4.87389 28.6069 4.85535 26.8073" stroke="#12B76A" stroke-width="2" stroke-linecap="round" stroke-linejoin="round"/>
<path d="M10.2395 42.5673L9.57113 42.5151C7.27266 42.328 5.51395 40.5693 5.32683 38.2708C5.30826 38.0481 5.29087 37.8253 5.27466 37.6024" stroke="#12B76A" stroke-width="2" stroke-linecap="round" stroke-linejoin="round"/>
<path d="M21.0347 42.9856C19.235 42.9674 17.4357 42.9257 15.6371 42.8606" stroke="#12B76A" stroke-width="2" stroke-linecap="round" stroke-linejoin="round"/>
<path d="M31.8298 42.8606C30.2393 42.919 28.4428 42.964 26.4323 42.9865" stroke="#12B76A" stroke-width="2" stroke-linecap="round" stroke-linejoin="round"/>
<path d="M42.1923 37.6024L42.1401 38.2708C41.953 40.5693 40.1943 42.328 37.8958 42.5151C37.6817 42.5331 37.4595 42.5502 37.2274 42.5673" stroke="#12B76A" stroke-width="2" stroke-linecap="round" stroke-linejoin="round"/>
<path d="M42.6106 26.8073C42.592 28.6069 42.55 30.4063 42.4846 32.2048" stroke="#12B76A" stroke-width="2" stroke-linecap="round" stroke-linejoin="round"/>
<path d="M42.4855 16.0121C42.5439 17.6026 42.5889 19.3991 42.6105 21.4097" stroke="#12B76A" stroke-width="2" stroke-linecap="round" stroke-linejoin="round"/>
<path d="M37.2274 5.64966L37.8949 5.70183C40.1943 5.88895 41.953 7.64766 42.1401 9.94613L42.1923 10.6145" stroke="#12B76A" stroke-width="2" stroke-linecap="round" stroke-linejoin="round"/>
<path d="M1.04578 42.6974C1.11178 44.4229 2.22895 45.738 3.9497 45.8855C4.9644 45.9667 5.98208 46.0047 7.00001 45.9995C8.25997 45.9995 9.26075 45.9515 10.0503 45.8843C11.7711 45.738 12.8882 44.4229 12.9542 42.6974C12.9865 41.7986 13.0017 40.8993 12.9998 40C12.9998 38.9033 12.9818 38.0166 12.9542 37.3026C12.8882 35.5771 11.7711 34.262 10.0503 34.1145C9.03562 34.0333 8.01794 33.9953 7.00001 34.0005C5.74005 34.0005 4.73927 34.0485 3.9497 34.1157C2.22895 34.262 1.11178 35.5771 1.04578 37.3026C1.01336 38.2014 0.998154 39.1007 1.00018 40C1.00018 41.0967 1.01818 41.9834 1.04578 42.6974Z" fill="#054F31"/>
<path d="M1.04578 42.6974C1.11178 44.4229 2.22895 45.738 3.9497 45.8855C4.9644 45.9667 5.98208 46.0047 7.00001 45.9995C8.25998 45.9995 9.26075 45.9515 10.0503 45.8843C11.7711 45.738 12.8882 44.4229 12.9542 42.6974C12.9865 41.7986 13.0017 40.8993 12.9998 40C12.9998 38.9033 12.9818 38.0166 12.9542 37.3026C12.8882 35.5771 11.7711 34.262 10.0503 34.1145C9.03562 34.0333 8.01794 33.9953 7.00001 34.0005C5.74005 34.0005 4.73927 34.0485 3.9497 34.1157C2.22895 34.262 1.11178 35.5771 1.04578 37.3026C1.01336 38.2014 0.998155 39.1007 1.00018 40C1.00018 41.0967 1.01818 41.9834 1.04578 42.6974Z" stroke="#12B76A" stroke-width="2" stroke-linecap="round" stroke-linejoin="round"/>
<path d="M34.0458 9.69739C34.1118 11.4229 35.2289 12.738 36.9497 12.8855C37.9644 12.9667 38.9821 13.0047 40 12.9995C41.26 12.9995 42.2607 12.9515 43.0503 12.8843C44.7711 12.738 45.8882 11.4229 45.9542 9.69739C45.9865 8.79863 46.0017 7.89934 45.9998 7C45.9998 5.90328 45.9818 5.01656 45.9542 4.30261C45.8882 2.57714 44.7711 1.26204 43.0503 1.11445C42.0356 1.03333 41.0179 0.995301 40 1.00046C38.74 1.00046 37.7393 1.04846 36.9497 1.11565C35.2289 1.26204 34.1118 2.57714 34.0458 4.30261C34.0134 5.20137 33.9982 6.10066 34.0002 7C34.0002 8.09671 34.0182 8.98344 34.0458 9.69739Z" fill="#054F31"/>
<path d="M34.0458 9.69739C34.1118 11.4229 35.2289 12.738 36.9497 12.8855C37.9644 12.9667 38.9821 13.0047 40 12.9995C41.26 12.9995 42.2607 12.9515 43.0503 12.8843C44.7711 12.738 45.8882 11.4229 45.9542 9.69739C45.9865 8.79863 46.0017 7.89934 45.9998 7C45.9998 5.90328 45.9818 5.01656 45.9542 4.30261C45.8882 2.57714 44.7711 1.26204 43.0503 1.11445C42.0356 1.03333 41.0179 0.995301 40 1.00046C38.74 1.00046 37.7393 1.04846 36.9497 1.11565C35.2289 1.26204 34.1118 2.57714 34.0458 4.30261C34.0134 5.20137 33.9982 6.10066 34.0002 7C34.0002 8.09671 34.0182 8.98344 34.0458 9.69739Z" stroke="#12B76A" stroke-width="2" stroke-linecap="round" stroke-linejoin="round"/>
<path d="M16.0625 24.0961C16.1498 22.5309 17.2678 21.4605 18.8312 21.3526C20.0032 21.2716 21.6943 21.2059 24.096 21.2059C26.6299 21.2059 28.3632 21.2788 29.529 21.3661C30.9565 21.4722 31.9954 22.4275 32.1025 23.855C32.1546 24.5494 32.1915 25.4471 32.1915 26.603C32.1915 27.7579 32.1555 28.6565 32.1025 29.3519C31.9945 30.7785 30.9565 31.7337 29.529 31.8399C28.3632 31.9271 26.6299 32 24.096 32C21.5621 32 19.8287 31.9271 18.663 31.8399C17.2355 31.7337 16.1965 30.7785 16.0895 29.351C16.0257 28.4364 15.996 27.5198 16.0004 26.603C16.0004 25.5775 16.0247 24.7545 16.0625 24.0961Z" fill="#054F31"/>
<path d="M16.0625 24.0961C16.1498 22.5309 17.2678 21.4605 18.8312 21.3526C20.0032 21.2716 21.6943 21.2059 24.096 21.2059C26.6299 21.2059 28.3632 21.2788 29.529 21.3661C30.9565 21.4722 31.9954 22.4275 32.1025 23.855C32.1546 24.5494 32.1915 25.4471 32.1915 26.603C32.1915 27.7579 32.1555 28.6565 32.1025 29.3519C31.9945 30.7785 30.9565 31.7337 29.529 31.8399C28.3632 31.9271 26.6299 32 24.096 32C21.5621 32 19.8287 31.9271 18.663 31.8399C17.2355 31.7337 16.1965 30.7785 16.0895 29.351C16.0257 28.4364 15.996 27.5198 16.0004 26.603C16.0004 25.5775 16.0247 24.7545 16.0625 24.0961Z" stroke="#12B76A" stroke-width="2" stroke-linecap="round" stroke-linejoin="round"/>
<path d="M28.6359 21.3013L28.5163 18.1296C28.4769 17.0211 28.0089 15.9711 27.2107 15.2008C26.4126 14.4305 25.3466 14 24.2374 14C23.1281 14 22.0622 14.4305 21.264 15.2008C20.4659 15.9711 19.9978 17.0211 19.9584 18.1296L19.8379 21.3013" stroke="#12B76A" stroke-width="2" stroke-linecap="round" stroke-linejoin="round"/>
<path d="M24.5 25.7035V27.5025" stroke="#12B76A" stroke-width="2" stroke-linecap="round" stroke-linejoin="round"/>
</svg>
