<svg width="48" height="48" viewBox="0 0 48 48" fill="none" xmlns="http://www.w3.org/2000/svg">
<g clip-path="url(#clip0_4747_9187)">
<path d="M37.6137 17.626C41.8308 17.626 45.2504 14.2209 45.2504 10.0207C45.2504 5.82175 41.8308 2.41667 37.6137 2.41667C33.3966 2.41667 29.9794 5.82175 29.9794 10.0207C29.9794 11.9661 30.8676 13.3811 30.8676 13.3811L21.6335 22.5765C21.219 22.9898 20.639 24.0628 21.6335 25.0536L22.6992 26.1145C23.1137 26.4685 24.1553 26.964 25.0071 26.1145L26.2517 24.8772C27.4939 26.1145 28.9149 25.4076 29.4478 24.6995C30.3347 23.4622 29.2701 22.2237 29.2701 22.2237L29.6254 21.8696C31.3291 23.5673 32.8214 22.5777 33.3543 21.8696C34.2424 20.6323 33.3543 19.3938 33.3543 19.3938C32.9991 18.6869 32.2886 18.6869 33.1767 17.8024L34.2424 16.7415C35.0943 17.4483 36.8464 17.626 37.6161 17.626H37.6137Z" fill="#054F31" stroke="#12B76A" stroke-width="2" stroke-linejoin="round"/>
<path d="M40.2781 10.0219C40.2765 10.7267 39.9951 11.4021 39.4957 11.8994C38.9962 12.3968 38.3198 12.6755 37.6149 12.6742C37.2658 12.675 36.92 12.607 36.5972 12.4742C36.2743 12.3413 35.9808 12.1462 35.7334 11.8999C35.486 11.6536 35.2896 11.361 35.1552 11.0388C35.0209 10.7165 34.9514 10.371 34.9506 10.0219C34.9512 9.67272 35.0206 9.32707 35.1549 9.00471C35.2891 8.68235 35.4856 8.3896 35.733 8.14318C35.9804 7.89676 36.274 7.70151 36.5969 7.56857C36.9198 7.43564 37.2657 7.36762 37.6149 7.36842C37.964 7.36778 38.3098 7.43591 38.6326 7.56892C38.9554 7.70193 39.2488 7.89721 39.4961 8.14361C39.7434 8.39001 39.9397 8.6827 40.0739 9.00499C40.2081 9.32727 40.2775 9.67282 40.2781 10.0219Z" fill="#232426" stroke="#039855" stroke-width="2"/>
<path d="M0 31.0225C0 31.0225 6.75187 28 11.4394 28C14.7703 28 18.4294 29.3144 20.8603 30.3869C22.6884 31.1931 23.7478 32.215 24.1753 34.1669C24.4716 35.5206 23.4994 37.7772 22.1184 37.8859L21.0572 37.9703C24.2419 37.9703 32.6419 36.49 35.58 35.9547C36.27 35.8291 36.9816 35.7372 37.6406 35.9753C38.4769 36.2753 39.6056 37.0075 40.1625 38.7822C40.62 40.24 39.5794 41.6509 38.1506 42.19C33.9956 43.7566 25.3856 46.7931 21.0572 46.7931C9.56438 46.7931 0 43.5072 0 43.5072V31.0225Z" fill="#232426"/>
<path d="M1.12695 30.4469C1.12695 30.4469 6.75195 28.0431 11.4395 28.0431C14.746 28.0431 18.377 29.3725 20.8088 30.4684C22.6745 31.3084 23.7479 31.8391 24.1745 33.8406C24.4716 35.2309 23.4732 37.5484 22.0557 37.6628L21.0573 37.7434M21.0573 37.7434C18.7679 37.7434 15.2241 37.0647 15.2241 37.0647M21.0573 37.7434C24.2326 37.7434 32.5913 36.235 35.5538 35.6809C36.2607 35.5497 36.9929 35.4531 37.6651 35.7062C38.5107 36.0259 39.6451 36.7975 40.187 38.6594C40.6107 40.1144 39.5935 41.5141 38.1807 42.0606C34.037 43.6637 25.396 46.7931 21.0573 46.7931C9.56445 46.7931 1.12695 43.9084 1.12695 43.9084" stroke="#12B76A" stroke-width="2" stroke-linecap="round" stroke-linejoin="round"/>
</g>
<defs>
<clipPath id="clip0_4747_9187">
<rect width="48" height="48" fill="white"/>
</clipPath>
</defs>
</svg>
