<svg width="48" height="48" viewBox="0 0 48 48" fill="none" xmlns="http://www.w3.org/2000/svg">
<path d="M11.2688 28.6303C8.47688 30.0272 6.4875 31.2272 5.20406 32.071C4.22625 32.7141 4.22625 34.0369 5.20406 34.68C6.70406 35.6663 9.16969 37.1381 12.7509 38.8444C17.3184 41.0194 20.9775 42.0591 22.7803 42.4894C23.5824 42.6819 24.4186 42.6819 25.2206 42.4894C27.0225 42.0581 30.6825 41.0194 35.25 38.8444C38.8312 37.1381 41.2969 35.6663 42.7969 34.68C43.7747 34.0369 43.7747 32.7141 42.7969 32.071C41.5125 31.2272 39.5231 30.0272 36.7313 28.6303C36.2606 28.8647 35.7675 29.1066 35.25 29.3531C30.6825 31.5281 27.0225 32.5688 25.2206 32.9991C24.4186 33.1916 23.5824 33.1916 22.7803 32.9991C20.9775 32.5678 17.3184 31.5281 12.75 29.3531C12.2539 29.1171 11.7601 28.8761 11.2688 28.6303Z" fill="#232426"/>
<path d="M22.7803 5.51063C23.5824 5.31811 24.4186 5.31811 25.2206 5.51063C27.0225 5.94188 30.6825 6.98157 35.25 9.15657C38.8312 10.8628 41.2969 12.3347 42.7969 13.3209C43.7747 13.9641 43.7747 15.2869 42.7969 15.93C41.2969 16.9163 38.8312 18.3891 35.25 20.0944C30.6825 22.2694 27.0225 23.3091 25.2206 23.7403C24.4186 23.9328 23.5824 23.9328 22.7803 23.7403C20.9775 23.3091 17.3184 22.2684 12.75 20.0934C9.16875 18.3891 6.70406 16.9153 5.20406 15.93C4.22625 15.2869 4.22625 13.9641 5.20406 13.3209C6.70406 12.3347 9.16969 10.8619 12.7509 9.15657C17.3184 6.98157 20.9775 5.94095 22.7803 5.51063Z" fill="#8FBFFA"/>
<path d="M11.0381 19.2553C8.36719 20.6025 6.45187 21.7594 5.20406 22.5797C4.22625 23.2228 4.22625 24.5456 5.20406 25.1888C6.70406 26.175 9.16969 27.6478 12.7509 29.3531C17.3184 31.5281 20.9775 32.5688 22.7803 32.9991C23.5824 33.1916 24.4186 33.1916 25.2206 32.9991C27.0225 32.5678 30.6825 31.5281 35.25 29.3531C38.8312 27.6469 41.2969 26.175 42.7969 25.1888C43.7747 24.5456 43.7747 23.2228 42.7969 22.5797C41.5481 21.7594 39.6328 20.6025 36.9628 19.2553C36.4228 19.5272 35.8519 19.8075 35.25 20.0944C30.6825 22.2694 27.0225 23.3091 25.2206 23.7403C24.4186 23.9328 23.5824 23.9328 22.7803 23.7403C20.9775 23.3091 17.3184 22.2684 12.75 20.0934C12.1762 19.8206 11.6055 19.5412 11.0381 19.2553Z" fill="#7A271A"/>
<path d="M40.875 30.8766C41.6362 31.3266 42.2747 31.7278 42.7959 32.0709C43.7747 32.7141 43.7747 34.0369 42.7959 34.68C41.2959 35.6663 38.8312 37.1391 35.25 38.8444C30.6825 41.0194 27.0225 42.0591 25.2197 42.4903C24.4179 42.6827 23.582 42.6827 22.7803 42.4903C20.9775 42.0591 17.3175 41.0184 12.75 38.8434C9.16872 37.1391 6.70403 35.6653 5.20403 34.68C4.22528 34.0369 4.22528 32.7141 5.20403 32.0709C5.83477 31.6576 6.47526 31.2594 7.12497 30.8766" stroke="#F04438" stroke-width="2" stroke-linecap="round" stroke-linejoin="round"/>
<path d="M40.875 21.3844C41.6362 21.8344 42.2737 22.2375 42.7959 22.5797C43.7746 23.2228 43.7746 24.5456 42.7959 25.1888C41.2959 26.175 38.8303 27.6478 35.249 29.3531C30.6815 31.5281 27.0225 32.5678 25.2197 32.9991C24.4176 33.1916 23.5814 33.1916 22.7793 32.9991C20.9775 32.5678 17.3175 31.5272 12.75 29.3522C9.16871 27.6478 6.70309 26.1741 5.20309 25.1888C4.22527 24.5456 4.22527 23.2228 5.20309 22.5797C5.83412 22.166 6.47493 21.7675 7.12496 21.3844" stroke="#F04438" stroke-width="2" stroke-linecap="round" stroke-linejoin="round"/>
<path d="M22.7803 5.51064C23.582 5.31826 24.4179 5.31826 25.2197 5.51064C27.0225 5.94189 30.6825 6.98157 35.25 9.15657C38.8312 10.8628 41.2959 12.3347 42.7959 13.3209C43.7747 13.9641 43.7747 15.2869 42.7959 15.93C41.2959 16.9163 38.8312 18.3891 35.25 20.0944C30.6825 22.2694 27.0225 23.3091 25.2197 23.7403C24.4179 23.9327 23.582 23.9327 22.7803 23.7403C20.9775 23.3091 17.3175 22.2684 12.75 20.0934C9.16872 18.3891 6.70403 16.9153 5.20403 15.93C4.22528 15.2869 4.22528 13.9641 5.20403 13.3209C6.70403 12.3347 9.16872 10.8619 12.75 9.15657C17.3175 6.98157 20.9775 5.94095 22.7803 5.51064Z" fill="#232426" stroke="#F04438" stroke-width="2" stroke-linecap="round" stroke-linejoin="round"/>
</svg>
