<svg width="48" height="48" viewBox="0 0 48 48" fill="none" xmlns="http://www.w3.org/2000/svg">
<path d="M11.2668 28.6328C8.47492 30.0297 6.48555 31.2297 5.20211 32.0734C4.2243 32.7166 4.2243 34.0394 5.20211 34.6825C6.70211 35.6688 9.16773 37.1406 12.749 38.8469C17.3165 41.0219 20.9755 42.0616 22.7784 42.4919C23.5804 42.6844 24.4166 42.6844 25.2187 42.4919C27.0205 42.0606 30.6805 41.0219 35.248 38.8469C38.8293 37.1406 41.2949 35.6688 42.7949 34.6825C43.7727 34.0394 43.7727 32.7166 42.7949 32.0734C41.5105 31.2297 39.5212 30.0297 36.7293 28.6328C36.2587 28.8672 35.7655 29.1091 35.248 29.3556C30.6805 31.5306 27.0205 32.5712 25.2187 33.0016C24.4166 33.1941 23.5804 33.1941 22.7784 33.0016C20.9755 32.5703 17.3165 31.5306 12.748 29.3556C12.2519 29.1195 11.7582 28.8786 11.2668 28.6328Z" fill="white"/>
<path d="M22.7784 5.51158C23.5804 5.31906 24.4166 5.31906 25.2187 5.51158C27.0205 5.94283 30.6805 6.98252 35.248 9.15752C38.8293 10.8638 41.2949 12.3356 42.7949 13.3219C43.7727 13.965 43.7727 15.2878 42.7949 15.931C41.2949 16.9172 38.8293 18.39 35.248 20.0953C30.6805 22.2703 27.0205 23.31 25.2187 23.7413C24.4166 23.9338 23.5804 23.9338 22.7784 23.7413C20.9755 23.31 17.3165 22.2694 12.748 20.0944C9.1668 18.39 6.70211 16.9163 5.20211 15.931C4.2243 15.2878 4.2243 13.965 5.20211 13.3219C6.70211 12.3356 9.16773 10.8628 12.749 9.15752C17.3165 6.98252 20.9755 5.94189 22.7784 5.51158Z" fill="#8FBFFA"/>
<path d="M11.0362 19.2578C8.36523 20.605 6.44992 21.7619 5.20211 22.5822C4.2243 23.2253 4.2243 24.5481 5.20211 25.1912C6.70211 26.1775 9.16773 27.6503 12.749 29.3556C17.3165 31.5306 20.9755 32.5712 22.7784 33.0016C23.5804 33.1941 24.4166 33.1941 25.2187 33.0016C27.0205 32.5703 30.6805 31.5306 35.248 29.3556C38.8293 27.6494 41.2949 26.1775 42.7949 25.1912C43.7727 24.5481 43.7727 23.2253 42.7949 22.5822C41.5462 21.7619 39.6309 20.605 36.9609 19.2578C36.4209 19.5297 35.8499 19.81 35.248 20.0969C30.6805 22.2719 27.0205 23.3116 25.2187 23.7428C24.4166 23.9353 23.5804 23.9353 22.7784 23.7428C20.9755 23.3116 17.3165 22.2709 12.748 20.0959C12.1742 19.8231 11.6036 19.5437 11.0362 19.2578Z" fill="#FEE1E3"/>
<path d="M40.8737 30.8789C41.635 31.3289 42.2734 31.7302 42.7947 32.0733C43.7734 32.7164 43.7734 34.0392 42.7947 34.6823C41.2947 35.6686 38.83 37.1414 35.2488 38.8467C30.6813 41.0217 27.0213 42.0614 25.2184 42.4927C24.4167 42.685 23.5808 42.685 22.7791 42.4927C20.9762 42.0614 17.3162 41.0208 12.7487 38.8458C9.1675 37.1414 6.70281 35.6677 5.20281 34.6823C4.22406 34.0392 4.22406 32.7164 5.20281 32.0733C5.83355 31.66 6.47404 31.2617 7.12375 30.8789" stroke="#ED4257" stroke-width="2" stroke-linecap="round" stroke-linejoin="round"/>
<path d="M40.874 21.3867C41.6352 21.8367 42.2727 22.2398 42.7949 22.582C43.7737 23.2252 43.7737 24.548 42.7949 25.1911C41.2949 26.1773 38.8293 27.6502 35.248 29.3555C30.6805 31.5305 27.0215 32.5702 25.2187 33.0014C24.4166 33.1939 23.5804 33.1939 22.7784 33.0014C20.9765 32.5702 17.3165 31.5295 12.749 29.3545C9.16773 27.6502 6.70211 26.1764 5.20211 25.1911C4.2243 24.548 4.2243 23.2252 5.20211 22.582C5.83314 22.1684 6.47395 21.7698 7.12398 21.3867" stroke="#F8727D" stroke-width="2" stroke-linecap="round" stroke-linejoin="round"/>
<path d="M22.7791 5.51147C23.5808 5.31909 24.4167 5.31909 25.2184 5.51147C27.0213 5.94272 30.6813 6.98241 35.2488 9.15741C38.83 10.8637 41.2947 12.3355 42.7947 13.3218C43.7734 13.9649 43.7734 15.2877 42.7947 15.9308C41.2947 16.9171 38.83 18.3899 35.2488 20.0952C30.6813 22.2702 27.0213 23.3099 25.2184 23.7412C24.4167 23.9335 23.5808 23.9335 22.7791 23.7412C20.9762 23.3099 17.3162 22.2693 12.7487 20.0943C9.1675 18.3899 6.70281 16.9162 5.20281 15.9308C4.22406 15.2877 4.22406 13.9649 5.20281 13.3218C6.70281 12.3355 9.1675 10.8627 12.7487 9.15741C17.3162 6.98241 20.9762 5.94178 22.7791 5.51147Z" fill="white" stroke="#ED4257" stroke-width="2" stroke-linecap="round" stroke-linejoin="round"/>
</svg>
