<svg width="32" height="32" viewBox="0 0 32 32" fill="none" xmlns="http://www.w3.org/2000/svg">
<rect width="32" height="32" rx="16" fill="#F8F5FF"/>
<path d="M16.6542 20.6523C16.7416 20.7394 16.811 20.8429 16.8583 20.9569C16.9056 21.0708 16.93 21.193 16.93 21.3164C16.93 21.4398 16.9056 21.562 16.8583 21.6759C16.811 21.7899 16.7416 21.8934 16.6542 21.9805L16.1902 22.4445C15.3108 23.3239 14.1181 23.8179 12.8745 23.8179C11.6309 23.8179 10.4383 23.3239 9.55892 22.4445C8.67957 21.5652 8.18555 20.3725 8.18555 19.1289C8.18555 17.8853 8.67957 16.6926 9.55892 15.8133L11.4433 13.9297C12.2882 13.0827 13.425 12.5908 14.6208 12.5548C15.8166 12.5188 16.981 12.9413 17.8753 13.7359C17.9677 13.818 18.0429 13.9175 18.0968 14.0286C18.1507 14.1398 18.1822 14.2605 18.1895 14.3838C18.1967 14.5071 18.1796 14.6307 18.1391 14.7474C18.0986 14.8641 18.0355 14.9717 17.9535 15.0641C17.8714 15.1564 17.7719 15.2317 17.6608 15.2856C17.5496 15.3395 17.4289 15.3709 17.3056 15.3782C17.1822 15.3854 17.0587 15.3683 16.942 15.3278C16.8253 15.2873 16.7177 15.2243 16.6253 15.1422C16.089 14.6659 15.391 14.4125 14.674 14.4338C13.957 14.4552 13.2753 14.7497 12.7683 15.257L10.8855 17.1383C10.358 17.6658 10.0616 18.3813 10.0616 19.1273C10.0616 19.8734 10.358 20.5889 10.8855 21.1164C11.413 21.6439 12.1285 21.9403 12.8745 21.9403C13.6206 21.9403 14.3361 21.6439 14.8636 21.1164L15.3277 20.6523C15.4147 20.5652 15.5181 20.496 15.6319 20.4488C15.7458 20.4017 15.8678 20.3774 15.991 20.3774C16.1142 20.3774 16.2362 20.4017 16.35 20.4488C16.4638 20.496 16.5672 20.5652 16.6542 20.6523ZM22.4417 9.55859C21.5617 8.68058 20.3693 8.1875 19.1261 8.1875C17.883 8.1875 16.6906 8.68058 15.8105 9.55859L15.3464 10.0227C15.1703 10.1988 15.0714 10.4376 15.0714 10.6867C15.0714 10.9358 15.1703 11.1747 15.3464 11.3508C15.5225 11.5269 15.7614 11.6258 16.0105 11.6258C16.2596 11.6258 16.4984 11.5269 16.6745 11.3508L17.1386 10.8867C17.6661 10.3592 18.3816 10.0628 19.1277 10.0628C19.8737 10.0628 20.5892 10.3592 21.1167 10.8867C21.6443 11.4142 21.9406 12.1297 21.9406 12.8758C21.9406 13.6218 21.6443 14.3373 21.1167 14.8648L19.2331 16.7492C18.7257 17.2564 18.0436 17.5504 17.3264 17.5712C16.6093 17.592 15.9113 17.3379 15.3753 16.8609C15.283 16.7789 15.1754 16.7158 15.0587 16.6753C14.942 16.6348 14.8184 16.6177 14.6951 16.6249C14.5718 16.6322 14.4511 16.6637 14.3399 16.7176C14.2287 16.7715 14.1293 16.8467 14.0472 16.9391C13.9651 17.0314 13.902 17.139 13.8616 17.2557C13.8211 17.3724 13.8039 17.496 13.8112 17.6193C13.8185 17.7426 13.8499 17.8633 13.9038 17.9745C13.9577 18.0856 14.033 18.1851 14.1253 18.2672C15.0191 19.0616 16.1826 19.4845 17.3779 19.4492C18.5731 19.4139 19.7097 18.9231 20.555 18.0773L22.4394 16.1937C23.3184 15.3139 23.8124 14.1212 23.8128 12.8774C23.8133 11.6337 23.3201 10.4406 22.4417 9.56015V9.55859Z" fill="#8B54F7"/>
</svg>
