<svg width="48" height="48" viewBox="0 0 48 48" fill="none" xmlns="http://www.w3.org/2000/svg">
<path d="M7.503 3.425C5.304 3.588 3.618 5.15 3.386 7.343C3.182 9.279 3 12.098 3 16C3 19.902 3.182 22.72 3.386 24.657C3.618 26.85 5.304 28.412 7.503 28.575C10.328 28.785 15.146 29 23 29C24.7 29 26.258 28.99 27.684 28.972L27.687 28.91C27.7671 27.2001 28.3429 25.5504 29.3442 24.162C30.3454 22.7737 31.729 21.7065 33.3261 21.0907C34.9233 20.4748 36.6651 20.3369 38.3393 20.6937C40.0134 21.0504 41.5477 21.8865 42.755 23.1C42.895 21.3 43 18.962 43 16C43 12.098 42.818 9.28 42.614 7.343C42.382 5.15 40.696 3.588 38.497 3.425C35.672 3.215 30.854 3 23 3C15.146 3 10.328 3.216 7.503 3.425Z" fill="#3E1C96"/>
<path d="M28.0641 36.23C28.1561 34.482 29.3871 33.272 31.1331 33.151C32.3571 33.067 34.0871 33 36.5001 33C39.0531 33 40.8321 33.075 42.0531 33.166C43.6501 33.286 44.7961 34.369 44.9081 35.966C44.9621 36.736 45.0001 37.728 45.0001 39C45.0046 40.0118 44.9739 41.0234 44.9081 42.033C44.7961 43.631 43.6501 44.714 42.0531 44.833C40.8331 44.925 39.0531 45 36.5001 45C33.9471 45 32.1681 44.925 30.9471 44.834C29.3501 44.714 28.2041 43.631 28.0921 42.034C28.0262 41.0241 27.9955 40.0121 28.0001 39C28.0001 37.868 28.0261 36.958 28.0641 36.23Z" fill="#232426"/>
<path d="M31 16C31 16.7956 31.3161 17.5587 31.8787 18.1213C32.4413 18.6839 33.2044 19 34 19C34.7956 19 35.5587 18.6839 36.1213 18.1213C36.6839 17.5587 37 16.7956 37 16C37 15.2043 36.6839 14.4413 36.1213 13.8787C35.5587 13.3161 34.7956 13 34 13C33.2044 13 32.4413 13.3161 31.8787 13.8787C31.3161 14.4413 31 15.2043 31 16Z" fill="#232426"/>
<path d="M20 16C20 16.7956 20.3161 17.5587 20.8787 18.1213C21.4413 18.6839 22.2044 19 23 19C23.7956 19 24.5587 18.6839 25.1213 18.1213C25.6839 17.5587 26 16.7956 26 16C26 15.2043 25.6839 14.4413 25.1213 13.8787C24.5587 13.3161 23.7956 13 23 13C22.2044 13 21.4413 13.3161 20.8787 13.8787C20.3161 14.4413 20 15.2043 20 16Z" fill="#232426"/>
<path d="M9 16C9 16.7956 9.31607 17.5587 9.87868 18.1213C10.4413 18.6839 11.2044 19 12 19C12.7956 19 13.5587 18.6839 14.1213 18.1213C14.6839 17.5587 15 16.7956 15 16C15 15.2043 14.6839 14.4413 14.1213 13.8787C13.5587 13.3161 12.7956 13 12 13C11.2044 13 10.4413 13.3161 9.87868 13.8787C9.31607 14.4413 9 15.2043 9 16Z" fill="#232426"/>
<path d="M42.832 22C42.932 20.376 43 18.392 43 16C43 12.098 42.818 9.28 42.614 7.343C42.382 5.15 40.696 3.588 38.497 3.425C35.672 3.215 30.854 3 23 3C15.146 3 10.328 3.216 7.503 3.425C5.304 3.588 3.618 5.15 3.386 7.343C3.182 9.279 3 12.098 3 16C3 19.902 3.182 22.72 3.386 24.657C3.618 26.85 5.304 28.412 7.503 28.575C10.328 28.785 15.146 29 23 29C24.432 29 25.763 28.993 27 28.98" stroke="#9B8AFB" stroke-width="2" stroke-linecap="round" stroke-linejoin="round"/>
<path d="M28.0641 36.23C28.1561 34.482 29.3871 33.272 31.1331 33.151C32.3571 33.067 34.0871 33 36.5001 33C39.0531 33 40.8321 33.075 42.0531 33.166C43.6501 33.286 44.7961 34.369 44.9081 35.966C44.9621 36.736 45.0001 37.728 45.0001 39C45.0046 40.0118 44.9739 41.0234 44.9081 42.033C44.7961 43.631 43.6501 44.714 42.0531 44.833C40.8331 44.925 39.0531 45 36.5001 45C33.9471 45 32.1681 44.925 30.9471 44.834C29.3501 44.714 28.2041 43.631 28.0921 42.034C28.0262 41.0241 27.9955 40.0121 28.0001 39C28.0001 37.868 28.0261 36.958 28.0641 36.23Z" stroke="#9B8AFB" stroke-width="2" stroke-linecap="round" stroke-linejoin="round"/>
<path d="M36.5 38V40" stroke="#9B8AFB" stroke-width="2" stroke-linecap="round" stroke-linejoin="round"/>
<path d="M41 33L40.818 29.12C40.7646 28.0107 40.2864 26.9646 39.4824 26.1984C38.6785 25.4322 37.6105 25.0049 36.5 25.0049C35.3895 25.0049 34.3215 25.4322 33.5176 26.1984C32.7136 26.9646 32.2354 28.0107 32.182 29.12L32 33" stroke="#9B8AFB" stroke-width="2" stroke-linecap="round" stroke-linejoin="round"/>
<path d="M9 16C9 16.7956 9.31607 17.5587 9.87868 18.1213C10.4413 18.6839 11.2044 19 12 19C12.7956 19 13.5587 18.6839 14.1213 18.1213C14.6839 17.5587 15 16.7956 15 16C15 15.2043 14.6839 14.4413 14.1213 13.8787C13.5587 13.3161 12.7956 13 12 13C11.2044 13 10.4413 13.3161 9.87868 13.8787C9.31607 14.4413 9 15.2043 9 16Z" stroke="#9B8AFB" stroke-width="2" stroke-linecap="round" stroke-linejoin="round"/>
<path d="M20 16C20 16.7956 20.3161 17.5587 20.8787 18.1213C21.4413 18.6839 22.2044 19 23 19C23.7956 19 24.5587 18.6839 25.1213 18.1213C25.6839 17.5587 26 16.7956 26 16C26 15.2043 25.6839 14.4413 25.1213 13.8787C24.5587 13.3161 23.7956 13 23 13C22.2044 13 21.4413 13.3161 20.8787 13.8787C20.3161 14.4413 20 15.2043 20 16Z" stroke="#9B8AFB" stroke-width="2" stroke-linecap="round" stroke-linejoin="round"/>
<path d="M31 16C31 16.7956 31.3161 17.5587 31.8787 18.1213C32.4413 18.6839 33.2044 19 34 19C34.7956 19 35.5587 18.6839 36.1213 18.1213C36.6839 17.5587 37 16.7956 37 16C37 15.2043 36.6839 14.4413 36.1213 13.8787C35.5587 13.3161 34.7956 13 34 13C33.2044 13 32.4413 13.3161 31.8787 13.8787C31.3161 14.4413 31 15.2043 31 16Z" stroke="#9B8AFB" stroke-width="2" stroke-linecap="round" stroke-linejoin="round"/>
</svg>
