<svg width="48" height="48" viewBox="0 0 48 48" fill="none" xmlns="http://www.w3.org/2000/svg">
<path d="M6.39281 39.0194C6.58781 41.411 8.445 43.2101 10.8384 43.376C13.5938 43.5672 17.8472 43.7585 23.8125 43.7585C29.7778 43.7585 34.0313 43.5672 36.7866 43.376C39.18 43.211 41.0372 41.411 41.2322 39.0194C41.4338 36.5491 41.625 32.8713 41.625 27.821C41.625 22.7707 41.4338 19.0929 41.2322 16.6226C41.0372 14.231 39.18 12.4319 36.7866 12.266C34.0303 12.0747 29.7778 11.8835 23.8125 11.8835C17.8472 11.8835 13.5938 12.0747 10.8375 12.266C8.445 12.431 6.58781 14.231 6.39281 16.6226C6.19125 19.0919 6 22.7707 6 27.821C6 32.8713 6.19125 36.5491 6.39281 39.0194Z" fill="#7A2E0E"/>
<path d="M9.90002 12.4198C15.511 9.49289 22.6781 6.79008 29.3606 5.14476C31.3041 4.66664 33.3122 5.38664 34.3228 7.11351C35.0475 8.35101 35.9325 10.0498 36.8672 12.2716C36.8404 12.2695 36.8135 12.2677 36.7866 12.266C34.0303 12.0748 29.7778 11.8835 23.8116 11.8835C17.8472 11.8835 13.5938 12.0748 10.8385 12.266C10.5218 12.2877 10.207 12.3391 9.90002 12.4198Z" fill="#232426"/>
<path d="M30.435 30.7488C30.524 32.7457 32.0634 34.2335 34.0593 34.3132C35.0765 34.3544 36.3412 34.3835 37.875 34.3835C39.4087 34.3835 40.6734 34.3544 41.6906 34.3132C43.6875 34.2335 45.2259 32.7457 45.315 30.7488C45.3506 29.936 45.375 28.9638 45.375 27.821C45.375 26.6773 45.3506 25.706 45.315 24.8932C45.2259 22.8963 43.6865 21.4085 41.6906 21.3288C40.4193 21.28 39.1472 21.2566 37.875 21.2585C36.3412 21.2585 35.0765 21.2876 34.0593 21.3288C32.0625 21.4085 30.524 22.8963 30.435 24.8932C30.3934 25.8686 30.3734 26.8447 30.375 27.821C30.375 28.9648 30.3993 29.936 30.435 30.7488Z" fill="#7A2E0E"/>
<path d="M10.0022 12.3663C15.5981 9.46007 22.7184 6.77882 29.3616 5.14476C31.305 4.66663 33.3131 5.3857 34.3238 7.11257C35.0456 8.34632 35.9269 10.0376 36.8588 12.2482" stroke="#F79009" stroke-width="2" stroke-linecap="round" stroke-linejoin="round"/>
<path d="M30.435 30.7488C30.524 32.7457 32.0634 34.2335 34.0593 34.3132C35.0765 34.3544 36.3412 34.3835 37.875 34.3835C39.4087 34.3835 40.6734 34.3544 41.6906 34.3132C43.6875 34.2335 45.2259 32.7457 45.315 30.7488C45.3506 29.936 45.375 28.9638 45.375 27.821C45.375 26.6773 45.3506 25.706 45.315 24.8932C45.2259 22.8963 43.6865 21.4085 41.6906 21.3288C40.4193 21.28 39.1472 21.2566 37.875 21.2585C36.3412 21.2585 35.0765 21.2876 34.0593 21.3288C32.0625 21.4085 30.524 22.8963 30.435 24.8932C30.3934 25.8686 30.3734 26.8447 30.375 27.821C30.375 28.9648 30.3993 29.936 30.435 30.7488Z" stroke="#F79009" stroke-width="2" stroke-linecap="round" stroke-linejoin="round"/>
<path d="M41.5069 21.3213C41.4484 19.7533 41.3569 18.1867 41.2322 16.6226C41.0372 14.231 39.18 12.4319 36.7866 12.266C34.0303 12.0747 29.7778 11.8835 23.8125 11.8835C17.8472 11.8835 13.5938 12.0747 10.8375 12.266C8.445 12.431 6.58781 14.231 6.39281 16.6226C6.19125 19.0919 6 22.7707 6 27.821C6 32.8713 6.19125 36.5491 6.39281 39.0194C6.58781 41.411 8.445 43.2101 10.8384 43.376C13.5938 43.5672 17.8472 43.7585 23.8125 43.7585C29.7778 43.7585 34.0313 43.5672 36.7866 43.376C39.18 43.211 41.0372 41.411 41.2322 39.0194C41.3344 37.7697 41.4337 36.2107 41.5069 34.3207" stroke="#F79009" stroke-width="2" stroke-linecap="round" stroke-linejoin="round"/>
<path d="M36.9375 26.8835V28.7585" stroke="#F79009" stroke-width="2" stroke-linecap="round" stroke-linejoin="round"/>
<path d="M17.018 27.6061C14.3751 24.9636 10.0908 24.9636 7.44825 27.6061L6.42741 28.6269C6.26822 28.7861 6.14194 28.9751 6.05579 29.1831C5.96964 29.3911 5.92529 29.614 5.92529 29.8391C5.92529 30.0642 5.96964 30.2872 6.05579 30.4952C6.14194 30.7031 6.26822 30.8921 6.42741 31.0513L7.19283 31.8167C7.35201 31.9759 7.54099 32.1022 7.74898 32.1883C7.95697 32.2745 8.17989 32.3188 8.40501 32.3188C8.63014 32.3188 8.85306 32.2745 9.06105 32.1883C9.26903 32.1022 9.45801 31.9759 9.6172 31.8167L10.638 30.7963C11.0612 30.3742 11.6346 30.1373 12.2323 30.1377C12.83 30.1381 13.4032 30.3757 13.8258 30.7983C14.2484 31.221 14.486 31.7941 14.4864 32.3918C14.4868 32.9895 14.2499 33.5629 13.8278 33.9861L12.807 35.0069C12.6478 35.1661 12.5215 35.3551 12.4354 35.5631C12.3492 35.7711 12.3049 35.994 12.3049 36.2191C12.3049 36.4442 12.3492 36.6672 12.4354 36.8752C12.5215 37.0831 12.6478 37.2721 12.807 37.4313L13.5728 38.1967C13.732 38.3559 13.921 38.4822 14.129 38.5683C14.337 38.6545 14.5599 38.6988 14.785 38.6988C15.0101 38.6988 15.2331 38.6545 15.441 38.5683C15.649 38.4822 15.838 38.3559 15.9972 38.1967L17.018 37.1759C19.6605 34.5334 19.6605 30.2486 17.018 27.6061Z" fill="#7A2E0E"/>
<path d="M2.98188 41.6415C0.339373 38.999 0.339373 34.7142 2.98188 32.0717L4.00272 31.0509C4.1619 30.8917 4.35088 30.7654 4.55887 30.6793C4.76686 30.5931 4.98978 30.5488 5.2149 30.5488C5.44003 30.5488 5.66295 30.5931 5.87093 30.6793C6.07892 30.7654 6.2679 30.8917 6.42709 31.0509L7.1925 31.8167C7.35169 31.9759 7.47797 32.1649 7.56412 32.3729C7.65028 32.5809 7.69462 32.8038 7.69462 33.0289C7.69462 33.254 7.65028 33.477 7.56412 33.6849C7.47797 33.8929 7.35169 34.0819 7.1925 34.2411L6.17166 35.2619C5.74867 35.685 5.51106 36.2587 5.5111 36.857C5.51114 37.4552 5.74883 38.0289 6.17188 38.4519C6.59493 38.8749 7.16868 39.1125 7.76692 39.1125C8.36516 39.1125 8.93889 38.8748 9.36188 38.4517L10.3827 37.4309C10.5419 37.2717 10.7309 37.1454 10.9389 37.0593C11.1468 36.9731 11.3698 36.9288 11.5949 36.9288C11.82 36.9288 12.0429 36.9731 12.2509 37.0593C12.4589 37.1454 12.6479 37.2717 12.8071 37.4309L13.5725 38.1963C13.7317 38.3555 13.858 38.5445 13.9441 38.7524C14.0303 38.9604 14.0746 39.1834 14.0746 39.4085C14.0746 39.6336 14.0303 39.8565 13.9441 40.0645C13.858 40.2725 13.7317 40.4615 13.5725 40.6207L12.5517 41.6415C9.90915 44.284 5.62439 44.284 2.98188 41.6415Z" fill="#7A2E0E"/>
<path d="M6.17173 38.4513C5.74874 38.0283 5.51111 37.4546 5.51111 36.8564C5.51111 36.2582 5.74874 35.6845 6.17173 35.2615L10.6382 30.7959C11.0614 30.3738 11.6348 30.1369 12.2325 30.1373C12.8302 30.1377 13.4033 30.3753 13.826 30.7979C14.2486 31.2206 14.4862 31.7937 14.4866 32.3914C14.487 32.9891 14.2501 33.5625 13.828 33.9857L9.36237 38.4513C9.15292 38.6608 8.90425 38.827 8.63056 38.9404C8.35687 39.0538 8.06352 39.1121 7.76727 39.1121C7.47102 39.1121 7.17767 39.0538 6.90398 38.9404C6.63029 38.827 6.38119 38.6608 6.17173 38.4513Z" fill="#7A2E0E"/>
<path d="M6.17198 38.4513C5.74899 38.0283 5.51135 37.4546 5.51135 36.8564C5.51135 36.2582 5.74899 35.6845 6.17198 35.2615L10.6376 30.7959C11.0606 30.3728 11.6343 30.1352 12.2325 30.1351C12.8308 30.1351 13.4045 30.3727 13.8276 30.7957C14.2506 31.2187 14.4883 31.7924 14.4884 32.3906C14.4884 32.9889 14.2508 33.5626 13.8278 33.9857L9.36219 38.4513C9.15274 38.6608 8.90406 38.827 8.63037 38.9404C8.35668 39.0538 8.06333 39.1121 7.76708 39.1121C7.47083 39.1121 7.17749 39.0538 6.90379 38.9404C6.6301 38.827 6.38143 38.6608 6.17198 38.4513Z" stroke="#FDB022" stroke-width="2" stroke-linecap="round" stroke-linejoin="round"/>
<path d="M2.98188 41.6415C0.339373 38.999 0.339373 34.7142 2.98188 32.0717L4.00272 31.0509C4.1619 30.8917 4.35088 30.7654 4.55887 30.6793C4.76686 30.5931 4.98978 30.5488 5.2149 30.5488C5.44003 30.5488 5.66295 30.5931 5.87093 30.6793C6.07892 30.7654 6.2679 30.8917 6.42709 31.0509L7.1925 31.8167C7.35169 31.9759 7.47797 32.1649 7.56412 32.3729C7.65028 32.5809 7.69462 32.8038 7.69462 33.0289C7.69462 33.254 7.65028 33.477 7.56412 33.6849C7.47797 33.8929 7.35169 34.0819 7.1925 34.2411L6.17166 35.2619C5.74867 35.685 5.51106 36.2587 5.5111 36.857C5.51114 37.4552 5.74883 38.0289 6.17188 38.4519C6.59493 38.8749 7.16868 39.1125 7.76692 39.1125C8.36516 39.1125 8.93889 38.8748 9.36188 38.4517L10.3827 37.4309C10.5419 37.2717 10.7309 37.1454 10.9389 37.0593C11.1468 36.9731 11.3698 36.9288 11.5949 36.9288C11.82 36.9288 12.0429 36.9731 12.2509 37.0593C12.4589 37.1454 12.6479 37.2717 12.8071 37.4309L13.5725 38.1963C13.7317 38.3555 13.858 38.5445 13.9441 38.7524C14.0303 38.9604 14.0746 39.1834 14.0746 39.4085C14.0746 39.6336 14.0303 39.8565 13.9441 40.0645C13.858 40.2725 13.7317 40.4615 13.5725 40.6207L12.5517 41.6415C9.90915 44.284 5.62439 44.284 2.98188 41.6415Z" fill="#7A2E0E" stroke="#FDB022" stroke-width="2" stroke-linecap="round" stroke-linejoin="round"/>
<path d="M17.018 27.6061C14.3751 24.9636 10.0908 24.9636 7.44825 27.6061L6.42741 28.6269C6.26822 28.7861 6.14194 28.9751 6.05579 29.1831C5.96964 29.3911 5.92529 29.614 5.92529 29.8391C5.92529 30.0642 5.96964 30.2872 6.05579 30.4952C6.14194 30.7031 6.26822 30.8921 6.42741 31.0513L7.19283 31.8167C7.35201 31.9759 7.54099 32.1022 7.74898 32.1883C7.95697 32.2745 8.17989 32.3188 8.40501 32.3188C8.63014 32.3188 8.85306 32.2745 9.06105 32.1883C9.26903 32.1022 9.45801 31.9759 9.6172 31.8167L10.638 30.7963C11.0612 30.3742 11.6346 30.1373 12.2323 30.1377C12.83 30.1381 13.4032 30.3757 13.8258 30.7983C14.2484 31.221 14.486 31.7941 14.4864 32.3918C14.4868 32.9895 14.2499 33.5629 13.8278 33.9861L12.807 35.0069C12.6478 35.1661 12.5215 35.3551 12.4354 35.5631C12.3492 35.7711 12.3049 35.994 12.3049 36.2191C12.3049 36.4442 12.3492 36.6672 12.4354 36.8752C12.5215 37.0831 12.6478 37.2721 12.807 37.4313L13.5728 38.1967C13.732 38.3559 13.921 38.4822 14.129 38.5683C14.337 38.6545 14.5599 38.6988 14.785 38.6988C15.0101 38.6988 15.2331 38.6545 15.441 38.5683C15.649 38.4822 15.838 38.3559 15.9972 38.1967L17.018 37.1759C19.6605 34.5334 19.6605 30.2486 17.018 27.6061Z" stroke="#FDB022" stroke-width="2" stroke-linecap="round" stroke-linejoin="round"/>
</svg>
