<svg width="48" height="48" viewBox="0 0 48 48" fill="none" xmlns="http://www.w3.org/2000/svg">
<path d="M6.65625 11.8125C6.65625 7.67063 14.4216 4.3125 24 4.3125C33.5784 4.3125 41.3438 7.67063 41.3438 11.8125C41.3438 11.8125 41.8125 16.5 41.8125 24C41.8125 31.5 41.3438 36.1875 41.3438 36.1875C41.3438 40.3294 33.5784 43.6875 24 43.6875C14.4216 43.6875 6.65625 40.3294 6.65625 36.1875C6.65625 36.1875 6.1875 31.5 6.1875 24C6.1875 16.5 6.65625 11.8125 6.65625 11.8125Z" fill="#7A271A"/>
<path d="M40.3438 11.8125C40.3438 12.513 40.0197 13.2619 39.2659 14.0325C38.5077 14.8076 37.3615 15.5515 35.8669 16.1978C32.8809 17.4891 28.686 18.3125 24 18.3125C19.314 18.3125 15.1191 17.4891 12.1331 16.1978C10.6385 15.5515 9.49232 14.8076 8.73412 14.0325C7.98034 13.2619 7.65625 12.513 7.65625 11.8125C7.65625 11.112 7.98034 10.3631 8.73412 9.59252C9.49232 8.81737 10.6385 8.0735 12.1331 7.42715C15.1191 6.13589 19.314 5.3125 24 5.3125C28.686 5.3125 32.8809 6.13589 35.8669 7.42715C37.3615 8.0735 38.5077 8.81737 39.2659 9.59252C40.0197 10.3631 40.3438 11.112 40.3438 11.8125Z" fill="#232426" stroke="#F04438" stroke-width="2"/>
<path d="M24 19.3125C33.5784 19.3125 41.3438 15.9544 41.3438 11.8125C41.3438 7.67063 33.5784 4.3125 24 4.3125C14.4216 4.3125 6.65625 7.67063 6.65625 11.8125C6.65625 15.9544 14.4216 19.3125 24 19.3125Z" fill="#232426"/>
<path d="M41.3438 11.8125C41.3438 15.9544 33.5784 19.3125 24 19.3125C14.4216 19.3125 6.65625 15.9544 6.65625 11.8125" stroke="#F04438" stroke-width="2" stroke-linecap="round" stroke-linejoin="round"/>
<path d="M41.8125 24.1922C41.8125 28.2281 33.8372 31.5 24 31.5C14.1628 31.5 6.1875 28.2281 6.1875 24.1922" stroke="#F04438" stroke-width="2" stroke-linecap="round" stroke-linejoin="round"/>
<path d="M12.2812 24C12.4056 24 12.5248 23.9506 12.6127 23.8627C12.7006 23.7748 12.75 23.6556 12.75 23.5312C12.75 23.4069 12.7006 23.2877 12.6127 23.1998C12.5248 23.1119 12.4056 23.0625 12.2812 23.0625" stroke="#F04438" stroke-width="2" stroke-linecap="round" stroke-linejoin="round"/>
<path d="M12.2812 24C12.1569 24 12.0377 23.9506 11.9498 23.8627C11.8619 23.7748 11.8125 23.6556 11.8125 23.5312C11.8125 23.4069 11.8619 23.2877 11.9498 23.1998C12.0377 23.1119 12.1569 23.0625 12.2812 23.0625" stroke="#F04438" stroke-width="2" stroke-linecap="round" stroke-linejoin="round"/>
<path d="M6.65625 11.8125C6.65625 7.67063 14.4216 4.3125 24 4.3125C33.5784 4.3125 41.3438 7.67063 41.3438 11.8125C41.3438 11.8125 41.8125 16.5 41.8125 24C41.8125 31.5 41.3438 36.1875 41.3438 36.1875C41.3438 40.3294 33.5784 43.6875 24 43.6875C14.4216 43.6875 6.65625 40.3294 6.65625 36.1875C6.65625 36.1875 6.1875 31.5 6.1875 24C6.1875 16.5 6.65625 11.8125 6.65625 11.8125Z" stroke="#F04438" stroke-width="2" stroke-linecap="round" stroke-linejoin="round"/>
<path d="M12.2812 36.1875C12.4056 36.1875 12.5248 36.1381 12.6127 36.0502C12.7006 35.9623 12.75 35.8431 12.75 35.7188C12.75 35.5944 12.7006 35.4752 12.6127 35.3873C12.5248 35.2994 12.4056 35.25 12.2812 35.25" stroke="#F04438" stroke-width="2" stroke-linecap="round" stroke-linejoin="round"/>
<path d="M12.2812 36.1875C12.1569 36.1875 12.0377 36.1381 11.9498 36.0502C11.8619 35.9623 11.8125 35.8431 11.8125 35.7188C11.8125 35.5944 11.8619 35.4752 11.9498 35.3873C12.0377 35.2994 12.1569 35.25 12.2812 35.25" stroke="#F04438" stroke-width="2" stroke-linecap="round" stroke-linejoin="round"/>
<path d="M18.375 25.6406C18.4993 25.6406 18.6185 25.5912 18.7065 25.5033C18.7944 25.4154 18.8438 25.2962 18.8438 25.1719C18.8438 25.0476 18.7944 24.9283 18.7065 24.8404C18.6185 24.7525 18.4993 24.7031 18.375 24.7031" stroke="#F04438" stroke-width="2" stroke-linecap="round" stroke-linejoin="round"/>
<path d="M18.375 25.6406C18.2507 25.6406 18.1315 25.5912 18.0435 25.5033C17.9556 25.4154 17.9062 25.2962 17.9062 25.1719C17.9062 25.0476 17.9556 24.9283 18.0435 24.8404C18.1315 24.7525 18.2507 24.7031 18.375 24.7031" stroke="#F04438" stroke-width="2" stroke-linecap="round" stroke-linejoin="round"/>
<path d="M18.375 37.8281C18.4993 37.8281 18.6185 37.7787 18.7065 37.6908C18.7944 37.6029 18.8438 37.4837 18.8438 37.3594C18.8438 37.2351 18.7944 37.1158 18.7065 37.0279C18.6185 36.94 18.4993 36.8906 18.375 36.8906" stroke="#F04438" stroke-width="2" stroke-linecap="round" stroke-linejoin="round"/>
<path d="M18.375 37.8281C18.2507 37.8281 18.1315 37.7787 18.0435 37.6908C17.9556 37.6029 17.9062 37.4837 17.9062 37.3594C17.9062 37.2351 17.9556 37.1158 18.0435 37.0279C18.1315 36.94 18.2507 36.8906 18.375 36.8906" stroke="#F04438" stroke-width="2" stroke-linecap="round" stroke-linejoin="round"/>
</svg>
