<svg width="48" height="48" viewBox="0 0 48 48" fill="none" xmlns="http://www.w3.org/2000/svg">
<path d="M4.37905 28.1048C4.61333 30.481 6.52952 32.1886 8.91524 32.319C11.9829 32.4876 16.9162 32.6667 24 32.6667C31.0838 32.6667 36.0171 32.4876 39.0857 32.319C41.4705 32.1886 43.3867 30.481 43.621 28.1048C43.8229 26.0581 44 23.1686 44 19.3333C44 15.4981 43.8229 12.6086 43.621 10.5619C43.3867 8.18476 41.4705 6.4781 39.0848 6.34762C36.0171 6.17905 31.0838 6 24 6C16.9162 6 11.9829 6.17905 8.91429 6.34762C6.52952 6.4781 4.61333 8.18571 4.37905 10.5619C4.17714 12.6095 4 15.4981 4 19.3333C4 23.1686 4.17714 26.0581 4.37905 28.1048Z" fill="#B2DDFF"/>
<path d="M34.4762 41.5619C33.9071 41.8196 33.2944 41.9672 32.6705 41.9971C30.6305 42.1 27.7733 42.1905 24 42.1905C20.2267 42.1905 17.3695 42.1 15.3295 41.9971C14.7056 41.9673 14.0929 41.8196 13.5238 41.5619M38.7619 36.3619C38.0332 36.8298 37.1945 37.0984 36.3295 37.1409C33.6743 37.2857 29.6295 37.4286 24 37.4286C18.3714 37.4286 14.3257 37.2857 11.6705 37.1409C10.8055 37.0984 9.96683 36.8298 9.2381 36.3619M4.37905 28.1048C4.61333 30.481 6.52952 32.1886 8.91524 32.319C11.9829 32.4876 16.9162 32.6667 24 32.6667C31.0838 32.6667 36.0171 32.4876 39.0857 32.319C41.4705 32.1886 43.3867 30.481 43.621 28.1048C43.8229 26.0581 44 23.1686 44 19.3333C44 15.4981 43.8229 12.6086 43.621 10.5619C43.3867 8.18476 41.4705 6.4781 39.0848 6.34762C36.0171 6.17905 31.0838 6 24 6C16.9162 6 11.9829 6.17905 8.91429 6.34762C6.52952 6.4781 4.61333 8.18571 4.37905 10.5619C4.17714 12.6095 4 15.4981 4 19.3333C4 23.1686 4.17714 26.0581 4.37905 28.1048Z" fill="#194185"/>
<path d="M34.4762 41.5619C33.9071 41.8196 33.2944 41.9672 32.6705 41.9971C30.6305 42.1 27.7733 42.1905 24 42.1905C20.2267 42.1905 17.3695 42.1 15.3295 41.9971C14.7056 41.9673 14.0929 41.8196 13.5238 41.5619M38.7619 36.3619C38.0332 36.8298 37.1945 37.0984 36.3295 37.1409C33.6743 37.2857 29.6295 37.4286 24 37.4286C18.3714 37.4286 14.3257 37.2857 11.6705 37.1409C10.8055 37.0984 9.96683 36.8298 9.2381 36.3619M4.37905 28.1048C4.61333 30.481 6.52952 32.1886 8.91524 32.319C11.9829 32.4876 16.9162 32.6667 24 32.6667C31.0838 32.6667 36.0171 32.4876 39.0857 32.319C41.4705 32.1886 43.3867 30.481 43.621 28.1048C43.8229 26.0581 44 23.1686 44 19.3333C44 15.4981 43.8229 12.6086 43.621 10.5619C43.3867 8.18476 41.4705 6.4781 39.0848 6.34762C36.0171 6.17905 31.0838 6 24 6C16.9162 6 11.9829 6.17905 8.91429 6.34762C6.52952 6.4781 4.61333 8.18571 4.37905 10.5619C4.17714 12.6095 4 15.4981 4 19.3333C4 23.1686 4.17714 26.0581 4.37905 28.1048Z" stroke="#2E90FA" stroke-width="2" stroke-linecap="round" stroke-linejoin="round"/>
<path d="M27.8095 15.0571C27.8095 15.0571 26.2857 13.8914 24 13.8914M24 13.8914C22.0952 13.8914 20.1904 15.0581 20.1904 16.6124C20.1904 20.5 27.8095 18.1676 27.8095 22.0552C27.8095 23.6095 25.9047 24.7762 24 24.7762M24 13.8914V11.7143M24 24.7762C21.7143 24.7762 20.1904 23.6095 20.1904 23.6095M24 24.7762V26.9524M36.3809 19.3333H35.4285M12.5714 19.3333H11.619" stroke="#53B1FD" stroke-width="2" stroke-linecap="round" stroke-linejoin="round"/>
</svg>
