<svg width="40" height="40" viewBox="0 0 40 40" fill="none" xmlns="http://www.w3.org/2000/svg">
<path d="M3.64925 23.4206C3.84449 25.4008 5.44131 26.8238 7.42941 26.9325C9.98576 27.073 14.0969 27.2222 20 27.2222C25.9032 27.2222 30.0143 27.073 32.5715 26.9325C34.5588 26.8238 36.1556 25.4008 36.3508 23.4206C36.5191 21.7151 36.6667 19.3071 36.6667 16.1111C36.6667 12.9151 36.5191 10.5071 36.3508 8.80159C36.1556 6.82064 34.5588 5.39841 32.5707 5.28968C30.0143 5.14921 25.9032 5 20 5C14.0969 5 9.98576 5.14921 7.42861 5.28968C5.44131 5.39841 3.84449 6.82143 3.64925 8.80159C3.48099 10.5079 3.33337 12.9151 3.33337 16.1111C3.33337 19.3071 3.48099 21.7151 3.64925 23.4206Z" fill="#BEDDFE"/>
<path d="M28.7302 34.6349C28.256 34.8496 27.7454 34.9727 27.2254 34.9976C25.5254 35.0833 23.1445 35.1587 20 35.1587C16.8556 35.1587 14.4746 35.0833 12.7746 34.9976C12.2547 34.9727 11.7441 34.8497 11.2699 34.6349M32.3016 30.3016C31.6944 30.6915 30.9954 30.9153 30.2746 30.9508C28.0619 31.0714 24.6913 31.1905 20 31.1905C15.3096 31.1905 11.9381 31.0714 9.72544 30.9508C9.00464 30.9153 8.30573 30.6915 7.69845 30.3016M3.64925 23.4206C3.84449 25.4008 5.44131 26.8238 7.42941 26.9325C9.98576 27.073 14.0969 27.2222 20 27.2222C25.9032 27.2222 30.0143 27.073 32.5715 26.9325C34.5588 26.8238 36.1556 25.4008 36.3508 23.4206C36.5191 21.7151 36.6667 19.3071 36.6667 16.1111C36.6667 12.9151 36.5191 10.5071 36.3508 8.80159C36.1556 6.82064 34.5588 5.39841 32.5707 5.28968C30.0143 5.14921 25.9032 5 20 5C14.0969 5 9.98576 5.14921 7.42861 5.28968C5.44131 5.39841 3.84449 6.82143 3.64925 8.80159C3.48099 10.5079 3.33337 12.9151 3.33337 16.1111C3.33337 19.3071 3.48099 21.7151 3.64925 23.4206Z" fill="#BEDDFE"/>
<path d="M28.7302 34.6349C28.256 34.8496 27.7454 34.9727 27.2254 34.9976C25.5254 35.0833 23.1445 35.1587 20 35.1587C16.8556 35.1587 14.4746 35.0833 12.7746 34.9976C12.2547 34.9727 11.7441 34.8497 11.2699 34.6349M32.3016 30.3016C31.6944 30.6915 30.9954 30.9153 30.2746 30.9508C28.0619 31.0714 24.6913 31.1905 20 31.1905C15.3096 31.1905 11.9381 31.0714 9.72544 30.9508C9.00464 30.9153 8.30573 30.6915 7.69845 30.3016M3.64925 23.4206C3.84449 25.4008 5.44131 26.8238 7.42941 26.9325C9.98576 27.073 14.0969 27.2222 20 27.2222C25.9032 27.2222 30.0143 27.073 32.5715 26.9325C34.5588 26.8238 36.1556 25.4008 36.3508 23.4206C36.5191 21.7151 36.6667 19.3071 36.6667 16.1111C36.6667 12.9151 36.5191 10.5071 36.3508 8.80159C36.1556 6.82064 34.5588 5.39841 32.5707 5.28968C30.0143 5.14921 25.9032 5 20 5C14.0969 5 9.98576 5.14921 7.42861 5.28968C5.44131 5.39841 3.84449 6.82143 3.64925 8.80159C3.48099 10.5079 3.33337 12.9151 3.33337 16.1111C3.33337 19.3071 3.48099 21.7151 3.64925 23.4206Z" stroke="#017AFF" stroke-width="2" stroke-linecap="round" stroke-linejoin="round"/>
<path d="M23.1747 12.5477C23.1747 12.5477 21.9048 11.5762 20.0001 11.5762C18.4128 11.5762 16.8255 12.5485 16.8255 13.8437C16.8255 17.0834 23.1747 15.1397 23.1747 18.3794C23.1747 19.6747 21.5874 20.6469 20.0001 20.6469C18.0953 20.6469 16.8255 19.6747 16.8255 19.6747M20.0001 11.5762V9.76196V11.5762ZM20.0001 22.4604V20.6469V22.4604ZM30.3175 16.1112H29.5239H30.3175ZM10.4763 16.1112H9.68262H10.4763Z" fill="#BEDDFE"/>
<path d="M23.1747 12.5477C23.1747 12.5477 21.9048 11.5762 20.0001 11.5762M20.0001 11.5762C18.4128 11.5762 16.8255 12.5485 16.8255 13.8437C16.8255 17.0834 23.1747 15.1397 23.1747 18.3794C23.1747 19.6747 21.5874 20.6469 20.0001 20.6469M20.0001 11.5762V9.76196M20.0001 20.6469C18.0953 20.6469 16.8255 19.6747 16.8255 19.6747M20.0001 20.6469V22.4604M30.3175 16.1112H29.5239M10.4763 16.1112H9.68262" stroke="#017AFF" stroke-width="2" stroke-linecap="round" stroke-linejoin="round"/>
</svg>
