<svg width="48" height="48" viewBox="0 0 48 48" fill="none" xmlns="http://www.w3.org/2000/svg">
<path d="M44.486 36.822C44.271 39.375 42.298 41.307 39.743 41.499C36.515 41.743 31.364 42 24 42C16.636 42 11.485 41.743 8.257 41.5C5.702 41.307 3.729 39.375 3.514 36.822C3.259 33.81 3 29.117 3 22.5C3 15.883 3.26 11.19 3.514 8.178C3.729 5.625 5.702 3.693 8.257 3.5C11.485 3.257 16.636 3 24 3C31.364 3 36.515 3.257 39.743 3.5C42.298 3.693 44.271 5.625 44.486 8.178C44.741 11.19 45 15.883 45 22.5C45 29.117 44.74 33.81 44.486 36.822Z" fill="#D6DADD"/>
<path d="M10.399 12.715C10.524 11.442 11.516 10.48 12.792 10.375C14.862 10.207 18.507 10 24 10C29.493 10 33.138 10.206 35.208 10.376C36.484 10.48 37.476 11.442 37.602 12.716C37.787 14.597 38 17.787 38 22.5C38 27.213 37.787 30.403 37.602 32.285C37.476 33.558 36.484 34.52 35.208 34.625C33.138 34.794 29.493 35 24 35C18.507 35 14.862 34.794 12.792 34.624C11.516 34.52 10.524 33.558 10.399 32.284C10.213 30.404 10 27.214 10 22.5C10 17.787 10.213 14.597 10.399 12.715Z" fill="white"/>
<path d="M24 29.5C24.9193 29.5 25.8295 29.3189 26.6788 28.9672C27.5281 28.6154 28.2997 28.0998 28.9497 27.4497C29.5998 26.7997 30.1154 26.0281 30.4672 25.1788C30.8189 24.3295 31 23.4193 31 22.5C31 21.5807 30.8189 20.6705 30.4672 19.8212C30.1154 18.9719 29.5998 18.2003 28.9497 17.5503C28.2997 16.9002 27.5281 16.3846 26.6788 16.0328C25.8295 15.6811 24.9193 15.5 24 15.5C23.0807 15.5 22.1705 15.6811 21.3212 16.0328C20.4719 16.3846 19.7003 16.9002 19.0503 17.5503C18.4002 18.2003 17.8846 18.9719 17.5328 19.8212C17.1811 20.6705 17 21.5807 17 22.5C17 23.4193 17.1811 24.3295 17.5328 25.1788C17.8846 26.0281 18.4002 26.7997 19.0503 27.4497C19.7003 28.0998 20.4719 28.6154 21.3212 28.9672C22.1705 29.3189 23.0807 29.5 24 29.5Z" fill="#D6DADD"/>
<path d="M44.486 36.822C44.271 39.375 42.298 41.307 39.743 41.499C36.515 41.743 31.364 42 24 42C16.636 42 11.485 41.743 8.257 41.5C5.702 41.307 3.729 39.375 3.514 36.822C3.259 33.81 3 29.117 3 22.5C3 15.883 3.26 11.19 3.514 8.178C3.729 5.625 5.702 3.693 8.257 3.5C11.485 3.257 16.636 3 24 3C31.364 3 36.515 3.257 39.743 3.5C42.298 3.693 44.271 5.625 44.486 8.178C44.741 11.19 45 15.883 45 22.5C45 29.117 44.74 33.81 44.486 36.822Z" stroke="#4C5054" stroke-width="2" stroke-linecap="round" stroke-linejoin="round"/>
<path d="M10.399 12.715C10.524 11.442 11.516 10.48 12.792 10.375C14.862 10.207 18.507 10 24 10C29.493 10 33.138 10.206 35.208 10.376C36.484 10.48 37.476 11.442 37.602 12.716C37.787 14.597 38 17.787 38 22.5C38 27.213 37.787 30.403 37.602 32.285C37.476 33.558 36.484 34.52 35.208 34.625C33.138 34.794 29.493 35 24 35C18.507 35 14.862 34.794 12.792 34.624C11.516 34.52 10.524 33.558 10.399 32.284C10.213 30.404 10 27.214 10 22.5C10 17.787 10.213 14.597 10.399 12.715Z" stroke="#4C5054" stroke-width="2" stroke-linecap="round" stroke-linejoin="round"/>
<path d="M24 29.5C25.8565 29.5 27.637 28.7625 28.9497 27.4497C30.2625 26.137 31 24.3565 31 22.5C31 20.6435 30.2625 18.863 28.9497 17.5503C27.637 16.2375 25.8565 15.5 24 15.5C22.1435 15.5 20.363 16.2375 19.0503 17.5503C17.7375 18.863 17 20.6435 17 22.5C17 24.3565 17.7375 26.137 19.0503 27.4497C20.363 28.7625 22.1435 29.5 24 29.5Z" stroke="#4C5054" stroke-width="2" stroke-linecap="round" stroke-linejoin="round"/>
<path d="M40 17H36" stroke="#4C5054" stroke-width="2" stroke-linecap="round" stroke-linejoin="round"/>
<path d="M40 28H36" stroke="#4C5054" stroke-width="2" stroke-linecap="round" stroke-linejoin="round"/>
<path d="M28 22.5H31" stroke="#4C5054" stroke-width="2" stroke-linecap="round" stroke-linejoin="round"/>
<path d="M38 42V45" stroke="#4C5054" stroke-width="2" stroke-linecap="round" stroke-linejoin="round"/>
<path d="M10 42V45" stroke="#4C5054" stroke-width="2" stroke-linecap="round" stroke-linejoin="round"/>
</svg>
