<svg width="48" height="48" viewBox="0 0 48 48" fill="none" xmlns="http://www.w3.org/2000/svg">
<g clip-path="url(#clip0_1229_14586)">
<path d="M1.39281 35.0195C1.58781 37.411 3.445 39.2101 5.83844 39.376C8.59375 39.5673 12.8472 39.7585 18.8125 39.7585C24.7778 39.7585 29.0313 39.5673 31.7866 39.376C34.18 39.211 36.0372 37.411 36.2322 35.0195C36.4338 32.5491 36.625 28.8713 36.625 23.821C36.625 18.7707 36.4338 15.0929 36.2322 12.6226C36.0372 10.231 34.18 8.43195 31.7866 8.26601C29.0303 8.07476 24.7778 7.88351 18.8125 7.88351C12.8472 7.88351 8.59375 8.07476 5.8375 8.26601C3.445 8.43101 1.58781 10.231 1.39281 12.6226C1.19125 15.092 1 18.7707 1 23.821C1 28.8713 1.19125 32.5491 1.39281 35.0195Z" fill="#D6DADD"/>
<path d="M4.90002 8.41976C10.511 5.49289 17.6781 2.79008 24.3606 1.14476C26.3041 0.666639 28.3122 1.38664 29.3228 3.11351C30.0475 4.35101 30.9325 6.04976 31.8672 8.27164C31.8404 8.26953 31.8135 8.26765 31.7866 8.26601C29.0303 8.07476 24.7778 7.88351 18.8116 7.88351C12.8472 7.88351 8.59377 8.07476 5.83846 8.26601C5.52182 8.28765 5.20699 8.33913 4.90002 8.41976Z" fill="white"/>
<path d="M25.435 26.7488C25.524 28.7457 27.0634 30.2335 29.0593 30.3132C30.0765 30.3544 31.3412 30.3835 32.875 30.3835C34.4087 30.3835 35.6734 30.3544 36.6906 30.3132C38.6875 30.2335 40.2259 28.7457 40.315 26.7488C40.3506 25.936 40.375 24.9638 40.375 23.821C40.375 22.6773 40.3506 21.706 40.315 20.8932C40.2259 18.8963 38.6865 17.4085 36.6906 17.3288C35.4193 17.28 34.1472 17.2566 32.875 17.2585C31.3412 17.2585 30.0765 17.2876 29.0593 17.3288C27.0625 17.4085 25.524 18.8963 25.435 20.8932C25.3934 21.8686 25.3734 22.8447 25.375 23.821C25.375 24.9648 25.3993 25.936 25.435 26.7488Z" fill="white"/>
<path d="M5.0022 8.36632C10.5981 5.46007 17.7184 2.77882 24.3616 1.14476C26.305 0.666633 28.3131 1.3857 29.3238 3.11257C30.0456 4.34632 30.9269 6.03757 31.8588 8.2482" stroke="#787E85" stroke-width="2" stroke-linecap="round" stroke-dasharray="4 4"/>
<path d="M36.5069 17.3213C36.4484 15.7533 36.3569 14.1867 36.2322 12.6226C36.0372 10.231 34.18 8.43195 31.7866 8.26601C29.0303 8.07476 24.7778 7.88351 18.8125 7.88351C12.8472 7.88351 8.59375 8.07476 5.8375 8.26601C3.445 8.43101 1.58781 10.231 1.39281 12.6226C1.19125 15.092 1 18.7707 1 23.821C1 28.8713 1.19125 32.5491 1.39281 35.0195C1.58781 37.411 3.445 39.2101 5.83844 39.376C8.59375 39.5673 12.8472 39.7585 18.8125 39.7585C24.7778 39.7585 29.0313 39.5673 31.7866 39.376C34.18 39.211 36.0372 37.411 36.2322 35.0195C36.3344 33.7698 36.4337 32.2107 36.5069 30.3207" stroke="#787E85" stroke-width="2" stroke-linecap="round" stroke-dasharray="4 4"/>
<path d="M25.4351 26.7488C25.5241 28.7457 27.0635 30.2335 29.0595 30.3132C30.0766 30.3544 31.3413 30.3835 32.8751 30.3835C34.4088 30.3835 35.6735 30.3544 36.6907 30.3132C38.6876 30.2335 40.226 28.7457 40.3151 26.7488C40.3507 25.936 40.3751 24.9638 40.3751 23.821C40.3751 22.6773 40.3507 21.706 40.3151 20.8932C40.226 18.8963 38.6866 17.4085 36.6907 17.3288C35.4194 17.28 34.1473 17.2566 32.8751 17.2585C31.3413 17.2585 30.0766 17.2876 29.0595 17.3288C27.0626 17.4085 25.5241 18.8963 25.4351 20.8932C25.3935 21.8686 25.3735 22.8447 25.3751 23.821C25.3751 24.9648 25.3995 25.936 25.4351 26.7488Z" fill="#D6DADD" stroke="#787E85" stroke-width="2" stroke-linecap="round" stroke-dasharray="4 4"/>
<path d="M31.9375 22.8835V24.7585V22.8835Z" fill="#D6DADD"/>
<path d="M31.9375 22.8835V24.7585" stroke="#787E85" stroke-width="2" stroke-linecap="round"/>
<path d="M34.0534 46.866C33.59 47.0447 33.0767 47.0447 32.6134 46.866C28.9979 45.4787 25.8886 43.0279 23.6961 39.8372C21.5036 36.6466 20.331 32.8663 20.3334 28.9957V22.9989C20.3334 22.4688 20.5441 21.9603 20.9192 21.5855C21.2942 21.2106 21.8029 21 22.3334 21H44.3334C44.8638 21 45.3725 21.2106 45.7476 21.5855C46.1227 21.9603 46.3334 22.4688 46.3334 22.9989V28.9957C46.3357 32.8663 45.1632 36.6466 42.9707 39.8372C40.7782 43.0279 37.6688 45.4787 34.0534 46.866Z" fill="#F7F6F4" stroke="#4C5054" stroke-width="2" stroke-linecap="round" stroke-linejoin="round"/>
<path d="M32.8452 30.5794L32.8564 30.5831L32.8564 30.583L33.868 30.896L34.5157 31.0964V30.4183V29.4048C34.5157 29.3369 34.5438 29.2667 34.6021 29.211C34.6613 29.1547 34.7464 29.119 34.8398 29.119C34.9332 29.119 35.0183 29.1547 35.0774 29.211C35.1358 29.2667 35.1638 29.3369 35.1638 29.4048V30.4183V31.0964L35.8116 30.896L36.8231 30.583L36.8344 30.5795L36.8343 30.5794C36.8773 30.565 36.9234 30.5588 36.9698 30.5614C37.0161 30.5641 37.0607 30.5756 37.1008 30.5945L37.3096 30.1518L37.1008 30.5945C37.1409 30.6134 37.1749 30.639 37.2018 30.6686M32.8452 30.5794L37.2018 30.6686M32.8452 30.5794C32.8023 30.565 32.7562 30.5588 32.7098 30.5614C32.6634 30.5641 32.6188 30.5756 32.5788 30.5945L32.4014 30.2184L32.5787 30.5945C32.5387 30.6134 32.5046 30.639 32.4778 30.6686L32.1074 30.3328L32.4778 30.6686C32.451 30.6981 32.4319 30.7311 32.4203 30.7651L32.4203 30.7651M32.8452 30.5794L32.4203 30.7651M37.2018 30.6686C37.2286 30.6981 37.2477 30.7311 37.2592 30.7651C37.2708 30.799 37.2749 30.8341 37.2718 30.8687C37.2687 30.9033 37.2584 30.938 37.2404 30.9706L37.6783 31.2119M37.2018 30.6686L37.6783 31.2119M37.6783 31.2119L37.2404 30.9706C37.2223 31.0034 37.1967 31.0341 37.1637 31.0599C37.1307 31.0858 37.0913 31.1061 37.0475 31.1186L37.036 31.1218L37.036 31.122L36.0252 31.4356L35.3422 31.6475L35.7757 32.2163L36.4006 33.036C36.4006 33.036 36.4006 33.036 36.4006 33.036C36.447 33.0969 36.4635 33.1685 36.4523 33.2359C36.441 33.3038 36.4008 33.3714 36.3312 33.4196C36.2609 33.4683 36.1692 33.4905 36.0772 33.4767C35.9855 33.4628 35.9095 33.4156 35.8624 33.3537L35.8623 33.3537L35.2374 32.5339L34.8398 32.0123L34.4421 32.5339L33.8172 33.3537L33.8172 33.3537C33.77 33.4156 33.6941 33.4628 33.6024 33.4767C33.5104 33.4905 33.4187 33.4683 33.3484 33.4196C33.2788 33.3714 33.2386 33.3038 33.2273 33.2359L32.7341 33.3178L33.2273 33.2359C33.2161 33.1685 33.2326 33.0969 33.279 33.036C33.279 33.036 33.279 33.036 33.279 33.036L33.9039 32.2163L34.3374 31.6475L33.6544 31.4356L32.6436 31.122L32.6321 31.1184L32.6321 31.1186C32.5883 31.1061 32.5489 31.0858 32.5159 31.0599L32.2072 31.4533L32.5159 31.0599C32.4829 31.0341 32.4572 31.0034 32.4392 30.9706L32.4392 30.9706C32.4212 30.938 32.4108 30.9033 32.4077 30.8687L37.6783 31.2119ZM32.4203 30.7651C32.4088 30.799 32.4047 30.8341 32.4077 30.8687L32.4203 30.7651ZM26.264 30.583L26.2641 30.583L27.2757 30.896L27.9234 31.0964V30.4183V29.4048C27.9234 29.3369 27.9515 29.2667 28.0098 29.211C28.069 29.1547 28.1541 29.119 28.2475 29.119C28.3409 29.119 28.426 29.1547 28.4851 29.211C28.5435 29.2667 28.5715 29.3369 28.5715 29.4048V30.4183V31.0964L29.2193 30.896L30.2308 30.583L30.2421 30.5795L30.242 30.5794C30.285 30.565 30.3311 30.5588 30.3775 30.5614C30.4238 30.5641 30.4684 30.5756 30.5085 30.5945L30.7218 30.1423L30.5085 30.5945C30.5486 30.6134 30.5826 30.639 30.6095 30.6686C30.6363 30.6981 30.6554 30.7311 30.6669 30.7651L31.1402 30.6039L30.6669 30.7651C30.6785 30.799 30.6826 30.8341 30.6795 30.8687C30.6764 30.9033 30.6661 30.938 30.6481 30.9706L31.086 31.2119L30.6481 30.9706C30.63 31.0034 30.6044 31.0341 30.5714 31.0599L30.88 31.4533L30.5714 31.0599C30.5384 31.0858 30.499 31.1061 30.4552 31.1186L30.4437 31.1218L30.4437 31.122L29.4329 31.4356L28.7499 31.6475L29.1834 32.2163L29.8083 33.036C29.8083 33.036 29.8083 33.036 29.8083 33.036C29.8547 33.0969 29.8712 33.1685 29.86 33.2359C29.8487 33.3038 29.8085 33.3714 29.7389 33.4196C29.6686 33.4683 29.5768 33.4905 29.4849 33.4767C29.3932 33.4628 29.3172 33.4156 29.2701 33.3537L29.27 33.3537L28.6451 32.5339L28.2475 32.0123L27.8498 32.5339L27.2249 33.3537L27.2249 33.3537C27.2016 33.3843 27.1711 33.4116 27.1342 33.4332C27.0972 33.4548 27.0551 33.4699 27.0101 33.4767C26.965 33.4835 26.919 33.4817 26.875 33.4716C26.8309 33.4615 26.7906 33.4435 26.7561 33.4196C26.7216 33.3957 26.694 33.3667 26.6737 33.3351C26.6534 33.3036 26.6406 33.2699 26.635 33.2359C26.6293 33.2019 26.6307 33.1672 26.6392 33.1335C26.6478 33.0997 26.6635 33.0664 26.6867 33.036L27.3116 32.2163L27.7451 31.6475L27.0621 31.4356L26.0513 31.122L26.0509 31.1219C26.0081 31.1086 25.9699 31.0879 25.9381 31.062C25.9062 31.0361 25.8815 31.0057 25.8642 30.9733C25.8469 30.941 25.837 30.9068 25.8342 30.8727C25.8314 30.8387 25.8356 30.8042 25.8469 30.7708L26.264 30.583ZM26.264 30.583C26.1767 30.5559 26.0816 30.5634 26.0017 30.6022C25.9226 30.6407 25.8699 30.7037 25.847 30.7707L26.264 30.583ZM36.6753 30.1054C36.779 30.0706 36.8889 30.0559 36.9986 30.0623C37.1083 30.0686 37.2156 30.0958 37.3141 30.1423L36.6753 30.1054ZM39.1853 26.7857V36.2143C39.1853 36.2822 39.2134 36.3524 39.2717 36.408C39.3308 36.4644 39.4159 36.5 39.5093 36.5C39.6028 36.5 39.6878 36.4644 39.747 36.408C39.8053 36.3524 39.8334 36.2822 39.8334 36.2143V26.7857C39.8334 26.7178 39.8053 26.6476 39.747 26.592C39.6878 26.5356 39.6028 26.5 39.5093 26.5C39.4159 26.5 39.3308 26.5356 39.2717 26.592C39.2134 26.6476 39.1853 26.7178 39.1853 26.7857Z" fill="#4C5054" stroke="#4C5054"/>
</g>
<defs>
<clipPath id="clip0_1229_14586">
<rect width="48" height="48" fill="white"/>
</clipPath>
</defs>
</svg>
