<svg width="49" height="48" viewBox="0 0 49 48" fill="none"
    xmlns="http://www.w3.org/2000/svg">
    <g clip-path="url(#clip0_7953_68379)">
        <path d="M2.0598 35.0187C2.2548 37.4103 4.11199 39.2094 6.50543 39.3753C9.26074 39.5666 13.5142 39.7578 19.4795 39.7578C25.4448 39.7578 29.6982 39.5666 32.4536 39.3753C34.847 39.2103 36.7042 37.4103 36.8992 35.0187C37.1007 32.5484 37.292 28.8706 37.292 23.8203C37.292 18.77 37.1007 15.0922 36.8992 12.6219C36.7042 10.2303 34.847 8.43125 32.4536 8.26531C29.6973 8.07406 25.4448 7.88281 19.4795 7.88281C13.5142 7.88281 9.26074 8.07406 6.50449 8.26531C4.11199 8.43031 2.2548 10.2303 2.0598 12.6219C1.85824 15.0912 1.66699 18.77 1.66699 23.8203C1.66699 28.8706 1.85824 32.5484 2.0598 35.0187Z" fill="#E5E4E3"/>
        <path d="M5.56738 8.41966C11.1783 5.49278 18.3455 2.78997 25.028 1.14466C26.9714 0.666533 28.9796 1.38653 29.9902 3.11341C30.7149 4.35091 31.5999 6.04966 32.5346 8.27153C32.5077 8.26942 32.4808 8.26755 32.4539 8.26591C29.6977 8.07466 25.4452 7.88341 19.4789 7.88341C13.5146 7.88341 9.26113 8.07466 6.50582 8.26591C6.18918 8.28755 5.87435 8.33903 5.56738 8.41966Z" fill="white"/>
        <path d="M26.1021 26.7482C26.1911 28.7451 27.7305 30.2329 29.7265 30.3126C30.7436 30.3539 32.0083 30.3829 33.5421 30.3829C35.0758 30.3829 36.3405 30.3539 37.3577 30.3126C39.3546 30.2329 40.893 28.7451 40.9821 26.7482C41.0177 25.9354 41.0421 24.9632 41.0421 23.8204C41.0421 22.6767 41.0177 21.7054 40.9821 20.8926C40.893 18.8957 39.3536 17.4079 37.3577 17.3282C36.0864 17.2794 34.8143 17.256 33.5421 17.2579C32.0083 17.2579 30.7436 17.287 29.7265 17.3282C27.7296 17.4079 26.1911 18.8957 26.1021 20.8926C26.0605 21.868 26.0405 22.8442 26.0421 23.8204C26.0421 24.9642 26.0664 25.9354 26.1021 26.7482Z" fill="white"/>
        <path d="M5.66895 8.36632C11.2649 5.46007 18.3852 2.77882 25.0283 1.14476C26.9718 0.666633 28.9799 1.3857 29.9905 3.11257C30.7124 4.34632 31.5936 6.03757 32.5255 8.2482" stroke="#848281" stroke-width="2" stroke-linecap="round" stroke-dasharray="4 4"/>
        <path d="M37.1739 17.3206C37.1154 15.7526 37.0239 14.186 36.8992 12.6219C36.7042 10.2303 34.847 8.43125 32.4536 8.26531C29.6973 8.07406 25.4448 7.88281 19.4795 7.88281C13.5142 7.88281 9.26074 8.07406 6.50449 8.26531C4.11199 8.43031 2.2548 10.2303 2.0598 12.6219C1.85824 15.0912 1.66699 18.77 1.66699 23.8203C1.66699 28.8706 1.85824 32.5484 2.0598 35.0187C2.2548 37.4103 4.11199 39.2094 6.50543 39.3753C9.26074 39.5666 13.5142 39.7578 19.4795 39.7578C25.4448 39.7578 29.6982 39.5666 32.4536 39.3753C34.847 39.2103 36.7042 37.4103 36.8992 35.0187C37.0014 33.7691 37.1007 32.21 37.1739 30.32" stroke="#848281" stroke-width="2" stroke-linecap="round" stroke-dasharray="4 4"/>
        <path d="M26.1021 26.7482C26.1911 28.7451 27.7305 30.2329 29.7265 30.3126C30.7436 30.3539 32.0083 30.3829 33.5421 30.3829C35.0758 30.3829 36.3405 30.3539 37.3577 30.3126C39.3546 30.2329 40.893 28.7451 40.9821 26.7482C41.0177 25.9354 41.0421 24.9632 41.0421 23.8204C41.0421 22.6767 41.0177 21.7054 40.9821 20.8926C40.893 18.8957 39.3536 17.4079 37.3577 17.3282C36.0864 17.2794 34.8143 17.256 33.5421 17.2579C32.0083 17.2579 30.7436 17.287 29.7265 17.3282C27.7296 17.4079 26.1911 18.8957 26.1021 20.8926C26.0605 21.868 26.0405 22.8442 26.0421 23.8204C26.0421 24.9642 26.0664 25.9354 26.1021 26.7482Z" fill="#E5E4E3" stroke="#848281" stroke-width="2" stroke-linecap="round" stroke-dasharray="4 4"/>
        <path d="M32.6045 22.8828V24.7578V22.8828Z" fill="#E5E4E3"/>
        <path d="M32.6045 22.8828V24.7578" stroke="#848281" stroke-width="2" stroke-linecap="round"/>
        <path d="M34.72 46.866C34.2566 47.0447 33.7434 47.0447 33.28 46.866C29.6645 45.4787 26.5552 43.0279 24.3627 39.8372C22.1702 36.6466 20.9977 32.8663 21 28.9957V22.9989C21 22.4688 21.2107 21.9603 21.5858 21.5855C21.9609 21.2106 22.4696 21 23 21H45C45.5304 21 46.0391 21.2106 46.4142 21.5855C46.7893 21.9603 47 22.4688 47 22.9989V28.9957C47.0023 32.8663 45.8298 36.6466 43.6373 39.8372C41.4448 43.0279 38.3355 45.4787 34.72 46.866Z" fill="#F7F6F4" stroke="currentColor" stroke-width="2" stroke-linecap="round" stroke-linejoin="round"/>
        <path d="M39.3519 26.7857V36.2143C39.3519 36.4227 39.4387 36.6225 39.5933 36.7699C39.7478 36.9172 39.9574 37 40.176 37C40.3945 37 40.6041 36.9172 40.7586 36.7699C40.9132 36.6225 41 36.4227 41 36.2143V26.7857C41 26.5773 40.9132 26.3775 40.7586 26.2301C40.6041 26.0828 40.3945 26 40.176 26C39.9574 26 39.7478 26.0828 39.5933 26.2301C39.4387 26.3775 39.3519 26.5773 39.3519 26.7857ZM33.6709 30.1054L34.6824 30.4183V29.4048C34.6824 29.1964 34.7692 28.9965 34.9237 28.8492C35.0783 28.7018 35.2879 28.619 35.5064 28.619C35.725 28.619 35.9346 28.7018 36.0891 28.8492C36.2436 28.9965 36.3305 29.1964 36.3305 29.4048V30.4183L37.342 30.1054C37.4456 30.0706 37.5555 30.0559 37.6652 30.0623C37.7749 30.0686 37.8822 30.0958 37.9807 30.1423C38.0792 30.1887 38.167 30.2535 38.2389 30.3328C38.3107 30.412 38.3652 30.5042 38.3992 30.6039C38.4331 30.7036 38.4458 30.8087 38.4365 30.9131C38.4272 31.0175 38.3961 31.1191 38.345 31.2119C38.2939 31.3046 38.2238 31.3867 38.139 31.4533C38.0541 31.5199 37.9561 31.5696 37.8508 31.5995L36.84 31.9132L37.4649 32.7329C37.5934 32.9015 37.6463 33.1119 37.6121 33.3178C37.578 33.5236 37.4594 33.7081 37.2826 33.8306C37.1057 33.9531 36.8851 34.0036 36.6692 33.971C36.4533 33.9384 36.2598 33.8254 36.1313 33.6568L35.5064 32.837L34.8815 33.6568C34.753 33.8254 34.5596 33.9384 34.3437 33.971C34.1278 34.0036 33.9071 33.9531 33.7303 33.8306C33.5534 33.7081 33.4349 33.5236 33.4007 33.3178C33.3665 33.1119 33.4195 32.9015 33.5479 32.7329L34.1728 31.9132L33.162 31.5995C33.0567 31.5696 32.9587 31.5199 32.8739 31.4533C32.789 31.3867 32.719 31.3046 32.6679 31.2119C32.6168 31.1191 32.5856 31.0175 32.5763 30.9131C32.567 30.8087 32.5797 30.7036 32.6137 30.6039C32.6476 30.5042 32.7021 30.412 32.774 30.3328C32.8458 30.2535 32.9336 30.1887 33.0321 30.1423C33.1306 30.0958 33.2379 30.0686 33.3476 30.0623C33.4573 30.0559 33.5672 30.0706 33.6709 30.1054ZM26.0403 30.6095C26.1079 30.4114 26.2552 30.247 26.4499 30.1525C26.6446 30.0579 26.8708 30.041 27.0786 30.1054L28.0901 30.4183V29.4048C28.0901 29.1964 28.1769 28.9965 28.3314 28.8492C28.486 28.7018 28.6956 28.619 28.9141 28.619C29.1327 28.619 29.3423 28.7018 29.4968 28.8492C29.6513 28.9965 29.7381 29.1964 29.7381 29.4048V30.4183L30.7497 30.1054C30.8533 30.0706 30.9632 30.0559 31.0729 30.0623C31.1826 30.0686 31.2899 30.0958 31.3884 30.1423C31.4869 30.1887 31.5747 30.2535 31.6465 30.3328C31.7184 30.412 31.7729 30.5042 31.8069 30.6039C31.8408 30.7036 31.8535 30.8087 31.8442 30.9131C31.8349 31.0175 31.8038 31.1191 31.7527 31.2119C31.7016 31.3046 31.6315 31.3867 31.5467 31.4533C31.4618 31.5199 31.3638 31.5696 31.2585 31.5995L30.2477 31.9132L30.8726 32.7329C31.0011 32.9015 31.054 33.1119 31.0198 33.3178C30.9857 33.5236 30.8671 33.7081 30.6903 33.8306C30.5134 33.9531 30.2928 34.0036 30.0769 33.971C29.861 33.9384 29.6675 33.8254 29.539 33.6568L28.9141 32.837L28.2892 33.6568C28.2256 33.7403 28.1453 33.811 28.0531 33.8649C27.9608 33.9188 27.8583 33.9549 27.7513 33.971C27.6444 33.9872 27.5353 33.9831 27.43 33.959C27.3248 33.9349 27.2255 33.8913 27.138 33.8306C27.0504 33.77 26.9762 33.6935 26.9197 33.6055C26.8631 33.5175 26.8253 33.4197 26.8084 33.3178C26.7914 33.2158 26.7957 33.1117 26.821 33.0114C26.8463 32.911 26.892 32.8164 26.9556 32.7329L27.5805 31.9132L26.5697 31.5995C26.4668 31.5677 26.3714 31.5168 26.2891 31.4498C26.2068 31.3828 26.1391 31.301 26.0899 31.2091C26.0408 31.1172 26.0111 31.0169 26.0026 30.914C25.994 30.8111 26.0069 30.7077 26.0403 30.6095Z" fill="currentColor"/>
    </g>
    <defs>
        <clipPath id="clip0_7953_68379">
            <rect width="48" height="48" fill="white" transform="translate(0.666992)"/>
        </clipPath>
    </defs>
</svg>
