<svg width="1em" height="1em" viewBox="0 0 22 22" fill="currentColor"
    xmlns="http://www.w3.org/2000/svg">
    <path fill-rule="evenodd" clip-rule="evenodd" d="M8.70833 11.5075C11.2334 11.5075 13.2574 9.4573 13.2574 6.89961C13.2574 4.34192 11.2334 2.29167 8.70833 2.29167C6.1833 2.29167 4.15925 4.34192 4.15925 6.89961C4.15925 9.4573 6.1833 11.5075 8.70833 11.5075ZM8.70833 13.7639C4.9997 13.7639 1.83333 14.3569 1.83333 16.7259C1.83333 19.094 4.98043 19.7083 8.70833 19.7083C12.416 19.7083 15.5833 19.1154 15.5833 16.7464C15.5833 14.3773 12.4362 13.7639 8.70833 13.7639ZM18.2398 8.78888H19.3426C19.7965 8.78888 20.1667 9.1642 20.1667 9.62453C20.1667 10.0849 19.7965 10.4602 19.3426 10.4602H18.2398V11.5394C18.2398 11.9997 17.8706 12.375 17.4157 12.375C16.9618 12.375 16.5917 11.9997 16.5917 11.5394V10.4602H15.4907C15.0358 10.4602 14.6667 10.0849 14.6667 9.62453C14.6667 9.1642 15.0358 8.78888 15.4907 8.78888H16.5917V7.71065C16.5917 7.25033 16.9618 6.875 17.4157 6.875C17.8706 6.875 18.2398 7.25033 18.2398 7.71065V8.78888Z" fill="currentColor"/>
</svg>
