<svg width="20" height="18" viewBox="0 0 20 18" xmlns="http://www.w3.org/2000/svg">
<path fill-rule="evenodd" clip-rule="evenodd" d="M7.70834 9.50755C10.2334 9.50755 12.2574 7.4573 12.2574 4.89961C12.2574 2.34192 10.2334 0.291672 7.70834 0.291672C5.18331 0.291672 3.15926 2.34192 3.15926 4.89961C3.15926 7.4573 5.18331 9.50755 7.70834 9.50755ZM7.70834 11.7639C3.99971 11.7639 0.833336 12.3569 0.833336 14.7259C0.833336 17.094 3.98044 17.7083 7.70834 17.7083C11.416 17.7083 14.5833 17.1154 14.5833 14.7464C14.5833 12.3773 11.4362 11.7639 7.70834 11.7639ZM17.2398 6.78888H18.3426C18.7965 6.78888 19.1667 7.1642 19.1667 7.62453C19.1667 8.08485 18.7965 8.46018 18.3426 8.46018H17.2398V9.53936C17.2398 9.99968 16.8706 10.375 16.4157 10.375C15.9618 10.375 15.5917 9.99968 15.5917 9.53936V8.46018H14.4907C14.0358 8.46018 13.6667 8.08485 13.6667 7.62453C13.6667 7.1642 14.0358 6.78888 14.4907 6.78888H15.5917V5.71065C15.5917 5.25033 15.9618 4.875 16.4157 4.875C16.8706 4.875 17.2398 5.25033 17.2398 5.71065V6.78888Z" fill="currentColor"/>
</svg>