<svg width="1em" height="1em" viewBox="0 0 24 24" fill="none" xmlns="http://www.w3.org/2000/svg">
<path fill-rule="evenodd" clip-rule="evenodd" d="M21.9531 11.9714C21.9531 17.4421 17.4237 21.9715 11.9531 21.9715C6.49234 21.9715 1.95313 17.4421 1.95313 11.9714C1.95313 6.51071 6.48254 1.9715 11.9433 1.9715C17.4139 1.9715 21.9531 6.51071 21.9531 11.9714ZM12.0093 19L17.69 11.5405L17.6283 11.4786C17.5098 11.3539 17.3687 11.2691 17.2211 11.1804C17.2148 11.1766 17.2085 11.1728 17.2022 11.169L12.7935 16.951L14.1087 12.8095L13.695 12.0667L12.0093 17.3781L10.305 12.0729L9.89751 12.8095L11.2251 16.951L6.81014 11.1752C6.65578 11.2619 6.50141 11.3671 6.37174 11.4971L6.31617 11.5467L12.0093 19ZM9.84811 11.6333C9.42205 10.8657 8.61316 10.3333 7.68696 10.3333C7.00156 10.3333 6.38409 10.6119 5.93333 11.0576C6.47054 8.16667 8.97747 6 12.0093 6C15.0225 6 17.5295 8.16667 18.0667 11.039C17.6221 10.5933 17.0046 10.3333 16.3316 10.3333C15.8878 10.3302 15.4516 10.4492 15.0706 10.6773C14.6895 10.9055 14.3782 11.234 14.1704 11.6271C13.7382 10.8595 12.9355 10.3333 12.0093 10.3333C11.5654 10.3336 11.1299 10.4546 10.7493 10.6836C10.3687 10.9125 10.0572 11.2408 9.84811 11.6333Z" fill="currentColor"/>
</svg>
