<svg width="17" height="16" viewBox="0 0 17 16" fill="none" xmlns="http://www.w3.org/2000/svg">
  <path fill-rule="evenodd" clip-rule="evenodd" d="M15.1668 5.28065V10.7273C15.1668 13.0807 13.6528 14.6673 11.3935 14.6673H5.6135C3.3535 14.6673 1.8335 13.0807 1.8335 10.7273V5.28065C1.8335 2.92065 3.3535 1.33398 5.6135 1.33398H11.3935C13.6528 1.33398 15.1668 2.92065 15.1668 5.28065ZM8.00016 6.48732V10.7207C8.00016 11.0007 8.22683 11.2207 8.50016 11.2207C8.78016 11.2207 9.00016 11.0007 9.00016 10.7207V6.48732L10.6468 8.14065C10.7402 8.23398 10.8735 8.28732 11.0002 8.28732C11.1262 8.28732 11.2535 8.23398 11.3535 8.14065C11.5468 7.94732 11.5468 7.62732 11.3535 7.43398L8.8535 4.92065C8.66683 4.73398 8.3335 4.73398 8.14683 4.92065L5.64683 7.43398C5.4535 7.62732 5.4535 7.94732 5.64683 8.14065C5.84683 8.33398 6.16016 8.33398 6.36016 8.14065L8.00016 6.48732Z" fill="currentColor"/>
</svg>