<svg xmlns="http://www.w3.org/2000/svg" width="24" height="24" viewBox="0 0 24 24" fill="none">
  <path fill-rule="evenodd" clip-rule="evenodd" d="M21.9999 16.08V7.91C21.9999 4.38 19.7289 2 16.3399 2H7.66991C4.27991 2 1.99991 4.38 1.99991 7.91V16.08C1.99991 19.62 4.27991 22 7.66991 22H16.3399C19.7289 22 21.9999 19.62 21.9999 16.08ZM11.2499 14.27V7.92C11.2499 7.5 11.5899 7.17 11.9999 7.17C12.4199 7.17 12.7499 7.5 12.7499 7.92V14.27L15.2199 11.79C15.3599 11.65 15.5599 11.57 15.7499 11.57C15.9389 11.57 16.1299 11.65 16.2799 11.79C16.5699 12.08 16.5699 12.56 16.2799 12.85L12.5299 16.62C12.2499 16.9 11.7499 16.9 11.4699 16.62L7.71991 12.85C7.42991 12.56 7.42991 12.08 7.71991 11.79C8.01991 11.5 8.48991 11.5 8.78991 11.79L11.2499 14.27Z" fill="currentColor"/>
</svg>