<svg width="17" height="16" viewBox="0 0 17 16" fill="none" xmlns="http://www.w3.org/2000/svg">
  <path fill-rule="evenodd" clip-rule="evenodd" d="M15.1668 10.7193V5.27268C15.1668 2.91935 13.6528 1.33268 11.3935 1.33268H5.6135C3.3535 1.33268 1.8335 2.91935 1.8335 5.27268V10.7193C1.8335 13.0793 3.3535 14.666 5.6135 14.666H11.3935C13.6528 14.666 15.1668 13.0793 15.1668 10.7193ZM8.00016 9.51268V5.27935C8.00016 4.99935 8.22683 4.77935 8.50016 4.77935C8.78016 4.77935 9.00016 4.99935 9.00016 5.27935V9.51268L10.6468 7.85935C10.7402 7.76602 10.8735 7.71268 11.0002 7.71268C11.1262 7.71268 11.2535 7.76602 11.3535 7.85935C11.5468 8.05268 11.5468 8.37268 11.3535 8.56602L8.8535 11.0793C8.66683 11.266 8.3335 11.266 8.14683 11.0793L5.64683 8.56602C5.4535 8.37268 5.4535 8.05268 5.64683 7.85935C5.84683 7.66602 6.16016 7.66602 6.36016 7.85935L8.00016 9.51268Z" fill="currentColor"/>
</svg>