<svg xmlns="http://www.w3.org/2000/svg" width="24" height="24" viewBox="0 0 24 24" fill="none">
  <path fill-rule="evenodd" clip-rule="evenodd" d="M21.9999 7.92V16.09C21.9999 19.62 19.7289 22 16.3399 22H7.6699C4.2799 22 1.9999 19.62 1.9999 16.09V7.92C1.9999 4.38 4.2799 2 7.6699 2H16.3399C19.7289 2 21.9999 4.38 21.9999 7.92ZM11.2499 9.73V16.08C11.2499 16.5 11.5899 16.83 11.9999 16.83C12.4199 16.83 12.7499 16.5 12.7499 16.08V9.73L15.2199 12.21C15.3599 12.35 15.5599 12.43 15.7499 12.43C15.9389 12.43 16.1299 12.35 16.2799 12.21C16.5699 11.92 16.5699 11.44 16.2799 11.15L12.5299 7.38C12.2499 7.1 11.7499 7.1 11.4699 7.38L7.7199 11.15C7.4299 11.44 7.4299 11.92 7.7199 12.21C8.0199 12.5 8.4899 12.5 8.7899 12.21L11.2499 9.73Z" fill="currentColor"/>
</svg>