<svg width="24" height="24" viewBox="0 0 24 24" fill="none" xmlns="http://www.w3.org/2000/svg">
<path fill-rule="evenodd" clip-rule="evenodd" d="M12.8617 2.85106C12.8617 2.87619 12.8796 2.8981 12.9044 2.90193C13.1363 2.93769 13.367 2.99191 13.5949 3.06326C12.6194 3.88871 12 5.12203 12 6.5C12 8.98528 14.0147 11 16.5 11C17.007 11 17.4944 10.9162 17.9491 10.7616C18.0632 11.444 18.5947 11.8915 19.1451 12.3551C19.8189 12.9225 20.5211 13.5139 20.5213 14.5893C20.5215 16.0391 19.6744 16.8896 18.4296 17.2924L18.4192 17.2959L18.4128 17.2983C18.2617 17.3542 15.9909 18.1702 12.0107 18.1702C8.03063 18.1702 5.75983 17.3542 5.60874 17.2983C5.60297 17.2961 5.5977 17.2943 5.59185 17.2924C4.34707 16.8898 3.50022 16.0802 3.50022 14.5893C3.48589 13.5231 4.18856 12.9319 4.8661 12.3619C5.58313 11.7586 6.27202 11.1791 6.05323 10.0851C5.63296 6.52852 8.28425 3.33892 11.1169 2.90195C11.1418 2.89812 11.1596 2.8762 11.1596 2.85106C11.1596 2.38103 11.5406 2 12.0106 2C12.4807 2 12.8617 2.38103 12.8617 2.85106ZM8.79987 20.383C8.51785 20.007 8.59406 19.4735 8.97008 19.1915C9.3461 18.9095 9.87955 18.9857 10.1616 19.3617C11.0977 20.6099 12.9701 20.6099 13.9062 19.3617C14.1883 18.9857 14.7217 18.9095 15.0977 19.1915C15.4738 19.4735 15.55 20.007 15.268 20.383C13.6509 22.539 10.4169 22.539 8.79987 20.383Z" fill="#333639"/>
<path d="M16.5 10C18.433 10 20 8.433 20 6.5C20 4.567 18.433 3 16.5 3C14.567 3 13 4.567 13 6.5C13 8.433 14.567 10 16.5 10Z" fill="#D92D20"/>
</svg>
