<svg width="1em" height="1em" viewBox="0 0 20 20" fill="currentColor" xmlns="http://www.w3.org/2000/svg">
<path d="M10.7171 2.41411C10.7177 2.40186 10.718 2.38957 10.718 2.37719C10.718 1.98548 10.4005 1.66797 10.0088 1.66797C9.61716 1.66797 9.29961 1.98548 9.29961 2.37719C9.29961 2.38957 9.29995 2.40191 9.30056 2.41416C6.92634 2.75634 4.69228 5.42648 5.04429 8.40555C5.22662 9.31718 4.65254 9.80018 4.055 10.3029C3.49036 10.7779 2.90486 11.2705 2.91681 12.1591C2.91681 13.4044 3.62585 14.0793 4.66717 14.414C4.66717 14.414 6.57432 15.1431 10.0089 15.1431C13.4435 15.1431 15.3507 14.414 15.3507 14.414C16.392 14.0793 17.1012 13.3701 17.101 12.1591C17.1009 11.2629 16.5158 10.77 15.9543 10.2972C15.3594 9.79625 14.7911 9.3177 14.9735 8.40555C15.3255 5.42639 13.0914 2.75621 10.7171 2.41411Z" fill="currentColor"/>
<path d="M7.47505 15.9942C7.16165 16.2292 7.09819 16.6737 7.33315 16.9871C8.68069 18.7838 11.3758 18.7838 12.7233 16.9871C12.9583 16.6737 12.8948 16.2292 12.5814 15.9942C12.2681 15.7592 11.8235 15.8227 11.5885 16.1361C10.8083 17.1762 9.2481 17.1762 8.46797 16.1361C8.23292 15.8227 7.78836 15.7592 7.47505 15.9942Z" fill="currentColor"/>
</svg>
