<svg viewBox="0 0 16 16" fill="none" xmlns="http://www.w3.org/2000/svg">
<path d="M12.9647 3.56333C12.8309 3.10972 12.5533 2.71192 12.1736 2.42992C11.794 2.14792 11.333 1.99703 10.86 2C10.312 2.00049 9.78388 2.20597 9.37961 2.57607C8.97535 2.94616 8.72414 3.45409 8.67537 4H7.32537C7.27594 3.45351 7.0239 2.94528 6.61878 2.57519C6.21365 2.2051 5.68476 1.99993 5.13604 2C4.66376 1.99768 4.20351 2.14889 3.82463 2.43086C3.44575 2.71282 3.16876 3.11027 3.03537 3.56333L1.36137 9.142C1.34304 9.20413 1.33361 9.26855 1.33337 9.33333V10C1.33443 10.8838 1.68605 11.7312 2.31109 12.3561C2.93613 12.981 3.78353 13.3324 4.66737 13.3333C5.31516 13.3322 5.94861 13.1425 6.49035 12.7873C7.0321 12.4322 7.45869 11.9269 7.71804 11.3333H8.28204C8.54139 11.9269 8.96798 12.4322 9.50973 12.7873C10.0515 13.1425 10.6849 13.3322 11.3327 13.3333C12.2167 13.3324 13.0642 12.9809 13.6892 12.3559C14.3143 11.7308 14.6658 10.8833 14.6667 9.99933V9.33333C14.6667 9.268 14.6567 9.204 14.6387 9.142L12.9647 3.56333ZM4.66737 12C4.1371 11.9993 3.62873 11.7884 3.2537 11.4135C2.87868 11.0386 2.66759 10.5303 2.66671 10C2.66671 9.94933 2.67804 9.902 2.68137 9.852C2.71785 9.34986 2.94267 8.88004 3.31082 8.53662C3.67896 8.1932 4.16325 8.00153 4.66671 8C5.19714 8 5.70585 8.21071 6.08092 8.58578C6.45599 8.96086 6.66671 9.46956 6.66671 10V10.006C6.66442 10.5351 6.45287 11.0417 6.07827 11.4153C5.70366 11.7889 5.19644 11.9991 4.66737 12ZM11.3327 12C10.8036 11.9991 10.2964 11.7889 9.92182 11.4153C9.54721 11.0417 9.33566 10.5351 9.33337 10.006V10C9.33333 9.73735 9.38502 9.47727 9.48549 9.23461C9.58596 8.99194 9.73324 8.77143 9.91893 8.58569C10.2939 8.21055 10.8026 7.99975 11.333 7.99966C11.8635 7.99958 12.3722 8.2102 12.7474 8.58521C13.1225 8.96023 13.3333 9.4689 13.3334 9.99933C13.3327 10.5297 13.1217 11.0382 12.7466 11.4132C12.3716 11.7883 11.8631 11.9993 11.3327 12Z" fill="currentColor"/>
</svg>
