<svg xmlns="http://www.w3.org/2000/svg" width="24" height="24" viewBox="0 0 24 24" fill="none">
  <path d="M8.98276 13.5776L11.2241 15.819C11.5402 16.1351 11.9425 16.2931 12.431 16.2931C12.9195 16.2931 13.3218 16.1351 13.6379 15.819L18.5517 10.9052V11.9397C18.5517 12.4282 18.7172 12.8305 19.0483 13.1466C19.3782 13.4626 19.7874 13.6207 20.2759 13.6207C20.7644 13.6207 21.1736 13.4552 21.5034 13.1241C21.8345 12.7943 22 12.3851 22 11.8966V6.72414C22 6.23563 21.8345 5.82586 21.5034 5.49483C21.1736 5.16494 20.7644 5 20.2759 5H15.0603C14.5718 5 14.1695 5.16494 13.8534 5.49483C13.5374 5.82586 13.3793 6.23563 13.3793 6.72414C13.3793 7.21264 13.5448 7.62184 13.8759 7.95172C14.2057 8.28276 14.6149 8.44828 15.1034 8.44828H16.0948L12.431 12.1552L10.1897 9.91379C9.87356 9.56897 9.47126 9.39655 8.98276 9.39655C8.49425 9.39655 8.09195 9.56897 7.77586 9.91379L2.51724 15.1724C2.17241 15.4885 2 15.8908 2 16.3793C2 16.8678 2.17241 17.2701 2.51724 17.5862C2.83333 17.931 3.23563 18.1035 3.72414 18.1035C4.21264 18.1035 4.61494 17.931 4.93104 17.5862L8.98276 13.5776Z" fill="currentColor"/>
</svg>