<svg width="1em" height="1em" viewBox="0 0 24 24" fill="none" xmlns="http://www.w3.org/2000/svg">
<path fill-rule="evenodd" clip-rule="evenodd" d="M14.6107 6.34044C13.6894 6.28711 12.2489 6.23378 10.0876 6.224C10.1054 5.71289 10.1236 5.26667 10.1418 4.88356C10.2076 3.49956 11.1854 2.30889 12.6338 2.15733C13.4605 2.07067 14.5716 2 16.0001 2C17.4285 2 18.5401 2.07067 19.3663 2.15733C20.8152 2.30889 21.7929 3.49956 21.8583 4.88356C21.9014 5.78533 21.9458 7.03511 21.9738 8.66667H17.5552C17.1752 7.36089 16.0187 6.42178 14.6107 6.34044ZM14.2223 4.22222C14.3991 4.22222 14.5687 4.29246 14.6937 4.41748C14.8187 4.54251 14.8889 4.71208 14.8889 4.88889C14.8889 5.0657 14.8187 5.23527 14.6937 5.36029C14.5687 5.48532 14.3991 5.55556 14.2223 5.55556H13.7778C13.601 5.55556 13.4314 5.48532 13.3064 5.36029C13.1814 5.23527 13.1112 5.0657 13.1112 4.88889C13.1112 4.71208 13.1814 4.54251 13.3064 4.41748C13.4314 4.29246 13.601 4.22222 13.7778 4.22222H14.2223ZM17.1112 4.88889C17.1112 4.71208 17.1814 4.54251 17.3064 4.41748C17.4314 4.29246 17.601 4.22222 17.7778 4.22222H18.2223C18.3991 4.22222 18.5687 4.29246 18.6937 4.41748C18.8187 4.54251 18.8889 4.71208 18.8889 4.88889C18.8889 5.0657 18.8187 5.23527 18.6937 5.36029C18.5687 5.48532 18.3991 5.55556 18.2223 5.55556H17.7778C17.601 5.55556 17.4314 5.48532 17.3064 5.36029C17.1814 5.23527 17.1112 5.0657 17.1112 4.88889ZM17.7129 10H21.9907C21.9969 10.6213 22.0001 11.2876 22.0001 12C22.0001 15.3507 21.9267 17.6769 21.8583 19.1164C21.7925 20.5004 20.8147 21.6911 19.3663 21.8427C18.5401 21.9293 17.4285 22 16.0001 22C15.4734 22 14.9898 21.9902 14.5481 21.9738C14.6268 21.7695 14.667 21.5523 14.6667 21.3333C14.6669 21.0584 14.6033 20.7872 14.4808 20.5411C14.3583 20.295 14.1804 20.0807 13.9609 19.9151C14.2014 19.9044 14.4174 19.8929 14.6107 19.8818C16.2707 19.7858 17.5809 18.4973 17.6814 16.8222C17.7316 15.9853 17.7778 15.1631 17.7778 13.3333C17.7778 11.9009 17.7494 10.8111 17.7129 10ZM9.33338 7.33333C11.9032 7.33333 13.5476 7.38933 14.5454 7.44444C15.6458 7.50578 16.5076 8.34356 16.5752 9.45422C16.6232 10.2409 16.6667 11.4204 16.6667 13.1111C16.6667 13.9822 16.6552 14.7173 16.6374 15.3333H2.02938C2.00898 14.5928 1.9992 13.852 2.00005 13.1111C2.00005 11.4204 2.04361 10.2413 2.09161 9.45422C2.15916 8.34356 3.02138 7.50578 4.12138 7.44489C5.11916 7.38933 6.76361 7.33333 9.33338 7.33333ZM2.09161 16.768L2.08538 16.6667H16.5814L16.5752 16.768C16.5076 17.8787 15.6458 18.7164 14.5454 18.7773C13.7881 18.8196 12.6574 18.8618 11.0321 18.8796L11.1334 19.6933C11.167 19.9621 11.2976 20.2093 11.5006 20.3886C11.7037 20.5678 11.9652 20.6667 12.2361 20.6667H12.8889C13.0658 20.6667 13.2353 20.7369 13.3603 20.8619C13.4854 20.987 13.5556 21.1565 13.5556 21.3333C13.5556 21.5101 13.4854 21.6797 13.3603 21.8047C13.2353 21.9298 13.0658 22 12.8889 22H5.77783C5.60102 22 5.43145 21.9298 5.30642 21.8047C5.1814 21.6797 5.11116 21.5101 5.11116 21.3333C5.11116 21.1565 5.1814 20.987 5.30642 20.8619C5.43145 20.7369 5.60102 20.6667 5.77783 20.6667H6.43072C6.70149 20.6666 6.96291 20.5676 7.16587 20.3884C7.36883 20.2092 7.49936 19.962 7.53294 19.6933L7.63516 18.88C6.00938 18.8622 4.87872 18.8196 4.12138 18.7778C3.02138 18.7164 2.15916 17.8787 2.09161 16.768Z" fill="currentColor"/>
</svg>
