<svg xmlns="http://www.w3.org/2000/svg" width="24" height="24" viewBox="0 0 24 24" fill="none">
  <path d="M18.2259 16.6892C18.2925 16.214 18.3356 15.6893 18.3598 15.1107C18.5245 15.0206 18.6492 14.9241 18.7482 14.8251C18.98 14.5934 19.1978 14.2213 19.3526 13.5243C19.5111 12.8113 19.5834 11.8522 19.5834 10.5385C19.5834 7.91295 19.2209 6.83969 18.6906 6.30943C18.1603 5.77917 17.0871 5.41667 14.4616 5.41667C13.1478 5.41667 12.1888 5.48891 11.4757 5.64738C10.7788 5.80227 10.4066 6.02007 10.1749 6.25181C10.0759 6.35083 9.9794 6.47549 9.88929 6.64018C10.2964 6.62311 10.7302 6.61539 11.1923 6.61539C17.1152 6.61539 18.3846 7.88483 18.3846 13.8077C18.3846 19.7306 17.1152 21 11.1923 21C5.26944 21 4 19.7306 4 13.8077C4 9.00381 4.83509 7.26114 8.31082 6.77414C8.98467 4.56936 10.6796 4 14.4616 4C19.6923 4 21 5.30769 21 10.5385C21 14.3205 20.4307 16.0154 18.2259 16.6892Z" fill="currentColor"/>
</svg>