<svg width="24" height="24" viewBox="0 0 24 24" fill="none" xmlns="http://www.w3.org/2000/svg">
<path d="M12 17.5556C8.70089 17.5556 6.39289 17.4609 4.94444 17.3707C3.50622 17.2813 2.33644 16.2142 2.2 14.748C2.096 13.6258 2 11.9911 2 9.77778C2 7.56444 2.096 5.92978 2.20044 4.80711C2.33644 3.34133 3.50622 2.27422 4.94444 2.18489C6.39289 2.09467 8.70089 2 12 2C15.2991 2 17.6071 2.09467 19.0556 2.18489C20.4938 2.27422 21.6636 3.34133 21.8 4.80756C21.904 5.92978 22 7.56444 22 9.77778C22 11.9911 21.904 13.6258 21.7996 14.7484C21.6636 16.2142 20.4938 17.2813 19.0556 17.3707C17.6071 17.4609 15.2991 17.5556 12 17.5556Z" fill="currentColor"/>
<path d="M9.75067 18.8733C10.4436 18.8831 11.1929 18.8889 12.0004 18.8889C12.808 18.8889 13.5573 18.8831 14.2502 18.8733L14.3458 19.6382C14.3659 19.7994 14.4442 19.9477 14.566 20.0553C14.6878 20.1628 14.8446 20.2222 15.0071 20.2222H16.2738C16.4997 20.2222 16.7199 20.2933 16.9033 20.4254C17.0866 20.5574 17.2237 20.7439 17.2951 20.9582C17.3348 21.0772 17.3456 21.2039 17.3266 21.3279C17.3077 21.4519 17.2596 21.5696 17.1862 21.6714C17.1129 21.7731 17.0164 21.856 16.9047 21.9131C16.7931 21.9702 16.6694 22 16.544 22H7.45733C7.33191 22 7.20827 21.9702 7.09661 21.9131C6.98495 21.856 6.88847 21.7731 6.81511 21.6714C6.74176 21.5696 6.69363 21.4519 6.6747 21.3279C6.65577 21.2039 6.66657 21.0772 6.70622 20.9582C6.7776 20.7439 6.91461 20.5575 7.09784 20.4254C7.28107 20.2933 7.50123 20.2222 7.72711 20.2222H8.99378C9.15631 20.2222 9.31322 20.1627 9.435 20.0551C9.55679 19.9475 9.63507 19.7991 9.65511 19.6378L9.75067 18.8733Z" fill="currentColor"/>
<path fill-rule="evenodd" clip-rule="evenodd" d="M11.1494 14.3754C10.7622 14.2989 10.5093 13.918 10.5846 13.5246L12.0075 6.08736C12.0828 5.69393 12.4577 5.43699 12.8449 5.51347C13.2322 5.58994 13.4851 5.97087 13.4098 6.3643L11.9869 13.8015C11.9116 14.195 11.5367 14.4519 11.1494 14.3754ZM9.64793 8.91601C9.92688 8.63261 9.92688 8.17313 9.64793 7.88973C9.36899 7.60633 8.91673 7.60633 8.63778 7.88973L7.20921 9.34111C6.93026 9.62451 6.93026 10.084 7.20921 10.3674L8.63778 11.8188C8.91673 12.1022 9.36899 12.1022 9.64793 11.8188C9.92688 11.5354 9.92688 11.0759 9.64793 10.7925L8.72444 9.85425L9.64793 8.91601ZM14.3521 8.91601C14.0731 8.63261 14.0731 8.17313 14.3521 7.88973C14.631 7.60633 15.0833 7.60633 15.3622 7.88973L16.7908 9.34111C17.0697 9.62451 17.0697 10.084 16.7908 10.3674L15.3622 11.8188C15.0833 12.1022 14.631 12.1022 14.3521 11.8188C14.0731 11.5354 14.0731 11.0759 14.3521 10.7925L15.2756 9.85425L14.3521 8.91601Z" fill="white"/>
</svg>
