<svg width="1em" height="1em" viewBox="0 0 24 24" fill="none" xmlns="http://www.w3.org/2000/svg">
<path fill-rule="evenodd" clip-rule="evenodd" d="M4.94444 17.3707C6.39289 17.4609 8.70089 17.5556 12 17.5556C15.2991 17.5556 17.6071 17.4609 19.0556 17.3707C20.4938 17.2813 21.6636 16.2142 21.7996 14.7484C21.904 13.6258 22 11.9911 22 9.77778C22 7.56444 21.904 5.92978 21.8 4.80756C21.6636 3.34133 20.4938 2.27422 19.0556 2.18489C17.6071 2.09467 15.2991 2 12 2C8.70089 2 6.39289 2.09467 4.94444 2.18489C3.50622 2.27422 2.33644 3.34133 2.20044 4.80711C2.096 5.92978 2 7.56444 2 9.77778C2 11.9911 2.096 13.6258 2.2 14.748C2.33644 16.2142 3.50622 17.2813 4.94444 17.3707ZM12.0004 18.8889C11.1929 18.8889 10.4436 18.8831 9.75067 18.8733L9.65511 19.6378C9.63507 19.7991 9.55679 19.9475 9.435 20.0551C9.31322 20.1627 9.15631 20.2222 8.99378 20.2222H7.72711C7.50123 20.2222 7.28107 20.2933 7.09784 20.4254C6.91461 20.5575 6.7776 20.7439 6.70622 20.9582C6.66657 21.0772 6.65577 21.2039 6.6747 21.3279C6.69363 21.4519 6.74176 21.5696 6.81511 21.6714C6.88847 21.7731 6.98495 21.856 7.09661 21.9131C7.20827 21.9702 7.33191 22 7.45733 22H16.544C16.6694 22 16.7931 21.9702 16.9047 21.9131C17.0164 21.856 17.1129 21.7731 17.1862 21.6714C17.2596 21.5696 17.3077 21.4519 17.3266 21.3279C17.3456 21.2039 17.3348 21.0772 17.2951 20.9582C17.2237 20.7439 17.0866 20.5574 16.9033 20.4254C16.7199 20.2933 16.4997 20.2222 16.2738 20.2222H15.0071C14.8446 20.2222 14.6878 20.1628 14.566 20.0553C14.4442 19.9477 14.3659 19.7994 14.3458 19.6382L14.2502 18.8733C13.5573 18.8831 12.808 18.8889 12.0004 18.8889ZM10.5846 13.5246C10.5093 13.918 10.7622 14.2989 11.1494 14.3754C11.5367 14.4519 11.9116 14.195 11.9869 13.8015L13.4098 6.3643C13.4851 5.97087 13.2322 5.58994 12.8449 5.51347C12.4577 5.43699 12.0828 5.69393 12.0075 6.08736L10.5846 13.5246ZM9.64793 7.88973C9.92688 8.17313 9.92688 8.63261 9.64793 8.91601L8.72444 9.85425L9.64793 10.7925C9.92688 11.0759 9.92688 11.5354 9.64793 11.8188C9.36899 12.1022 8.91673 12.1022 8.63778 11.8188L7.20921 10.3674C6.93026 10.084 6.93026 9.62451 7.20921 9.34111L8.63778 7.88973C8.91673 7.60633 9.36899 7.60633 9.64793 7.88973ZM14.3521 7.88973C14.0731 8.17313 14.0731 8.63261 14.3521 8.91601L15.2756 9.85425L14.3521 10.7925C14.0731 11.0759 14.0731 11.5354 14.3521 11.8188C14.631 12.1022 15.0833 12.1022 15.3622 11.8188L16.7908 10.3674C17.0697 10.084 17.0697 9.62451 16.7908 9.34111L15.3622 7.88973C15.0833 7.60633 14.631 7.60633 14.3521 7.88973Z" fill="currentColor"/>
</svg>
