<svg width="24" height="24" viewBox="0 0 24 24" fill="none" xmlns="http://www.w3.org/2000/svg">
<path fill-rule="evenodd" clip-rule="evenodd" d="M23.8725 5.40995C23.9566 5.28987 24.0011 5.14658 24 5C24.0011 4.85342 23.9566 4.71013 23.8725 4.59005C23.7885 4.46997 23.6692 4.37906 23.5311 4.32995L20.6985 3.30254L19.6683 0.466007C19.6176 0.329226 19.5262 0.21126 19.4064 0.127956C19.2867 0.0446514 19.1443 0 18.9985 0C18.8526 0 18.7103 0.0446514 18.5905 0.127956C18.4708 0.21126 18.3794 0.329226 18.3286 0.466007L17.3015 3.29942L15.0603 4.11393L14.4659 4.32995C14.3291 4.38072 14.2112 4.47214 14.1279 4.59192C14.0446 4.7117 14 4.8541 14 5C14 5.1459 14.0446 5.2883 14.1279 5.40808C14.2112 5.52786 14.3291 5.61928 14.4659 5.67005L17.2984 6.69746L18.3286 9.53399C18.3794 9.67077 18.4708 9.78874 18.5905 9.87204C18.6055 9.88246 18.6208 9.89227 18.6364 9.90146C18.7459 9.96581 18.8709 10 18.9985 10C19.1443 10 19.2867 9.95535 19.4064 9.87204C19.5262 9.78874 19.6176 9.67077 19.6683 9.53399L20.6981 6.70058L20.7144 6.69464L23.5311 5.67005C23.6692 5.62094 23.7885 5.53003 23.8725 5.40995ZM22 14C22 12.3074 21.9254 10.8882 21.7355 9.70141L21.548 10.2172L21.5434 10.2298C21.3506 10.7492 21.0035 11.1973 20.5486 11.5138C20.0937 11.8303 19.5527 12 18.9985 12C18.4442 12 17.9033 11.8303 17.4483 11.5138C16.9934 11.1973 16.6463 10.7492 16.4536 10.2298L16.4488 10.2167L15.7377 8.25885L13.7768 7.54761L13.7697 7.54498C13.2501 7.35206 12.8021 7.00474 12.4858 6.54979C12.1695 6.09484 12 5.55403 12 5C12 4.65587 12.0654 4.31684 12.1907 4.00032C12.1276 4.00011 12.064 4 12 4C3.765 4 2 5.765 2 14C2 22.235 3.765 24 12 24C20.235 24 22 22.235 22 14ZM6 12C6 11.4477 6.44772 11 7 11H11C11.5523 11 12 11.4477 12 12C12 12.5523 11.5523 13 11 13H7C6.44772 13 6 12.5523 6 12ZM7 16C6.44772 16 6 16.4477 6 17C6 17.5523 6.44771 18 7 18H17C17.5523 18 18 17.5523 18 17C18 16.4477 17.5523 16 17 16H7Z" fill="currentColor"/>
</svg>
