<svg xmlns="http://www.w3.org/2000/svg" width="24" height="24" viewBox="0 0 24 24" fill="none">
  <path fill-rule="evenodd" clip-rule="evenodd" d="M2.43771 17.6101C2.13254 16.2369 2 14.4249 2 12C2 9.57515 2.13254 7.76307 2.43771 6.38993C2.73783 5.03949 3.17768 4.23924 3.70846 3.70846C4.23924 3.17768 5.03949 2.73783 6.38993 2.43771C7.76307 2.13254 9.57515 2 12 2C14.4249 2 16.2369 2.13254 17.6101 2.43771C18.9605 2.73783 19.7608 3.17768 20.2915 3.70846C20.8223 4.23924 21.2622 5.03949 21.5623 6.38993C21.8675 7.76307 22 9.57515 22 12C22 13.1471 21.9703 14.1571 21.9068 15.0483C21.758 15.0452 21.5983 15.0382 21.4172 15.0303C21.2778 15.0242 21.1253 15.0175 20.9557 15.0116C20.5167 14.9964 20.0111 14.9897 19.4904 15.0325C18.4639 15.117 17.2453 15.4041 16.311 16.3412C15.3796 17.2755 15.1002 18.4585 15.0249 19.4749C14.9871 19.986 14.9989 20.4844 15.0174 20.9212C15.0234 21.0626 15.0298 21.1935 15.0358 21.3162C15.0465 21.5342 15.056 21.7266 15.0595 21.906C14.1655 21.9701 13.1519 22 12 22C9.57515 22 7.76307 21.8675 6.38993 21.5623C5.03949 21.2622 4.23924 20.8223 3.70846 20.2915C3.17768 19.7608 2.73783 18.9605 2.43771 17.6101ZM6 7C6 6.44772 6.44772 6 7 6H10C10.5523 6 11 6.44772 11 7C11 7.55228 10.5523 8 10 8H7C6.44772 8 6 7.55228 6 7ZM7 11C6.44772 11 6 11.4477 6 12C6 12.5523 6.44771 13 7 13H17C17.5523 13 18 12.5523 18 12C18 11.4477 17.5523 11 17 11H7Z" fill="currentColor"/>
  <path d="M21.2682 17.0259C21.4044 17.0318 21.5419 17.0377 21.6743 17.0422C21.6399 17.2395 21.6026 17.4286 21.5623 17.6101C21.2622 18.9605 20.8223 19.7608 20.2915 20.2915C19.7608 20.8223 18.9605 21.2622 17.6101 21.5623C17.4321 21.6019 17.2467 21.6385 17.0535 21.6724C17.0477 21.5056 17.0393 21.3334 17.031 21.165C17.0255 21.0529 17.0201 20.9424 17.0156 20.8364C16.998 20.4217 16.9904 20.0158 17.0195 19.6225C17.0781 18.83 17.2778 18.2043 17.7274 17.7533C18.1741 17.3052 18.8289 17.0937 19.6544 17.0258C20.0596 16.9925 20.4747 16.9962 20.8865 17.0104C21.009 17.0147 21.1381 17.0203 21.2682 17.0259Z" fill="currentColor"/>
</svg>