<svg width="1em" height="1em" viewBox="0 0 24 24" fill="none" xmlns="http://www.w3.org/2000/svg">
<path fill-rule="evenodd" clip-rule="evenodd" d="M11.9951 22C17.463 22 21.9901 17.4728 21.9901 12.0048C21.9901 6.54678 17.4532 2.0098 11.9853 2.0098C6.52718 2.0098 2 6.54678 2 12.0048C2 17.4728 6.53698 22 11.9951 22ZM14.5233 17.8256C14.3273 17.8256 14.1901 17.7373 13.9647 17.512L12.1616 15.8756H8.78099C7.32091 15.8756 6.50759 15.0524 6.50759 13.5924V9.78048C6.50759 8.34001 7.32091 7.51689 8.78099 7.51689H15.2092C16.6693 7.51689 17.4826 8.34001 17.4826 9.78048V13.5924C17.4826 15.0524 16.6693 15.8756 15.2092 15.8756H14.9642V17.316C14.9642 17.6198 14.7976 17.8256 14.5233 17.8256ZM12.4333 14.1875H12.65C13.0522 14.1875 13.438 14.0377 13.7224 13.771C14.0069 13.5044 14.1667 13.1427 14.1667 12.7656C14.1667 12.3885 14.0069 12.0269 13.7224 11.7602C13.438 11.4936 13.0522 11.3438 12.65 11.3438H11.35C11.1776 11.3438 11.0123 11.2795 10.8904 11.1653C10.7685 11.051 10.7 10.896 10.7 10.7344C10.7 10.5728 10.7685 10.4178 10.8904 10.3035C11.0123 10.1892 11.1776 10.125 11.35 10.125H13.3C13.4149 10.125 13.5251 10.0822 13.6064 10.006C13.6877 9.92983 13.7333 9.82649 13.7333 9.71875C13.7333 9.61101 13.6877 9.50767 13.6064 9.43149C13.5251 9.3553 13.4149 9.3125 13.3 9.3125H12.4333V8.90625C12.4333 8.79851 12.3877 8.69517 12.3064 8.61899C12.2251 8.5428 12.1149 8.5 12 8.5C11.8851 8.5 11.7749 8.5428 11.6936 8.61899C11.6123 8.69517 11.5667 8.79851 11.5667 8.90625V9.3125H11.35C10.9478 9.3125 10.562 9.4623 10.2776 9.72896C9.99312 9.99561 9.83333 10.3573 9.83333 10.7344C9.83333 11.1115 9.99312 11.4731 10.2776 11.7398C10.562 12.0064 10.9478 12.1562 11.35 12.1562H12.65C12.8224 12.1562 12.9877 12.2205 13.1096 12.3347C13.2315 12.449 13.3 12.604 13.3 12.7656C13.3 12.9272 13.2315 13.0822 13.1096 13.1965C12.9877 13.3108 12.8224 13.375 12.65 13.375H10.7C10.5851 13.375 10.4748 13.4178 10.3936 13.494C10.3123 13.5702 10.2667 13.6735 10.2667 13.7812C10.2667 13.889 10.3123 13.9923 10.3936 14.0685C10.4748 14.1447 10.5851 14.1875 10.7 14.1875H11.5667V14.5938C11.5667 14.7015 11.6123 14.8048 11.6936 14.881C11.7749 14.9572 11.8851 15 12 15C12.1149 15 12.2251 14.9572 12.3064 14.881C12.3877 14.8048 12.4333 14.7015 12.4333 14.5938V14.1875Z" fill="currentColor"/>
</svg>
