<svg width="24" height="24" viewBox="0 0 24 24" fill="none" xmlns="http://www.w3.org/2000/svg">
<path mask="url(#dollar_bubble_mask)" fill-rule="evenodd" clip-rule="evenodd" d="M22 10.8889C22 3.48151 20.235 2 12 2C3.765 2 2 3.56889 2 10.8889C2 15.609 2.83354 18.6667 6.58354 18.6667C8.58759 18.6667 9.18374 19.6186 9.73886 20.5051C10.2225 21.2774 10.675 22 12.0002 22C13.3255 22 13.778 21.2774 14.2616 20.5051C14.8167 19.6186 15.4129 18.6667 17.4169 18.6667C21.1669 18.6667 22 15.7037 22 10.8889Z" fill="currentColor"/>
<mask id="dollar_bubble_mask">
<path d="M22 10.8889C22 3.48151 20.235 2 12 2C3.765 2 2 3.56889 2 10.8889C2 15.609 2.83354 18.6667 6.58354 18.6667C8.58759 18.6667 9.18374 19.6186 9.73886 20.5051C10.2225 21.2774 10.675 22 12.0002 22C13.3255 22 13.778 21.2774 14.2616 20.5051C14.8167 19.6186 15.4129 18.6667 17.4169 18.6667C21.1669 18.6667 22 15.7037 22 10.8889Z" fill="white"/>
<path d="M13.2 14.75H12.8V15.375C12.8 15.5408 12.7157 15.6997 12.5657 15.8169C12.4157 15.9342 12.2122 16 12 16C11.7878 16 11.5843 15.9342 11.4343 15.8169C11.2843 15.6997 11.2 15.5408 11.2 15.375V14.75H9.6C9.38783 14.75 9.18434 14.6842 9.03431 14.5669C8.88429 14.4497 8.8 14.2908 8.8 14.125C8.8 13.9592 8.88429 13.8003 9.03431 13.6831C9.18434 13.5658 9.38783 13.5 9.6 13.5H13.2C13.5183 13.5 13.8235 13.4012 14.0485 13.2254C14.2736 13.0496 14.4 12.8111 14.4 12.5625C14.4 12.3139 14.2736 12.0754 14.0485 11.8996C13.8235 11.7238 13.5183 11.625 13.2 11.625H10.8C10.0574 11.625 9.3452 11.3945 8.8201 10.9843C8.295 10.5741 8 10.0177 8 9.4375C8 8.85734 8.295 8.30094 8.8201 7.8907C9.3452 7.48047 10.0574 7.25 10.8 7.25H11.2V6.625C11.2 6.45924 11.2843 6.30027 11.4343 6.18306C11.5843 6.06585 11.7878 6 12 6C12.2122 6 12.4157 6.06585 12.5657 6.18306C12.7157 6.30027 12.8 6.45924 12.8 6.625V7.25H14.4C14.6122 7.25 14.8157 7.31585 14.9657 7.43306C15.1157 7.55027 15.2 7.70924 15.2 7.875C15.2 8.04076 15.1157 8.19973 14.9657 8.31694C14.8157 8.43415 14.6122 8.5 14.4 8.5H10.8C10.4817 8.5 10.1765 8.59877 9.95147 8.77459C9.72643 8.9504 9.6 9.18886 9.6 9.4375C9.6 9.68614 9.72643 9.9246 9.95147 10.1004C10.1765 10.2762 10.4817 10.375 10.8 10.375H13.2C13.9426 10.375 14.6548 10.6055 15.1799 11.0157C15.705 11.4259 16 11.9823 16 12.5625C16 13.1427 15.705 13.6991 15.1799 14.1093C14.6548 14.5195 13.9426 14.75 13.2 14.75Z" fill="black"/>
</mask>
</svg>
