<svg width="20" height="20" viewBox="0 0 20 20" fill="none" xmlns="http://www.w3.org/2000/svg">
<path fill-rule="evenodd" clip-rule="evenodd" d="M18.3327 13.3999V6.59158C18.3327 3.64992 16.4402 1.66658 13.616 1.66658H6.39102C3.56602 1.66658 1.66602 3.64992 1.66602 6.59158V13.3999C1.66602 16.3499 3.56602 18.3333 6.39102 18.3333H13.616C16.4402 18.3333 18.3327 16.3499 18.3327 13.3999ZM10.6661 13.7499H10.9994C11.6183 13.7499 12.2118 13.5194 12.6493 13.1092C13.0869 12.699 13.3328 12.1426 13.3328 11.5624C13.3328 10.9823 13.0869 10.4259 12.6493 10.0156C12.2118 9.60539 11.6183 9.37492 10.9994 9.37492H8.99943C8.73422 9.37492 8.47986 9.27615 8.29233 9.10033C8.10479 8.92451 7.99943 8.68606 7.99943 8.43742C7.99943 8.18878 8.10479 7.95032 8.29233 7.77451C8.47986 7.59869 8.73422 7.49992 8.99943 7.49992H11.9994C12.1762 7.49992 12.3458 7.43407 12.4708 7.31686C12.5959 7.19965 12.6661 7.04068 12.6661 6.87492C12.6661 6.70916 12.5959 6.55019 12.4708 6.43298C12.3458 6.31577 12.1762 6.24992 11.9994 6.24992H10.6661V5.62492C10.6661 5.45916 10.5959 5.30019 10.4708 5.18298C10.3458 5.06577 10.1762 4.99992 9.99943 4.99992C9.82262 4.99992 9.65305 5.06577 9.52803 5.18298C9.403 5.30019 9.33277 5.45916 9.33277 5.62492V6.24992H8.99943C8.38059 6.24992 7.7871 6.48039 7.34952 6.89062C6.91193 7.30086 6.6661 7.85726 6.6661 8.43742C6.6661 9.01758 6.91193 9.57398 7.34952 9.98421C7.7871 10.3944 8.38059 10.6249 8.99943 10.6249H10.9994C11.2646 10.6249 11.519 10.7237 11.7065 10.8995C11.8941 11.0753 11.9994 11.3138 11.9994 11.5624C11.9994 11.8111 11.8941 12.0495 11.7065 12.2253C11.519 12.4011 11.2646 12.4999 10.9994 12.4999H7.99943C7.82262 12.4999 7.65305 12.5658 7.52803 12.683C7.403 12.8002 7.33277 12.9592 7.33277 13.1249C7.33277 13.2907 7.403 13.4496 7.52803 13.5669C7.65305 13.6841 7.82262 13.7499 7.99943 13.7499H9.33277V14.3749C9.33277 14.5407 9.403 14.6996 9.52803 14.8169C9.65305 14.9341 9.82262 14.9999 9.99943 14.9999C10.1762 14.9999 10.3458 14.9341 10.4708 14.8169C10.5959 14.6996 10.6661 14.5407 10.6661 14.3749V13.7499Z" fill="currentColor"/>
</svg>
