<svg width="24" height="24" viewBox="0 0 24 24" fill="none" xmlns="http://www.w3.org/2000/svg">
<path fill-rule="evenodd" clip-rule="evenodd" d="M9.80327 15.7526C10.4277 16.1759 11.1888 16.4319 11.9987 16.4319C14.1453 16.4319 15.8919 14.6696 15.8919 12.5037C15.8919 11.6866 15.6382 10.9186 15.2186 10.2885L14.1551 11.3617C14.3307 11.6964 14.4283 12.0902 14.4283 12.5037C14.4283 13.8525 13.3354 14.9551 11.9987 14.9551C11.5889 14.9551 11.1986 14.8567 10.8668 14.6795L9.80327 15.7526ZM18.4288 7.04952C19.8436 8.34907 21.0438 10.1015 21.9415 12.2083C22.0195 12.3954 22.0195 12.612 21.9415 12.7892C19.8534 17.6921 16.1358 20.6259 11.9987 20.6259H11.9889C10.1058 20.6259 8.30063 20.0056 6.71018 18.8735L4.81725 20.7834C4.67089 20.9311 4.4855 21 4.30011 21C4.11472 21 3.91957 20.9311 3.78297 20.7834C3.53903 20.5373 3.5 20.1435 3.69515 19.858L3.72442 19.8186L18.1556 5.25771C18.1751 5.23802 18.1946 5.21833 18.2044 5.19864L18.2044 5.19863C18.2239 5.17894 18.2434 5.15925 18.2532 5.13957L19.1704 4.21413C19.4631 3.92862 19.9217 3.92862 20.2046 4.21413C20.4974 4.49964 20.4974 4.9722 20.2046 5.25771L18.4288 7.04952ZM8.09836 12.5075C8.09836 12.7635 8.12764 13.0195 8.16667 13.2558L4.55643 16.8984C3.5807 15.7564 2.7318 14.3781 2.05854 12.793C1.98049 12.6158 1.98049 12.3992 2.05854 12.2122C4.14662 7.30933 7.86419 4.38534 11.9916 4.38534H12.0013C13.3966 4.38534 14.7529 4.72007 16.0018 5.35015L12.7429 8.63841C12.5087 8.59903 12.255 8.5695 12.0013 8.5695C9.84494 8.5695 8.09836 10.3318 8.09836 12.5075Z" fill="#343433"/>
</svg>
