<svg viewBox="0 0 20 20" fill="none" xmlns="http://www.w3.org/2000/svg">
<path fill-rule="evenodd" clip-rule="evenodd" d="M12.5544 15.5769C11.9368 16.1667 11.1192 16.4871 10.2507 16.4815H10.2498C9.38217 16.4741 8.57014 16.1399 7.96273 15.5408C6.71367 14.3102 6.73034 12.3214 8.0007 11.1093L10.0035 9.19454C10.0859 9.11584 10.197 9.07325 10.3136 9.07417C10.4294 9.0751 10.5405 9.11954 10.621 9.19917L12.5923 11.1445C13.8414 12.376 13.8247 14.3639 12.5544 15.5769ZM15.1905 6.28346L10.9377 1.93997C10.584 1.57794 9.9942 1.57794 9.62754 1.92609C9.42939 2.11497 9.32383 2.38256 9.34143 2.65571C9.34976 2.78534 9.34976 2.91311 9.34976 3.05015C9.34976 5.41772 8.7544 6.81771 8.42569 7.164C8.28588 7.0103 8.03218 6.6066 7.81829 5.78161C7.73496 5.45939 7.48496 5.20661 7.16367 5.11958C6.84052 5.03439 6.49793 5.12606 6.26368 5.36217L5.35257 6.2816C2.65722 9.0288 2.66093 13.5047 5.35998 16.2556C6.6683 17.5945 8.41181 18.3315 10.2701 18.3334H10.2775C12.1377 18.3334 13.8849 17.5963 15.1988 16.2565C17.8997 13.5047 17.8951 9.0288 15.1905 6.28346Z" fill="currentColor"/>
</svg>
