<svg width="20" height="20" viewBox="0 0 20 20" fill="none" xmlns="http://www.w3.org/2000/svg">
<path d="M7.61248 17.3105V14.7624C7.61248 14.1119 8.14364 13.5846 8.79886 13.5846H11.194C11.5087 13.5846 11.8104 13.7087 12.0329 13.9296C12.2554 14.1504 12.3804 14.45 12.3804 14.7624V17.3105C12.3784 17.5809 12.4852 17.8409 12.6771 18.0328C12.8691 18.2247 13.1302 18.3327 13.4026 18.3327H15.0367C15.7999 18.3346 16.5325 18.0351 17.0728 17.5C17.6132 16.965 17.9168 16.2385 17.9168 15.4809V8.22173C17.9168 7.60973 17.6436 7.02922 17.1707 6.63657L11.6118 2.22924C10.6449 1.45648 9.25942 1.48143 8.32132 2.2885L2.88934 6.63657C2.39411 7.01764 2.09812 7.59988 2.0835 8.22173V15.4735C2.0835 17.0526 3.37298 18.3327 4.96364 18.3327H6.5604C7.12618 18.3327 7.58599 17.8795 7.59009 17.3179L7.61248 17.3105Z" fill="currentColor"/>
</svg>
