<svg width="1em" height="1em" viewBox="0 0 24 24" fill="none" xmlns="http://www.w3.org/2000/svg">
<path fill-rule="evenodd" clip-rule="evenodd" d="M2.42999 13.6667C2.20597 13.6667 2.02183 13.4895 2.01584 13.2656C2.00504 12.8617 2 12.4401 2 12C2 3.765 3.765 2 12 2C20.235 2 22 3.765 22 12C22 12.4401 21.995 12.8617 21.9842 13.2656C21.9782 13.4895 21.794 13.6667 21.57 13.6667H2.42999ZM16.1667 10.3333C16.1667 9.87308 15.7936 9.5 15.3333 9.5H8.66667C8.20641 9.5 7.83333 9.87308 7.83333 10.3333C7.83333 10.7936 8.20641 11.1667 8.66667 11.1667H15.3333C15.7936 11.1667 16.1667 10.7936 16.1667 10.3333Z" fill="currentColor"/>
<path d="M2.60107 15.3333C2.35428 15.3333 2.16112 15.5475 2.19217 15.7923C2.828 20.8048 5.22329 22 12 22C18.7767 22 21.172 20.8048 21.8078 15.7923C21.8389 15.5475 21.6457 15.3333 21.3989 15.3333H2.60107Z" fill="currentColor"/>
</svg>