<svg xmlns="http://www.w3.org/2000/svg" width="24" height="24" viewBox="0 0 24 24" fill="none">
  <path d="M8.66667 13.6667C7.74619 13.6667 7 12.9205 7 12C7 11.0795 7.74619 10.3333 8.66667 10.3333C9.58714 10.3333 10.3333 11.0795 10.3333 12C10.3333 12.9205 9.58714 13.6667 8.66667 13.6667Z" fill="currentColor"/>
  <path fill-rule="evenodd" clip-rule="evenodd" d="M2 12C2 20.235 3.765 22 12 22C20.235 22 22 20.235 22 12C22 3.765 20.235 2 12 2C3.765 2 2 3.765 2 12ZM8.66667 15.3333C6.82572 15.3333 5.33333 13.8409 5.33333 12C5.33333 10.1591 6.82572 8.66667 8.66667 8.66667C10.2222 8.66667 11.5288 9.73211 11.8966 11.173C11.9305 11.1688 11.965 11.1667 12 11.1667H17.8333C18.2936 11.1667 18.6667 11.5398 18.6667 12V14.5C18.6667 14.9602 18.2936 15.3333 17.8333 15.3333C17.3731 15.3333 17 14.9602 17 14.5V12.8333H15.3333V13.6667C15.3333 14.1269 14.9602 14.5 14.5 14.5C14.0398 14.5 13.6667 14.1269 13.6667 13.6667V12.8333H12C11.965 12.8333 11.9305 12.8312 11.8966 12.827C11.5288 14.2679 10.2222 15.3333 8.66667 15.3333Z" fill="currentColor"/>
</svg>