<svg width="16" height="16" viewBox="0 0 16 16" fill="none" xmlns="http://www.w3.org/2000/svg">
  <path d="M5.77794 9.11176C5.16429 9.11176 4.66683 8.6143 4.66683 8.00065C4.66683 7.387 5.16429 6.88954 5.77794 6.88954C6.39159 6.88954 6.88905 7.387 6.88905 8.00065C6.88905 8.6143 6.39159 9.11176 5.77794 9.11176Z" fill="#017AFF"/>
  <path fill-rule="evenodd" clip-rule="evenodd" d="M1.3335 8.00065C1.3335 13.4907 2.51016 14.6673 8.00016 14.6673C13.4902 14.6673 14.6668 13.4907 14.6668 8.00065C14.6668 2.51065 13.4902 1.33398 8.00016 1.33398C2.51016 1.33398 1.3335 2.51065 1.3335 8.00065ZM5.77794 10.2229C4.55064 10.2229 3.55572 9.22795 3.55572 8.00065C3.55572 6.77335 4.55064 5.77843 5.77794 5.77843C6.81493 5.77843 7.68603 6.48872 7.93124 7.44933C7.95382 7.44654 7.97682 7.4451 8.00016 7.4451H11.8891C12.1959 7.4451 12.4446 7.69383 12.4446 8.00065V9.66732C12.4446 9.97414 12.1959 10.2229 11.8891 10.2229C11.5822 10.2229 11.3335 9.97414 11.3335 9.66732V8.55621H10.2224V9.11176C10.2224 9.41859 9.97365 9.66732 9.66683 9.66732C9.36001 9.66732 9.11127 9.41859 9.11127 9.11176V8.55621H8.00016C7.97682 8.55621 7.95382 8.55477 7.93124 8.55197C7.68603 9.51258 6.81493 10.2229 5.77794 10.2229Z" fill="#017AFF"/>
</svg>