<svg width="1em" height="1em" viewBox="0 0 24 24" fill="none" xmlns="http://www.w3.org/2000/svg">
<path fill-rule="evenodd" clip-rule="evenodd" d="M21.9901 12.0048C21.9901 17.4728 17.463 22 11.9951 22C6.53699 22 2 17.4728 2 12.0048C2 6.54678 6.52718 2.0098 11.9853 2.0098C17.4532 2.0098 21.9901 6.54678 21.9901 12.0048ZM8.04605 8.11464C6.39 8.11464 5.1945 9.31993 5.1945 10.976C5.1945 12.6419 6.3802 13.8275 8.04605 13.8275H8.37922C8.32042 13.5629 8.29103 13.0632 8.33022 12.73H8.10484C7.06613 12.73 6.3508 12.0245 6.3508 10.976C6.3508 9.93727 7.07593 9.21214 8.10484 9.21214H12.1813C13.22 9.21214 13.9353 9.93727 13.9353 10.976C13.9353 12.0245 13.22 12.73 12.1813 12.73H10.6624C10.5546 13.0338 10.584 13.5336 10.8976 13.8275H12.2303C13.8961 13.8275 15.0818 12.6419 15.0818 10.976C15.0818 9.31993 13.8961 8.11464 12.2303 8.11464H8.04605ZM11.7305 10.2606C10.0745 10.2606 8.88877 11.4561 8.88877 13.1122C8.88877 14.778 10.0745 15.9735 11.7305 15.9735H15.9245C17.5806 15.9735 18.7663 14.778 18.7663 13.1122C18.7663 11.4561 17.5806 10.2606 15.9245 10.2606H15.5914C15.6404 10.5546 15.6894 10.878 15.6404 11.3581H15.8559C16.9044 11.3581 17.61 12.0735 17.61 13.1122C17.61 14.1508 16.8946 14.876 15.8559 14.876H11.7893C10.7506 14.876 10.0353 14.1508 10.0353 13.1122C10.0353 12.0735 10.7506 11.3581 11.7893 11.3581H13.2886C13.4159 11.074 13.3768 10.535 13.073 10.2606H11.7305Z" fill="currentColor"/>
</svg>
