<svg width="24" height="24" viewBox="0 0 24 24" fill="none" xmlns="http://www.w3.org/2000/svg">
<path mask="url(#link_squircled_mask)" fill-rule="evenodd" clip-rule="evenodd" d="M12 22C3.765 22 2 20.235 2 12C2 3.765 3.765 2 12 2C20.235 2 22 3.765 22 12C22 20.235 20.235 22 12 22Z" fill="currentColor"/>
<mask id="link_squircled_mask">
<path d="M12 22C3.765 22 2 20.235 2 12C2 3.765 3.765 2 12 2C20.235 2 22 3.765 22 12C22 20.235 20.235 22 12 22Z" fill="white"/>
<path fill="black" d="M20 13.3591C20 15.4663 18.5906 17 16.6383 17L11.7054 17C9.74149 17 8.34373 15.4663 8.34373 13.3591C8.34373 11.2393 9.74149 9.73068 11.7054 9.73068L13.2766 9.73068C13.6462 10.1047 13.6808 10.7406 13.5538 11.1272L11.7632 11.1272C10.5386 11.1272 9.69535 12.0249 9.69535 13.3591C9.69535 14.6808 10.5386 15.6035 11.7632 15.6035L16.569 15.6035C17.782 15.6035 18.6368 14.6808 18.6368 13.3591C18.6368 12.0249 17.7935 11.1272 16.569 11.1272L16.3033 11.1272C16.3495 10.7032 16.3148 10.0673 16.2455 9.73068L16.6383 9.73068C18.6022 9.73068 20 11.2393 20 13.3591ZM15.6448 10.6408C15.6448 12.7481 14.2469 14.2693 12.2946 14.2693L10.7119 14.2693C10.3538 13.9202 10.3076 13.2344 10.4578 12.8728L12.2253 12.8728C13.4499 12.8728 14.2931 11.9625 14.2931 10.6408C14.2931 9.31922 13.4499 8.39651 12.2253 8.39651L7.43107 8.39651C6.20652 8.39651 5.36316 9.31922 5.36316 10.6408C5.36316 11.9625 6.19498 12.8728 7.43107 12.8728L7.68521 12.8728C7.62745 13.4838 7.68521 13.8952 7.74298 14.2693L7.35024 14.2693C5.39786 14.2693 4 12.7481 4 10.6408C4 8.52122 5.39786 7 7.35024 7L12.2946 7C14.2469 7 15.6448 8.52122 15.6448 10.6408Z" />
</mask>
</svg>
