<svg width="1em" height="1em" viewBox="0 0 20 20" fill="none" xmlns="http://www.w3.org/2000/svg">
<path fill-rule="evenodd" clip-rule="evenodd" d="M8.07041 9.29286C7.66937 9.29286 7.35227 9.60453 7.35227 9.9987C7.35227 10.3837 7.66937 10.7045 8.07041 10.7045H13.6663V15.0862C13.6663 17.332 11.8104 19.1654 9.51603 19.1654H4.974C2.68899 19.1654 0.833008 17.3412 0.833008 15.0954V4.9112C0.833008 2.6562 2.69832 0.832031 4.98332 0.832031H9.53468C11.8104 0.832031 13.6663 2.6562 13.6663 4.90203V9.29286H8.07041ZM16.994 6.82721L19.6707 9.49471C19.8082 9.63221 19.8815 9.80638 19.8815 9.99888C19.8815 10.1822 19.8082 10.3655 19.6707 10.4939L16.994 13.1614C16.8565 13.2989 16.6732 13.3722 16.499 13.3722C16.3157 13.3722 16.1324 13.2989 15.9949 13.1614C15.7199 12.8864 15.7199 12.4372 15.9949 12.1622L17.4615 10.7047H13.6665V9.29305H17.4615L15.9949 7.83555C15.7199 7.56055 15.7199 7.11138 15.9949 6.83638C16.2699 6.55221 16.719 6.55221 16.994 6.82721Z" fill="currentColor"/>
</svg>
