<svg width="1em" height="1em" viewBox="0 0 20 21" fill="none" xmlns="http://www.w3.org/2000/svg">
<path fill-rule="evenodd" clip-rule="evenodd" d="M10.0003 17.832C3.13783 17.832 1.66699 16.5083 1.66699 10.332C1.66699 4.15578 3.13783 2.83203 10.0003 2.83203C16.8628 2.83203 18.3337 4.15578 18.3337 10.332C18.3337 16.5083 16.8628 17.832 10.0003 17.832ZM15.4423 8.28223L15.509 8.21557C15.7082 7.9739 15.7082 7.6239 15.4998 7.38223C15.384 7.25807 15.2248 7.18223 15.059 7.16557C14.884 7.1564 14.7173 7.21557 14.5915 7.33223L10.834 10.3322C10.3507 10.7331 9.65816 10.7331 9.16732 10.3322L5.41732 7.33223C5.15816 7.14057 4.79982 7.16557 4.58399 7.39057C4.35899 7.61557 4.33399 7.9739 4.52482 8.2239L4.63399 8.33223L8.42566 11.2906C8.89232 11.6572 9.45816 11.8572 10.0507 11.8572C10.6415 11.8572 11.2173 11.6572 11.6832 11.2906L15.4423 8.28223Z" fill="currentColor"/>
</svg>