<svg xmlns="http://www.w3.org/2000/svg" width="24" height="24" viewBox="0 0 24 24" fill="none">
  <path d="M6.58333 11.1667C2.80896 11.1667 2 10.3577 2 6.58333C2 2.80896 2.80896 2 6.58333 2C10.3577 2 11.1667 2.80896 11.1667 6.58333C11.1667 10.3577 10.3577 11.1667 6.58333 11.1667Z" fill="currentColor"/>
  <path d="M6.58333 22C2.80896 22 2 21.191 2 17.4167C2 13.6423 2.80896 12.8333 6.58333 12.8333C10.3577 12.8333 11.1667 13.6423 11.1667 17.4167C11.1667 21.191 10.3577 22 6.58333 22Z" fill="currentColor"/>
  <path d="M12.8333 17.4167C12.8333 21.191 13.6423 22 17.4167 22C21.191 22 22 21.191 22 17.4167C22 13.6423 21.191 12.8333 17.4167 12.8333C13.6423 12.8333 12.8333 13.6423 12.8333 17.4167Z" fill="currentColor"/>
  <path d="M18.25 3.66667C18.25 3.20643 17.8769 2.83333 17.4167 2.83333C16.9564 2.83333 16.5833 3.20643 16.5833 3.66667V5.75H14.5C14.0398 5.75 13.6667 6.1231 13.6667 6.58333C13.6667 7.04357 14.0398 7.41667 14.5 7.41667H16.5833V9.5C16.5833 9.96024 16.9564 10.3333 17.4167 10.3333C17.8769 10.3333 18.25 9.96024 18.25 9.5V7.41667H20.3333C20.7936 7.41667 21.1667 7.04357 21.1667 6.58333C21.1667 6.1231 20.7936 5.75 20.3333 5.75H18.25V3.66667Z" fill="currentColor"/>
</svg>