<svg width="24" height="24" viewBox="0 0 24 24" fill="none" xmlns="http://www.w3.org/2000/svg">
<path d="M21.4354 2.58223C20.9352 2.06884 20.1949 1.87758 19.5046 2.07891L3.408 6.75977C2.6797 6.9621 2.16349 7.54293 2.02443 8.2808C1.88237 9.03175 2.37858 9.98503 3.02684 10.3837L8.0599 13.4771C8.57611 13.7941 9.24238 13.7146 9.66956 13.2838L15.4329 7.48455C15.723 7.18256 16.2032 7.18256 16.4934 7.48455C16.7835 7.77647 16.7835 8.24959 16.4934 8.55158L10.72 14.3518C10.2918 14.7817 10.2118 15.4511 10.5269 15.9705L13.6022 21.054C13.9623 21.658 14.5826 22.0002 15.2628 22.0002C15.3429 22.0002 15.4329 22.0002 15.513 21.9902C16.2933 21.8895 16.9135 21.356 17.1436 20.601L21.9156 4.52504C22.1257 3.84052 21.9356 3.09561 21.4354 2.58223Z" fill="currentColor"/>
</svg>
