<svg width="1em" height="1em" viewBox="0 0 24 24" fill="none" xmlns="http://www.w3.org/2000/svg">
<path fill-rule="evenodd" clip-rule="evenodd" d="M21.4935 12.2532C21.4935 17.5758 17.0789 22 11.7468 22C6.42428 22 2 17.5758 2 12.2532C2 6.92119 6.41472 2.50646 11.7372 2.50646C17.0693 2.50646 21.4935 6.92119 21.4935 12.2532ZM11.1352 17.4993C11.3073 18.0536 11.4602 18.4549 11.9666 18.4549C12.3679 18.4549 12.6546 18.13 12.8552 17.6044L16.4578 8.18254C16.5533 7.92453 16.601 7.71431 16.601 7.5232C16.601 7.16963 16.3908 6.94985 16.0373 6.94985C15.8462 6.94985 15.636 7.00718 15.3779 7.10274L5.90827 10.7339C5.4496 10.8964 5.09604 11.183 5.09604 11.5844C5.09604 12.0813 5.46871 12.2532 6.00383 12.4157L8.9852 13.3139C9.33876 13.419 9.52988 13.419 9.76876 13.2088L15.7889 7.56142C15.8653 7.49453 15.9418 7.51364 15.9991 7.55186C16.066 7.6092 16.066 7.6952 15.9991 7.77164L10.3899 13.8204C10.1701 14.0401 10.151 14.2217 10.2466 14.6039L11.1352 17.4993Z" fill="currentColor"/>
</svg>
