<svg width="12" height="12" viewBox="0 0 12 12" fill="none" xmlns="http://www.w3.org/2000/svg">
<g >
<path d="M5.97655 10.9863C8.71186 10.9863 10.9765 8.72161 10.9765 5.9863C10.9765 3.25593 8.70696 0.986328 5.97165 0.986328C3.24127 0.986328 0.976562 3.25593 0.976562 5.9863C0.976562 8.72161 3.24617 10.9863 5.97655 10.9863Z" fill="currentColor"/>
<path d="M8.84513 5.77024L6.00476 9.5L3.15821 5.77333L3.186 5.74857C3.25083 5.68357 3.32802 5.63095 3.4052 5.58762L5.61267 8.47548L4.94888 6.40476L5.15265 6.03643L6.00476 8.68905L6.84761 6.03333L7.05446 6.40476L6.39686 8.47548L8.60123 5.58452C8.67842 5.63095 8.75251 5.67429 8.81426 5.73929L8.84513 5.77024ZM3.84361 5.16667C4.30671 5.16667 4.71116 5.43286 4.92418 5.81667C5.02872 5.62039 5.18446 5.45626 5.37477 5.34178C5.56508 5.2273 5.78282 5.16678 6.00476 5.16667C6.46787 5.16667 6.86922 5.42976 7.08534 5.81357C7.18923 5.61699 7.3449 5.45273 7.53542 5.33867C7.72594 5.22461 7.94402 5.16512 8.16591 5.16667C8.50244 5.16667 8.81117 5.29667 9.03346 5.51952C8.76486 4.08333 7.51139 3 6.00476 3C4.48887 3 3.2354 4.08333 2.9668 5.52881C3.19217 5.30595 3.50091 5.16667 3.84361 5.16667Z" fill="white"/>
</g>
</svg>
