<svg width="24" height="24" viewBox="0 0 24 24" fill="none" xmlns="http://www.w3.org/2000/svg">
<path fill-rule="evenodd" clip-rule="evenodd" d="M0.999969 3.27882C0.999969 1.98239 2.09368 1.00024 3.35711 1.00024H20.6428C21.9063 1.00024 23 1.98239 23 3.27882V12.0788C23 13.3752 21.9063 14.3574 20.6428 14.3574H3.35711C2.09368 14.3574 0.999969 13.3752 0.999969 12.0788V3.27882ZM15.1428 7.67882C15.1428 8.51235 14.8117 9.31175 14.2223 9.90115C13.6329 10.4906 12.8335 10.8217 12 10.8217C11.1664 10.8217 10.367 10.4906 9.77763 9.90115C9.18823 9.31175 8.85711 8.51235 8.85711 7.67882C8.85711 6.84528 9.18823 6.04588 9.77763 5.45648C10.367 4.86708 11.1664 4.53596 12 4.53596C12.8335 4.53596 13.6329 4.86708 14.2223 5.45648C14.8117 6.04588 15.1428 6.84528 15.1428 7.67882ZM6.49997 8.07167C6.49997 7.9169 6.46948 7.76364 6.41026 7.62065C6.35103 7.47766 6.26421 7.34774 6.15477 7.2383C6.04533 7.12886 5.91541 7.04204 5.77242 6.98282C5.62943 6.92359 5.47617 6.8931 5.3214 6.8931C5.16663 6.8931 5.01337 6.92359 4.87038 6.98282C4.72739 7.04204 4.59746 7.12886 4.48802 7.2383C4.37858 7.34774 4.29177 7.47766 4.23254 7.62065C4.17331 7.76364 4.14283 7.9169 4.14283 8.07167C4.14283 8.38425 4.267 8.68402 4.48802 8.90505C4.70905 9.12607 5.00882 9.25025 5.3214 9.25025C5.63397 9.25025 5.93375 9.12607 6.15477 8.90505C6.3758 8.68402 6.49997 8.38425 6.49997 8.07167ZM18.6785 6.8931C18.9911 6.8931 19.2909 7.01727 19.5119 7.2383C19.7329 7.45932 19.8571 7.7591 19.8571 8.07167C19.8571 8.38425 19.7329 8.68402 19.5119 8.90505C19.2909 9.12607 18.9911 9.25025 18.6785 9.25025C18.366 9.25025 18.0662 9.12607 17.8452 8.90505C17.6241 8.68402 17.5 8.38425 17.5 8.07167C17.5 7.7591 17.6241 7.45932 17.8452 7.2383C18.0662 7.01727 18.366 6.8931 18.6785 6.8931Z" fill="currentColor"/>
<path fill-rule="evenodd" clip-rule="evenodd" d="M9.05355 17.5002C9.05355 17.2398 8.95007 16.9899 8.76589 16.8058C8.5817 16.6216 8.33189 16.5181 8.07141 16.5181C7.81093 16.5181 7.56111 16.6216 7.37693 16.8058C7.19274 16.9899 7.08926 17.2398 7.08926 17.5002V20.6431C7.08926 20.9036 7.19274 21.1534 7.37693 21.3376C7.56111 21.5218 7.81093 21.6252 8.07141 21.6252C8.33189 21.6252 8.5817 21.5218 8.76589 21.3376C8.95007 21.1534 9.05355 20.9036 9.05355 20.6431V17.5002ZM15.9285 16.5181C16.4707 16.5181 16.9107 16.9581 16.9107 17.5002V20.6431C16.9107 20.7721 16.8853 20.8998 16.8359 21.0189C16.7866 21.1381 16.7142 21.2464 16.623 21.3376C16.5318 21.4288 16.4236 21.5011 16.3044 21.5505C16.1852 21.5998 16.0575 21.6252 15.9285 21.6252C15.7996 21.6252 15.6719 21.5998 15.5527 21.5505C15.4335 21.5011 15.3253 21.4288 15.2341 21.3376C15.1429 21.2464 15.0705 21.1381 15.0212 21.0189C14.9718 20.8998 14.9464 20.7721 14.9464 20.6431V17.5002C14.9464 16.9581 15.3864 16.5181 15.9285 16.5181ZM12 17.6967C12.5421 17.6967 12.9821 18.1367 12.9821 18.6788V21.8217C12.9821 22.0821 12.8786 22.332 12.6945 22.5161C12.5103 22.7003 12.2605 22.8038 12 22.8038C11.7395 22.8038 11.4897 22.7003 11.3055 22.5161C11.1213 22.332 11.0178 22.0821 11.0178 21.8217V18.6788C11.0178 18.1367 11.4578 17.6967 12 17.6967Z" fill="currentColor"/>
</svg>
