<svg width="24" height="24" viewBox="0 0 24 24" fill="none" xmlns="http://www.w3.org/2000/svg">
<path fill-rule="evenodd" clip-rule="evenodd" d="M12 22C17.5228 22 22 17.5228 22 12C22 6.47715 17.5228 2 12 2C6.47715 2 2 6.47715 2 12C2 17.5228 6.47715 22 12 22ZM8.66667 11.1667C8.20643 11.1667 7.83333 11.5398 7.83333 12C7.83333 12.4602 8.20643 12.8333 8.66667 12.8333H11.1667V15.3333C11.1667 15.7936 11.5398 16.1667 12 16.1667C12.4602 16.1667 12.8333 15.7936 12.8333 15.3333V12.8333H15.3333C15.7936 12.8333 16.1667 12.4602 16.1667 12C16.1667 11.5398 15.7936 11.1667 15.3333 11.1667H12.8333V8.66667C12.8333 8.20643 12.4602 7.83333 12 7.83333C11.5398 7.83333 11.1667 8.20643 11.1667 8.66667V11.1667H8.66667Z" fill="#343433"/>
</svg>
