<svg width="1em" height="1em" viewBox="0 0 20 20" fill="currentColor" xmlns="http://www.w3.org/2000/svg">
<path d="M5.17647 17.2727C4.75294 17.2727 4.3905 17.122 4.08915 16.8207C3.78729 16.5188 3.63636 16.1561 3.63636 15.7326V4.26737C3.63636 3.84384 3.78729 3.48115 4.08915 3.17929C4.3905 2.87794 4.75294 2.72726 5.17647 2.72726H15.1872C15.6107 2.72726 15.9734 2.87794 16.2752 3.17929C16.5766 3.48115 16.7273 3.84384 16.7273 4.26737V15.7326C16.7273 16.1561 16.5766 16.5188 16.2752 16.8207C15.9734 17.122 15.6107 17.2727 15.1872 17.2727H5.17647ZM10.3743 9.31122L11.7219 8.50267L13.0695 9.31122C13.1979 9.38823 13.3262 9.38823 13.4545 9.31122C13.5829 9.23422 13.6471 9.12513 13.6471 8.98395V4.26737H9.79679V8.98395C9.79679 9.12513 9.86096 9.23422 9.9893 9.31122C10.1176 9.38823 10.246 9.38823 10.3743 9.31122Z" fill="currentColor"/>
</svg>
