<svg width="1em" height="1em" viewBox="0 0 23 24" fill="none" xmlns="http://www.w3.org/2000/svg">
<path fill-rule="evenodd" clip-rule="evenodd" d="M20.3333 1.33304C21.1617 1.33304 21.8333 2.00461 21.8333 2.83304V7.83304C21.8333 8.66147 21.1617 9.33304 20.3333 9.33304H15.3333C14.5049 9.33304 13.8333 8.66147 13.8333 7.83304C13.8333 7.00461 14.5049 6.33304 15.3333 6.33304H16.3502C15.4741 5.57219 14.0285 4.99969 11.5833 4.99969C8.88461 4.99969 7.40352 5.6971 6.5618 6.57541C5.69724 7.47755 5 9.09763 5 11.9997V12H2V11.9997C2 5.33303 5.19444 1.99969 11.5833 1.99969C14.8197 1.99969 17.2364 2.85505 18.8333 4.56575V2.83304C18.8333 2.00461 19.5049 1.33304 20.3333 1.33304ZM4.33331 19.4336V21.1664C4.33331 21.9948 3.66174 22.6664 2.83331 22.6664C2.00489 22.6664 1.33331 21.9948 1.33331 21.1664V16.1664C1.33331 15.3379 2.00489 14.6664 2.83331 14.6664H7.83331C8.66174 14.6664 9.33331 15.3379 9.33331 16.1664C9.33331 16.9948 8.66174 17.6664 7.83331 17.6664H6.81649C7.69261 18.4272 9.13819 18.9997 11.5833 18.9997C14.2821 18.9997 15.7632 18.3023 16.6049 17.424C17.4694 16.5219 18.1666 14.9019 18.1667 12H21.1667C21.1666 18.6665 17.9721 21.9997 11.5833 21.9997C8.34693 21.9997 5.93026 21.1443 4.33331 19.4336Z" fill="currentColor"/>
</svg>
