<svg width="12" height="12" viewBox="0 0 12 12" fill="none" xmlns="http://www.w3.org/2000/svg">
<g>
<path fill-rule="evenodd" clip-rule="evenodd" d="M3.35412 8.68934C2.9013 8.23653 2.54346 7.43545 2.54346 6C2.54346 4.56455 2.9013 3.76347 3.35412 3.31066C3.80693 2.85785 4.60801 2.5 6.04346 2.5C7.47891 2.5 8.27998 2.85785 8.7328 3.31066C8.86575 3.44361 8.99051 3.60658 9.10043 3.80682C9.26455 4.10577 9.55463 4.33333 9.89566 4.33333C10.3978 4.33333 10.7762 3.8622 10.573 3.40298C9.86413 1.80099 8.35429 1 6.04346 1C2.71012 1 1.04346 2.66667 1.04346 6C1.04346 6.23313 1.23619 6.41667 1.46932 6.41667H1.72129C2.06647 6.41667 2.34629 6.69649 2.34629 7.04167V7.16239C2.34629 7.44089 2.12052 7.66667 1.84201 7.66667C1.51891 7.66667 1.2773 7.96773 1.3851 8.27232C2.02866 10.0908 3.58144 11 6.04346 11C9.37679 11 11.0435 9.33333 11.0435 6C11.0435 5.76687 10.8507 5.58333 10.6176 5.58333H9.94959C9.72304 5.58333 9.54346 5.77345 9.54346 6C9.54346 7.43545 9.18561 8.23653 8.7328 8.68934C8.27998 9.14215 7.47891 9.5 6.04346 9.5C4.60801 9.5 3.80693 9.14215 3.35412 8.68934Z" fill="currentColor"/>
<path d="M10.6087 1.41602V3.91602H8" stroke="#7A5AF8" stroke-width="1.5" stroke-linecap="round" stroke-linejoin="round"/>
<path d="M1.47822 10.584L1.47822 8.08398L4.08691 8.08398" stroke="#7A5AF8" stroke-width="1.5" stroke-linecap="round" stroke-linejoin="round"/>
</g>
</svg>
