<svg width="20" height="20" viewBox="0 0 20 20" fill="none" xmlns="http://www.w3.org/2000/svg">
<path d="M11.3887 9.3049C11.3887 10.072 10.7669 10.6938 9.99984 10.6938C9.23278 10.6938 8.61095 10.072 8.61095 9.3049C8.61095 8.53784 9.23278 7.91602 9.99984 7.91602C10.7669 7.91602 11.3887 8.53784 11.3887 9.3049Z" fill="currentColor"/>
<path fill-rule="evenodd" clip-rule="evenodd" d="M5.83317 16.641C2.49893 15.9726 1.6665 14.0374 1.6665 9.3049C1.6665 3.01428 3.13734 1.66602 9.99984 1.66602C16.8623 1.66602 18.3332 3.01428 18.3332 9.3049C18.3332 14.0374 17.5007 15.9726 14.1665 16.641V17.6382C14.1665 18.0218 13.8556 18.3327 13.4721 18.3327C13.0885 18.3327 12.7776 18.0218 12.7776 17.6382V16.8369C11.9679 16.9124 11.0466 16.9438 9.99984 16.9438C8.95311 16.9438 8.03182 16.9124 7.22206 16.8369V17.6382C7.22206 18.0218 6.91115 18.3327 6.52762 18.3327C6.14408 18.3327 5.83317 18.0218 5.83317 17.6382V16.641ZM10.689 6.61329C10.6925 6.58506 10.6943 6.5563 10.6943 6.52713V5.83268C10.6943 5.44915 10.3834 5.13824 9.99984 5.13824C9.61631 5.13824 9.30539 5.44915 9.30539 5.83268V6.52713C9.30539 6.5563 9.30719 6.58506 9.31069 6.61329C8.33029 6.86355 7.55848 7.63535 7.30822 8.61575C7.27999 8.61226 7.25123 8.61046 7.22206 8.61046H6.52762C6.14408 8.61046 5.83317 8.92137 5.83317 9.3049C5.83317 9.68844 6.14408 9.99935 6.52762 9.99935H7.22206C7.25123 9.99935 7.27999 9.99755 7.30822 9.99406C7.55848 10.9745 8.33029 11.7463 9.31069 11.9965C9.30719 12.0248 9.30539 12.0535 9.30539 12.0827V12.7771C9.30539 13.1607 9.61631 13.4716 9.99984 13.4716C10.3834 13.4716 10.6943 13.1607 10.6943 12.7771V12.0827C10.6943 12.0535 10.6925 12.0248 10.689 11.9965C11.6694 11.7463 12.4412 10.9745 12.6915 9.99406C12.7197 9.99755 12.7484 9.99935 12.7776 9.99935H13.4721C13.8556 9.99935 14.1665 9.68844 14.1665 9.3049C14.1665 8.92137 13.8556 8.61046 13.4721 8.61046H12.7776C12.7484 8.61046 12.7197 8.61226 12.6915 8.61575C12.4412 7.63536 11.6694 6.86355 10.689 6.61329Z" fill="currentColor"/>
</svg>
