<svg width="1em" height="1em" viewBox="0 0 24 24" fill="none" xmlns="http://www.w3.org/2000/svg">
<path fill-rule="evenodd" clip-rule="evenodd" d="M12 2C20.235 2 22 3.765 22 12C20.3333 20.3333 12 22 12 22C12 22 3.66667 20.3333 2 12C2 3.765 3.765 2 12 2ZM15.9226 8.91076C16.248 9.23619 16.248 9.76383 15.9226 10.0893L11.7559 14.2559C11.4305 14.5814 10.9029 14.5814 10.5774 14.2559L8.91076 12.5893C8.58532 12.2638 8.58532 11.7362 8.91076 11.4108C9.23619 11.0853 9.76383 11.0853 10.0893 11.4108L11.1667 12.4882L14.7441 8.91076C15.0695 8.58532 15.5972 8.58532 15.9226 8.91076Z" fill="currentColor"/>
</svg>
