<svg width="1em" height="1em" viewBox="0 0 24 24" fill="none" xmlns="http://www.w3.org/2000/svg">
<path fill-rule="evenodd" clip-rule="evenodd" d="M12.0001 2.00015C6.4701 2.00015 2.0001 6.48015 2.0001 12.0002C2.0001 17.5202 6.4701 22.0002 12.0001 22.0002C17.5201 22.0002 22.0001 17.5202 22.0001 12.0002C22.0001 6.48015 17.5201 2.00015 12.0001 2.00015ZM6.46967 10.3874C6.76256 10.6803 7.23744 10.6803 7.53033 10.3874L8.10704 9.81066L8.10704 13.9425C8.10704 14.3567 8.44283 14.6925 8.85704 14.6925C9.27125 14.6925 9.60704 14.3567 9.60704 13.9425L9.60704 9.81066L10.1837 10.3874C10.4766 10.6803 10.9515 10.6803 11.2444 10.3874C11.5373 10.0945 11.5373 9.6196 11.2444 9.32671L9.38737 7.46967C9.09448 7.17678 8.6196 7.17678 8.32671 7.46967L6.46967 9.32671C6.17678 9.6196 6.17678 10.0945 6.46967 10.3874ZM16.4168 13.6126C16.7097 13.3197 17.1846 13.3197 17.4775 13.6126C17.7704 13.9055 17.7704 14.3804 17.4775 14.6733L15.6204 16.5303C15.3275 16.8232 14.8527 16.8232 14.5598 16.5303L12.7027 14.6733C12.4098 14.3804 12.4098 13.9055 12.7027 13.6126C12.9956 13.3197 13.4705 13.3197 13.7634 13.6126L14.3401 14.1893V10.0575C14.3401 9.64326 14.6759 9.30747 15.0901 9.30747C15.5043 9.30747 15.8401 9.64326 15.8401 10.0575V14.1893L16.4168 13.6126Z" fill="currentColor"/>
</svg>
