<svg width="21" height="20" viewBox="0 0 21 20" fill="none" xmlns="http://www.w3.org/2000/svg">
<path fill-rule="evenodd" clip-rule="evenodd" d="M2.30083 9.99984C1.72727 4.69401 2.99383 2.63127 5.90999 1.95324C6.12008 1.90439 6.31648 2.06857 6.31648 2.28507V6.31986C6.31648 6.50254 6.17187 6.6413 5.9976 6.69387C5.91336 6.71928 5.84815 6.75516 5.79767 6.80583C5.62474 6.97944 5.62474 7.32667 5.62474 8.02111C5.62474 8.71556 5.62474 9.06278 5.79767 9.23639C5.9706 9.41 6.31647 9.41 7.00821 9.41C7.69995 9.41 8.04581 9.41 8.21875 9.23639C8.39168 9.06278 8.39168 8.71556 8.39168 8.02111C8.39168 7.32667 8.39168 6.97944 8.21875 6.80583C8.16827 6.75516 8.10307 6.71928 8.01883 6.69387C7.84455 6.6413 7.69995 6.50254 7.69995 6.31986V2.0326C7.69995 1.84954 7.84151 1.69761 8.02366 1.68918C8.36123 1.67356 8.7128 1.6665 9.07821 1.6665C13.1057 1.6665 15.4621 2.52372 15.9188 6.25846C15.9393 6.42632 16.0731 6.55915 16.2403 6.57994C16.9505 6.66824 17.5897 6.88139 18.0657 7.31586C18.7922 7.97886 18.9489 8.96583 18.7583 10.114C18.5801 11.1877 18.2925 12.0667 17.7005 12.661C17.0809 13.283 16.2556 13.4721 15.3091 13.4721C15.3064 13.4721 15.3038 13.472 15.3011 13.472C15.2932 13.4719 15.2861 13.4775 15.2841 13.4853C14.3025 17.437 12.4747 18.3332 9.07821 18.3332C4.84984 18.3332 3.05153 16.9443 2.30083 9.99984ZM15.6477 11.646C15.6131 11.8665 15.7899 12.0685 16.0081 12.0257C16.3495 11.9588 16.5648 11.837 16.7223 11.6789C16.995 11.4052 17.2261 10.8953 17.3937 9.88571C17.5489 8.95051 17.3598 8.54859 17.1351 8.34354C16.9802 8.2022 16.7374 8.08419 16.3744 8.0083C16.175 7.9666 15.9969 8.12684 15.9895 8.33124C15.9708 8.84824 15.929 9.40356 15.8637 9.99984C15.7994 10.5875 15.7277 11.1354 15.6477 11.646Z" fill="currentColor"/>
</svg>
