<svg width="24" height="24" viewBox="0 0 24 24" fill="none" xmlns="http://www.w3.org/2000/svg">
<path fill-rule="evenodd" clip-rule="evenodd" d="M5.06313 16.2625C6.57631 16.3454 9.00112 16.4334 12.4758 16.4334C15.9506 16.4334 18.3749 16.3454 19.8885 16.2625C21.3728 16.1815 22.6123 15.1032 22.7631 13.5732C22.8641 12.5489 22.9517 11.113 22.9517 9.21669C22.9517 7.32033 22.8641 5.88444 22.7631 4.86014C22.6123 3.32973 21.3728 2.25189 19.8885 2.17087C18.3754 2.088 15.9506 2 12.4758 2C9.00112 2 6.57678 2.088 5.06313 2.17087C3.57883 2.25189 2.33942 3.3302 2.18857 4.86014C2.08753 5.88444 2 7.32033 2 9.21669C2 11.113 2.08753 12.5489 2.18857 13.5732C2.33942 15.1036 3.57883 16.1815 5.06313 16.2625ZM12.4758 4.7726C12.6611 4.7726 12.8387 4.84618 12.9697 4.97716C13.1006 5.10813 13.1742 5.28577 13.1742 5.47099V5.89794C13.4948 5.95489 13.8075 6.0496 14.1059 6.18009C14.3359 6.28066 14.5617 6.39752 14.7619 6.54977C15.0617 6.77884 15.1223 7.22954 14.8927 7.52938C14.7808 7.67568 14.6155 7.77181 14.433 7.79684C14.2505 7.82187 14.0655 7.77377 13.9182 7.663C13.5099 7.36596 12.9777 7.23373 12.4758 7.23373C12.1411 7.23373 11.8152 7.33802 11.5884 7.4926C11.3561 7.65043 11.3119 7.79337 11.3119 7.86507C11.3119 8.03315 11.3845 8.12348 11.5293 8.20216C11.8161 8.35813 12.1536 8.42285 12.4777 8.48477L12.6653 8.52156C13.0937 8.60862 13.6477 8.7213 14.09 8.96201C14.6776 9.28187 15.0366 9.85129 15.0366 10.5259C15.0366 11.2141 14.6152 11.7365 14.1492 12.0531C13.8526 12.2517 13.5222 12.3942 13.1742 12.4735V12.9205C13.1742 13.1057 13.1006 13.2833 12.9697 13.4143C12.8387 13.5453 12.6611 13.6189 12.4758 13.6189C12.2906 13.6189 12.113 13.5453 11.982 13.4143C11.851 13.2833 11.7774 13.1057 11.7774 12.9205V12.4931C11.2234 12.3948 10.6405 12.1858 10.1888 11.8408C10.0413 11.7288 9.94426 11.5627 9.91911 11.3792C9.89396 11.1957 9.94275 11.0097 10.0548 10.8621C10.1668 10.7145 10.3328 10.6175 10.5163 10.5924C10.6999 10.5672 10.8859 10.616 11.0334 10.728C11.4376 11.0218 11.9851 11.1577 12.4758 11.1577C12.8092 11.1577 13.1365 11.053 13.3633 10.8984C13.5956 10.7406 13.6398 10.5976 13.6398 10.5259C13.6398 10.3579 13.5672 10.2675 13.4224 10.1888C13.1356 10.0329 12.7985 9.96815 12.4744 9.90623L12.2863 9.86945C11.8585 9.78238 11.3039 9.66971 10.8616 9.429C10.274 9.10913 9.91508 8.53971 9.91508 7.86507C9.91508 7.17693 10.3364 6.65453 10.8025 6.33793C11.099 6.13935 11.4295 5.99685 11.7774 5.9175V5.47099C11.7774 5.28577 11.851 5.10813 11.982 4.97716C12.113 4.84618 12.2906 4.7726 12.4758 4.7726ZM18.5285 8.26455C18.4063 8.26455 18.2852 8.28864 18.1722 8.33543C18.0592 8.38223 17.9566 8.45082 17.8701 8.53729C17.7836 8.62376 17.715 8.72641 17.6682 8.83939C17.6214 8.95236 17.5974 9.07345 17.5974 9.19573C17.5974 9.31802 17.6214 9.43911 17.6682 9.55208C17.715 9.66506 17.7836 9.76771 17.8701 9.85418C17.9566 9.94065 18.0592 10.0092 18.1722 10.056C18.2852 10.1028 18.4063 10.1269 18.5285 10.1269H18.9941C19.2411 10.1269 19.478 10.0288 19.6526 9.85418C19.8272 9.67955 19.9253 9.4427 19.9253 9.19573C19.9253 8.94877 19.8272 8.71192 19.6526 8.53729C19.478 8.36266 19.2411 8.26455 18.9941 8.26455H18.5285ZM5.02635 9.19573C5.02635 8.94877 5.12446 8.71192 5.29909 8.53729C5.47372 8.36266 5.71057 8.26455 5.95754 8.26455H6.42313C6.6701 8.26455 6.90695 8.36266 7.08158 8.53729C7.25621 8.71192 7.35432 8.94877 7.35432 9.19573C7.35432 9.4427 7.25621 9.67955 7.08158 9.85418C6.90695 10.0288 6.6701 10.1269 6.42313 10.1269H5.95754C5.71057 10.1269 5.47372 10.0288 5.29909 9.85418C5.12446 9.67955 5.02635 9.4427 5.02635 9.19573ZM6.71878 20.7052C6.75681 20.6217 6.81091 20.5466 6.87798 20.484C6.94505 20.4215 7.02379 20.3727 7.1097 20.3406C7.19561 20.3085 7.287 20.2936 7.37866 20.2968C7.47032 20.3 7.56046 20.3212 7.64391 20.3593C7.83108 20.4445 8.04293 20.498 8.27247 20.5096C9.25719 20.5595 10.6423 20.6032 12.4758 20.6032C14.3093 20.6032 15.6949 20.5595 16.6797 20.5096C16.9092 20.498 17.1206 20.4445 17.3082 20.3593C17.4763 20.2858 17.6665 20.2814 17.8377 20.3469C18.009 20.4125 18.1476 20.5428 18.2236 20.7098C18.2996 20.8767 18.3069 21.0668 18.2439 21.239C18.1809 21.4113 18.0527 21.5518 17.887 21.6303C17.5288 21.7927 17.1432 21.8859 16.7504 21.905C15.7401 21.9562 14.3317 22 12.4763 22C10.6204 22 9.21157 21.9558 8.20216 21.9046C7.80926 21.8857 7.42349 21.7926 7.06518 21.6303C6.98168 21.5923 6.90648 21.5383 6.84388 21.4712C6.78128 21.4042 6.7325 21.3254 6.70033 21.2395C6.66816 21.1536 6.65323 21.0622 6.6564 20.9705C6.65957 20.8788 6.68076 20.7887 6.71878 20.7052ZM4.67343 17.6057C4.77424 17.4504 4.93258 17.3415 5.11365 17.3029C5.29473 17.2644 5.48371 17.2992 5.63907 17.3999C5.89312 17.5622 6.18531 17.655 6.48645 17.6691C7.77102 17.7394 9.73582 17.8087 12.4758 17.8087C15.2163 17.8087 17.1806 17.7394 18.4652 17.6691C18.7664 17.655 19.0586 17.5622 19.3126 17.3999C19.468 17.3018 19.6558 17.2689 19.8353 17.3083C20.0148 17.3477 20.1715 17.4563 20.2715 17.6105C20.3715 17.7647 20.4067 17.9521 20.3694 18.132C20.3321 18.312 20.2254 18.47 20.0724 18.5718C19.6139 18.8669 19.0861 19.0366 18.5416 19.064C17.23 19.1357 15.2396 19.206 12.4758 19.206C9.71208 19.206 7.72213 19.1357 6.41009 19.064C5.86557 19.0365 5.33774 18.8668 4.87923 18.5718C4.80227 18.5219 4.7359 18.4573 4.68391 18.3818C4.63192 18.3062 4.59532 18.2211 4.57621 18.1314C4.5571 18.0417 4.55585 17.9491 4.57253 17.8589C4.58921 17.7687 4.6235 17.6827 4.67343 17.6057Z" fill="#343433"/>
</svg>
