<svg width="24" height="24" viewBox="0 0 24 24" fill="none" xmlns="http://www.w3.org/2000/svg">
<path d="M 5.041667 12.91569 C 4.02832 12.91569 3.279948 12.972982 2.717773 13.098307 C 2.169922 13.220052 1.86556 13.391927 1.672201 13.588867 C 1.47526 13.782227 1.303385 14.086589 1.181641 14.63444 C 1.056315 15.196615 0.999023 15.944987 0.999023 16.958333 C 0.999023 17.97526 1.056315 18.720052 1.181641 19.282227 C 1.303385 19.830078 1.47526 20.13444 1.672201 20.327799 C 1.86556 20.52474 2.169922 20.696615 2.717773 20.818359 C 3.279948 20.943685 4.02832 21.000977 5.041667 21.000977 C 6.055013 21.000977 6.803385 20.943685 7.36556 20.818359 C 7.913411 20.696615 8.217773 20.52474 8.411133 20.327799 C 8.608073 20.13444 8.779948 19.830078 8.901693 19.282227 C 9.027018 18.720052 9.08431 17.97526 9.08431 16.958333 C 9.08431 15.944987 9.027018 15.196615 8.901693 14.63444 C 8.779948 14.086589 8.608073 13.782227 8.411133 13.588867 C 8.217773 13.391927 7.913411 13.220052 7.36556 13.098307 C 6.803385 12.972982 6.055013 12.91569 5.041667 12.91569 Z M 5.041667 0.999023 C 4.02832 0.999023 3.279948 1.056315 2.717773 1.181641 C 2.169922 1.303385 1.86556 1.47526 1.672201 1.672201 C 1.47526 1.86556 1.303385 2.169922 1.181641 2.717773 C 1.056315 3.279948 0.999023 4.02832 0.999023 5.041667 C 0.999023 6.055013 1.056315 6.803385 1.181641 7.36556 C 1.303385 7.913411 1.47526 8.217773 1.672201 8.411133 C 1.86556 8.608073 2.169922 8.779948 2.717773 8.901693 C 3.279948 9.027018 4.02832 9.08431 5.041667 9.08431 C 6.055013 9.08431 6.803385 9.027018 7.36556 8.901693 C 7.913411 8.779948 8.217773 8.608073 8.411133 8.411133 C 8.608073 8.217773 8.779948 7.913411 8.901693 7.36556 C 9.027018 6.803385 9.08431 6.055013 9.08431 5.041667 C 9.08431 4.02832 9.027018 3.279948 8.901693 2.717773 C 8.779948 2.169922 8.608073 1.86556 8.411133 1.672201 C 8.217773 1.47526 7.913411 1.303385 7.36556 1.181641 C 6.803385 1.056315 6.055013 0.999023 5.041667 0.999023 Z M 16.958333 0.999023 C 15.944987 0.999023 15.196615 1.056315 14.63444 1.181641 C 14.086589 1.303385 13.782227 1.47526 13.588867 1.672201 C 13.391927 1.86556 13.220052 2.169922 13.098307 2.717773 C 12.972982 3.279948 12.91569 4.02832 12.91569 5.041667 C 12.91569 6.055013 12.972982 6.803385 13.098307 7.36556 C 13.220052 7.913411 13.391927 8.217773 13.588867 8.411133 C 13.782227 8.608073 14.086589 8.779948 14.63444 8.901693 C 15.196615 9.027018 15.944987 9.08431 16.958333 9.08431 C 17.97526 9.08431 18.720052 9.027018 19.282227 8.901693 C 19.830078 8.779948 20.13444 8.608073 20.327799 8.411133 C 20.52474 8.217773 20.696615 7.913411 20.818359 7.36556 C 20.943685 6.803385 21.000977 6.055013 21.000977 5.041667 C 21.000977 4.02832 20.943685 3.279948 20.818359 2.717773 C 20.696615 2.169922 20.52474 1.86556 20.327799 1.672201 C 20.13444 1.47526 19.830078 1.303385 19.282227 1.181641 C 18.720052 1.056315 17.97526 0.999023 16.958333 0.999023 Z M 16.958333 0.999023 " stroke="currentColor" stroke-width="2" stroke-linecap="round" stroke-linejoin="round" transform="matrix(1.090909,0,0,1.090909,0,0)"/>
<path d="M 5.476562 4.296875 C 4.378906 4.296875 4.144531 4.53125 4.144531 5.628906 C 4.144531 6.726562 4.378906 6.960938 5.476562 6.960938 C 6.574219 6.960938 6.808594 6.726562 6.808594 5.628906 C 6.808594 4.53125 6.574219 4.296875 5.476562 4.296875 Z M 5.476562 4.296875 " fill="currentColor" />
<path d="M 18.566406 4.296875 C 17.472656 4.296875 17.238281 4.53125 17.238281 5.628906 C 17.238281 6.726562 17.472656 6.960938 18.566406 6.960938 C 19.664062 6.960938 19.898438 6.726562 19.898438 5.628906 C 19.898438 4.53125 19.664062 4.296875 18.566406 4.296875 Z M 18.566406 4.296875 " fill="currentColor" />
<path d="M 5.476562 17.191406 C 4.378906 17.191406 4.144531 17.425781 4.144531 18.523438 C 4.144531 19.621094 4.378906 19.855469 5.476562 19.855469 C 6.574219 19.855469 6.808594 19.621094 6.808594 18.523438 C 6.808594 17.425781 6.574219 17.191406 5.476562 17.191406 Z M 5.476562 17.191406 " fill="currentColor" />
<path d="M 16.191406 20.191406 C 15.09375 20.191406 14.855469 20.425781 14.855469 21.523438 C 14.855469 22.621094 15.09375 22.855469 16.191406 22.855469 C 17.289062 22.855469 17.523438 22.621094 17.523438 21.523438 C 17.523438 20.425781 17.289062 20.191406 16.191406 20.191406 Z M 16.191406 20.191406 " fill="currentColor" />
<path d="M 16.191406 14.855469 C 15.09375 14.855469 14.855469 15.09375 14.855469 16.191406 C 14.855469 17.289062 15.09375 17.523438 16.191406 17.523438 C 17.289062 17.523438 17.523438 17.289062 17.523438 16.191406 C 17.523438 15.09375 17.289062 14.855469 16.191406 14.855469 Z M 16.191406 14.855469 " fill="currentColor" />
<path d="M 18.855469 17.523438 C 17.757812 17.523438 17.523438 17.757812 17.523438 18.855469 C 17.523438 19.957031 17.757812 20.191406 18.855469 20.191406 C 19.957031 20.191406 20.191406 19.957031 20.191406 18.855469 C 20.191406 17.757812 19.957031 17.523438 18.855469 17.523438 Z M 18.855469 17.523438 " fill="currentColor" />
<path d="M 21.523438 20.191406 C 20.425781 20.191406 20.191406 20.425781 20.191406 21.523438 C 20.191406 22.621094 20.425781 22.855469 21.523438 22.855469 C 22.621094 22.855469 22.855469 22.621094 22.855469 21.523438 C 22.855469 20.425781 22.621094 20.191406 21.523438 20.191406 Z M 21.523438 20.191406 " fill="currentColor" />
<path d="M 21.523438 14.855469 C 20.425781 14.855469 20.191406 15.09375 20.191406 16.191406 C 20.191406 17.289062 20.425781 17.523438 21.523438 17.523438 C 22.621094 17.523438 22.855469 17.289062 22.855469 16.191406 C 22.855469 15.09375 22.621094 14.855469 21.523438 14.855469 Z M 21.523438 14.855469 " fill="currentColor" />
</svg>
