<svg viewBox="0 0 16 16" fill="none" xmlns="http://www.w3.org/2000/svg">
<path d="M9.11115 7.44444C9.11115 8.05809 8.61369 8.55556 8.00004 8.55556C7.38639 8.55556 6.88893 8.05809 6.88893 7.44444C6.88893 6.83079 7.38639 6.33333 8.00004 6.33333C8.61369 6.33333 9.11115 6.83079 9.11115 7.44444Z" fill="currentColor"/>
<path fill-rule="evenodd" clip-rule="evenodd" d="M4.66671 13.3133C1.99932 12.7786 1.33337 11.2304 1.33337 7.44444C1.33337 2.41194 2.51004 1.33333 8.00004 1.33333C13.49 1.33333 14.6667 2.41194 14.6667 7.44444C14.6667 11.2304 14.0008 12.7786 11.3334 13.3133V14.1111C11.3334 14.4179 11.0846 14.6667 10.7778 14.6667C10.471 14.6667 10.2223 14.4179 10.2223 14.1111V13.4701C9.57445 13.5305 8.83742 13.5556 8.00004 13.5556C7.16266 13.5556 6.42563 13.5305 5.77782 13.4701V14.1111C5.77782 14.4179 5.52909 14.6667 5.22226 14.6667C4.91544 14.6667 4.66671 14.4179 4.66671 14.1111V13.3133ZM8.55136 5.29115C8.55416 5.26857 8.5556 5.24556 8.5556 5.22222V4.66667C8.5556 4.35984 8.30687 4.11111 8.00004 4.11111C7.69322 4.11111 7.44449 4.35984 7.44449 4.66667V5.22222C7.44449 5.24556 7.44592 5.26857 7.44872 5.29115C6.6644 5.49136 6.04696 6.1088 5.84675 6.89312C5.82416 6.89033 5.80116 6.88889 5.77782 6.88889H5.22226C4.91544 6.88889 4.66671 7.13762 4.66671 7.44444C4.66671 7.75127 4.91544 8 5.22226 8H5.77782C5.80116 8 5.82416 7.99856 5.84675 7.99577C6.04696 8.78008 6.6644 9.39753 7.44872 9.59774C7.44592 9.62032 7.44449 9.64333 7.44449 9.66667V10.2222C7.44449 10.529 7.69322 10.7778 8.00004 10.7778C8.30687 10.7778 8.5556 10.529 8.5556 10.2222V9.66667C8.5556 9.64333 8.55416 9.62032 8.55136 9.59774C9.33568 9.39753 9.95312 8.78008 10.1533 7.99577C10.1759 7.99856 10.1989 8 10.2223 8H10.7778C11.0846 8 11.3334 7.75127 11.3334 7.44444C11.3334 7.13762 11.0846 6.88889 10.7778 6.88889H10.2223C10.1989 6.88889 10.1759 6.89033 10.1533 6.89312C9.95312 6.1088 9.33568 5.49136 8.55136 5.29115Z" fill="currentColor"/>
</svg>
