<svg width="20" height="20" viewBox="0 0 20 20" fill="none" xmlns="http://www.w3.org/2000/svg">
<path d="M10.0001 14.6371C12.561 14.6371 14.6369 12.561 14.6369 10.0002C14.6369 7.43931 12.561 5.36328 10.0001 5.36328C7.43925 5.36328 5.36328 7.43931 5.36328 10.0002C5.36328 12.561 7.43925 14.6371 10.0001 14.6371Z" fill="white"/>
<path d="M4.00322 7.72245C3.65732 7.1233 3.25075 6.49446 2.78344 5.83594C2.05191 7.10269 1.66677 8.5397 1.66675 10.0025C1.66672 11.4653 2.05181 12.9023 2.78329 14.1691C3.51478 15.4359 4.56687 16.4878 5.83381 17.219C7.10074 17.9502 8.53785 18.335 10.0007 18.3346C10.7676 17.2589 11.2884 16.4833 11.5629 16.0078C12.0902 15.0945 12.7721 13.787 13.6086 12.0853V12.0843C13.2432 12.7179 12.7173 13.2442 12.0839 13.6102C11.4505 13.9761 10.7319 14.1688 10.0004 14.1689C9.26884 14.169 8.55018 13.9765 7.91667 13.6108C7.28315 13.245 6.7571 12.7189 6.39142 12.0854C5.25517 9.96638 4.45914 8.51203 4.00322 7.72245Z" fill="#229342"/>
<path d="M10.0005 18.3346C11.0949 18.3348 12.1786 18.1194 13.1896 17.7006C14.2007 17.2819 15.1194 16.6681 15.8932 15.8942C16.667 15.1204 17.2808 14.2017 17.6995 13.1906C18.1181 12.1795 18.3335 11.0958 18.3333 10.0014C18.333 8.53859 17.9477 7.10161 17.2159 5.83496C15.6373 5.67936 14.4722 5.60156 13.7207 5.60156C12.8687 5.60156 11.6284 5.67936 9.99993 5.83496L9.99902 5.83561C10.7306 5.83527 11.4493 6.02755 12.0829 6.39311C12.7166 6.75867 13.2428 7.28463 13.6086 7.91809C13.9745 8.55156 14.1671 9.27021 14.1671 10.0017C14.1671 10.7333 13.9744 11.4519 13.6086 12.0854L10.0005 18.3346Z" fill="#FBC116"/>
<path d="M10.0001 13.3007C11.822 13.3007 13.2989 11.8239 13.2989 10.0019C13.2989 8.17994 11.822 6.70312 10 6.70312C8.17824 6.70312 6.70129 8.18007 6.70129 10.0019C6.70129 11.8238 8.17824 13.3007 10.0001 13.3007Z" fill="#1A73E8"/>
<path d="M10.0002 5.8349H17.2161C16.4849 4.56795 15.433 3.51584 14.1662 2.78438C12.8994 2.05291 11.4624 1.66787 9.99956 1.66797C8.53675 1.66807 7.09974 2.0533 5.83304 2.78494C4.56634 3.51658 3.5146 4.56882 2.78357 5.83587L6.39156 12.0852L6.39253 12.0857C6.02649 11.4524 5.83366 10.7338 5.83345 10.0022C5.83323 9.27072 6.02564 8.55203 6.39131 7.91845C6.75698 7.28488 7.28303 6.75875 7.91655 6.39299C8.55007 6.02723 9.26873 5.83472 10.0003 5.83483L10.0001 5.8349H10.0002Z" fill="#E33B2E"/>
</svg>
