<svg width="1em" height="1em" viewBox="0 0 32 32" fill="none" xmlns="http://www.w3.org/2000/svg">
<path fill-rule="evenodd" clip-rule="evenodd" d="M2.0828 2.0828C0 4.16559 0 7.5178 0 14.2222V17.7778C0 24.4822 0 27.8344 2.0828 29.9172C4.16559 32 7.5178 32 14.2222 32H17.7778C24.4822 32 27.8344 32 29.9172 29.9172C32 27.8344 32 24.4822 32 17.7778V14.2222C32 7.5178 32 4.16559 29.9172 2.0828C27.8344 0 24.4822 0 17.7778 0H14.2222C7.5178 0 4.16559 0 2.0828 2.0828ZM8.24896 4.97778H23.7512V8.10666H28.1601L27.2356 11.2356H26.4534V23.8933C26.8461 23.8933 27.1645 24.2117 27.1645 24.6044V25.4578H27.3067C27.6995 25.4578 28.0178 25.7762 28.0178 26.1689V27.0222H23.7512H21.4756H20.0534V26.1689C20.0534 25.7762 20.3718 25.4578 20.7645 25.4578H20.9067V24.6044C20.9067 24.2604 21.151 23.9734 21.4756 23.9076V16.9244H21.4533C21.2018 14.1337 18.8563 11.9467 16.0001 11.9467C13.1438 11.9467 10.7983 14.1337 10.5468 16.9244H10.5245V23.8933H10.6667C11.0595 23.8933 11.3778 24.2117 11.3778 24.6044V25.4578H11.5201C11.9128 25.4578 12.2312 25.7762 12.2312 26.1689V27.0222H10.5245H8.24896H4.26673V26.1689C4.26673 25.7762 4.58511 25.4578 4.97785 25.4578H5.12007V24.6044C5.12007 24.2117 5.43844 23.8933 5.83118 23.8933V11.2356H5.04896L4.12451 8.10666H8.24896V4.97778Z" fill="currentColor"/>
</svg>