<svg width="24" height="18" viewBox="0 0 24 18" fill="none" xmlns="http://www.w3.org/2000/svg">
<path d="M23.47 3.13203C23.3323 2.6233 23.0638 2.15951 22.6911 1.78684C22.3185 1.41417 21.8547 1.14562 21.346 1.00794C19.4835 0.5 11.9878 0.5 11.9878 0.5C11.9878 0.5 4.49177 0.515375 2.62933 1.02331C2.1206 1.161 1.65681 1.42956 1.28415 1.80225C0.911497 2.17494 0.642976 2.63875 0.505331 3.1475C-0.0580132 6.45669 -0.276545 11.4991 0.520799 14.6759C0.658459 15.1847 0.926986 15.6485 1.29964 16.0211C1.6723 16.3938 2.13608 16.6623 2.6448 16.8C4.50724 17.308 12.0031 17.308 12.0031 17.308C12.0031 17.308 19.4989 17.308 21.3612 16.8C21.87 16.6624 22.3338 16.3938 22.7064 16.0211C23.0791 15.6485 23.3477 15.1847 23.4853 14.6759C24.0795 11.3621 24.2626 6.32272 23.47 3.13203Z" fill="#FF0000"/>
<path d="M9.60199 12.5056L15.8202 8.90393L9.60199 5.30225V12.5056Z" fill="white"/>
</svg>
