<svg width="1rem" height="1rem" viewBox="0 0 20 20" fill="currentColor" xmlns="http://www.w3.org/2000/svg">
<path fill-rule="evenodd" clip-rule="evenodd" d="M15.8229 8.71671C15.607 8.63066 15.3715 8.58333 15.125 8.58333C14.0837 8.58333 13.2395 9.42746 13.2395 10.4687V11.2396H12.4687C11.4274 11.2396 10.5833 12.0837 10.5833 13.125C10.5833 14.1663 11.4274 15.0104 12.4687 15.0104H13.2395V15.7812C13.2395 15.8873 13.2483 15.9913 13.2651 16.0926C12.2086 16.52 10.7482 16.6667 8.74996 16.6667C4.16905 16.6667 2.4146 15.8956 1.87244 12.7393C1.85411 12.6326 1.93695 12.5347 2.04527 12.5347H5.79857C6.18616 12.5347 6.56992 12.4584 6.928 12.3101C7.28608 12.1617 7.61145 11.9443 7.88551 11.6703C8.15957 11.3962 8.37696 11.0708 8.52529 10.7128C8.67362 10.3547 8.74996 9.97092 8.74996 9.58333C8.74996 9.19575 8.67362 8.81198 8.52529 8.4539C8.37696 8.09582 8.15957 7.77046 7.88551 7.49639C7.61145 7.22233 7.28608 7.00494 6.928 6.85661C6.56992 6.70829 6.18616 6.63194 5.79857 6.63194H2.04527C1.93695 6.63194 1.85411 6.53408 1.87244 6.42732C2.4146 3.27105 4.16905 2.5 8.74996 2.5C14.2822 2.5 15.6921 3.62454 15.8229 8.71671ZM14.2395 15.5287V15.0104V14.0104H13.2395H12.4687C11.9797 14.0104 11.5833 13.614 11.5833 13.125C11.5833 12.636 11.9797 12.2396 12.4687 12.2396H13.2395H14.2395V11.2396V10.4687C14.2395 9.97975 14.636 9.58333 15.125 9.58333C15.4136 9.58333 15.6701 9.72149 15.8317 9.93529C15.8046 12.8492 15.4265 14.5611 14.2395 15.5287ZM1.70687 11.1886C1.67895 10.6965 1.66663 10.1625 1.66663 9.58333C1.66663 9.00415 1.67895 8.47015 1.70687 7.97807C1.71215 7.8849 1.78954 7.8125 1.88286 7.8125H5.79857C6.03113 7.8125 6.26138 7.85829 6.47625 7.94728C6.69108 8.0363 6.88632 8.16672 7.05075 8.33115C7.21518 8.49558 7.3456 8.69082 7.43462 8.90565C7.52361 9.12052 7.5694 9.35077 7.5694 9.58333C7.5694 9.81589 7.52361 10.0461 7.43462 10.261C7.3456 10.4758 7.21518 10.6711 7.05075 10.8355C6.88632 10.9999 6.69108 11.1304 6.47625 11.2194C6.26138 11.3084 6.03113 11.3542 5.79857 11.3542H1.88286C1.78954 11.3542 1.71215 11.2818 1.70687 11.1886ZM5.79857 9.58333C5.79857 9.25733 5.53429 8.99305 5.20829 8.99305H4.02774C3.70174 8.99305 3.43746 9.25733 3.43746 9.58333C3.43746 9.90933 3.70174 10.1736 4.02774 10.1736H5.20829C5.53429 10.1736 5.79857 9.90933 5.79857 9.58333Z" fill="white"/>
<path d="M15.125 10.4688V15.7812" stroke="white" stroke-width="1.5" stroke-linecap="round"/>
<path d="M17.7812 13.125L12.4688 13.125" stroke="white" stroke-width="1.5" stroke-linecap="round"/>
</svg>
