<svg width="48" height="48" viewBox="0 0 48 48" fill="none" xmlns="http://www.w3.org/2000/svg">
<path d="M47.2766 29.8057C44.0712 42.663 31.0489 50.4877 18.1901 47.2815C5.33667 44.0761 -2.48802 31.053 0.718765 18.1967C3.92273 5.33806 16.9451 -2.48721 29.7999 0.718162C42.6577 3.92354 50.4819 16.9481 47.2762 29.806L47.2765 29.8057H47.2766Z" fill="#F3BA2F"/>
<path fill-rule="evenodd" clip-rule="evenodd" d="M24 15.232L17.7853 21.4467L17.7855 21.4464L14.1696 17.8304L24 8L33.8336 17.8333L30.2176 21.4493L24 15.232ZM11.6161 20.3834L8 24L11.6159 27.6154L15.232 23.9992L11.6161 20.3834ZM17.7853 26.5537L24 32.768L30.2175 26.5508L33.8354 30.1649L33.8336 30.1668L24 40L14.1696 30.1696L14.1645 30.1645L17.7853 26.5537ZM36.3841 20.3854L32.768 24.0015L36.384 27.6174L40 24.0013L36.3841 20.3854Z" fill="white"/>
<path d="M27.6672 23.9981H27.6688L23.9998 20.3289L21.2878 23.04L20.9763 23.3517L20.3337 23.9944L20.3286 23.9994L20.3337 24.0046L23.9998 27.6712L27.669 24.0019L27.6708 23.9999L27.6675 23.9981" fill="white"/>
</svg>
