<svg width="48" height="48" viewBox="0 0 48 48" fill="none" xmlns="http://www.w3.org/2000/svg">
<path d="M47.2819 29.8057C44.0766 42.663 31.0542 50.4877 18.1954 47.2815C5.34204 44.0761 -2.48265 31.053 0.724136 18.1967C3.9281 5.33806 16.9504 -2.48721 29.8052 0.718162C42.6631 3.92354 50.4873 16.9481 47.2816 29.806L47.2818 29.8057H47.2819Z" fill="#F7931A"/>
<path fill-rule="evenodd" clip-rule="evenodd" d="M34.5855 20.5805C35.0632 17.3867 32.6316 15.6698 29.3066 14.5245L30.3852 10.1982L27.7516 9.54193L26.7016 13.7544C26.0092 13.5817 25.2982 13.419 24.5915 13.2577L25.6492 9.01744L23.0172 8.36121L21.938 12.6862C21.365 12.5557 20.8023 12.4268 20.2563 12.291L20.2594 12.2774L16.6276 11.3704L15.927 14.1833C15.927 14.1833 17.8809 14.6312 17.8398 14.6587C18.9062 14.9249 19.0991 15.6309 19.0671 16.1905L17.8384 21.1192C17.9118 21.1379 18.007 21.1649 18.1122 21.2071L18.0356 21.188L18.0355 21.188C17.9706 21.1717 17.9031 21.1548 17.8338 21.1382L16.1116 28.0427C15.9812 28.3668 15.6504 28.853 14.9048 28.6684C14.9312 28.7066 12.9906 28.1907 12.9906 28.1907L11.6831 31.2053L15.1103 32.0597C15.4856 32.1538 15.8564 32.2505 16.2235 32.3462L16.2236 32.3462C16.4801 32.413 16.7349 32.4794 16.988 32.5442L15.8982 36.9202L18.5287 37.5764L19.608 33.2468C20.3266 33.4419 21.024 33.6219 21.7068 33.7915L20.6311 38.1007L23.2649 38.7569L24.3546 34.3891C28.8454 35.239 32.2222 34.8963 33.6435 30.8344C34.7888 27.564 33.5865 25.6777 31.2239 24.4475C32.9447 24.0507 34.2408 22.9189 34.5864 20.5809L34.5856 20.5803L34.5855 20.5805ZM28.5683 29.0182C27.8216 32.0186 23.1251 30.7782 20.9762 30.2106C20.7829 30.1596 20.6103 30.114 20.4629 30.0774L21.9091 24.2799C22.0886 24.3247 22.308 24.374 22.5566 24.4297L22.5567 24.4298C24.7794 24.9286 29.3334 25.9506 28.5684 29.0182H28.5683ZM23.0025 21.7391C24.794 22.2172 28.7022 23.2602 29.3828 20.5332H29.383C30.078 17.7441 26.28 16.9032 24.425 16.4925C24.2163 16.4463 24.0323 16.4055 23.8819 16.3681L22.5707 21.626C22.6945 21.6569 22.8398 21.6956 23.0025 21.7391Z" fill="white"/>
</svg>
