<svg width="24" height="24" viewBox="0 0 24 24" xmlns="http://www.w3.org/2000/svg">
<path fill-rule="evenodd" clip-rule="evenodd" d="M12 22C3.765 22 2 20.235 2 12C2 3.765 3.765 2 12 2C20.235 2 22 3.765 22 12C22 20.235 20.235 22 12 22ZM11.0077 17.1918C10.5559 17.104 10.2609 16.6666 10.3487 16.2148L12.0088 7.67438C12.0966 7.22259 12.534 6.92754 12.9858 7.01536C13.4376 7.10318 13.7326 7.54061 13.6448 7.99239L11.9847 16.5328C11.8969 16.9846 11.4595 17.2796 11.0077 17.1918ZM9.25595 10.9226C9.58138 10.5972 9.58138 10.0695 9.25595 9.74409C8.93051 9.41865 8.40287 9.41865 8.07744 9.74409L6.41077 11.4108C6.08533 11.7362 6.08533 12.2638 6.41077 12.5893L8.07744 14.2559C8.40287 14.5814 8.93051 14.5814 9.25595 14.2559C9.58138 13.9305 9.58138 13.4029 9.25595 13.0774L8.17854 12L9.25595 10.9226ZM14.7441 10.9226C14.4187 10.5972 14.4187 10.0695 14.7441 9.74409C15.0695 9.41865 15.5972 9.41865 15.9226 9.74409L17.5893 11.4108C17.9147 11.7362 17.9147 12.2638 17.5893 12.5893L15.9226 14.2559C15.5972 14.5814 15.0695 14.5814 14.7441 14.2559C14.4187 13.9305 14.4187 13.4029 14.7441 13.0774L15.8215 12L14.7441 10.9226Z" fill="currentColor"/>
</svg>