<svg width="24" height="24" viewBox="0 0 24 24" xmlns="http://www.w3.org/2000/svg">
<path d="M12.0098 15.6305C9.99021 15.6305 8.37256 14.0039 8.37256 11.995C8.37256 9.98622 9.99021 8.35957 12.0098 8.35957C14.0196 8.35957 15.6373 9.98622 15.6373 11.995C15.6373 14.0039 14.0196 15.6305 12.0098 15.6305ZM5.27451 7.08569C5.77452 6.38015 6.37256 5.77261 7.06863 5.27285L9.00982 7.21308C8.29413 7.67364 7.65688 8.29098 7.2059 9.01611L5.27451 7.08569ZM18.7255 7.09549L16.7844 9.02591C16.3431 8.30078 15.7059 7.68344 14.9902 7.22287L16.9314 5.28265C17.6275 5.78241 18.2255 6.39975 18.7255 7.09549ZM18.7255 16.875C18.2353 17.5707 17.6275 18.1881 16.9412 18.6878L14.9902 16.7476C15.7157 16.287 16.3431 15.6697 16.7942 14.9446L18.7255 16.875ZM5.28432 16.8848L7.2157 14.9544C7.66668 15.6795 8.29413 16.2969 9.00982 16.7574L7.06863 18.6977C6.38236 18.1979 5.77452 17.5903 5.28432 16.8848ZM12 22C17.4706 22 22 17.4727 22 12.0048C22 6.54674 17.4608 2.00975 11.9902 2.00975C6.52942 2.00975 2 6.54674 2 12.0048C2 17.4727 6.53922 22 12 22Z" fill="currentColor"/>
</svg>