<svg width="1rem" height="1rem" viewBox="0 0 30 30" fill="none" xmlns="http://www.w3.org/2000/svg">
<path d="M7.75185 18.2978C7.75185 19.7436 6.57268 20.9246 5.12662 20.9246C3.68075 20.9246 2.5 19.7436 2.5 18.2978C2.5 16.8519 3.68095 15.671 5.12681 15.671H7.75205L7.75185 18.2978ZM9.07522 18.2978C9.07522 16.8519 10.2562 15.671 11.702 15.671C13.1479 15.671 14.3288 16.8517 14.3288 18.2978V24.8732C14.3288 26.3191 13.1481 27.5 11.702 27.5C10.2562 27.5 9.07522 26.3191 9.07522 24.8732V18.2978Z" fill="currentColor"/>
<path d="M11.702 7.75185C10.2562 7.75185 9.07522 6.57268 9.07522 5.12662C9.07522 3.68075 10.2562 2.5 11.702 2.5C13.1479 2.5 14.3288 3.68095 14.3288 5.12681V7.75205L11.702 7.75185ZM11.702 9.07522C13.1479 9.07522 14.3288 10.2562 14.3288 11.702C14.3288 13.1479 13.1481 14.3288 11.702 14.3288H5.12662C3.68075 14.3288 2.5 13.1481 2.5 11.702C2.5 10.2562 3.68095 9.07522 5.12681 9.07522H11.702Z" fill="currentColor"/>
<path d="M22.248 11.702C22.248 10.2562 23.4272 9.07522 24.8733 9.07522C26.3191 9.07522 27.5001 10.2562 27.5001 11.702C27.5001 13.1479 26.3191 14.3288 24.8733 14.3288H22.248V11.702ZM20.9247 11.702C20.9247 13.1479 19.7437 14.3288 18.2978 14.3288C16.852 14.3288 15.671 13.1481 15.671 11.702V5.12662C15.671 3.68075 16.8518 2.5 18.2978 2.5C19.7437 2.5 20.9247 3.68095 20.9247 5.12681V11.702Z" fill="currentColor"/>
<path d="M18.2978 22.248C19.7437 22.248 20.9247 23.4271 20.9247 24.8732C20.9247 26.3191 19.7437 27.5 18.2978 27.5C16.852 27.5 15.671 26.3191 15.671 24.8732V22.248H18.2978ZM18.2978 20.9246C16.852 20.9246 15.671 19.7436 15.671 18.2978C15.671 16.8519 16.8518 15.671 18.2978 15.671H24.8733C26.3191 15.671 27.5001 16.8517 27.5001 18.2978C27.5001 19.7436 26.3191 20.9246 24.8733 20.9246H18.2978Z" fill="currentColor"/>
</svg>
