<svg width="30" height="30" viewBox="0 0 30 30" fill="none" xmlns="http://www.w3.org/2000/svg">
<circle cx="15" cy="15" r="10" fill="white"/>
<path d="M15 2.5C8.1 2.5 2.5 8.1 2.5 15C2.5 21.9 8.1 27.5 15 27.5C21.9 27.5 27.5 21.9 27.5 15C27.5 8.1 21.9 2.5 15 2.5ZM20.8 11C20.6125 12.975 19.8 17.775 19.3875 19.9875C19.2125 20.925 18.8625 21.2375 18.5375 21.275C17.8125 21.3375 17.2625 20.8 16.5625 20.3375C15.4625 19.6125 14.8375 19.1625 13.775 18.4625C12.5375 17.65 13.3375 17.2 14.05 16.475C14.2375 16.2875 17.4375 13.375 17.5 13.1125C17.5087 13.0727 17.5075 13.0315 17.4966 12.9923C17.4857 12.953 17.4654 12.9171 17.4375 12.8875C17.3625 12.825 17.2625 12.85 17.175 12.8625C17.0625 12.8875 15.3125 14.05 11.9 16.35C11.4 16.6875 10.95 16.8625 10.55 16.85C10.1 16.8375 9.25 16.6 8.6125 16.3875C7.825 16.1375 7.2125 16 7.2625 15.5625C7.2875 15.3375 7.6 15.1125 8.1875 14.875C11.8375 13.2875 14.2625 12.2375 15.475 11.7375C18.95 10.2875 19.6625 10.0375 20.1375 10.0375C20.2375 10.0375 20.475 10.0625 20.625 10.1875C20.75 10.2875 20.7875 10.425 20.8 10.525C20.7875 10.6 20.8125 10.825 20.8 11Z" fill="url(#paint0_linear_1042_266)"/>
<defs>
<linearGradient id="paint0_linear_1042_266" x1="1252.5" y1="2.5" x2="1252.5" y2="2502.5" gradientUnits="userSpaceOnUse">
<stop stop-color="#2AABEE"/>
<stop offset="1" stop-color="#229ED9"/>
</linearGradient>
</defs>
</svg>
