<svg width="16" height="16" viewBox="0 0 16 16" fill="none" xmlns="http://www.w3.org/2000/svg">
<path d="M2.66699 7.66667C2.66699 12.3332 3.66716 13.3333 8.33367 13.3333C11.9984 13.3333 13.402 12.7165 13.8357 10.1915C13.8504 10.1061 13.7841 10.0278 13.6974 10.0278H10.6948C10.3847 10.0278 10.0777 9.9667 9.79123 9.84804C9.50477 9.72938 9.24448 9.55547 9.02523 9.33622C8.80598 9.11697 8.63206 8.85668 8.5134 8.57021C8.39474 8.28375 8.33367 7.97674 8.33367 7.66667C8.33367 7.3566 8.39474 7.04958 8.5134 6.76312C8.63206 6.47666 8.80598 6.21636 9.02523 5.99711C9.24448 5.77786 9.50477 5.60395 9.79123 5.48529C10.0777 5.36663 10.3847 5.30556 10.6948 5.30556H13.6974C13.7841 5.30556 13.8504 5.22726 13.8357 5.14186C13.402 2.61684 11.9984 2 8.33367 2C3.66716 2 2.66699 3.00017 2.66699 7.66667Z" fill="currentColor"/>
<path fill-rule="evenodd" clip-rule="evenodd" d="M14.0003 7.66667C14.0003 8.13001 13.9905 8.55721 13.9682 8.95088C13.9639 9.02542 13.902 9.08333 13.8274 9.08333H10.6948C10.5087 9.08333 10.3245 9.0467 10.1526 8.97551C9.98077 8.90429 9.82458 8.79995 9.69304 8.66841C9.56149 8.53687 9.45716 8.38068 9.38594 8.20881C9.31475 8.03692 9.27811 7.85271 9.27811 7.66667C9.27811 7.48062 9.31475 7.29642 9.38594 7.12452C9.45716 6.95266 9.56149 6.79647 9.69304 6.66492C9.82458 6.53338 9.98077 6.42904 10.1526 6.35782C10.3245 6.28663 10.5087 6.25 10.6948 6.25H13.8274C13.902 6.25 13.9639 6.30792 13.9682 6.38246C13.9905 6.77612 14.0003 7.20332 14.0003 7.66667ZM11.167 7.19444C10.9062 7.19444 10.6948 7.40587 10.6948 7.66667C10.6948 7.92747 10.9062 8.13889 11.167 8.13889H12.1115C12.3723 8.13889 12.5837 7.92747 12.5837 7.66667C12.5837 7.40587 12.3723 7.19444 12.1115 7.19444H11.167Z" fill="currentColor"/>
</svg>
