<svg xmlns="http://www.w3.org/2000/svg" width="200" height="200" viewBox="0 0 200 200" version="1.1"><path d="M 84.309 44.815 C 61.100 52.669, 46.595 72.863, 46.669 97.216 C 46.701 107.689, 47.585 110, 51.563 110 C 54.961 110, 55.516 108.382, 55.165 99.500 C 54.626 85.872, 58.253 75.603, 67.121 65.654 C 82.159 48.781, 107.650 45.583, 127.185 58.119 C 140.784 66.845, 149.147 84.353, 147.631 100.923 C 146.985 107.975, 147.849 110, 151.500 110 C 155.440 110, 156.308 107.665, 156.253 97.214 C 156.167 80.827, 150.510 67.672, 138.849 56.740 C 124.085 42.899, 103.361 38.367, 84.309 44.815 M 71.160 103.166 C 60.474 115.885, 54.407 121, 50.005 121 C 46.471 121, 43.190 124.492, 44.609 126.742 C 46.641 129.964, 48.436 130.306, 54.322 128.595 C 59.018 127.230, 61.334 125.666, 67.467 119.719 L 74.911 112.500 80.344 118.142 C 88.110 126.208, 94.087 129.476, 100.986 129.429 C 108.154 129.380, 113.458 126.603, 121.650 118.610 L 128.001 112.413 133.098 117.790 C 144.436 129.752, 158 133.904, 158 125.413 C 158 122.955, 155.447 121, 152.237 121 C 148.804 121, 141.349 115.098, 135.881 108.049 C 129.227 99.473, 127.493 98.702, 124.059 102.792 C 122.652 104.468, 119.825 107.849, 117.779 110.306 C 112.607 116.515, 105.561 121, 100.979 121 C 95.555 121, 89.351 115.969, 78.326 102.631 C 75.517 99.232, 74.394 99.316, 71.160 103.166 M 71.160 127.250 C 69.697 129.037, 65.499 133.530, 61.830 137.232 C 56.656 142.456, 54.114 144.245, 50.492 145.213 C 45.232 146.620, 43.359 148.935, 45 152 C 47.695 157.036, 59.351 152.476, 68.694 142.730 L 74.666 136.500 80.627 142.576 C 88.558 150.658, 96.256 154.485, 102.982 153.688 C 109.619 152.902, 112.830 151.069, 120.902 143.454 L 127.766 136.979 134.021 143.099 C 145.340 154.175, 158.810 157.789, 157.830 149.487 C 157.548 147.095, 156.750 146.448, 152.301 145.003 C 146.202 143.023, 141.354 139.543, 136.788 133.871 C 128.642 123.751, 128.524 123.649, 126.275 124.853 C 125.122 125.470, 123.218 127.529, 122.044 129.428 C 119.194 134.041, 109.323 142.966, 105.140 144.715 C 99.071 147.251, 91.147 142.785, 82.725 132.080 C 75.231 122.555, 75.060 122.484, 71.160 127.250" stroke="none" fill="#f6f9fb" fill-rule="evenodd"/><path d="M -0 100.005 L -0 200.010 100.250 199.755 L 200.500 199.500 200.755 99.750 L 201.010 0 100.505 0 L 0 0 -0 100.005 M 0.481 100.500 C 0.481 155.500, 0.602 178.147, 0.750 150.826 C 0.898 123.506, 0.898 78.506, 0.750 50.826 C 0.602 23.147, 0.481 45.500, 0.481 100.500 M 84.309 44.815 C 61.100 52.669, 46.595 72.863, 46.669 97.216 C 46.701 107.689, 47.585 110, 51.563 110 C 54.961 110, 55.516 108.382, 55.165 99.500 C 54.626 85.872, 58.253 75.603, 67.121 65.654 C 82.159 48.781, 107.650 45.583, 127.185 58.119 C 140.784 66.845, 149.147 84.353, 147.631 100.923 C 146.985 107.975, 147.849 110, 151.500 110 C 155.440 110, 156.308 107.665, 156.253 97.214 C 156.167 80.827, 150.510 67.672, 138.849 56.740 C 124.085 42.899, 103.361 38.367, 84.309 44.815 M 71.160 103.166 C 60.474 115.885, 54.407 121, 50.005 121 C 46.471 121, 43.190 124.492, 44.609 126.742 C 46.641 129.964, 48.436 130.306, 54.322 128.595 C 59.018 127.230, 61.334 125.666, 67.467 119.719 L 74.911 112.500 80.344 118.142 C 88.110 126.208, 94.087 129.476, 100.986 129.429 C 108.154 129.380, 113.458 126.603, 121.650 118.610 L 128.001 112.413 133.098 117.790 C 144.436 129.752, 158 133.904, 158 125.413 C 158 122.955, 155.447 121, 152.237 121 C 148.804 121, 141.349 115.098, 135.881 108.049 C 129.227 99.473, 127.493 98.702, 124.059 102.792 C 122.652 104.468, 119.825 107.849, 117.779 110.306 C 112.607 116.515, 105.561 121, 100.979 121 C 95.555 121, 89.351 115.969, 78.326 102.631 C 75.517 99.232, 74.394 99.316, 71.160 103.166 M 71.160 127.250 C 69.697 129.037, 65.499 133.530, 61.830 137.232 C 56.656 142.456, 54.114 144.245, 50.492 145.213 C 45.232 146.620, 43.359 148.935, 45 152 C 47.695 157.036, 59.351 152.476, 68.694 142.730 L 74.666 136.500 80.627 142.576 C 88.558 150.658, 96.256 154.485, 102.982 153.688 C 109.619 152.902, 112.830 151.069, 120.902 143.454 L 127.766 136.979 134.021 143.099 C 145.340 154.175, 158.810 157.789, 157.830 149.487 C 157.548 147.095, 156.750 146.448, 152.301 145.003 C 146.202 143.023, 141.354 139.543, 136.788 133.871 C 128.642 123.751, 128.524 123.649, 126.275 124.853 C 125.122 125.470, 123.218 127.529, 122.044 129.428 C 119.194 134.041, 109.323 142.966, 105.140 144.715 C 99.071 147.251, 91.147 142.785, 82.725 132.080 C 75.231 122.555, 75.060 122.484, 71.160 127.250" stroke="none" fill="#3795f1" fill-rule="evenodd"/></svg>